# Blender v2.93.2 OBJ File: 'cubeTexturePower.blend'
# www.blender.org
mtllib piece9.mtl
o Rubiks_Cube_Cube.009_piece9
v -1.101342 0.897260 -3.000000
v -2.898658 0.947865 -2.986461
v -1.101342 0.947865 -2.986461
v -1.013539 0.897260 -2.949262
v -1.050738 -0.000000 -2.986461
v -1.050738 0.897260 -2.986461
v -2.898658 0.897260 -3.000000
v -2.949262 -0.000000 -2.986461
v -2.949262 0.897260 -2.986461
v -1.050738 0.897260 -1.013539
v -1.013539 -0.000000 -1.050738
v -1.013539 0.897260 -1.050738
v -3.000000 0.897260 -2.898658
v -2.986461 0.947865 -1.101342
v -2.986461 0.947865 -2.898658
v -2.898658 0.985064 -2.949262
v -1.101342 0.985064 -2.949262
v -2.898658 0.998603 -2.898658
v -1.101342 0.998603 -2.898658
v -1.050738 0.985064 -1.101342
v -1.101342 0.998603 -1.101342
v -2.986461 -0.000000 -2.949262
v -2.986461 0.897260 -2.949262
v -2.949262 0.985064 -2.898658
v -2.898658 0.998603 -1.101342
v -1.101342 -0.000000 -3.000000
v -1.000000 0.897260 -2.898658
v -1.013539 -0.000000 -2.949262
v -3.000000 -0.000000 -2.898658
v -1.101342 0.897260 -1.000000
v -1.050738 -0.000000 -1.013539
v -1.013539 0.947865 -2.898658
v -1.052879 0.971912 -2.947121
v -1.050738 0.985064 -2.898658
v -2.898658 0.897260 -1.000000
v -1.101342 0.947865 -1.013539
v -2.898658 0.947865 -1.013539
v -2.949262 -0.000000 -1.013539
v -2.986461 0.897260 -1.050738
v -2.986461 -0.000000 -1.050738
v -2.947121 0.945723 -2.973310
v -2.947121 0.971912 -2.947121
v -2.973310 0.945723 -2.947121
v -1.026690 0.945723 -2.947121
v -1.052879 0.945723 -2.973310
v -2.898658 -0.000000 -1.000000
v -2.949262 0.897260 -1.013539
v -1.101342 0.985064 -1.050738
v -2.898658 0.985064 -1.050738
v -1.052879 0.971912 -1.052879
v -1.052879 0.945723 -1.026690
v -1.026690 0.945723 -1.052879
v -1.013539 0.947865 -1.101342
v -2.973310 0.945723 -1.052879
v -2.947121 0.945723 -1.026690
v -2.947121 0.971912 -1.052879
v -2.949262 0.985064 -1.101342
v -1.000000 0.897260 -1.101342
v -3.000000 0.897260 -1.101342
v -3.000000 -0.000000 -1.101342
v -1.101342 -0.000000 -1.000000
v -2.898658 -0.000000 -3.000000
v -1.000000 -0.000000 -2.898658
v -1.000000 -0.000000 -1.101342
v -2.898658 -0.947865 -2.986461
v -1.101342 -0.897260 -3.000000
v -1.101342 -0.947865 -2.986461
v -1.013539 -0.897260 -2.949262
v -1.050738 -0.897260 -2.986461
v -2.898658 -0.897260 -3.000000
v -2.949262 -0.897260 -2.986461
v -1.050738 -0.897260 -1.013539
v -1.013539 -0.897260 -1.050738
v -2.986461 -0.947865 -1.101342
v -3.000000 -0.897260 -2.898658
v -2.986461 -0.947865 -2.898658
v -2.898658 -0.985065 -2.949262
v -1.101342 -0.985064 -2.949262
v -2.898658 -0.998603 -2.898658
v -1.101342 -0.998603 -2.898658
v -1.050738 -0.985064 -1.101342
v -1.101342 -0.998603 -1.101342
v -2.986461 -0.897260 -2.949262
v -2.898658 -0.998603 -1.101342
v -2.949262 -0.985065 -2.898658
v -1.000000 -0.897260 -2.898658
v -1.101342 -0.897260 -1.000000
v -1.013539 -0.947865 -2.898658
v -1.052879 -0.971912 -2.947121
v -1.026690 -0.945723 -2.947121
v -1.101342 -0.947865 -1.013539
v -2.898658 -0.897260 -1.000000
v -2.898658 -0.947865 -1.013539
v -2.986461 -0.897260 -1.050738
v -1.050738 -0.985064 -2.898658
v -2.947121 -0.945723 -2.973310
v -2.973310 -0.945723 -2.947121
v -2.947121 -0.971913 -2.947121
v -1.052879 -0.945723 -2.973310
v -2.949262 -0.897260 -1.013539
v -1.101342 -0.985064 -1.050738
v -2.898658 -0.985065 -1.050738
v -1.052879 -0.971912 -1.052879
v -1.026690 -0.945723 -1.052879
v -1.052879 -0.945723 -1.026690
v -1.013539 -0.947865 -1.101342
v -2.973310 -0.945723 -1.052879
v -2.947121 -0.971913 -1.052879
v -2.947121 -0.945723 -1.026690
v -2.949262 -0.985065 -1.101342
v -1.000000 -0.897260 -1.101342
v -3.000000 -0.897260 -1.101342
vt 0.583496 0.250000
vt 0.500000 0.333008
vt 0.500000 0.250000
vt 0.500000 0.250000
vt 0.416504 0.333008
vt 0.416504 0.250000
vt 0.500000 0.166992
vt 0.416504 0.166992
vt 0.583496 0.333008
vt 0.500000 0.333008
vt 0.583496 0.166992
vt 0.500000 0.166992
vt 0.916504 0.758789
vt 0.983398 0.763672
vt 0.916504 0.763672
vt 0.985352 0.910156
vt 0.986816 0.842773
vt 0.986816 0.910156
vt 0.983398 0.758789
vt 0.985352 0.690430
vt 0.985352 0.758789
vt 0.838867 0.758789
vt 0.840332 0.690430
vt 0.840332 0.758789
vt 0.842285 0.772461
vt 0.840332 0.910156
vt 0.840332 0.772461
vt 0.839355 0.773438
vt 0.837891 0.910156
vt 0.837891 0.773438
vt 0.835938 0.910156
vt 0.835938 0.773438
vt 0.766602 0.769531
vt 0.766602 0.773438
vt 0.986816 0.690430
vt 0.986816 0.758789
vt 0.835938 0.914062
vt 0.766602 0.910156
vt 0.914551 0.758789
vt 0.916504 0.690430
vt 0.983398 0.910156
vt 0.985352 0.842773
vt 0.842285 0.767578
vt 0.876465 0.770508
vt 0.836914 0.758789
vt 0.838867 0.690430
vt 0.983887 0.914062
vt 0.985840 0.916992
vt 0.983887 0.916992
vt 0.767578 0.758789
vt 0.836914 0.763672
vt 0.767578 0.763672
vt 0.876465 0.916016
vt 0.842285 0.913086
vt 0.876465 0.913086
vt 0.835938 0.769531
vt 0.985352 0.763672
vt 0.985352 0.764648
vt 0.986328 0.763672
vt 0.837891 0.914062
vt 0.835938 0.916992
vt 0.983887 0.766602
vt 0.837891 0.769531
vt 0.985352 0.914062
vt 0.986816 0.914062
vt 0.767578 0.690430
vt 0.765625 0.758789
vt 0.765625 0.690430
vt 0.836914 0.766602
vt 0.767578 0.766602
vt 0.765137 0.910156
vt 0.838379 0.764648
vt 0.838379 0.763672
vt 0.839355 0.763672
vt 0.765137 0.769531
vt 0.766602 0.766602
vt 0.765137 0.773438
vt 0.765137 0.763672
vt 0.765625 0.763672
vt 0.765625 0.764648
vt 0.766602 0.914062
vt 0.842285 0.916016
vt 0.840820 0.913086
vt 0.916016 0.914062
vt 0.914062 0.910156
vt 0.916016 0.910156
vt 0.842285 0.910156
vt 0.836914 0.690430
vt 0.766602 0.916992
vt 0.765137 0.914062
vt 0.983398 0.842773
vt 0.916016 0.842773
vt 0.876465 0.908203
vt 0.983398 0.616211
vt 0.916504 0.621094
vt 0.916504 0.616211
vt 0.985352 0.773438
vt 0.986816 0.773438
vt 0.983398 0.621094
vt 0.985352 0.621094
vt 0.838867 0.621094
vt 0.840332 0.621094
vt 0.912598 0.907227
vt 0.911133 0.769531
vt 0.912598 0.769531
vt 0.913086 0.763672
vt 0.843750 0.766602
vt 0.843750 0.763672
vt 0.913086 0.758789
vt 0.843750 0.758789
vt 0.841797 0.621094
vt 0.843750 0.621094
vt 0.986816 0.621094
vt 0.913086 0.621094
vt 0.914551 0.758789
vt 0.914551 0.621094
vt 0.983398 0.773438
vt 0.911133 0.766602
vt 0.836914 0.621094
vt 0.983887 0.769531
vt 0.985840 0.766602
vt 0.985352 0.769531
vt 0.836914 0.616211
vt 0.767578 0.621094
vt 0.767578 0.616211
vt 0.911133 0.911133
vt 0.841797 0.758789
vt 0.985352 0.616211
vt 0.986328 0.616211
vt 0.985352 0.615234
vt 0.914062 0.766602
vt 0.914062 0.769531
vt 0.841797 0.763672
vt 0.986816 0.769531
vt 0.765625 0.621094
vt 0.836914 0.615234
vt 0.767578 0.615234
vt 0.913086 0.616211
vt 0.841797 0.616211
vt 0.840820 0.616211
vt 0.841797 0.615234
vt 0.839355 0.616211
vt 0.840332 0.621094
vt 0.843750 0.616211
vt 0.912598 0.911133
vt 0.914062 0.911133
vt 0.913086 0.914062
vt 0.914551 0.621094
vt 0.911133 0.914062
vt 0.765625 0.615234
vt 0.914062 0.773438
vt 0.916016 0.769531
vt 0.916016 0.773438
vt 0.911133 0.907227
vt 0.838379 0.615234
vt 0.838379 0.616211
vt 0.914062 0.907227
vt 0.983398 0.690430
vt 0.839355 0.910156
vt 0.914551 0.690430
vt 0.876465 0.766602
vt 0.915039 0.763672
vt 0.840820 0.767578
vt 0.837891 0.916992
vt 0.838867 0.769531
vt 0.765137 0.766602
vt 0.840820 0.916016
vt 0.914551 0.914062
vt 0.765137 0.916992
vt 0.835938 0.766602
vt 0.914062 0.842773
vt 0.913086 0.766602
vt 0.983887 0.766602
vt 0.915039 0.616211
vt 0.912598 0.766602
vt 0.914551 0.763672
vt 0.983887 0.615234
vt 0.841797 0.764648
vt 0.914551 0.616211
vt 0.765625 0.616211
vt 0.914551 0.769531
vt 0.843750 0.615234
vt 0.840332 0.758789
vn -1.0000 0.0000 0.0000
vn -0.0000 0.0000 -1.0000
vn 0.1709 0.1709 -0.9703
vn -0.1216 0.4916 -0.8623
vn 0.1216 0.4916 -0.8623
vn 0.8623 0.1216 -0.4916
vn 0.4998 0.0000 -0.8661
vn 0.4916 0.1216 -0.8623
vn -0.1709 0.1709 -0.9703
vn -0.4998 0.0000 -0.8661
vn -0.4916 0.1216 -0.8623
vn 0.4916 0.1216 0.8623
vn 0.8661 0.0000 0.4998
vn 0.8623 0.1216 0.4916
vn -0.9703 0.1709 -0.1709
vn -0.8623 0.4916 0.1216
vn -0.8623 0.4916 -0.1216
vn -0.1216 0.8623 -0.4916
vn 0.1216 0.8623 -0.4916
vn -0.1280 0.9835 -0.1280
vn 0.1280 0.9835 -0.1280
vn 0.4916 0.8623 0.1216
vn 0.1280 0.9835 0.1280
vn -0.8661 0.0000 -0.4998
vn -0.8623 0.1216 -0.4916
vn -0.4916 0.8623 -0.1216
vn -0.1280 0.9835 0.1280
vn 0.2585 0.0000 -0.9660
vn 0.9835 0.1280 -0.1280
vn 0.8661 0.0000 -0.4998
vn -0.9660 0.0000 -0.2585
vn 0.1280 0.1280 0.9835
vn 0.4998 0.0000 0.8661
vn 0.8623 0.4916 -0.1216
vn 0.4488 0.7727 -0.4488
vn 0.4916 0.8623 -0.1216
vn -0.1280 0.1280 0.9835
vn 0.1216 0.4916 0.8623
vn -0.1216 0.4916 0.8623
vn -0.4998 0.0000 0.8661
vn -0.8623 0.1216 0.4916
vn -0.8661 -0.0000 0.4998
vn -0.4488 0.4488 -0.7727
vn -0.4488 0.7727 -0.4488
vn -0.7727 0.4488 -0.4488
vn 0.7727 0.4488 -0.4488
vn 0.4488 0.4488 -0.7727
vn -0.1303 0.0000 0.9915
vn -0.4916 0.1216 0.8623
vn 0.1216 0.8623 0.4916
vn -0.1216 0.8623 0.4916
vn 0.4488 0.7727 0.4489
vn 0.4488 0.4488 0.7727
vn 0.7727 0.4488 0.4488
vn 0.8623 0.4916 0.1216
vn -0.7727 0.4488 0.4488
vn -0.4488 0.4488 0.7727
vn -0.4489 0.7727 0.4488
vn -0.4916 0.8623 0.1216
vn 0.9835 0.1280 0.1280
vn -0.9703 0.1709 0.1709
vn 0.1303 0.0000 0.9915
vn 0.9915 0.0000 -0.1303
vn 0.9915 0.0000 0.1303
vn -0.9660 -0.0000 0.2585
vn -0.1216 -0.4916 -0.8623
vn 0.1709 -0.1709 -0.9703
vn 0.1216 -0.4916 -0.8623
vn 0.8623 -0.1216 -0.4916
vn 0.4916 -0.1216 -0.8623
vn -0.1709 -0.1709 -0.9703
vn -0.4916 -0.1216 -0.8623
vn 0.4916 -0.1216 0.8623
vn 0.8623 -0.1216 0.4916
vn -0.8623 -0.4916 0.1216
vn -0.9703 -0.1709 -0.1709
vn -0.8623 -0.4916 -0.1216
vn -0.1216 -0.8623 -0.4916
vn 0.1216 -0.8623 -0.4916
vn -0.1280 -0.9835 -0.1280
vn 0.1280 -0.9835 -0.1280
vn 0.4916 -0.8623 0.1216
vn 0.1280 -0.9835 0.1280
vn -0.8623 -0.1216 -0.4916
vn -0.1280 -0.9835 0.1280
vn -0.4916 -0.8623 -0.1216
vn 0.9835 -0.1280 -0.1280
vn 0.1280 -0.1280 0.9835
vn 0.8623 -0.4916 -0.1216
vn 0.4488 -0.7727 -0.4488
vn 0.7727 -0.4488 -0.4488
vn 0.1216 -0.4916 0.8623
vn -0.1280 -0.1280 0.9835
vn -0.1216 -0.4916 0.8623
vn -0.8623 -0.1216 0.4916
vn 0.4916 -0.8623 -0.1216
vn -0.4488 -0.4488 -0.7727
vn -0.7727 -0.4488 -0.4489
vn -0.4489 -0.7727 -0.4489
vn 0.4488 -0.4488 -0.7727
vn -0.4916 -0.1216 0.8623
vn 0.1216 -0.8623 0.4916
vn -0.1216 -0.8623 0.4916
vn 0.4488 -0.7727 0.4488
vn 0.7727 -0.4488 0.4488
vn 0.4488 -0.4488 0.7727
vn 0.8623 -0.4916 0.1216
vn -0.7727 -0.4488 0.4488
vn -0.4489 -0.7727 0.4489
vn -0.4488 -0.4488 0.7727
vn -0.4916 -0.8623 0.1216
vn 0.9835 -0.1280 0.1280
vn -0.9703 -0.1709 0.1709
vn -0.2585 0.0000 -0.9660
usemtl CubeCustomText
s off
f 60/1/1 13/2/1 29/3/1
f 62/4/2 1/5/2 26/6/2
f 75/7/1 60/1/1 29/3/1
f 66/8/2 62/4/2 26/6/2
f 60/1/1 59/9/1 13/2/1
f 62/4/2 7/10/2 1/5/2
f 75/7/1 112/11/1 60/1/1
f 66/8/2 70/12/2 62/4/2
s 1
f 1/13/3 2/14/4 3/15/5
f 4/16/6 5/17/7 6/18/8
f 7/19/9 8/20/10 9/21/11
f 10/22/12 11/23/13 12/24/14
f 13/25/15 14/26/16 15/27/17
f 3/28/5 16/29/18 17/30/19
f 17/30/19 18/31/20 19/32/21
f 20/33/22 19/32/21 21/34/23
f 9/21/11 22/35/24 23/36/25
f 24/37/26 25/38/27 18/31/20
f 6/39/8 26/40/28 1/13/3
f 27/41/29 28/42/30 4/16/6
f 23/43/25 29/44/31 13/25/15
f 30/45/32 31/46/33 10/22/12
f 32/47/34 33/48/35 34/49/36
f 9/21/11 2/14/4 7/19/9
f 35/50/37 36/51/38 37/52/39
f 4/16/6 32/47/34 27/41/29
f 38/53/40 39/54/41 40/55/42
f 3/15/5 6/39/8 1/13/3
f 34/56/36 17/30/19 19/32/21
f 23/36/25 41/57/43 9/21/11
f 42/58/44 41/57/43 43/59/45
f 15/27/17 23/43/25 13/25/15
f 16/29/18 24/37/26 18/31/20
f 42/60/44 15/61/17 24/37/26
f 2/14/4 42/58/44 16/62/18
f 33/63/35 3/28/5 17/30/19
f 33/48/35 44/64/46 45/65/47
f 46/66/48 47/67/49 38/68/40
f 6/18/8 44/64/46 4/16/6
f 37/52/39 48/69/50 49/70/51
f 49/71/51 21/34/23 25/38/27
f 50/72/52 51/73/53 52/74/54
f 12/24/14 51/73/53 10/22/12
f 10/22/12 36/51/38 30/45/32
f 50/75/52 53/76/55 20/33/22
f 48/77/50 20/33/22 21/34/23
f 54/78/56 55/79/57 56/80/58
f 57/81/59 49/71/51 25/38/27
f 47/82/49 54/83/56 39/54/41
f 56/80/58 37/52/39 49/70/51
f 37/52/39 47/67/49 35/50/37
f 53/84/55 12/85/14 58/86/60
f 39/54/41 14/26/16 59/87/61
f 61/88/62 35/50/37 46/66/48
f 14/89/16 56/90/58 57/81/59
f 18/31/20 21/34/23 19/32/21
f 63/91/63 58/86/60 64/92/64
f 36/51/38 50/72/52 48/69/50
f 53/76/55 34/56/36 20/33/22
f 58/86/60 32/47/34 53/84/55
f 15/61/17 57/81/59 24/37/26
f 12/85/14 64/92/64 58/86/60
f 40/55/42 59/87/61 60/93/65
f 65/94/66 66/95/67 67/96/68
f 5/17/7 68/97/69 69/98/70
f 8/20/10 70/99/71 71/100/72
f 11/23/13 72/101/73 73/102/74
f 74/103/75 75/104/76 76/105/77
f 77/106/78 67/107/68 78/108/79
f 79/109/80 78/108/79 80/110/81
f 80/110/81 81/111/82 82/112/83
f 22/35/24 71/100/72 83/113/84
f 84/114/85 85/115/86 79/109/80
f 26/40/28 69/116/70 66/95/67
f 28/42/30 86/117/87 68/97/69
f 29/44/31 83/118/84 75/104/76
f 31/46/33 87/119/88 72/101/73
f 88/120/89 89/121/90 90/122/91
f 65/94/66 71/100/72 70/99/71
f 91/123/92 92/124/93 93/125/94
f 88/120/89 68/97/69 86/117/87
f 94/126/95 38/53/40 40/55/42
f 69/116/70 67/96/68 66/95/67
f 78/108/79 95/127/96 80/110/81
f 83/113/84 96/128/97 97/129/98
f 98/130/99 97/129/98 96/128/97
f 83/118/84 76/105/77 75/104/76
f 85/115/86 77/106/78 79/109/80
f 76/105/77 98/131/99 85/132/86
f 65/94/66 98/130/99 96/128/97
f 67/107/68 89/133/90 78/108/79
f 89/121/90 99/134/100 90/122/91
f 100/135/101 46/66/48 38/68/40
f 68/97/69 99/134/100 69/98/70
f 101/136/102 93/125/94 102/137/103
f 82/112/83 102/138/103 84/114/85
f 103/139/104 104/140/105 105/141/106
f 72/101/73 104/142/105 73/102/74
f 91/123/92 72/101/73 87/119/88
f 106/143/107 103/139/104 81/111/82
f 81/111/82 101/144/102 82/112/83
f 107/145/108 108/146/109 109/147/110
f 102/138/103 110/148/111 84/114/85
f 100/149/101 107/145/108 109/147/110
f 93/125/94 108/150/109 102/137/103
f 100/135/101 93/125/94 92/124/93
f 73/151/74 106/152/107 111/153/112
f 74/103/75 94/126/95 112/154/113
f 92/124/93 61/88/62 46/66/48
f 74/103/75 108/146/109 107/145/108
f 82/112/83 79/109/80 80/110/81
f 111/153/112 63/91/63 64/92/64
f 91/123/92 103/155/104 105/156/106
f 95/127/96 106/143/107 81/111/82
f 88/120/89 111/153/112 106/152/107
f 110/157/111 76/105/77 85/132/86
f 64/92/64 73/151/74 111/153/112
f 112/154/113 40/55/42 60/93/65
f 1/13/3 7/19/9 2/14/4
f 4/16/6 28/42/30 5/17/7
f 7/19/9 62/158/114 8/20/10
f 10/22/12 31/46/33 11/23/13
f 13/25/15 59/87/61 14/26/16
f 3/28/5 2/159/4 16/29/18
f 17/30/19 16/29/18 18/31/20
f 20/33/22 34/56/36 19/32/21
f 9/21/11 8/20/10 22/35/24
f 24/37/26 57/81/59 25/38/27
f 6/39/8 5/160/7 26/40/28
f 27/41/29 63/91/63 28/42/30
f 23/43/25 22/161/24 29/44/31
f 30/45/32 61/88/62 31/46/33
f 32/47/34 44/64/46 33/48/35
f 9/21/11 41/57/43 2/14/4
f 35/50/37 30/45/32 36/51/38
f 4/16/6 44/64/46 32/47/34
f 38/53/40 47/82/49 39/54/41
f 3/15/5 45/162/47 6/39/8
f 34/56/36 33/63/35 17/30/19
f 23/36/25 43/59/45 41/57/43
f 15/27/17 43/163/45 23/43/25
f 16/29/18 42/60/44 24/37/26
f 42/60/44 43/164/45 15/61/17
f 2/14/4 41/57/43 42/58/44
f 33/63/35 45/165/47 3/28/5
f 46/66/48 35/50/37 47/67/49
f 6/18/8 45/65/47 44/64/46
f 37/52/39 36/51/38 48/69/50
f 49/71/51 48/77/50 21/34/23
f 12/24/14 52/74/54 51/73/53
f 10/22/12 51/73/53 36/51/38
f 50/75/52 52/166/54 53/76/55
f 48/77/50 50/75/52 20/33/22
f 57/81/59 56/90/58 49/71/51
f 47/82/49 55/167/57 54/83/56
f 56/80/58 55/79/57 37/52/39
f 37/52/39 55/79/57 47/67/49
f 53/84/55 52/168/54 12/85/14
f 39/54/41 54/83/56 14/26/16
f 61/88/62 30/45/32 35/50/37
f 14/89/16 54/169/56 56/90/58
f 18/31/20 25/38/27 21/34/23
f 63/91/63 27/41/29 58/86/60
f 36/51/38 51/73/53 50/72/52
f 53/76/55 32/170/34 34/56/36
f 58/86/60 27/41/29 32/47/34
f 15/61/17 14/89/16 57/81/59
f 12/85/14 11/171/13 64/92/64
f 40/55/42 39/54/41 59/87/61
f 65/94/66 70/99/71 66/95/67
f 5/17/7 28/42/30 68/97/69
f 8/20/10 62/158/114 70/99/71
f 11/23/13 31/46/33 72/101/73
f 74/103/75 112/154/113 75/104/76
f 77/106/78 65/172/66 67/107/68
f 79/109/80 77/106/78 78/108/79
f 80/110/81 95/127/96 81/111/82
f 22/35/24 8/20/10 71/100/72
f 84/114/85 110/148/111 85/115/86
f 26/40/28 5/160/7 69/116/70
f 28/42/30 63/91/63 86/117/87
f 29/44/31 22/161/24 83/118/84
f 31/46/33 61/88/62 87/119/88
f 88/120/89 95/173/96 89/121/90
f 65/94/66 96/128/97 71/100/72
f 91/123/92 87/119/88 92/124/93
f 88/120/89 90/122/91 68/97/69
f 94/126/95 100/149/101 38/53/40
f 69/116/70 99/174/100 67/96/68
f 78/108/79 89/133/90 95/127/96
f 83/113/84 71/100/72 96/128/97
f 83/118/84 97/175/98 76/105/77
f 85/115/86 98/176/99 77/106/78
f 76/105/77 97/175/98 98/131/99
f 65/94/66 77/177/78 98/130/99
f 67/107/68 99/178/100 89/133/90
f 100/135/101 92/124/93 46/66/48
f 68/97/69 90/122/91 99/134/100
f 101/136/102 91/123/92 93/125/94
f 82/112/83 101/144/102 102/138/103
f 72/101/73 105/156/106 104/142/105
f 91/123/92 105/156/106 72/101/73
f 106/143/107 104/140/105 103/139/104
f 81/111/82 103/139/104 101/144/102
f 102/138/103 108/179/109 110/148/111
f 100/149/101 94/126/95 107/145/108
f 93/125/94 109/180/110 108/150/109
f 100/135/101 109/180/110 93/125/94
f 73/151/74 104/181/105 106/152/107
f 74/103/75 107/145/108 94/126/95
f 92/124/93 87/119/88 61/88/62
f 74/103/75 110/157/111 108/146/109
f 82/112/83 84/114/85 79/109/80
f 111/153/112 86/117/87 63/91/63
f 91/182/92 101/144/102 103/139/104
f 95/127/96 88/183/89 106/143/107
f 88/120/89 86/117/87 111/153/112
f 110/157/111 74/103/75 76/105/77
f 64/92/64 11/171/13 73/151/74
f 112/154/113 94/126/95 40/55/42
