# Blender v2.93.2 OBJ File: 'cubeTexturePower.blend'
# www.blender.org
mtllib piece17.mtl
o Rubiks_Cube_Cube.017_piece17
v -3.000000 -2.898657 -2.898658
v -3.000000 -1.101342 -1.101342
v -3.000000 -1.101342 -2.898658
v -1.101342 -1.101342 -3.000000
v -2.898658 -2.898657 -3.000000
v -2.898658 -1.101342 -3.000000
v -1.101341 -2.999999 -1.101342
v -2.898658 -3.000001 -2.898658
v -1.101341 -2.999999 -2.898658
v -2.898658 -2.898657 -1.000000
v -1.101342 -1.101342 -1.000000
v -2.898658 -1.101342 -1.000000
v -1.000000 -2.898657 -1.101342
v -1.000000 -1.101342 -2.898658
v -1.000000 -1.101342 -1.101342
v -2.949262 -1.013539 -1.101342
v -2.898658 -1.013539 -1.050738
v -2.898658 -1.000000 -1.101342
v -2.986461 -1.050737 -1.101342
v -2.947121 -1.026691 -1.052879
v -2.986461 -1.101342 -1.050738
v -2.947121 -1.052879 -1.026690
v -2.973310 -1.052879 -1.052879
v -2.898658 -1.050737 -1.013539
v -2.949262 -1.101342 -1.013539
v -2.986459 -2.949261 -1.101342
v -2.986459 -2.898657 -1.050738
v -3.000000 -2.898657 -1.101342
v -2.947119 -2.973311 -1.052879
v -2.973310 -2.947120 -1.052879
v -2.898658 -2.986460 -1.050738
v -2.949260 -2.986460 -1.101342
v -2.898658 -3.000001 -1.101342
v -2.947119 -2.947120 -1.026690
v -2.949260 -2.898657 -1.013539
v -2.898658 -2.949261 -1.013539
v -1.101342 -1.013538 -1.050738
v -1.050738 -1.013538 -1.101342
v -1.101342 -0.999999 -1.101342
v -1.101342 -1.050737 -1.013539
v -1.052879 -1.026690 -1.052879
v -1.050738 -1.101342 -1.013539
v -1.026690 -1.052879 -1.052879
v -1.052879 -1.052879 -1.026690
v -1.013539 -1.050737 -1.101342
v -1.013539 -1.101342 -1.050738
v -1.050738 -2.986460 -1.101342
v -1.101341 -2.986460 -1.050738
v -1.026690 -2.947120 -1.052879
v -1.052878 -2.973309 -1.052879
v -1.013538 -2.898657 -1.050738
v -1.013538 -2.949261 -1.101342
v -1.050738 -2.898657 -1.013539
v -1.101341 -2.949261 -1.013539
v -1.101341 -2.898657 -1.000000
v -1.052878 -2.947120 -1.026690
v -2.898658 -1.013539 -2.949262
v -2.949262 -1.013539 -2.898658
v -2.898658 -1.000000 -2.898658
v -2.898658 -1.050737 -2.986461
v -2.947121 -1.026691 -2.947121
v -2.949262 -1.101342 -2.986461
v -2.986461 -1.101342 -2.949262
v -2.947121 -1.052879 -2.973310
v -2.986461 -1.050737 -2.898658
v -2.973310 -1.052879 -2.947121
v -2.949260 -2.986460 -2.898658
v -2.898658 -2.986460 -2.949262
v -2.973310 -2.947120 -2.947121
v -2.947119 -2.973311 -2.947121
v -2.986459 -2.898657 -2.949262
v -2.986459 -2.949261 -2.898658
v -2.947119 -2.947120 -2.973310
v -2.898658 -2.949261 -2.986461
v -2.949260 -2.898657 -2.986461
v -1.050738 -1.013538 -2.898658
v -1.101342 -1.013538 -2.949262
v -1.101342 -0.999999 -2.898658
v -1.013539 -1.050737 -2.898658
v -1.052879 -1.026690 -2.947121
v -1.013539 -1.101342 -2.949262
v -1.050738 -1.101342 -2.986461
v -1.026690 -1.052879 -2.947121
v -1.101342 -1.050737 -2.986461
v -1.052879 -1.052879 -2.973310
v -1.101341 -2.986460 -2.949262
v -1.050738 -2.986460 -2.898658
v -1.052878 -2.947120 -2.973310
v -1.052878 -2.973309 -2.947121
v -1.050738 -2.898657 -2.986461
v -1.101341 -2.949261 -2.986461
v -1.101341 -2.898657 -3.000000
v -1.013538 -2.898657 -2.949262
v -1.013538 -2.949261 -2.898658
v -1.000000 -2.898657 -2.898658
v -1.026690 -2.947120 -2.947121
vt 0.500000 0.000000
vt 0.583496 0.166992
vt 0.500000 0.166992
vt 0.416504 0.166992
vt 0.500000 0.000000
vt 0.500000 0.166992
vt 0.083496 0.166992
vt -0.000000 0.000000
vt 0.083496 0.000000
vt 0.583496 0.000000
vt 0.416504 0.000000
vt -0.000000 0.166992
vt 0.840332 0.910156
vt 0.912598 0.768555
vt 0.912598 0.912109
vt 0.915039 0.750977
vt 0.842285 0.605469
vt 0.915039 0.605469
vt 0.836426 0.600586
vt 0.838379 0.605469
vt 0.836426 0.605469
vt 0.920898 0.600586
vt 0.917969 0.599609
vt 0.920410 0.597656
vt 0.918457 0.605469
vt 0.920898 0.605469
vt 0.917480 0.600586
vt 0.918457 0.600586
vt 0.914551 0.912109
vt 0.913086 0.916016
vt 0.916016 0.916016
vt 0.914551 0.916016
vt 0.920898 0.756836
vt 0.918457 0.751953
vt 0.920898 0.751953
vt 0.988770 0.918945
vt 0.991211 0.916016
vt 0.991211 0.917969
vt 0.990723 0.912109
vt 0.988770 0.916016
vt 0.988281 0.912109
vt 0.992188 0.916016
vt 0.840332 0.915039
vt 0.838379 0.910156
vt 0.917480 0.756836
vt 0.916992 0.751953
vt 0.838379 0.751953
vt 0.836426 0.756836
vt 0.836426 0.751953
vt 0.914551 0.768555
vt 0.916016 0.763672
vt 0.916504 0.768555
vt 0.913086 0.763672
vt 0.915039 0.760742
vt 0.914551 0.763672
vt 0.915039 0.600586
vt 0.916992 0.605469
vt 0.916504 0.597656
vt 0.916504 0.600586
vt 0.988770 0.760742
vt 0.990723 0.765625
vt 0.988281 0.765625
vt 0.991211 0.759766
vt 0.991211 0.760742
vt 0.916992 0.750977
vt 0.915039 0.754883
vt 0.840332 0.760742
vt 0.838379 0.759766
vt 0.840332 0.757812
vt 0.838379 0.765625
vt 0.840332 0.765625
vt 0.992188 0.760742
vt 0.992676 0.765625
vt 0.761230 0.605469
vt 0.763672 0.600586
vt 0.763672 0.605469
vt 0.759766 0.605469
vt 0.761230 0.600586
vt 0.834473 0.762695
vt 0.835938 0.766602
vt 0.834473 0.766602
vt 0.833984 0.759766
vt 0.835938 0.762695
vt 0.991211 0.600586
vt 0.993164 0.605469
vt 0.991211 0.605469
vt 0.763672 0.597656
vt 0.761230 0.599609
vt 0.760254 0.600586
vt 0.918457 0.916016
vt 0.916504 0.912109
vt 0.917969 0.912109
vt 0.916992 0.917969
vt 0.916504 0.916016
vt 0.993164 0.751953
vt 0.991211 0.756836
vt 0.991211 0.751953
vt 0.763672 0.759766
vt 0.761719 0.762695
vt 0.761230 0.760742
vt 0.761719 0.766602
vt 0.763672 0.762695
vt 0.764160 0.766602
vt 0.759766 0.766602
vt 0.760254 0.762695
vt 0.763672 0.756836
vt 0.761230 0.751953
vt 0.763672 0.751953
vt 0.763672 0.759766
vt 0.761230 0.756836
vt 0.839844 0.605469
vt 0.842285 0.600586
vt 0.838379 0.605469
vt 0.839844 0.600586
vt 0.835938 0.912109
vt 0.834473 0.916016
vt 0.834473 0.912109
vt 0.759766 0.751953
vt 0.760254 0.756836
vt 0.839844 0.597656
vt 0.838867 0.600586
vt 0.916504 0.765625
vt 0.918457 0.760742
vt 0.917969 0.765625
vt 0.759766 0.912109
vt 0.761719 0.916016
vt 0.760254 0.916016
vt 0.763672 0.916016
vt 0.761719 0.912109
vt 0.764160 0.912109
vt 0.763672 0.918945
vt 0.842285 0.754883
vt 0.839844 0.750977
vt 0.842285 0.750977
vt 0.839844 0.756836
vt 0.839844 0.754883
vt 0.761230 0.918945
vt 0.916504 0.912109
vt 0.916992 0.605469
vt 0.992676 0.912109
vt 0.913086 0.760742
vt 0.842285 0.757812
vt 0.915039 0.757812
vt 0.838379 0.750977
vt 0.836426 0.597656
vt 0.918457 0.918945
vt 0.838379 0.600586
vt 0.918457 0.756836
vt 0.838379 0.915039
vt 0.838379 0.756836
vt 0.836426 0.759766
vt 0.988770 0.757812
vt 0.916504 0.754883
vt 0.838379 0.760742
vt 0.835449 0.760742
vt 0.992676 0.600586
vt 0.992676 0.756836
vt 0.835938 0.916016
vt 0.916504 0.760742
vn -1.0000 0.0000 0.0000
vn -0.0000 -0.0000 -1.0000
vn 0.0000 -1.0000 0.0000
vn -0.1280 -0.1280 0.9835
vn 0.1280 0.1280 0.9835
vn -0.1280 0.1280 0.9835
vn 0.9835 -0.1280 0.1280
vn 0.9835 0.1280 -0.1280
vn 0.9835 0.1280 0.1280
vn -0.4916 0.8623 0.1216
vn -0.1216 0.8623 0.4916
vn -0.1280 0.9835 0.1280
vn -0.8623 0.4916 0.1216
vn -0.4488 0.7727 0.4488
vn -0.8623 0.1216 0.4916
vn -0.9703 0.1709 0.1709
vn -0.4488 0.4488 0.7727
vn -0.7727 0.4488 0.4488
vn -0.1216 0.4916 0.8623
vn -0.4916 0.1216 0.8623
vn -0.8623 -0.4916 0.1216
vn -0.8623 -0.1216 0.4916
vn -0.9703 -0.1709 0.1709
vn -0.4488 -0.7727 0.4488
vn -0.7727 -0.4488 0.4488
vn -0.1216 -0.8623 0.4916
vn -0.4916 -0.8623 0.1216
vn -0.1709 -0.9703 0.1709
vn -0.4488 -0.4488 0.7727
vn -0.4916 -0.1216 0.8623
vn -0.1216 -0.4916 0.8623
vn 0.1216 0.8623 0.4916
vn 0.4916 0.8623 0.1216
vn 0.1280 0.9835 0.1280
vn 0.1216 0.4916 0.8623
vn 0.4488 0.7727 0.4488
vn 0.4916 0.1216 0.8623
vn 0.7727 0.4488 0.4488
vn 0.4488 0.4488 0.7727
vn 0.8623 0.4916 0.1216
vn 0.8623 0.1216 0.4916
vn 0.4916 -0.8623 0.1216
vn 0.1216 -0.8623 0.4916
vn 0.1709 -0.9703 0.1709
vn 0.7727 -0.4488 0.4488
vn 0.4488 -0.7727 0.4488
vn 0.8623 -0.1216 0.4916
vn 0.8623 -0.4916 0.1216
vn 0.4916 -0.1216 0.8623
vn 0.1216 -0.4916 0.8623
vn 0.1280 -0.1280 0.9835
vn 0.4489 -0.4488 0.7727
vn -0.1216 0.8623 -0.4916
vn -0.4916 0.8623 -0.1216
vn -0.1280 0.9835 -0.1280
vn -0.1216 0.4916 -0.8623
vn -0.4488 0.7727 -0.4488
vn -0.4916 0.1216 -0.8623
vn -0.1709 0.1709 -0.9703
vn -0.8623 0.1216 -0.4916
vn -0.4488 0.4488 -0.7727
vn -0.8623 0.4916 -0.1216
vn -0.9703 0.1709 -0.1709
vn -0.7727 0.4488 -0.4488
vn -0.4916 -0.8623 -0.1216
vn -0.1216 -0.8623 -0.4916
vn -0.1709 -0.9703 -0.1709
vn -0.7727 -0.4488 -0.4488
vn -0.4488 -0.7727 -0.4488
vn -0.8623 -0.1216 -0.4916
vn -0.8623 -0.4916 -0.1216
vn -0.9703 -0.1709 -0.1709
vn -0.4488 -0.4488 -0.7727
vn -0.1216 -0.4916 -0.8623
vn -0.4916 -0.1216 -0.8623
vn -0.1709 -0.1709 -0.9703
vn 0.4916 0.8623 -0.1216
vn 0.1216 0.8623 -0.4916
vn 0.1280 0.9835 -0.1280
vn 0.8623 0.4916 -0.1216
vn 0.4488 0.7727 -0.4488
vn 0.8623 0.1216 -0.4916
vn 0.4916 0.1216 -0.8623
vn 0.7727 0.4488 -0.4488
vn 0.1216 0.4916 -0.8623
vn 0.1709 0.1709 -0.9703
vn 0.4488 0.4488 -0.7727
vn 0.1216 -0.8623 -0.4916
vn 0.4916 -0.8623 -0.1216
vn 0.1709 -0.9703 -0.1709
vn 0.4488 -0.4488 -0.7727
vn 0.4488 -0.7727 -0.4488
vn 0.4916 -0.1216 -0.8623
vn 0.1216 -0.4916 -0.8623
vn 0.1709 -0.1709 -0.9703
vn 0.8623 -0.1216 -0.4916
vn 0.8623 -0.4916 -0.1216
vn 0.9835 -0.1280 -0.1280
vn 0.7727 -0.4488 -0.4488
usemtl CubeCustomText
s off
f 1/1/1 2/2/1 3/3/1
f 4/4/2 5/5/2 6/6/2
f 7/7/3 8/8/3 9/9/3
f 1/1/1 28/10/1 2/2/1
f 4/4/2 92/11/2 5/5/2
f 7/7/3 33/12/3 8/8/3
s 1
f 10/13/4 11/14/5 12/15/6
f 13/16/7 14/17/8 15/18/9
f 16/19/10 17/20/11 18/21/12
f 19/22/13 20/23/14 16/24/10
f 21/25/15 19/22/13 2/26/16
f 21/25/15 22/27/17 23/28/18
f 24/29/19 25/30/20 12/15/6
f 24/29/19 20/31/14 22/32/17
f 20/23/14 23/28/18 22/27/17
f 26/33/21 27/34/22 28/35/23
f 26/36/21 29/37/24 30/38/25
f 31/39/26 32/40/27 33/41/28
f 31/39/26 34/42/29 29/37/24
f 35/43/30 36/44/31 10/13/4
f 27/34/22 34/45/29 35/46/30
f 30/38/25 29/37/24 34/42/29
f 37/47/32 38/48/33 39/49/34
f 40/50/35 41/51/36 37/52/32
f 42/53/37 40/50/35 11/14/5
f 42/53/37 43/54/38 44/55/39
f 45/56/40 46/57/41 15/18/9
f 45/56/40 41/58/36 43/59/38
f 41/51/36 44/55/39 43/54/38
f 47/60/42 48/61/43 7/62/44
f 47/60/42 49/63/45 50/64/46
f 51/65/47 52/66/48 13/16/7
f 53/67/49 49/68/45 51/69/47
f 54/70/50 53/67/49 55/71/51
f 48/61/43 56/72/52 54/73/50
f 50/64/46 49/63/45 56/72/52
f 57/74/53 58/75/54 59/76/55
f 60/77/56 61/78/57 57/74/53
f 62/79/58 60/80/56 6/81/59
f 63/82/60 64/83/61 62/79/58
f 65/84/62 63/85/60 3/86/63
f 65/87/62 61/78/57 66/88/64
f 61/78/57 64/89/61 66/88/64
f 67/90/65 68/91/66 8/92/67
f 67/90/65 69/93/68 70/94/69
f 71/95/70 72/96/71 1/97/72
f 71/98/70 73/99/73 69/100/68
f 74/101/74 75/102/75 5/103/76
f 68/104/66 73/99/73 74/101/74
f 70/105/69 69/100/68 73/99/73
f 76/106/77 77/107/78 78/108/79
f 79/109/80 80/110/81 76/106/77
f 81/111/82 79/112/80 14/17/8
f 82/113/83 83/114/84 81/111/82
f 84/115/85 82/116/83 4/117/86
f 84/118/85 80/110/81 85/119/87
f 80/120/81 83/114/84 85/121/87
f 86/122/88 87/123/89 9/124/90
f 86/125/88 88/126/91 89/127/92
f 90/128/93 91/129/94 92/130/95
f 93/131/96 88/126/91 90/128/93
f 94/132/97 93/133/96 95/134/98
f 94/132/97 89/135/92 96/136/99
f 89/127/92 88/126/91 96/137/99
f 18/21/12 37/47/32 39/49/34
f 17/138/11 40/50/35 37/52/32
f 24/29/19 11/14/5 40/50/35
f 28/35/23 21/25/15 2/26/16
f 27/34/22 25/139/20 21/25/15
f 25/30/20 10/13/4 12/15/6
f 7/62/44 31/39/26 33/41/28
f 48/61/43 36/140/31 31/39/26
f 54/70/50 10/13/4 36/44/31
f 15/18/9 51/65/47 13/16/7
f 46/141/41 53/67/49 51/69/47
f 42/53/37 55/71/51 53/67/49
f 39/49/34 76/106/77 78/108/79
f 38/48/33 79/109/80 76/106/77
f 45/56/40 14/17/8 79/112/80
f 9/124/90 47/60/42 7/62/44
f 87/142/89 52/66/48 47/143/42
f 94/132/97 13/16/7 52/66/48
f 4/117/86 90/128/93 92/130/95
f 82/113/83 93/133/96 90/144/93
f 93/133/96 14/17/8 95/134/98
f 78/108/79 57/74/53 59/76/55
f 77/107/78 60/77/56 57/74/53
f 84/115/85 6/81/59 60/80/56
f 8/92/67 86/122/88 9/124/90
f 68/104/66 91/129/94 86/125/88
f 74/101/74 92/130/95 91/129/94
f 3/86/63 71/95/70 1/97/72
f 63/82/60 75/102/75 71/98/70
f 75/102/75 6/81/59 5/103/76
f 59/76/55 16/19/10 18/21/12
f 58/75/54 19/145/13 16/19/10
f 65/84/62 2/26/16 19/22/13
f 33/41/28 67/90/65 8/92/67
f 32/40/27 72/146/71 67/90/65
f 26/33/21 1/97/72 72/96/71
f 78/108/79 18/21/12 39/49/34
f 10/13/4 55/71/51 11/14/5
f 13/16/7 95/134/98 14/17/8
f 16/19/10 20/147/14 17/20/11
f 19/22/13 23/28/18 20/23/14
f 21/25/15 23/28/18 19/22/13
f 21/25/15 25/139/20 22/27/17
f 24/29/19 22/32/17 25/30/20
f 24/29/19 17/138/11 20/31/14
f 26/33/21 30/148/25 27/34/22
f 26/36/21 32/40/27 29/37/24
f 31/39/26 29/37/24 32/40/27
f 31/39/26 36/140/31 34/42/29
f 35/43/30 34/149/29 36/44/31
f 27/34/22 30/148/25 34/45/29
f 37/47/32 41/150/36 38/48/33
f 40/50/35 44/55/39 41/51/36
f 42/53/37 44/55/39 40/50/35
f 42/53/37 46/141/41 43/54/38
f 45/56/40 43/59/38 46/57/41
f 45/151/40 38/48/33 41/150/36
f 47/60/42 50/64/46 48/61/43
f 47/60/42 52/152/48 49/63/45
f 51/65/47 49/153/45 52/66/48
f 53/67/49 56/154/52 49/68/45
f 54/70/50 56/154/52 53/67/49
f 48/61/43 50/64/46 56/72/52
f 57/74/53 61/78/57 58/75/54
f 60/77/56 64/89/61 61/78/57
f 62/79/58 64/83/61 60/80/56
f 63/82/60 66/155/64 64/83/61
f 65/84/62 66/156/64 63/85/60
f 65/87/62 58/75/54 61/78/57
f 67/90/65 70/94/69 68/91/66
f 67/90/65 72/146/71 69/93/68
f 71/95/70 69/157/68 72/96/71
f 71/98/70 75/102/75 73/99/73
f 74/101/74 73/99/73 75/102/75
f 68/104/66 70/105/69 73/99/73
f 76/106/77 80/110/81 77/107/78
f 79/112/80 83/114/84 80/120/81
f 81/111/82 83/114/84 79/112/80
f 82/113/83 85/121/87 83/114/84
f 84/115/85 85/158/87 82/116/83
f 84/118/85 77/107/78 80/110/81
f 86/122/88 89/159/92 87/123/89
f 86/125/88 91/129/94 88/126/91
f 90/128/93 88/126/91 91/129/94
f 93/131/96 96/137/99 88/126/91
f 94/132/97 96/136/99 93/133/96
f 94/132/97 87/142/89 89/135/92
f 18/21/12 17/20/11 37/47/32
f 17/138/11 24/29/19 40/50/35
f 24/29/19 12/15/6 11/14/5
f 28/35/23 27/34/22 21/25/15
f 27/34/22 35/46/30 25/139/20
f 25/30/20 35/43/30 10/13/4
f 7/62/44 48/61/43 31/39/26
f 48/61/43 54/73/50 36/140/31
f 54/70/50 55/71/51 10/13/4
f 15/18/9 46/57/41 51/65/47
f 46/141/41 42/53/37 53/67/49
f 42/53/37 11/14/5 55/71/51
f 39/49/34 38/48/33 76/106/77
f 38/48/33 45/151/40 79/109/80
f 45/56/40 15/18/9 14/17/8
f 9/124/90 87/123/89 47/60/42
f 87/142/89 94/132/97 52/66/48
f 94/132/97 95/134/98 13/16/7
f 4/117/86 82/116/83 90/128/93
f 82/113/83 81/111/82 93/133/96
f 93/133/96 81/111/82 14/17/8
f 78/108/79 77/107/78 57/74/53
f 77/107/78 84/118/85 60/77/56
f 84/115/85 4/117/86 6/81/59
f 8/92/67 68/91/66 86/122/88
f 68/104/66 74/101/74 91/129/94
f 74/101/74 5/103/76 92/130/95
f 3/86/63 63/85/60 71/95/70
f 63/82/60 62/79/58 75/102/75
f 75/102/75 62/79/58 6/81/59
f 59/76/55 58/75/54 16/19/10
f 58/75/54 65/87/62 19/145/13
f 65/84/62 3/86/63 2/26/16
f 33/41/28 32/40/27 67/90/65
f 32/40/27 26/36/21 72/146/71
f 26/33/21 28/35/23 1/97/72
f 78/108/79 59/76/55 18/21/12
