# Blender v2.93.2 OBJ File: 'cubeTexturePower.blend'
# www.blender.org
mtllib piece12.mtl
o Rubiks_Cube_Cube.012_piece12
v -1.050738 0.897260 0.985360
v -1.026690 0.945723 0.946020
v -1.052879 0.945723 0.972209
v -1.013539 0.947865 0.897557
v -1.052879 0.971912 0.946020
v -1.101342 0.947865 0.985360
v -1.101342 0.985064 0.948161
v -2.986461 0.897260 0.948161
v -2.947121 0.945723 0.972209
v -2.973310 0.945723 0.946020
v -2.947121 0.971912 0.946020
v -2.898658 0.947865 0.985360
v -2.949262 0.897260 0.985360
v -2.898658 0.897260 0.998899
v -2.986461 0.947865 0.897557
v -2.949262 0.985064 0.897557
v -1.101342 0.897260 0.998899
v -2.898658 -0.000000 0.998899
v -1.101342 -0.000000 0.998899
v -1.050738 0.985064 0.897557
v -1.101342 0.998603 0.897557
v -3.000000 0.897260 0.897557
v -2.898658 0.985064 0.948161
v -2.898658 0.998603 0.897557
v -1.000000 0.897260 0.000000
v -1.000000 -0.000000 0.897557
v -1.000000 -0.000000 0.000000
v -1.013539 0.897260 0.948161
v -1.000000 0.897260 0.897557
v -2.949262 0.985064 0.000000
v -1.101342 0.998603 0.000000
v -2.898658 0.998603 0.000000
v -3.000000 -0.000000 0.000000
v -3.000000 -0.000000 0.897557
v -2.986461 0.947865 0.000000
v -1.013539 0.947865 0.000000
v -1.050738 0.985064 0.000000
v -1.013539 -0.000000 0.948161
v -2.949262 -0.000000 0.985360
v -1.050738 -0.000000 0.985360
v -2.986461 -0.000000 0.948161
v -1.050738 0.897260 -0.985360
v -1.026690 0.945723 -0.946020
v -1.013539 0.897260 -0.948161
v -1.013539 0.947865 -0.897557
v -1.052879 0.971912 -0.946020
v -1.050738 0.985064 -0.897557
v -1.101342 0.947865 -0.985360
v -1.101342 0.985064 -0.948161
v -2.986461 0.897260 -0.948161
v -2.947121 0.945723 -0.972209
v -2.949262 0.897260 -0.985360
v -2.947121 0.971912 -0.946020
v -2.973310 0.945723 -0.946020
v -2.898658 0.947865 -0.985360
v -2.898658 0.897260 -0.998899
v -2.986461 0.947865 -0.897557
v -2.949262 0.985064 -0.897557
v -2.898658 -0.000000 -0.998899
v -1.101342 0.897260 -0.998899
v -1.101342 -0.000000 -0.998899
v -1.052879 0.945723 -0.972209
v -2.898658 0.985064 -0.948161
v -1.101342 0.998603 -0.897557
v -3.000000 0.897260 -0.897557
v -2.898658 0.998603 -0.897557
v -1.000000 -0.000000 -0.897557
v -1.000000 0.897260 -0.897557
v -3.000000 -0.000000 -0.897557
v -1.013539 -0.000000 -0.948161
v -2.949262 -0.000000 -0.985360
v -1.050738 -0.000000 -0.985360
v -2.986461 -0.000000 -0.948161
v -1.050738 -0.897260 0.985360
v -1.026690 -0.945723 0.946020
v -1.013539 -0.897260 0.948161
v -1.013539 -0.947865 0.897557
v -1.052879 -0.971912 0.946020
v -1.050738 -0.985064 0.897557
v -1.101342 -0.947865 0.985360
v -1.101342 -0.985064 0.948161
v -2.986461 -0.897260 0.948161
v -2.947121 -0.945723 0.972209
v -2.949262 -0.897260 0.985360
v -2.947121 -0.971913 0.946020
v -2.973310 -0.945723 0.946020
v -2.898658 -0.947865 0.985360
v -2.898658 -0.897260 0.998899
v -2.986461 -0.947865 0.897557
v -2.949262 -0.985065 0.897557
v -1.101342 -0.897260 0.998899
v -1.052879 -0.945723 0.972209
v -2.898658 -0.985065 0.948161
v -1.101342 -0.998603 0.897557
v -3.000000 -0.897260 0.897557
v -2.898658 -0.998603 0.897557
v -1.000000 -0.897260 0.000000
v -1.000000 -0.897260 0.897557
v -2.949262 -0.985065 0.000000
v -1.101342 -0.998603 0.000000
v -2.898658 -0.998603 0.000000
v -2.986461 -0.947865 0.000000
v -1.013539 -0.947865 0.000000
v -1.050738 -0.985064 0.000000
v -1.050738 -0.897260 -0.985360
v -1.026690 -0.945723 -0.946020
v -1.052879 -0.945723 -0.972209
v -1.013539 -0.947865 -0.897557
v -1.052879 -0.971912 -0.946020
v -1.101342 -0.947865 -0.985360
v -1.101342 -0.985064 -0.948161
v -2.986461 -0.897260 -0.948161
v -2.947121 -0.945723 -0.972209
v -2.973310 -0.945723 -0.946020
v -2.947121 -0.971913 -0.946020
v -2.898658 -0.947865 -0.985360
v -2.949262 -0.897260 -0.985360
v -2.898658 -0.897260 -0.998899
v -2.986461 -0.947865 -0.897557
v -2.949262 -0.985065 -0.897557
v -1.101342 -0.897260 -0.998899
v -1.050738 -0.985064 -0.897557
v -1.101342 -0.998603 -0.897557
v -3.000000 -0.897260 -0.897557
v -2.898658 -0.985065 -0.948161
v -2.898658 -0.998603 -0.897557
v -1.013539 -0.897260 -0.948161
v -1.000000 -0.897260 -0.897557
v -3.000000 0.897260 0.000000
v -3.000000 -0.897260 0.000000
vt 0.666504 0.333008
vt 0.625000 0.250000
vt 0.666504 0.250000
vt 0.583496 0.333008
vt 0.583496 0.250000
vt 0.666504 0.166992
vt 0.583496 0.166992
vt 0.625000 0.333008
vt 0.625000 0.166992
vt 0.761230 0.765625
vt 0.759277 0.770508
vt 0.759277 0.767578
vt 0.759277 0.773438
vt 0.758301 0.770508
vt 0.759766 0.765625
vt 0.757812 0.762695
vt 0.759766 0.762695
vt 0.915039 0.773438
vt 0.913574 0.768555
vt 0.914551 0.768555
vt 0.913574 0.765625
vt 0.911621 0.768555
vt 0.913574 0.773438
vt 0.911621 0.773438
vt 0.836426 0.759766
vt 0.834961 0.762695
vt 0.834961 0.759766
vt 0.838379 0.773438
vt 0.911621 0.844727
vt 0.838379 0.844727
vt 0.757812 0.759766
vt 0.759766 0.759766
vt 0.991211 0.768555
vt 0.993164 0.773438
vt 0.991211 0.773438
vt 0.833008 0.762695
vt 0.833008 0.759766
vt 0.761230 0.846680
vt 0.797852 0.773438
vt 0.797852 0.846680
vt 0.836426 0.773438
vt 0.838379 0.768555
vt 0.761230 0.770508
vt 0.761230 0.773438
vt 0.834961 0.686523
vt 0.759766 0.686523
vt 0.833008 0.686523
vt 0.993164 0.844727
vt 0.757812 0.773438
vt 0.759277 0.846680
vt 0.757812 0.846680
vt 0.757812 0.686523
vt 0.797852 0.770508
vt 0.913574 0.844727
vt 0.955078 0.771484
vt 0.797852 0.765625
vt 0.915039 0.844727
vt 0.761230 0.926758
vt 0.759277 0.923828
vt 0.761230 0.923828
vt 0.759277 0.919922
vt 0.758301 0.923828
vt 0.757812 0.919922
vt 0.757812 0.610352
vt 0.759766 0.607422
vt 0.759766 0.610352
vt 0.991211 0.920898
vt 0.992676 0.923828
vt 0.991211 0.923828
vt 0.916016 0.607422
vt 0.916016 0.609375
vt 0.915039 0.609375
vt 0.916016 0.613281
vt 0.917969 0.609375
vt 0.917969 0.613281
vt 0.834961 0.610352
vt 0.836426 0.615234
vt 0.834961 0.615234
vt 0.917480 0.686523
vt 0.991211 0.615234
vt 0.990723 0.686523
vt 0.759277 0.925781
vt 0.833008 0.607422
vt 0.833008 0.610352
vt 0.757812 0.615234
vt 0.759766 0.615234
vt 0.993164 0.917969
vt 0.991211 0.917969
vt 0.833008 0.615234
vt 0.797852 0.919922
vt 0.991211 0.610352
vt 0.993164 0.615234
vt 0.761230 0.919922
vt 0.797852 0.923828
vt 0.915527 0.686523
vt 0.955078 0.916992
vt 0.797852 0.926758
vt 0.954590 0.920898
vt 0.834473 0.765625
vt 0.836426 0.770508
vt 0.834473 0.770508
vt 0.836426 0.615234
vt 0.837891 0.610352
vt 0.837891 0.615234
vt 0.839844 0.607422
vt 0.839844 0.610352
vt 0.915039 0.917969
vt 0.913574 0.922852
vt 0.913574 0.917969
vt 0.913574 0.923828
vt 0.914551 0.922852
vt 0.911621 0.922852
vt 0.911621 0.917969
vt 0.915527 0.767578
vt 0.916504 0.770508
vt 0.915039 0.771484
vt 0.838379 0.917969
vt 0.836914 0.610352
vt 0.837891 0.607422
vt 0.911621 0.925781
vt 0.839844 0.615234
vt 0.918945 0.765625
vt 0.918945 0.770508
vt 0.913086 0.610352
vt 0.915039 0.615234
vt 0.913086 0.615234
vt 0.834473 0.846680
vt 0.838379 0.922852
vt 0.836426 0.917969
vt 0.836426 0.773438
vt 0.834473 0.773438
vt 0.915039 0.843750
vt 0.839844 0.686523
vt 0.913086 0.686523
vt 0.916504 0.843750
vt 0.836426 0.686523
vt 0.837891 0.686523
vt 0.836426 0.846680
vt 0.834473 0.926758
vt 0.836426 0.923828
vt 0.836426 0.925781
vt 0.836426 0.759766
vt 0.837891 0.762695
vt 0.836914 0.762695
vt 0.839844 0.765625
vt 0.839844 0.762695
vt 0.918945 0.919922
vt 0.916504 0.922852
vt 0.916504 0.919922
vt 0.915527 0.920898
vt 0.917480 0.762695
vt 0.915527 0.758789
vt 0.917480 0.758789
vt 0.916504 0.916992
vt 0.915039 0.916992
vt 0.990723 0.758789
vt 0.837891 0.765625
vt 0.915527 0.764648
vt 0.915527 0.762695
vt 0.837891 0.759766
vt 0.839844 0.759766
vt 0.918945 0.915039
vt 0.915039 0.759766
vt 0.913086 0.762695
vt 0.913086 0.759766
vt 0.992676 0.759766
vt 0.990723 0.762695
vt 0.836426 0.919922
vt 0.834473 0.923828
vt 0.834473 0.919922
vt 0.918945 0.923828
vt 0.836426 0.768555
vt 0.836426 0.765625
vt 0.835938 0.762695
vt 0.833008 0.765625
vt 0.993164 0.768555
vt 0.836426 0.686523
vt 0.991211 0.844727
vt 0.836426 0.844727
vt 0.954590 0.767578
vt 0.992676 0.607422
vt 0.992676 0.610352
vt 0.993164 0.920898
vt 0.835938 0.610352
vt 0.992676 0.686523
vt 0.954590 0.923828
vt 0.836426 0.767578
vt 0.836426 0.923828
vt 0.836426 0.922852
vt 0.916504 0.767578
vt 0.915039 0.610352
vt 0.915039 0.686523
vt 0.918945 0.843750
vt 0.992188 0.762695
vt 0.992188 0.765625
vt 0.916992 0.765625
vt 0.915039 0.762695
vn -1.0000 0.0000 0.0000
vn 0.4916 0.1216 0.8623
vn 0.7727 0.4488 0.4488
vn 0.4488 0.4488 0.7727
vn 0.8623 0.4916 0.1216
vn 0.4488 0.7727 0.4488
vn 0.1216 0.4916 0.8623
vn 0.1216 0.8623 0.4916
vn -0.8623 0.1216 0.4916
vn -0.4488 0.4488 0.7727
vn -0.7727 0.4488 0.4488
vn -0.4488 0.7727 0.4488
vn -0.1216 0.4916 0.8623
vn -0.4916 0.1216 0.8623
vn -0.1280 0.1280 0.9835
vn -0.8623 0.4916 0.1216
vn -0.4916 0.8623 0.1216
vn 0.1280 0.1280 0.9835
vn -0.1303 0.0000 0.9915
vn 0.1303 0.0000 0.9915
vn 0.4916 0.8623 0.1216
vn 0.1280 0.9835 0.1280
vn -0.9703 0.1709 0.1709
vn -0.1216 0.8623 0.4916
vn -0.1280 0.9835 0.1280
vn 0.9915 0.1303 -0.0000
vn 0.9915 0.0000 0.1303
vn 1.0000 0.0000 -0.0000
vn 0.8623 0.1216 0.4916
vn 0.9835 0.1280 0.1280
vn -0.4998 0.8661 0.0000
vn 0.1303 0.9915 0.0000
vn -0.1303 0.9915 0.0000
vn -0.8661 0.4998 0.0000
vn 0.8661 0.4998 -0.0000
vn 0.4998 0.8661 -0.0000
vn 0.8661 0.0000 0.4998
vn -0.4998 0.0000 0.8661
vn -0.9660 0.0000 0.2585
vn 0.4998 0.0000 0.8661
vn -0.8661 0.0000 0.4998
vn 0.4916 0.1216 -0.8623
vn 0.7727 0.4488 -0.4488
vn 0.8623 0.1216 -0.4916
vn 0.8623 0.4916 -0.1216
vn 0.4488 0.7727 -0.4488
vn 0.4916 0.8623 -0.1216
vn 0.1216 0.4916 -0.8623
vn 0.1216 0.8623 -0.4916
vn -0.8623 0.1216 -0.4916
vn -0.4488 0.4488 -0.7727
vn -0.4916 0.1216 -0.8623
vn -0.4488 0.7727 -0.4488
vn -0.7727 0.4488 -0.4488
vn -0.1216 0.4916 -0.8623
vn -0.1280 0.1280 -0.9835
vn -0.8623 0.4916 -0.1216
vn -0.4916 0.8623 -0.1216
vn -0.1303 0.0000 -0.9915
vn 0.1280 0.1280 -0.9835
vn 0.1303 0.0000 -0.9915
vn 0.4488 0.4488 -0.7727
vn -0.1216 0.8623 -0.4916
vn 0.1280 0.9835 -0.1280
vn -0.9703 0.1709 -0.1709
vn -0.1280 0.9835 -0.1280
vn 0.9915 0.0000 -0.1303
vn 0.9835 0.1280 -0.1280
vn 0.8661 0.0000 -0.4998
vn -0.4998 0.0000 -0.8661
vn -0.9660 0.0000 -0.2585
vn 0.4998 0.0000 -0.8661
vn -0.8661 0.0000 -0.4998
vn 0.4916 -0.1216 0.8623
vn 0.7727 -0.4488 0.4488
vn 0.8623 -0.1216 0.4916
vn 0.8623 -0.4916 0.1216
vn 0.4488 -0.7727 0.4488
vn 0.4916 -0.8623 0.1216
vn 0.1216 -0.4916 0.8623
vn 0.1216 -0.8623 0.4916
vn -0.8623 -0.1216 0.4916
vn -0.4488 -0.4488 0.7727
vn -0.4916 -0.1216 0.8623
vn -0.4489 -0.7727 0.4489
vn -0.7727 -0.4488 0.4488
vn -0.1216 -0.4916 0.8623
vn -0.1280 -0.1280 0.9835
vn -0.8623 -0.4916 0.1216
vn -0.4916 -0.8623 0.1216
vn 0.1280 -0.1280 0.9835
vn 0.4488 -0.4488 0.7727
vn -0.1216 -0.8623 0.4916
vn 0.1280 -0.9835 0.1280
vn -0.9703 -0.1709 0.1709
vn -0.1280 -0.9835 0.1280
vn 0.9915 -0.1303 -0.0000
vn 0.9835 -0.1280 0.1280
vn -0.4998 -0.8661 0.0000
vn 0.1303 -0.9915 0.0000
vn -0.1303 -0.9915 0.0000
vn -0.8661 -0.4998 0.0000
vn 0.8661 -0.4998 -0.0000
vn 0.4998 -0.8661 -0.0000
vn 0.4916 -0.1216 -0.8623
vn 0.7727 -0.4488 -0.4488
vn 0.4488 -0.4488 -0.7727
vn 0.8623 -0.4916 -0.1216
vn 0.4488 -0.7727 -0.4488
vn 0.1216 -0.4916 -0.8623
vn 0.1216 -0.8623 -0.4916
vn -0.8623 -0.1216 -0.4916
vn -0.4488 -0.4488 -0.7727
vn -0.7727 -0.4488 -0.4488
vn -0.4489 -0.7727 -0.4489
vn -0.1216 -0.4916 -0.8623
vn -0.4916 -0.1216 -0.8623
vn -0.1280 -0.1280 -0.9835
vn -0.8623 -0.4916 -0.1216
vn -0.4916 -0.8623 -0.1216
vn 0.1280 -0.1280 -0.9835
vn 0.4916 -0.8623 -0.1216
vn 0.1280 -0.9835 -0.1280
vn -0.9703 -0.1709 -0.1709
vn -0.1216 -0.8623 -0.4916
vn -0.1280 -0.9835 -0.1280
vn 0.8623 -0.1216 -0.4916
vn 0.9835 -0.1280 -0.1280
vn -0.9660 0.2585 0.0000
vn -0.9660 -0.2585 0.0000
usemtl CubeCustomText
s off
f 22/1/1 33/2/1 34/3/1
f 33/2/1 65/4/1 69/5/1
f 33/2/1 95/6/1 34/3/1
f 124/7/1 33/2/1 69/5/1
f 22/1/1 129/8/1 33/2/1
f 33/2/1 129/8/1 65/4/1
f 33/2/1 130/9/1 95/6/1
f 124/7/1 130/9/1 33/2/1
s 1
f 1/10/2 2/11/3 3/12/4
f 4/13/5 5/14/6 2/11/3
f 6/15/7 5/16/6 7/17/8
f 8/18/9 9/19/10 10/20/11
f 11/21/12 10/20/11 9/19/10
f 12/22/13 13/23/14 14/24/15
f 15/25/16 11/26/12 16/27/17
f 17/28/18 18/29/19 19/30/20
f 5/14/6 3/12/4 2/11/3
f 12/22/13 11/21/12 9/19/10
f 7/17/8 20/31/21 21/32/22
f 8/33/9 15/34/16 22/35/23
f 16/27/17 23/36/24 24/37/25
f 25/38/26 26/39/27 27/40/28
f 1/41/2 6/42/7 17/28/18
f 4/13/5 28/43/29 29/44/30
f 30/45/31 15/25/16 16/27/17
f 31/46/32 24/37/25 21/32/22
f 32/47/33 16/27/17 24/37/25
f 35/48/34 22/35/23 15/34/16
f 12/22/13 17/28/18 6/42/7
f 20/49/21 36/50/35 37/51/36
f 24/37/25 7/17/8 21/32/22
f 4/13/5 25/38/26 36/50/35
f 23/36/24 6/15/7 7/17/8
f 21/32/22 37/52/36 31/46/32
f 38/53/37 29/44/30 28/43/29
f 39/54/38 14/24/15 13/23/14
f 19/30/20 1/41/2 17/28/18
f 34/55/39 8/33/9 22/35/23
f 40/56/40 28/43/29 1/10/2
f 41/57/41 13/23/14 8/18/9
f 42/58/42 43/59/43 44/60/44
f 45/61/45 46/62/46 47/63/47
f 46/64/46 48/65/48 49/66/49
f 50/67/50 51/68/51 52/69/52
f 53/70/53 51/71/51 54/72/54
f 52/73/52 55/74/55 56/75/56
f 53/76/53 57/77/57 58/78/58
f 59/79/59 60/80/60 61/81/61
f 46/62/46 43/59/43 62/82/62
f 55/83/55 53/76/53 63/84/63
f 47/85/47 49/66/49 64/86/64
f 57/87/57 50/67/50 65/88/65
f 63/84/63 58/78/58 66/89/66
f 67/90/67 25/38/26 27/40/28
f 48/91/48 42/92/42 60/80/60
f 44/60/44 45/61/45 68/93/68
f 57/77/57 30/45/31 58/78/58
f 66/89/66 31/46/32 64/86/64
f 58/78/58 32/47/33 66/89/66
f 65/88/65 35/48/34 57/87/57
f 60/80/60 55/74/55 48/91/48
f 36/50/35 47/63/47 37/51/36
f 49/66/49 66/89/66 64/86/64
f 25/38/26 45/61/45 36/50/35
f 48/65/48 63/84/63 49/66/49
f 37/52/36 64/86/64 31/46/32
f 68/93/68 70/94/69 44/60/44
f 56/75/56 71/95/70 52/73/52
f 42/92/42 61/81/61 60/80/60
f 50/67/50 69/96/71 65/88/65
f 44/60/44 72/97/72 42/58/42
f 52/69/52 73/98/73 50/67/50
f 74/99/74 75/100/75 76/101/76
f 77/102/77 78/103/78 79/104/79
f 78/103/78 80/105/80 81/106/81
f 82/107/82 83/108/83 84/109/84
f 85/110/85 83/108/83 86/111/86
f 84/109/84 87/112/87 88/113/88
f 85/114/85 89/115/89 90/116/90
f 18/29/19 91/117/91 19/30/20
f 78/103/78 75/118/75 92/119/92
f 87/112/87 85/110/85 93/120/93
f 79/104/79 81/106/81 94/121/94
f 89/115/89 82/122/82 95/123/95
f 93/124/93 90/125/90 96/126/96
f 26/39/27 97/127/97 27/40/28
f 80/128/80 74/129/74 91/117/91
f 76/101/76 77/130/77 98/131/98
f 89/115/89 99/132/99 90/116/90
f 96/126/96 100/133/100 94/121/94
f 90/125/90 101/134/101 96/126/96
f 95/123/95 102/135/102 89/115/89
f 91/117/91 87/112/87 80/128/80
f 103/136/103 79/104/79 104/137/104
f 81/106/81 96/126/96 94/121/94
f 97/127/97 77/130/77 103/138/103
f 80/105/80 93/124/93 81/106/81
f 104/137/104 94/121/94 100/133/100
f 98/131/98 38/53/37 76/101/76
f 88/113/88 39/54/38 84/109/84
f 74/129/74 19/30/20 91/117/91
f 82/122/82 34/55/39 95/123/95
f 76/101/76 40/56/40 74/99/74
f 84/109/84 41/57/41 82/107/82
f 105/139/105 106/140/106 107/141/107
f 108/142/108 109/143/109 106/144/106
f 110/145/110 109/143/109 111/146/111
f 112/147/112 113/148/113 114/149/114
f 115/150/115 114/149/114 113/148/113
f 116/151/116 117/152/117 118/153/118
f 119/154/119 115/150/115 120/155/120
f 121/156/121 59/79/59 61/81/61
f 109/143/109 107/157/107 106/144/106
f 116/151/116 115/158/115 113/159/113
f 111/146/111 122/160/122 123/161/123
f 112/147/112 119/154/119 124/162/124
f 120/163/120 125/164/125 126/165/126
f 97/127/97 67/90/67 27/40/28
f 105/166/105 110/167/110 121/156/121
f 108/168/108 127/169/127 128/170/128
f 99/132/99 119/154/119 120/155/120
f 100/133/100 126/165/126 123/161/123
f 101/134/101 120/163/120 126/165/126
f 102/135/102 124/162/124 119/154/119
f 116/151/116 121/156/121 110/167/110
f 122/160/122 103/136/103 104/137/104
f 126/165/126 111/146/111 123/161/123
f 108/168/108 97/127/97 103/138/103
f 125/164/125 110/145/110 111/146/111
f 123/161/123 104/137/104 100/133/100
f 70/94/69 128/170/128 127/169/127
f 71/95/70 118/153/118 117/152/117
f 61/81/61 105/166/105 121/156/121
f 69/96/71 112/147/112 124/162/124
f 72/97/72 127/169/127 105/139/105
f 73/98/73 117/171/117 112/147/112
f 1/10/2 28/43/29 2/11/3
f 4/13/5 20/49/21 5/14/6
f 6/42/7 3/172/4 5/173/6
f 8/18/9 13/23/14 9/19/10
f 12/22/13 9/19/10 13/23/14
f 15/25/16 10/174/11 11/26/12
f 17/28/18 14/24/15 18/29/19
f 12/175/13 23/36/24 11/26/12
f 7/17/8 5/16/6 20/31/21
f 8/33/9 10/176/11 15/34/16
f 16/27/17 11/26/12 23/36/24
f 25/38/26 29/44/30 26/39/27
f 1/41/2 3/172/4 6/42/7
f 4/13/5 2/11/3 28/43/29
f 30/45/31 35/177/34 15/25/16
f 31/46/32 32/47/33 24/37/25
f 32/47/33 30/45/31 16/27/17
f 35/48/34 129/178/129 22/35/23
f 12/22/13 14/24/15 17/28/18
f 20/49/21 4/13/5 36/50/35
f 24/37/25 23/36/24 7/17/8
f 4/13/5 29/44/30 25/38/26
f 23/36/24 12/175/13 6/15/7
f 21/32/22 20/31/21 37/52/36
f 38/53/37 26/39/27 29/44/30
f 39/54/38 18/29/19 14/24/15
f 19/30/20 40/179/40 1/41/2
f 34/55/39 41/180/41 8/33/9
f 40/56/40 38/53/37 28/43/29
f 41/57/41 39/54/38 13/23/14
f 42/58/42 62/82/62 43/59/43
f 45/61/45 43/59/43 46/62/46
f 46/181/46 62/182/62 48/91/48
f 50/67/50 54/183/54 51/68/51
f 52/73/52 51/71/51 55/74/55
f 53/76/53 54/184/54 57/77/57
f 59/79/59 56/75/56 60/80/60
f 55/74/55 51/71/51 53/70/53
f 47/85/47 46/64/46 49/66/49
f 57/87/57 54/183/54 50/67/50
f 63/84/63 53/76/53 58/78/58
f 67/90/67 68/93/68 25/38/26
f 48/91/48 62/182/62 42/92/42
f 44/60/44 43/59/43 45/61/45
f 57/77/57 35/177/34 30/45/31
f 66/89/66 32/47/33 31/46/32
f 58/78/58 30/45/31 32/47/33
f 65/88/65 129/178/129 35/48/34
f 60/80/60 56/75/56 55/74/55
f 36/50/35 45/61/45 47/63/47
f 49/66/49 63/84/63 66/89/66
f 25/38/26 68/93/68 45/61/45
f 48/65/48 55/83/55 63/84/63
f 37/52/36 47/85/47 64/86/64
f 68/93/68 67/90/67 70/94/69
f 56/75/56 59/79/59 71/95/70
f 42/92/42 72/185/72 61/81/61
f 50/67/50 73/98/73 69/96/71
f 44/60/44 70/94/69 72/97/72
f 52/69/52 71/186/70 73/98/73
f 74/99/74 92/187/92 75/100/75
f 77/102/77 75/118/75 78/103/78
f 78/188/78 92/189/92 80/128/80
f 82/107/82 86/111/86 83/108/83
f 84/109/84 83/108/83 87/112/87
f 85/114/85 86/190/86 89/115/89
f 18/29/19 88/113/88 91/117/91
f 87/112/87 83/108/83 85/110/85
f 79/104/79 78/103/78 81/106/81
f 89/115/89 86/190/86 82/122/82
f 93/124/93 85/191/85 90/125/90
f 26/39/27 98/131/98 97/127/97
f 80/128/80 92/189/92 74/129/74
f 76/101/76 75/100/75 77/130/77
f 89/115/89 102/135/102 99/132/99
f 96/126/96 101/134/101 100/133/100
f 90/125/90 99/192/99 101/134/101
f 95/123/95 130/193/130 102/135/102
f 91/117/91 88/113/88 87/112/87
f 103/136/103 77/102/77 79/104/79
f 81/106/81 93/124/93 96/126/96
f 97/127/97 98/131/98 77/130/77
f 80/128/80 87/112/87 93/120/93
f 104/137/104 79/104/79 94/121/94
f 98/131/98 26/39/27 38/53/37
f 88/113/88 18/29/19 39/54/38
f 74/129/74 40/179/40 19/30/20
f 82/122/82 41/180/41 34/55/39
f 76/101/76 38/53/37 40/56/40
f 84/109/84 39/54/38 41/57/41
f 105/139/105 127/169/127 106/140/106
f 108/142/108 122/160/122 109/143/109
f 110/167/110 107/194/107 109/195/109
f 112/147/112 117/171/117 113/148/113
f 116/151/116 113/159/113 117/152/117
f 119/154/119 114/149/114 115/150/115
f 121/156/121 118/153/118 59/79/59
f 116/151/116 125/196/125 115/158/115
f 111/146/111 109/143/109 122/160/122
f 112/147/112 114/149/114 119/154/119
f 120/163/120 115/197/115 125/164/125
f 97/127/97 128/170/128 67/90/67
f 105/166/105 107/194/107 110/167/110
f 108/168/108 106/140/106 127/169/127
f 99/132/99 102/135/102 119/154/119
f 100/133/100 101/134/101 126/165/126
f 101/134/101 99/192/99 120/163/120
f 102/135/102 130/193/130 124/162/124
f 116/151/116 118/153/118 121/156/121
f 122/160/122 108/142/108 103/136/103
f 126/165/126 125/164/125 111/146/111
f 108/168/108 128/170/128 97/127/97
f 125/196/125 116/151/116 110/167/110
f 123/161/123 122/160/122 104/137/104
f 70/94/69 67/90/67 128/170/128
f 71/95/70 59/79/59 118/153/118
f 61/81/61 72/185/72 105/166/105
f 69/96/71 73/98/73 112/147/112
f 72/97/72 70/94/69 127/169/127
f 73/98/73 71/186/70 117/171/117
