# Blender v2.93.2 OBJ File: 'cubeTexturePower.blend'
# www.blender.org
mtllib piece21.mtl
o Rubiks_Cube_Cube.021_piece21
v -0.897001 -1.101343 0.998899
v 0.000000 -2.898658 0.998899
v 0.000000 -1.101343 0.998899
v -0.947605 -1.013539 0.897557
v -0.897001 -1.013539 0.948161
v -0.897001 -1.000000 0.897557
v -0.945464 -1.026691 0.946020
v -0.897001 -1.050738 0.985360
v -0.947605 -1.101343 0.985360
v -0.945464 -1.052880 0.972209
v -0.984804 -1.101343 0.948161
v -0.984804 -1.050738 0.897557
v -0.998343 -1.101343 0.897557
v -0.971653 -1.052880 0.946020
v -0.897001 -2.986461 0.948161
v -0.947605 -2.986461 0.897557
v -0.897001 -3.000000 0.897557
v -0.945464 -2.973310 0.946020
v -0.984803 -2.949262 0.897557
v -0.984803 -2.898658 0.948161
v -0.998343 -2.898658 0.897557
v -0.945464 -2.947121 0.972209
v -0.947605 -2.898658 0.985360
v -0.897001 -2.949262 0.985360
v -0.897001 -2.898658 0.998899
v -0.971653 -2.947121 0.946020
v 0.000000 -2.986461 0.948161
v 0.000000 -3.000000 0.897557
v 0.000000 -2.949262 0.985360
v -0.947605 -1.013539 0.000000
v -0.897001 -1.000000 0.000000
v -0.984804 -1.050738 0.000000
v -0.998343 -1.101343 0.000000
v 0.000000 -1.000000 0.897557
v 0.000000 -1.000000 -0.000000
v -0.984803 -2.949262 0.000000
v -0.947605 -2.986461 0.000000
v -0.897001 -3.000000 0.000000
v 0.000000 -3.000000 -0.000000
v 0.000000 -1.050738 0.985360
v 0.000000 -1.013539 0.948161
v 0.000000 -2.898658 -0.998899
v -0.897001 -1.101343 -0.998899
v -0.000000 -1.101343 -0.998899
v -0.897001 -1.013539 -0.948161
v -0.947605 -1.013539 -0.897557
v -0.897001 -1.000000 -0.897557
v -0.897001 -1.050738 -0.985360
v -0.945464 -1.026691 -0.946020
v -0.947605 -1.101343 -0.985360
v -0.984804 -1.101343 -0.948161
v -0.945464 -1.052880 -0.972209
v -0.984804 -1.050738 -0.897557
v -0.998343 -1.101343 -0.897557
v -0.971653 -1.052880 -0.946020
v -0.947605 -2.986461 -0.897557
v -0.897001 -2.986461 -0.948161
v -0.897001 -3.000000 -0.897557
v -0.984803 -2.949262 -0.897557
v -0.945464 -2.973310 -0.946020
v -0.984803 -2.898658 -0.948161
v -0.998343 -2.898658 -0.897557
v -0.945464 -2.947121 -0.972209
v -0.971653 -2.947121 -0.946020
v -0.897001 -2.949262 -0.985360
v -0.947605 -2.898658 -0.985360
v -0.897001 -2.898658 -0.998899
v 0.000000 -2.986461 -0.948161
v 0.000000 -3.000000 -0.897557
v 0.000000 -2.949262 -0.985360
v -0.000000 -1.000000 -0.897557
v -0.000000 -1.050738 -0.985360
v -0.000000 -1.013539 -0.948161
v 0.897001 -1.101343 0.998899
v 0.897001 -1.013539 0.948161
v 0.947605 -1.013539 0.897557
v 0.897001 -1.000000 0.897557
v 0.897001 -1.050738 0.985360
v 0.945464 -1.026691 0.946020
v 0.947605 -1.101343 0.985360
v 0.984804 -1.101343 0.948161
v 0.945464 -1.052880 0.972209
v 0.984804 -1.050738 0.897557
v 0.998343 -1.101343 0.897557
v 0.971653 -1.052880 0.946020
v 0.947605 -2.986461 0.897557
v 0.897002 -2.986461 0.948161
v 0.897002 -3.000000 0.897557
v 0.984804 -2.949262 0.897557
v 0.945464 -2.973310 0.946020
v 0.984804 -2.898658 0.948161
v 0.998343 -2.898658 0.897557
v 0.945464 -2.947121 0.972209
v 0.971653 -2.947121 0.946020
v 0.897002 -2.949262 0.985360
v 0.947605 -2.898658 0.985360
v 0.897002 -2.898658 0.998899
v 0.947605 -1.013539 -0.000000
v 0.897001 -1.000000 -0.000000
v 0.984804 -1.050738 -0.000000
v 0.998343 -1.101343 -0.000000
v 0.984804 -2.949262 -0.000000
v 0.947605 -2.986461 -0.000000
v 0.897002 -3.000000 -0.000000
v 0.897001 -1.101343 -0.998899
v 0.947605 -1.013539 -0.897557
v 0.897001 -1.013539 -0.948161
v 0.897001 -1.000000 -0.897557
v 0.945464 -1.026691 -0.946020
v 0.897001 -1.050738 -0.985360
v 0.947605 -1.101343 -0.985360
v 0.945464 -1.052880 -0.972209
v 0.984804 -1.101343 -0.948161
v 0.984804 -1.050738 -0.897557
v 0.998343 -1.101343 -0.897557
v 0.971653 -1.052880 -0.946020
v 0.897002 -2.986461 -0.948161
v 0.947605 -2.986461 -0.897557
v 0.897002 -3.000000 -0.897557
v 0.945464 -2.973310 -0.946020
v 0.984804 -2.949262 -0.897557
v 0.984804 -2.898658 -0.948161
v 0.998343 -2.898658 -0.897557
v 0.945464 -2.947121 -0.972209
v 0.947605 -2.898658 -0.985360
v 0.897002 -2.949262 -0.985360
v 0.897002 -2.898658 -0.998899
v 0.971653 -2.947121 -0.946020
v -0.998343 -2.898658 0.000000
v 0.998343 -2.898658 -0.000000
vt 0.083496 0.333008
vt 0.125000 0.250000
vt 0.125000 0.333008
vt 0.083496 0.166992
vt 0.125000 0.166992
vt 0.166504 0.333008
vt 0.166504 0.166992
vt 0.083496 0.250000
vt 0.166504 0.250000
vt 0.990723 0.761719
vt 0.955078 0.905273
vt 0.955078 0.761719
vt 0.837402 0.750000
vt 0.834961 0.754883
vt 0.834961 0.750000
vt 0.837402 0.754883
vt 0.834961 0.757812
vt 0.990723 0.757812
vt 0.993164 0.761719
vt 0.760254 0.914062
vt 0.761719 0.913086
vt 0.761719 0.916016
vt 0.759766 0.908203
vt 0.761719 0.908203
vt 0.838867 0.750000
vt 0.838379 0.754883
vt 0.837402 0.757812
vt 0.842285 0.913086
vt 0.840332 0.908203
vt 0.842285 0.908203
vt 0.840332 0.913086
vt 0.838867 0.908203
vt 0.835938 0.908203
vt 0.833496 0.913086
vt 0.833496 0.908203
vt 0.835938 0.914062
vt 0.833496 0.916016
vt 0.993164 0.905273
vt 0.990723 0.908203
vt 0.990723 0.905273
vt 0.992676 0.911133
vt 0.990723 0.913086
vt 0.836914 0.913086
vt 0.835938 0.913086
vt 0.877930 0.913086
vt 0.877930 0.908203
vt 0.955078 0.908203
vt 0.955078 0.913086
vt 0.837402 0.678711
vt 0.834961 0.678711
vt 0.838867 0.678711
vt 0.761719 0.836914
vt 0.759766 0.836914
vt 0.799316 0.750000
vt 0.799316 0.678711
vt 0.835938 0.836914
vt 0.840332 0.837891
vt 0.842285 0.837891
vt 0.955078 0.757812
vt 0.799316 0.754883
vt 0.954102 0.604492
vt 0.989258 0.747070
vt 0.954102 0.747070
vt 0.834961 0.603516
vt 0.837402 0.606445
vt 0.834961 0.606445
vt 0.834961 0.600586
vt 0.837402 0.603516
vt 0.991211 0.747070
vt 0.989258 0.751953
vt 0.761719 0.760742
vt 0.760254 0.758789
vt 0.761719 0.757812
vt 0.759766 0.764648
vt 0.761719 0.764648
vt 0.838867 0.606445
vt 0.838379 0.603516
vt 0.837402 0.601562
vt 0.840332 0.766602
vt 0.842285 0.761719
vt 0.842285 0.766602
vt 0.838867 0.766602
vt 0.840332 0.761719
vt 0.833496 0.760742
vt 0.835938 0.764648
vt 0.833496 0.764648
vt 0.835938 0.758789
vt 0.835938 0.760742
vt 0.989258 0.600586
vt 0.991211 0.604492
vt 0.989258 0.604492
vt 0.840332 0.760742
vt 0.841797 0.758789
vt 0.839355 0.761719
vt 0.877930 0.761719
vt 0.877930 0.766602
vt 0.877930 0.758789
vt 0.954102 0.600586
vt 0.833496 0.757812
vt 0.799316 0.606445
vt 0.954102 0.751953
vt 0.799316 0.603516
vt 0.918945 0.761719
vt 0.763184 0.754883
vt 0.761230 0.750000
vt 0.763184 0.750000
vt 0.763184 0.757812
vt 0.761230 0.754883
vt 0.916992 0.761719
vt 0.918945 0.757812
vt 0.840332 0.603516
vt 0.838867 0.601562
vt 0.840332 0.600586
vt 0.838867 0.606445
vt 0.840332 0.606445
vt 0.759766 0.750000
vt 0.760254 0.754883
vt 0.761230 0.757812
vt 0.915527 0.908203
vt 0.913086 0.913086
vt 0.914062 0.908203
vt 0.914551 0.606445
vt 0.915527 0.603516
vt 0.916016 0.606445
vt 0.912109 0.603516
vt 0.912109 0.606445
vt 0.915527 0.905273
vt 0.916992 0.908203
vt 0.916016 0.908203
vt 0.918945 0.908203
vt 0.916992 0.905273
vt 0.918945 0.905273
vt 0.916992 0.911133
vt 0.918945 0.913086
vt 0.912109 0.600586
vt 0.761230 0.678711
vt 0.763184 0.678711
vt 0.759766 0.678711
vt 0.840332 0.678711
vt 0.838867 0.678711
vt 0.914551 0.678711
vt 0.916016 0.678711
vt 0.914062 0.836914
vt 0.917969 0.747070
vt 0.761230 0.606445
vt 0.763184 0.603516
vt 0.763184 0.606445
vt 0.761230 0.603516
vt 0.763184 0.600586
vt 0.917969 0.751953
vt 0.916016 0.747070
vt 0.838867 0.757812
vt 0.840332 0.754883
vt 0.840332 0.757812
vt 0.838867 0.750000
vt 0.840332 0.750000
vt 0.759766 0.606445
vt 0.760254 0.603516
vt 0.761230 0.601562
vt 0.913086 0.760742
vt 0.915527 0.764648
vt 0.914062 0.764648
vt 0.915527 0.754883
vt 0.914551 0.750000
vt 0.916016 0.750000
vt 0.912109 0.754883
vt 0.912109 0.750000
vt 0.914551 0.757812
vt 0.912109 0.757812
vt 0.916016 0.604492
vt 0.917969 0.600586
vt 0.917969 0.604492
vt 0.913086 0.757812
vt 0.915527 0.760742
vt 0.837891 0.757812
vt 0.838867 0.758789
vt 0.837891 0.760742
vt 0.992676 0.757812
vt 0.837891 0.764648
vt 0.838867 0.764648
vt 0.837891 0.769531
vt 0.760254 0.913086
vt 0.839355 0.913086
vt 0.992676 0.908203
vt 0.833496 0.836914
vt 0.838867 0.836914
vt 0.799316 0.757812
vt 0.991211 0.751953
vt 0.837402 0.772461
vt 0.836914 0.769531
vt 0.837402 0.767578
vt 0.760254 0.760742
vt 0.991211 0.600586
vt 0.799316 0.600586
vt 0.916992 0.757812
vt 0.837402 0.763672
vt 0.836914 0.758789
vt 0.837402 0.757812
vt 0.838867 0.603516
vt 0.915527 0.911133
vt 0.914551 0.603516
vt 0.914551 0.601562
vt 0.912109 0.678711
vt 0.915527 0.836914
vt 0.916016 0.751953
vt 0.836914 0.763672
vt 0.837402 0.764648
vt 0.836914 0.767578
vt 0.838867 0.754883
vt 0.914551 0.754883
vt 0.838867 0.764648
vt 0.916016 0.600586
vt 0.915527 0.758789
vn 0.0000 -1.0000 -0.0000
vn -0.1280 0.1280 0.9835
vn 0.0000 -0.1303 0.9915
vn 0.0000 0.1303 0.9915
vn -0.4916 0.8623 0.1216
vn -0.1216 0.8623 0.4916
vn -0.1280 0.9835 0.1280
vn -0.4488 0.7727 0.4488
vn -0.1216 0.4916 0.8623
vn -0.4916 0.1216 0.8623
vn -0.4488 0.4488 0.7727
vn -0.8623 0.1216 0.4916
vn -0.8623 0.4916 0.1216
vn -0.9835 0.1280 0.1280
vn -0.7727 0.4488 0.4488
vn -0.1216 -0.8623 0.4916
vn -0.4916 -0.8623 0.1216
vn -0.1709 -0.9703 0.1709
vn -0.4488 -0.7727 0.4488
vn -0.8623 -0.4916 0.1216
vn -0.8623 -0.1216 0.4916
vn -0.9835 -0.1280 0.1280
vn -0.4488 -0.4488 0.7727
vn -0.4916 -0.1216 0.8623
vn -0.1216 -0.4916 0.8623
vn -0.1280 -0.1280 0.9835
vn -0.7727 -0.4488 0.4488
vn 0.0000 -0.8661 0.4998
vn 0.0000 -0.9660 0.2584
vn 0.0000 -0.4998 0.8661
vn -0.4998 0.8661 0.0000
vn -0.1303 0.9915 0.0000
vn -0.8661 0.4998 0.0000
vn -0.9915 0.1303 0.0000
vn -0.0000 0.9915 0.1303
vn -0.0000 1.0000 0.0000
vn -0.8661 -0.4998 0.0000
vn -0.4998 -0.8661 0.0000
vn -0.2585 -0.9660 0.0000
vn 0.0000 0.4998 0.8661
vn 0.0000 0.8661 0.4998
vn -0.0000 -0.1303 -0.9915
vn -0.1280 0.1280 -0.9835
vn -0.0000 0.1303 -0.9915
vn -0.1216 0.8623 -0.4916
vn -0.4916 0.8623 -0.1216
vn -0.1280 0.9835 -0.1280
vn -0.1216 0.4916 -0.8623
vn -0.4488 0.7727 -0.4488
vn -0.4916 0.1216 -0.8623
vn -0.8623 0.1216 -0.4916
vn -0.4488 0.4488 -0.7727
vn -0.8623 0.4916 -0.1216
vn -0.9835 0.1280 -0.1280
vn -0.7727 0.4488 -0.4488
vn -0.4916 -0.8623 -0.1216
vn -0.1216 -0.8623 -0.4916
vn -0.1709 -0.9703 -0.1709
vn -0.8623 -0.4916 -0.1216
vn -0.4488 -0.7727 -0.4488
vn -0.8623 -0.1216 -0.4916
vn -0.9835 -0.1280 -0.1280
vn -0.4488 -0.4488 -0.7727
vn -0.7727 -0.4488 -0.4488
vn -0.1216 -0.4916 -0.8623
vn -0.4916 -0.1216 -0.8623
vn -0.1280 -0.1280 -0.9835
vn -0.0000 -0.8661 -0.4998
vn -0.0000 -0.9660 -0.2584
vn -0.0000 -0.4998 -0.8661
vn -0.0000 0.9915 -0.1303
vn -0.0000 0.4998 -0.8661
vn -0.0000 0.8661 -0.4998
vn 0.1280 0.1280 0.9835
vn 0.1216 0.8623 0.4916
vn 0.4916 0.8623 0.1216
vn 0.1280 0.9835 0.1280
vn 0.1216 0.4916 0.8623
vn 0.4488 0.7727 0.4488
vn 0.4916 0.1216 0.8623
vn 0.8623 0.1216 0.4916
vn 0.4488 0.4488 0.7727
vn 0.8623 0.4916 0.1216
vn 0.9835 0.1280 0.1280
vn 0.7727 0.4488 0.4488
vn 0.4916 -0.8623 0.1216
vn 0.1216 -0.8623 0.4916
vn 0.1709 -0.9703 0.1709
vn 0.8623 -0.4916 0.1216
vn 0.4488 -0.7727 0.4488
vn 0.8623 -0.1216 0.4916
vn 0.9835 -0.1280 0.1280
vn 0.4488 -0.4488 0.7727
vn 0.7727 -0.4488 0.4488
vn 0.1216 -0.4916 0.8623
vn 0.4916 -0.1216 0.8623
vn 0.1280 -0.1280 0.9835
vn 0.4998 0.8661 -0.0000
vn 0.1303 0.9915 -0.0000
vn 0.8661 0.4998 -0.0000
vn 0.9915 0.1303 -0.0000
vn 0.8661 -0.4998 -0.0000
vn 0.4998 -0.8661 0.0000
vn 0.2585 -0.9660 -0.0000
vn 0.1280 0.1280 -0.9835
vn 0.4916 0.8623 -0.1216
vn 0.1216 0.8623 -0.4916
vn 0.1280 0.9835 -0.1280
vn 0.4488 0.7727 -0.4488
vn 0.1216 0.4916 -0.8623
vn 0.4916 0.1216 -0.8623
vn 0.4488 0.4488 -0.7727
vn 0.8623 0.1216 -0.4916
vn 0.8623 0.4916 -0.1216
vn 0.9835 0.1280 -0.1280
vn 0.7727 0.4488 -0.4488
vn 0.1216 -0.8623 -0.4916
vn 0.4916 -0.8623 -0.1216
vn 0.1709 -0.9703 -0.1709
vn 0.4488 -0.7727 -0.4488
vn 0.8623 -0.4916 -0.1216
vn 0.8623 -0.1216 -0.4916
vn 0.9835 -0.1280 -0.1280
vn 0.4488 -0.4488 -0.7727
vn 0.4916 -0.1216 -0.8623
vn 0.1216 -0.4916 -0.8623
vn 0.1280 -0.1280 -0.9835
vn 0.7727 -0.4488 -0.4488
vn -0.9915 -0.1303 0.0000
vn 0.9915 -0.1303 -0.0000
usemtl CubeCustomText
s off
f 17/1/1 39/2/1 28/3/1
f 39/2/1 58/4/1 69/5/1
f 39/2/1 88/6/1 28/3/1
f 119/7/1 39/2/1 69/5/1
f 17/1/1 38/8/1 39/2/1
f 39/2/1 38/8/1 58/4/1
f 39/2/1 104/9/1 88/6/1
f 119/7/1 104/9/1 39/2/1
s 1
f 1/10/2 2/11/3 3/12/4
f 4/13/5 5/14/6 6/15/7
f 7/16/8 8/17/9 5/14/6
f 8/18/9 9/19/10 1/10/2
f 10/20/11 11/21/12 9/22/10
f 11/21/12 12/23/13 13/24/14
f 12/25/13 7/16/8 4/13/5
f 7/16/8 14/26/15 10/27/11
f 15/28/16 16/29/17 17/30/18
f 18/31/19 19/32/20 16/29/17
f 19/33/20 20/34/21 21/35/22
f 20/34/21 22/36/23 23/37/24
f 23/38/24 24/39/25 25/40/26
f 24/39/25 18/41/19 15/42/16
f 18/43/19 22/36/23 26/44/27
f 27/45/28 17/30/18 28/46/29
f 29/47/30 15/42/16 27/48/28
f 2/11/3 24/39/25 29/47/30
f 20/34/21 13/24/14 21/35/22
f 23/37/24 11/21/12 20/34/21
f 25/40/26 9/19/10 23/38/24
f 30/49/31 6/15/7 31/50/32
f 32/51/33 4/13/5 30/49/31
f 33/52/34 12/23/13 32/53/33
f 31/50/32 34/54/35 35/55/36
f 21/35/22 36/56/37 19/33/20
f 19/32/20 37/57/38 16/29/17
f 16/29/17 38/58/39 17/30/18
f 33/52/34 21/35/22 13/24/14
f 1/10/2 40/59/40 8/18/9
f 8/17/9 41/60/41 5/14/6
f 5/14/6 34/54/35 6/15/7
f 42/61/42 43/62/43 44/63/44
f 45/64/45 46/65/46 47/66/47
f 48/67/48 49/68/49 45/64/45
f 50/69/50 48/70/48 43/62/43
f 51/71/51 52/72/52 50/73/50
f 53/74/53 51/71/51 54/75/54
f 53/76/53 49/68/49 55/77/55
f 49/68/49 52/78/52 55/77/55
f 56/79/56 57/80/57 58/81/58
f 59/82/59 60/83/60 56/79/56
f 61/84/61 59/85/59 62/86/62
f 61/84/61 63/87/63 64/88/64
f 65/89/65 66/90/66 67/91/67
f 57/80/57 63/92/63 65/93/65
f 60/83/60 64/94/64 63/92/63
f 58/81/58 68/95/68 69/96/69
f 57/80/57 70/97/70 68/95/68
f 65/89/65 42/61/42 70/98/70
f 54/75/54 61/84/61 62/86/62
f 51/71/51 66/99/66 61/84/61
f 50/69/50 67/91/67 66/90/66
f 47/66/47 30/49/31 31/50/32
f 46/65/46 32/51/33 30/49/31
f 53/74/53 33/52/34 32/53/33
f 71/100/71 31/50/32 35/55/36
f 36/56/37 62/86/62 59/85/59
f 37/57/38 59/82/59 56/79/56
f 38/58/39 56/79/56 58/81/58
f 62/86/62 33/52/34 54/75/54
f 72/101/72 43/62/43 48/70/48
f 73/102/73 48/67/48 45/64/45
f 71/100/71 45/64/45 47/66/47
f 2/11/3 74/103/74 3/12/4
f 75/104/75 76/105/76 77/106/77
f 78/107/78 79/108/79 75/104/75
f 80/109/80 78/110/78 74/103/74
f 81/111/81 82/112/82 80/113/80
f 83/114/83 81/111/81 84/115/84
f 83/116/83 79/108/79 85/117/85
f 79/108/79 82/118/82 85/117/85
f 86/119/86 87/120/87 88/121/88
f 89/122/89 90/123/90 86/124/86
f 91/125/91 89/122/89 92/126/92
f 91/127/91 93/128/93 94/129/94
f 95/130/95 96/131/96 97/132/97
f 95/130/95 90/133/90 93/128/93
f 90/133/90 94/129/94 93/128/93
f 88/121/88 27/45/28 28/46/29
f 87/134/87 29/47/30 27/48/28
f 95/130/95 2/11/3 29/47/30
f 84/115/84 91/125/91 92/126/92
f 81/111/81 96/135/96 91/125/91
f 80/109/80 97/132/97 96/131/96
f 77/106/77 98/136/98 99/137/99
f 76/105/76 100/138/100 98/136/98
f 83/114/83 101/139/101 100/140/100
f 34/54/35 99/137/99 35/55/36
f 102/141/102 92/126/92 89/122/89
f 103/142/103 89/122/89 86/124/86
f 104/143/104 86/119/86 88/121/88
f 92/126/92 101/139/101 84/115/84
f 40/59/40 74/103/74 78/110/78
f 41/60/41 78/107/78 75/104/75
f 34/54/35 75/104/75 77/106/77
f 105/144/105 42/61/42 44/63/44
f 106/145/106 107/146/107 108/147/108
f 109/148/109 110/149/110 107/146/107
f 110/150/110 111/151/111 105/144/105
f 112/152/112 113/153/113 111/154/111
f 113/153/113 114/155/114 115/156/115
f 114/157/114 109/148/109 106/145/106
f 109/148/109 116/158/116 112/159/112
f 117/160/117 118/161/118 119/162/119
f 120/163/120 121/164/121 118/165/118
f 121/164/121 122/166/122 123/167/123
f 122/166/122 124/168/124 125/169/125
f 125/170/125 126/171/126 127/172/127
f 126/173/126 120/174/120 117/160/117
f 120/175/120 124/176/124 128/177/128
f 68/95/68 119/162/119 69/96/69
f 70/97/70 117/160/117 68/95/68
f 42/61/42 126/171/126 70/98/70
f 122/166/122 115/156/115 123/167/123
f 125/169/125 113/153/113 122/166/122
f 127/172/127 111/151/111 125/170/125
f 98/136/98 108/147/108 99/137/99
f 100/138/100 106/145/106 98/136/98
f 101/139/101 114/155/114 100/140/100
f 99/137/99 71/100/71 35/55/36
f 123/167/123 102/141/102 121/164/121
f 121/164/121 103/142/103 118/165/118
f 118/161/118 104/143/104 119/162/119
f 101/139/101 123/167/123 115/156/115
f 105/144/105 72/101/72 110/150/110
f 110/149/110 73/102/73 107/146/107
f 107/146/107 71/100/71 108/147/108
f 1/10/2 25/40/26 2/11/3
f 4/13/5 7/16/8 5/14/6
f 7/16/8 10/27/11 8/17/9
f 8/18/9 10/178/11 9/19/10
f 10/179/11 14/180/15 11/181/12
f 11/21/12 14/182/15 12/23/13
f 12/25/13 14/26/15 7/16/8
f 15/28/16 18/31/19 16/29/17
f 18/31/19 26/183/27 19/32/20
f 19/33/20 26/44/27 20/34/21
f 20/34/21 26/44/27 22/36/23
f 23/38/24 22/184/23 24/39/25
f 24/39/25 22/184/23 18/41/19
f 27/45/28 15/28/16 17/30/18
f 29/47/30 24/39/25 15/42/16
f 2/11/3 25/40/26 24/39/25
f 20/34/21 11/21/12 13/24/14
f 23/37/24 9/22/10 11/21/12
f 25/40/26 1/10/2 9/19/10
f 30/49/31 4/13/5 6/15/7
f 32/51/33 12/25/13 4/13/5
f 33/52/34 13/24/14 12/23/13
f 31/50/32 6/15/7 34/54/35
f 21/35/22 129/185/129 36/56/37
f 19/32/20 36/186/37 37/57/38
f 16/29/17 37/57/38 38/58/39
f 33/52/34 129/185/129 21/35/22
f 1/10/2 3/12/4 40/59/40
f 8/17/9 40/187/40 41/60/41
f 5/14/6 41/60/41 34/54/35
f 42/61/42 67/91/67 43/62/43
f 45/64/45 49/68/49 46/65/46
f 48/67/48 52/78/52 49/68/49
f 50/69/50 52/188/52 48/70/48
f 51/189/51 55/190/55 52/191/52
f 53/74/53 55/192/55 51/71/51
f 53/76/53 46/65/46 49/68/49
f 56/79/56 60/83/60 57/80/57
f 59/82/59 64/94/64 60/83/60
f 61/84/61 64/88/64 59/85/59
f 61/84/61 66/99/66 63/87/63
f 65/89/65 63/193/63 66/90/66
f 57/80/57 60/83/60 63/92/63
f 58/81/58 57/80/57 68/95/68
f 57/80/57 65/93/65 70/97/70
f 65/89/65 67/91/67 42/61/42
f 54/75/54 51/71/51 61/84/61
f 51/71/51 50/73/50 66/99/66
f 50/69/50 43/62/43 67/91/67
f 47/66/47 46/65/46 30/49/31
f 46/65/46 53/76/53 32/51/33
f 53/74/53 54/75/54 33/52/34
f 71/100/71 47/66/47 31/50/32
f 36/56/37 129/185/129 62/86/62
f 37/57/38 36/186/37 59/82/59
f 38/58/39 37/57/38 56/79/56
f 62/86/62 129/185/129 33/52/34
f 72/101/72 44/63/44 43/62/43
f 73/102/73 72/194/72 48/67/48
f 71/100/71 73/102/73 45/64/45
f 2/11/3 97/132/97 74/103/74
f 75/104/75 79/108/79 76/105/76
f 78/107/78 82/118/82 79/108/79
f 80/109/80 82/195/82 78/110/78
f 81/196/81 85/197/85 82/198/82
f 83/114/83 85/199/85 81/111/81
f 83/116/83 76/105/76 79/108/79
f 86/119/86 90/200/90 87/120/87
f 89/122/89 94/201/94 90/123/90
f 91/125/91 94/201/94 89/122/89
f 91/125/91 96/135/96 93/202/93
f 95/130/95 93/128/93 96/131/96
f 95/130/95 87/134/87 90/133/90
f 88/121/88 87/120/87 27/45/28
f 87/134/87 95/130/95 29/47/30
f 95/130/95 97/132/97 2/11/3
f 84/115/84 81/111/81 91/125/91
f 81/111/81 80/113/80 96/135/96
f 80/109/80 74/103/74 97/132/97
f 77/106/77 76/105/76 98/136/98
f 76/105/76 83/116/83 100/138/100
f 83/114/83 84/115/84 101/139/101
f 34/54/35 77/106/77 99/137/99
f 102/141/102 130/203/130 92/126/92
f 103/142/103 102/141/102 89/122/89
f 104/143/104 103/204/103 86/119/86
f 92/126/92 130/203/130 101/139/101
f 40/59/40 3/12/4 74/103/74
f 41/60/41 40/187/40 78/107/78
f 34/54/35 41/60/41 75/104/75
f 105/144/105 127/172/127 42/61/42
f 106/145/106 109/148/109 107/146/107
f 109/148/109 112/159/112 110/149/110
f 110/150/110 112/205/112 111/151/111
f 112/206/112 116/207/116 113/208/113
f 113/153/113 116/209/116 114/155/114
f 114/157/114 116/158/116 109/148/109
f 117/160/117 120/174/120 118/161/118
f 120/163/120 128/210/128 121/164/121
f 121/164/121 128/210/128 122/166/122
f 122/211/122 128/177/128 124/176/124
f 125/170/125 124/212/124 126/171/126
f 126/173/126 124/213/124 120/174/120
f 68/95/68 117/160/117 119/162/119
f 70/97/70 126/173/126 117/160/117
f 42/61/42 127/172/127 126/171/126
f 122/166/122 113/153/113 115/156/115
f 125/169/125 111/154/111 113/153/113
f 127/172/127 105/144/105 111/151/111
f 98/136/98 106/145/106 108/147/108
f 100/138/100 114/157/114 106/145/106
f 101/139/101 115/156/115 114/155/114
f 99/137/99 108/147/108 71/100/71
f 123/167/123 130/203/130 102/141/102
f 121/164/121 102/141/102 103/142/103
f 118/161/118 103/204/103 104/143/104
f 101/139/101 130/203/130 123/167/123
f 105/144/105 44/63/44 72/101/72
f 110/149/110 72/194/72 73/102/73
f 107/146/107 73/102/73 71/100/71
