# Blender v2.93.2 OBJ File: 'cubeTexturePower.blend'
# www.blender.org
mtllib piece25.mtl
o Rubiks_Cube_Cube.025_piece25
v 3.000000 -2.898655 2.898658
v 3.000000 -1.101342 1.101342
v 3.000000 -1.101342 2.898658
v 1.101342 -1.101342 3.000000
v 2.898659 -2.898655 3.000000
v 2.898658 -1.101342 3.000000
v 1.101342 -3.000000 1.101342
v 2.898659 -2.999999 2.898658
v 1.101342 -3.000000 2.898658
v 2.898659 -2.898655 1.000000
v 1.101342 -1.101342 1.000000
v 2.898658 -1.101342 1.000000
v 1.000000 -2.898657 1.101342
v 1.000000 -1.101342 2.898658
v 1.000000 -1.101342 1.101342
v 2.949262 -1.013538 1.101342
v 2.898658 -1.013538 1.050738
v 2.898658 -0.999999 1.101342
v 2.986461 -1.050736 1.101342
v 2.947121 -1.026690 1.052879
v 2.986461 -1.101342 1.050738
v 2.947121 -1.052879 1.026690
v 2.973310 -1.052879 1.052879
v 2.898658 -1.050736 1.013539
v 2.949262 -1.101342 1.013539
v 2.986461 -2.949261 1.101342
v 2.986461 -2.898655 1.050738
v 3.000000 -2.898655 1.101342
v 2.947121 -2.973309 1.052879
v 2.973310 -2.947120 1.052879
v 2.898659 -2.986460 1.050738
v 2.949262 -2.986460 1.101342
v 2.898659 -2.999999 1.101342
v 2.947121 -2.947120 1.026690
v 2.949262 -2.898655 1.013539
v 2.898659 -2.949261 1.013539
v 1.101342 -1.013538 1.050738
v 1.050738 -1.013538 1.101342
v 1.101342 -0.999999 1.101342
v 1.101342 -1.050737 1.013539
v 1.052879 -1.026690 1.052879
v 1.050738 -1.101342 1.013539
v 1.026690 -1.052879 1.052879
v 1.052879 -1.052879 1.026690
v 1.013539 -1.050737 1.101342
v 1.013539 -1.101342 1.050738
v 1.050738 -2.986460 1.101342
v 1.101342 -2.986460 1.050738
v 1.013539 -2.949261 1.101342
v 1.052879 -2.973310 1.052879
v 1.013539 -2.898657 1.050738
v 1.050738 -2.898657 1.013539
v 1.026690 -2.947120 1.052879
v 1.101342 -2.949261 1.013539
v 1.101342 -2.898657 1.000000
v 1.052879 -2.947120 1.026690
v 2.898658 -1.013538 2.949262
v 2.949262 -1.013538 2.898658
v 2.898658 -0.999999 2.898658
v 2.898658 -1.050736 2.986461
v 2.947121 -1.026690 2.947121
v 2.949262 -1.101342 2.986461
v 2.986461 -1.101342 2.949262
v 2.947121 -1.052879 2.973310
v 2.986461 -1.050736 2.898658
v 2.973310 -1.052879 2.947121
v 2.949262 -2.986460 2.898658
v 2.898659 -2.986460 2.949262
v 2.973310 -2.947120 2.947121
v 2.947121 -2.973309 2.947121
v 2.986461 -2.898655 2.949262
v 2.986461 -2.949261 2.898658
v 2.949262 -2.898655 2.986461
v 2.898659 -2.949261 2.986461
v 2.947121 -2.947120 2.973310
v 1.050738 -1.013538 2.898658
v 1.101342 -1.013538 2.949262
v 1.101342 -0.999999 2.898658
v 1.013539 -1.050737 2.898658
v 1.052879 -1.026690 2.947121
v 1.013539 -1.101342 2.949262
v 1.050738 -1.101342 2.986461
v 1.026690 -1.052879 2.947121
v 1.101342 -1.050737 2.986461
v 1.052879 -1.052879 2.973310
v 1.101342 -2.986460 2.949262
v 1.050738 -2.986460 2.898658
v 1.052879 -2.947120 2.973310
v 1.052879 -2.973310 2.947121
v 1.050738 -2.898657 2.986461
v 1.101342 -2.949261 2.986461
v 1.101342 -2.898657 3.000000
v 1.013539 -2.898657 2.949262
v 1.013539 -2.949261 2.898658
v 1.000000 -2.898657 2.898658
v 1.026690 -2.947120 2.947121
vt 0.500000 0.500000
vt 0.583496 0.666992
vt 0.500000 0.666992
vt 0.416504 0.666992
vt 0.500000 0.500000
vt 0.500000 0.666992
vt 0.166504 0.333008
vt 0.250000 0.500000
vt 0.166504 0.500000
vt 0.583496 0.500000
vt 0.416504 0.500000
vt 0.250000 0.333008
vt 0.841309 0.533203
vt 0.910156 0.671875
vt 0.841309 0.671875
vt 0.839844 0.822266
vt 0.907715 0.680664
vt 0.907715 0.819336
vt 0.764648 0.533203
vt 0.766602 0.530273
vt 0.766602 0.533203
vt 0.763184 0.533203
vt 0.764648 0.530273
vt 0.765137 0.828125
vt 0.763184 0.825195
vt 0.765137 0.825195
vt 0.837402 0.671875
vt 0.838867 0.674805
vt 0.837891 0.674805
vt 0.841309 0.676758
vt 0.838867 0.671875
vt 0.838867 0.676758
vt 0.833984 0.825195
vt 0.832031 0.828125
vt 0.832031 0.825195
vt 0.834961 0.828125
vt 0.833984 0.828125
vt 0.907715 0.831055
vt 0.910156 0.834961
vt 0.907715 0.834961
vt 0.841309 0.527344
vt 0.838867 0.530273
vt 0.838867 0.528320
vt 0.838867 0.533203
vt 0.841309 0.530273
vt 0.832520 0.831055
vt 0.833984 0.829102
vt 0.835449 0.530273
vt 0.837402 0.533203
vt 0.835449 0.533203
vt 0.835449 0.527344
vt 0.837402 0.530273
vt 0.912109 0.671875
vt 0.910156 0.676758
vt 0.908203 0.825195
vt 0.910156 0.822266
vt 0.910156 0.825195
vt 0.910156 0.819336
vt 0.907715 0.822266
vt 0.911133 0.823242
vt 0.838867 0.834961
vt 0.841309 0.831055
vt 0.841309 0.834961
vt 0.837402 0.834961
vt 0.838867 0.832031
vt 0.839844 0.825195
vt 0.837402 0.822266
vt 0.839844 0.829102
vt 0.837402 0.825195
vt 0.910156 0.530273
vt 0.912109 0.533203
vt 0.910156 0.533203
vt 0.838867 0.829102
vt 0.840820 0.829102
vt 0.837891 0.832031
vt 0.766602 0.676758
vt 0.764648 0.671875
vt 0.766602 0.671875
vt 0.766602 0.677734
vt 0.764648 0.674805
vt 0.911621 0.683594
vt 0.913574 0.680664
vt 0.913086 0.683594
vt 0.765137 0.680664
vt 0.763672 0.679688
vt 0.765625 0.677734
vt 0.763184 0.685547
vt 0.765137 0.685547
vt 0.763184 0.671875
vt 0.763672 0.674805
vt 0.764648 0.676758
vt 0.910156 0.972656
vt 0.907715 0.977539
vt 0.907715 0.972656
vt 0.835449 0.685547
vt 0.833984 0.680664
vt 0.834961 0.680664
vt 0.832031 0.680664
vt 0.833984 0.685547
vt 0.832031 0.685547
vt 0.832520 0.677734
vt 0.913574 0.826172
vt 0.911621 0.823242
vt 0.913086 0.823242
vt 0.909180 0.978516
vt 0.907227 0.980469
vt 0.833984 0.679688
vt 0.837402 0.671875
vt 0.835449 0.676758
vt 0.835449 0.671875
vt 0.910156 0.680664
vt 0.911133 0.677734
vt 0.911621 0.680664
vt 0.907715 0.676758
vt 0.981934 0.683594
vt 0.983398 0.680664
vt 0.983887 0.683594
vt 0.980469 0.680664
vt 0.980469 0.683594
vt 0.982422 0.677734
vt 0.982422 0.680664
vt 0.841309 0.977539
vt 0.838867 0.972656
vt 0.841309 0.972656
vt 0.980957 0.829102
vt 0.982422 0.826172
vt 0.982422 0.829102
vt 0.981934 0.823242
vt 0.980469 0.826172
vt 0.980469 0.823242
vt 0.983887 0.823242
vt 0.837402 0.683594
vt 0.839844 0.680664
vt 0.839844 0.683594
vt 0.837891 0.977539
vt 0.837402 0.972656
vt 0.983398 0.826172
vt 0.837402 0.533203
vt 0.910156 0.527344
vt 0.911621 0.819336
vt 0.913574 0.829102
vt 0.835449 0.825195
vt 0.763672 0.530273
vt 0.763672 0.828125
vt 0.766602 0.527344
vt 0.909180 0.832031
vt 0.837402 0.528320
vt 0.912109 0.674805
vt 0.837891 0.828125
vt 0.912109 0.530273
vt 0.912109 0.680664
vt 0.763672 0.680664
vt 0.909180 0.977539
vt 0.912109 0.826172
vt 0.837402 0.674805
vt 0.910156 0.677734
vt 0.980957 0.676758
vt 0.838867 0.977539
vt 0.837402 0.680664
vt 0.835449 0.677734
vn 1.0000 0.0000 0.0000
vn 0.0000 0.0000 1.0000
vn 0.0000 -1.0000 0.0000
vn 0.1280 -0.1280 -0.9835
vn -0.1280 0.1280 -0.9835
vn 0.1280 0.1280 -0.9835
vn -0.9835 -0.1280 -0.1280
vn -0.9835 0.1280 0.1280
vn -0.9835 0.1280 -0.1280
vn 0.4916 0.8623 -0.1216
vn 0.1216 0.8623 -0.4916
vn 0.1280 0.9835 -0.1280
vn 0.8623 0.4916 -0.1216
vn 0.4488 0.7727 -0.4488
vn 0.8623 0.1216 -0.4916
vn 0.9703 0.1709 -0.1709
vn 0.4489 0.4488 -0.7727
vn 0.7727 0.4488 -0.4489
vn 0.1216 0.4916 -0.8623
vn 0.4916 0.1216 -0.8623
vn 0.8623 -0.4916 -0.1216
vn 0.8623 -0.1216 -0.4916
vn 0.9703 -0.1709 -0.1709
vn 0.4488 -0.7727 -0.4488
vn 0.7727 -0.4488 -0.4488
vn 0.1216 -0.8623 -0.4916
vn 0.4916 -0.8623 -0.1216
vn 0.1709 -0.9703 -0.1709
vn 0.4488 -0.4488 -0.7727
vn 0.4916 -0.1216 -0.8623
vn 0.1216 -0.4916 -0.8623
vn -0.1216 0.8623 -0.4916
vn -0.4916 0.8623 -0.1216
vn -0.1280 0.9835 -0.1280
vn -0.1216 0.4916 -0.8623
vn -0.4488 0.7727 -0.4488
vn -0.4916 0.1216 -0.8623
vn -0.7727 0.4488 -0.4488
vn -0.4488 0.4488 -0.7727
vn -0.8623 0.4916 -0.1216
vn -0.8623 0.1216 -0.4916
vn -0.4916 -0.8623 -0.1216
vn -0.1216 -0.8623 -0.4916
vn -0.1709 -0.9703 -0.1709
vn -0.8623 -0.4916 -0.1216
vn -0.4488 -0.7727 -0.4488
vn -0.8623 -0.1216 -0.4916
vn -0.4916 -0.1216 -0.8623
vn -0.7727 -0.4488 -0.4488
vn -0.1216 -0.4916 -0.8623
vn -0.1280 -0.1280 -0.9835
vn -0.4488 -0.4488 -0.7727
vn 0.1216 0.8623 0.4916
vn 0.4916 0.8623 0.1216
vn 0.1280 0.9835 0.1280
vn 0.1216 0.4916 0.8623
vn 0.4488 0.7727 0.4488
vn 0.4916 0.1216 0.8623
vn 0.1709 0.1709 0.9703
vn 0.8623 0.1216 0.4916
vn 0.4489 0.4488 0.7727
vn 0.8623 0.4916 0.1216
vn 0.9703 0.1709 0.1709
vn 0.7727 0.4488 0.4489
vn 0.4916 -0.8623 0.1216
vn 0.1216 -0.8623 0.4916
vn 0.1709 -0.9703 0.1709
vn 0.7727 -0.4488 0.4488
vn 0.4488 -0.7727 0.4488
vn 0.8623 -0.1216 0.4916
vn 0.8623 -0.4916 0.1216
vn 0.9703 -0.1709 0.1709
vn 0.4916 -0.1216 0.8623
vn 0.1216 -0.4916 0.8623
vn 0.1709 -0.1709 0.9703
vn 0.4488 -0.4488 0.7727
vn -0.4916 0.8623 0.1216
vn -0.1216 0.8623 0.4916
vn -0.1280 0.9835 0.1280
vn -0.8623 0.4916 0.1216
vn -0.4488 0.7727 0.4488
vn -0.8623 0.1216 0.4916
vn -0.4916 0.1216 0.8623
vn -0.7727 0.4488 0.4488
vn -0.1216 0.4916 0.8623
vn -0.1709 0.1709 0.9703
vn -0.4488 0.4488 0.7727
vn -0.1216 -0.8623 0.4916
vn -0.4916 -0.8623 0.1216
vn -0.1709 -0.9703 0.1709
vn -0.4488 -0.4488 0.7727
vn -0.4488 -0.7727 0.4488
vn -0.4916 -0.1216 0.8623
vn -0.1216 -0.4916 0.8623
vn -0.1709 -0.1709 0.9703
vn -0.8623 -0.1216 0.4916
vn -0.8623 -0.4916 0.1216
vn -0.9835 -0.1280 0.1280
vn -0.7727 -0.4488 0.4488
usemtl CubeCustomText
s off
f 1/1/1 2/2/1 3/3/1
f 4/4/2 5/5/2 6/6/2
f 7/7/3 8/8/3 9/9/3
f 1/1/1 28/10/1 2/2/1
f 4/4/2 92/11/2 5/5/2
f 7/7/3 33/12/3 8/8/3
s 1
f 10/13/4 11/14/5 12/15/6
f 13/16/7 14/17/8 15/18/9
f 16/19/10 17/20/11 18/21/12
f 19/22/13 20/23/14 16/19/10
f 21/24/15 19/25/13 2/26/16
f 21/27/15 22/28/17 23/29/18
f 24/30/19 25/31/20 12/15/6
f 24/30/19 20/32/14 22/28/17
f 20/32/14 23/29/18 22/28/17
f 26/33/21 27/34/22 28/35/23
f 26/33/21 29/36/24 30/37/25
f 31/38/26 32/39/27 33/40/28
f 31/41/26 34/42/29 29/43/24
f 35/44/30 36/45/31 10/13/4
f 35/46/30 30/37/25 34/47/29
f 30/37/25 29/36/24 34/47/29
f 37/48/32 38/49/33 39/50/34
f 40/51/35 41/52/36 37/48/32
f 42/53/37 40/54/35 11/14/5
f 42/55/37 43/56/38 44/57/39
f 45/58/40 46/59/41 15/18/9
f 45/58/40 41/60/36 43/56/38
f 41/60/36 44/57/39 43/56/38
f 47/61/42 48/62/43 7/63/44
f 49/64/45 50/65/46 47/61/42
f 51/66/47 49/67/45 13/16/7
f 52/68/48 53/69/49 51/66/47
f 54/70/50 52/71/48 55/72/51
f 48/62/43 56/73/52 54/74/50
f 50/65/46 53/75/49 56/73/52
f 57/76/53 58/77/54 59/78/55
f 60/79/56 61/80/57 57/76/53
f 62/81/58 60/82/56 6/83/59
f 63/84/60 64/85/61 62/86/58
f 65/87/62 63/84/60 3/88/63
f 65/89/62 61/80/57 66/90/64
f 61/80/57 64/91/61 66/90/64
f 67/92/65 68/93/66 8/94/67
f 67/95/65 69/96/68 70/97/69
f 71/98/70 72/99/71 1/100/72
f 73/101/73 69/96/68 71/98/70
f 74/102/74 73/103/73 5/104/75
f 68/93/66 75/105/76 74/106/74
f 70/97/69 69/96/68 75/107/76
f 76/108/77 77/109/78 78/110/79
f 79/111/80 80/112/81 76/113/77
f 81/114/82 79/111/80 14/17/8
f 82/115/83 83/116/84 81/117/82
f 84/118/85 82/115/83 4/119/86
f 84/118/85 80/120/81 85/121/87
f 80/120/81 83/116/84 85/121/87
f 86/122/88 87/123/89 9/124/90
f 86/125/88 88/126/91 89/127/92
f 90/128/93 91/129/94 92/130/95
f 93/131/96 88/126/91 90/128/93
f 94/132/97 93/133/96 95/134/98
f 87/123/89 96/135/99 94/136/97
f 89/127/92 88/126/91 96/137/99
f 18/21/12 37/48/32 39/50/34
f 17/20/11 40/51/35 37/48/32
f 24/30/19 11/14/5 40/54/35
f 28/35/23 21/24/15 2/26/16
f 27/138/22 25/31/20 21/27/15
f 35/44/30 12/15/6 25/31/20
f 7/63/44 31/38/26 33/40/28
f 48/139/43 36/45/31 31/41/26
f 54/70/50 10/13/4 36/45/31
f 15/18/9 51/66/47 13/16/7
f 46/59/41 52/68/48 51/66/47
f 42/53/37 55/72/51 52/71/48
f 39/50/34 76/108/77 78/110/79
f 38/140/33 79/111/80 76/113/77
f 45/58/40 14/17/8 79/111/80
f 9/124/90 47/61/42 7/63/44
f 87/123/89 49/64/45 47/61/42
f 94/132/97 13/16/7 49/67/45
f 4/119/86 90/128/93 92/130/95
f 82/115/83 93/131/96 90/128/93
f 81/114/82 95/134/98 93/133/96
f 78/110/79 57/76/53 59/78/55
f 77/109/78 60/79/56 57/76/53
f 84/118/85 6/83/59 60/82/56
f 8/94/67 86/122/88 9/124/90
f 68/141/66 91/129/94 86/125/88
f 74/102/74 92/130/95 91/129/94
f 3/88/63 71/98/70 1/100/72
f 63/84/60 73/101/73 71/98/70
f 62/81/58 5/104/75 73/103/73
f 59/78/55 16/19/10 18/21/12
f 58/77/54 19/22/13 16/19/10
f 65/87/62 2/26/16 19/25/13
f 33/40/28 67/92/65 8/94/67
f 32/142/27 72/99/71 67/95/65
f 26/33/21 1/100/72 72/99/71
f 78/110/79 18/21/12 39/50/34
f 10/13/4 55/72/51 11/14/5
f 13/16/7 95/134/98 14/17/8
f 16/19/10 20/23/14 17/20/11
f 19/22/13 23/143/18 20/23/14
f 21/24/15 23/144/18 19/25/13
f 21/27/15 25/31/20 22/28/17
f 24/30/19 22/28/17 25/31/20
f 24/145/19 17/20/11 20/23/14
f 26/33/21 30/37/25 27/34/22
f 26/33/21 32/142/27 29/36/24
f 31/38/26 29/146/24 32/39/27
f 31/41/26 36/45/31 34/42/29
f 35/44/30 34/42/29 36/45/31
f 35/46/30 27/34/22 30/37/25
f 37/48/32 41/52/36 38/49/33
f 40/51/35 44/147/39 41/52/36
f 42/53/37 44/148/39 40/54/35
f 42/55/37 46/59/41 43/56/38
f 45/58/40 43/56/38 46/59/41
f 45/58/40 38/140/33 41/60/36
f 47/61/42 50/65/46 48/62/43
f 49/64/45 53/75/49 50/65/46
f 51/66/47 53/69/49 49/67/45
f 52/68/48 56/149/52 53/69/49
f 54/70/50 56/150/52 52/71/48
f 48/62/43 50/65/46 56/73/52
f 57/76/53 61/80/57 58/77/54
f 60/79/56 64/91/61 61/80/57
f 62/81/58 64/151/61 60/82/56
f 63/84/60 66/152/64 64/85/61
f 65/87/62 66/152/64 63/84/60
f 65/89/62 58/77/54 61/80/57
f 67/92/65 70/153/69 68/93/66
f 67/95/65 72/99/71 69/96/68
f 71/98/70 69/96/68 72/99/71
f 73/101/73 75/107/76 69/96/68
f 74/102/74 75/154/76 73/103/73
f 68/93/66 70/153/69 75/105/76
f 76/108/77 80/155/81 77/109/78
f 79/111/80 83/156/84 80/112/81
f 81/114/82 83/156/84 79/111/80
f 82/115/83 85/121/87 83/116/84
f 84/118/85 85/121/87 82/115/83
f 84/118/85 77/157/78 80/120/81
f 86/122/88 89/158/92 87/123/89
f 86/125/88 91/129/94 88/126/91
f 90/128/93 88/126/91 91/129/94
f 93/131/96 96/137/99 88/126/91
f 94/132/97 96/159/99 93/133/96
f 87/123/89 89/158/92 96/135/99
f 18/21/12 17/20/11 37/48/32
f 17/20/11 24/145/19 40/51/35
f 24/30/19 12/15/6 11/14/5
f 28/35/23 27/34/22 21/24/15
f 27/138/22 35/44/30 25/31/20
f 35/44/30 10/13/4 12/15/6
f 7/63/44 48/62/43 31/38/26
f 48/139/43 54/70/50 36/45/31
f 54/70/50 55/72/51 10/13/4
f 15/18/9 46/59/41 51/66/47
f 46/59/41 42/55/37 52/68/48
f 42/53/37 11/14/5 55/72/51
f 39/50/34 38/49/33 76/108/77
f 38/140/33 45/58/40 79/111/80
f 45/58/40 15/18/9 14/17/8
f 9/124/90 87/123/89 47/61/42
f 87/123/89 94/136/97 49/64/45
f 94/132/97 95/134/98 13/16/7
f 4/119/86 82/115/83 90/128/93
f 82/115/83 81/117/82 93/131/96
f 81/114/82 14/17/8 95/134/98
f 78/110/79 77/109/78 57/76/53
f 77/109/78 84/160/85 60/79/56
f 84/118/85 4/119/86 6/83/59
f 8/94/67 68/93/66 86/122/88
f 68/141/66 74/102/74 91/129/94
f 74/102/74 5/104/75 92/130/95
f 3/88/63 63/84/60 71/98/70
f 63/84/60 62/86/58 73/101/73
f 62/81/58 6/83/59 5/104/75
f 59/78/55 58/77/54 16/19/10
f 58/77/54 65/89/62 19/22/13
f 65/87/62 3/88/63 2/26/16
f 33/40/28 32/39/27 67/92/65
f 32/142/27 26/33/21 72/99/71
f 26/33/21 28/35/23 1/100/72
f 78/110/79 59/78/55 18/21/12
