# Blender v2.93.2 OBJ File: 'cubeTexturePower.blend'
# www.blender.org
mtllib piece4.mtl
o Rubiks_Cube_Cube.004_piece4
v -0.000000 2.898658 0.998899
v -0.897001 1.101343 0.998899
v 0.000000 1.101343 0.998899
v -0.897001 1.013539 0.948161
v -0.947605 1.013539 0.897557
v -0.897001 1.000000 0.897557
v -0.897001 1.050738 0.985360
v -0.945464 1.026691 0.946020
v -0.947605 1.101343 0.985360
v -0.984804 1.101343 0.948161
v -0.945464 1.052880 0.972209
v -0.984804 1.050738 0.897557
v -0.998343 1.101343 0.897557
v -0.971653 1.052880 0.946020
v -0.947605 2.986461 0.897557
v -0.897002 2.986461 0.948161
v -0.897002 3.000000 0.897557
v -0.984804 2.949262 0.897557
v -0.945464 2.973310 0.946020
v -0.984804 2.898658 0.948161
v -0.998343 2.898658 0.897557
v -0.945464 2.947121 0.972209
v -0.971653 2.947121 0.946020
v -0.897002 2.949262 0.985360
v -0.947605 2.898658 0.985360
v -0.897002 2.898658 0.998899
v -0.000000 2.986461 0.948161
v -0.000000 3.000000 0.897557
v -0.000000 2.949262 0.985360
v -0.947605 1.013539 0.000000
v -0.897001 1.000000 0.000000
v -0.984804 1.050738 0.000000
v -0.998343 1.101343 0.000000
v 0.000000 1.000000 0.897557
v -0.000000 1.000000 0.000000
v -0.984804 2.949262 0.000000
v -0.947605 2.986461 0.000000
v -0.897002 3.000000 0.000000
v -0.000000 3.000000 0.000000
v 0.000000 1.050738 0.985360
v 0.000000 1.013539 0.948161
v -0.897001 1.101343 -0.998899
v -0.000000 2.898658 -0.998899
v -0.000000 1.101343 -0.998899
v -0.947605 1.013539 -0.897557
v -0.897001 1.013539 -0.948161
v -0.897001 1.000000 -0.897557
v -0.945464 1.026691 -0.946020
v -0.897001 1.050738 -0.985360
v -0.947605 1.101343 -0.985360
v -0.945464 1.052880 -0.972209
v -0.984804 1.101343 -0.948161
v -0.984804 1.050738 -0.897557
v -0.998343 1.101343 -0.897557
v -0.971653 1.052880 -0.946020
v -0.897002 2.986461 -0.948161
v -0.947605 2.986461 -0.897557
v -0.897002 3.000000 -0.897557
v -0.945464 2.973310 -0.946020
v -0.984804 2.949262 -0.897557
v -0.984804 2.898658 -0.948161
v -0.998343 2.898658 -0.897557
v -0.945464 2.947121 -0.972209
v -0.947605 2.898658 -0.985360
v -0.897002 2.949262 -0.985360
v -0.897002 2.898658 -0.998899
v -0.971653 2.947121 -0.946020
v -0.000000 2.986461 -0.948161
v -0.000000 3.000000 -0.897557
v -0.000000 2.949262 -0.985360
v -0.000000 1.000000 -0.897557
v -0.000000 1.050738 -0.985360
v -0.000000 1.013539 -0.948161
v 0.897001 1.101343 0.998899
v 0.947605 1.013539 0.897557
v 0.897001 1.013539 0.948161
v 0.897001 1.000000 0.897557
v 0.945464 1.026691 0.946020
v 0.897001 1.050738 0.985360
v 0.947605 1.101343 0.985360
v 0.945464 1.052880 0.972209
v 0.984804 1.101343 0.948161
v 0.984804 1.050738 0.897557
v 0.998343 1.101343 0.897557
v 0.971653 1.052880 0.946020
v 0.897001 2.986461 0.948161
v 0.947605 2.986461 0.897557
v 0.897001 3.000000 0.897557
v 0.945464 2.973310 0.946020
v 0.984803 2.949262 0.897557
v 0.984803 2.898658 0.948161
v 0.998343 2.898658 0.897557
v 0.945464 2.947121 0.972209
v 0.947605 2.898658 0.985360
v 0.897001 2.949262 0.985360
v 0.897001 2.898658 0.998899
v 0.971653 2.947121 0.946020
v 0.947605 1.013539 -0.000000
v 0.897001 1.000000 -0.000000
v 0.984804 1.050738 -0.000000
v 0.998343 1.101343 -0.000000
v 0.984803 2.949262 -0.000000
v 0.947605 2.986461 -0.000000
v 0.897001 3.000000 -0.000000
v 0.897001 1.101343 -0.998899
v 0.897001 1.013539 -0.948161
v 0.947605 1.013539 -0.897557
v 0.897001 1.000000 -0.897557
v 0.897001 1.050738 -0.985360
v 0.945464 1.026691 -0.946020
v 0.947605 1.101343 -0.985360
v 0.984804 1.101343 -0.948161
v 0.945464 1.052880 -0.972209
v 0.984804 1.050738 -0.897557
v 0.998343 1.101343 -0.897557
v 0.971653 1.052880 -0.946020
v 0.947605 2.986461 -0.897557
v 0.897001 2.986461 -0.948161
v 0.897001 3.000000 -0.897557
v 0.984803 2.949262 -0.897557
v 0.945464 2.973310 -0.946020
v 0.984803 2.898658 -0.948161
v 0.998343 2.898658 -0.897557
v 0.945464 2.947121 -0.972209
v 0.971653 2.947121 -0.946020
v 0.897001 2.949262 -0.985360
v 0.947605 2.898658 -0.985360
v 0.897001 2.898658 -0.998899
v -0.998343 2.898658 0.000000
v 0.998343 2.898658 -0.000000
vt 0.125000 0.750000
vt 0.083496 0.666992
vt 0.125000 0.666992
vt 0.083496 0.833008
vt 0.125000 0.833008
vt 0.166504 0.666992
vt 0.166504 0.833008
vt 0.083496 0.750000
vt 0.166504 0.750000
vt 0.955566 0.760742
vt 0.990723 0.901367
vt 0.955566 0.901367
vt 0.840332 0.602539
vt 0.841797 0.606445
vt 0.840332 0.606445
vt 0.840332 0.599609
vt 0.841797 0.602539
vt 0.992676 0.901367
vt 0.990723 0.906250
vt 0.916992 0.750977
vt 0.918945 0.753906
vt 0.916992 0.753906
vt 0.918945 0.746094
vt 0.916992 0.746094
vt 0.843262 0.606445
vt 0.842773 0.602539
vt 0.841797 0.600586
vt 0.918945 0.901367
vt 0.916504 0.904297
vt 0.916504 0.901367
vt 0.844727 0.746094
vt 0.843750 0.750977
vt 0.843262 0.746094
vt 0.846680 0.750977
vt 0.846680 0.746094
vt 0.994141 0.760742
vt 0.992676 0.757812
vt 0.993652 0.757812
vt 0.990723 0.757812
vt 0.992676 0.760742
vt 0.990723 0.760742
vt 0.992676 0.754883
vt 0.881836 0.906250
vt 0.881836 0.901367
vt 0.990723 0.753906
vt 0.955566 0.757812
vt 0.955566 0.753906
vt 0.846680 0.753906
vt 0.841797 0.676758
vt 0.840332 0.676758
vt 0.843262 0.676758
vt 0.916992 0.676758
vt 0.918945 0.676758
vt 0.804688 0.606445
vt 0.804688 0.676758
vt 0.844727 0.676758
vt 0.843262 0.676758
vt 0.916504 0.831055
vt 0.955566 0.906250
vt 0.804688 0.602539
vt 0.991211 0.603516
vt 0.955566 0.745117
vt 0.955566 0.603516
vt 0.841797 0.746094
vt 0.840332 0.750977
vt 0.840332 0.746094
vt 0.841797 0.750977
vt 0.840332 0.753906
vt 0.991211 0.599609
vt 0.992676 0.603516
vt 0.918945 0.600586
vt 0.916992 0.602539
vt 0.916992 0.599609
vt 0.918945 0.606445
vt 0.916992 0.606445
vt 0.843262 0.746094
vt 0.842773 0.750977
vt 0.841797 0.753906
vt 0.916504 0.757812
vt 0.918945 0.760742
vt 0.916504 0.760742
vt 0.843750 0.602539
vt 0.844727 0.606445
vt 0.843262 0.606445
vt 0.846680 0.602539
vt 0.846680 0.606445
vt 0.844727 0.600586
vt 0.846680 0.599609
vt 0.992676 0.745117
vt 0.991211 0.748047
vt 0.991211 0.745117
vt 0.916504 0.753906
vt 0.918457 0.757812
vt 0.842773 0.753906
vt 0.843262 0.754883
vt 0.842773 0.757812
vt 0.881836 0.757812
vt 0.881836 0.760742
vt 0.881836 0.753906
vt 0.955566 0.748047
vt 0.804688 0.746094
vt 0.955566 0.599609
vt 0.804688 0.750977
vt 0.920410 0.901367
vt 0.767578 0.606445
vt 0.770020 0.602539
vt 0.770020 0.606445
vt 0.767578 0.602539
vt 0.770020 0.599609
vt 0.920410 0.906250
vt 0.918945 0.901367
vt 0.841309 0.754883
vt 0.839844 0.757812
vt 0.839844 0.753906
vt 0.841797 0.760742
vt 0.839844 0.760742
vt 0.766113 0.606445
vt 0.766602 0.602539
vt 0.767578 0.600586
vt 0.846680 0.906250
vt 0.844727 0.901367
vt 0.846680 0.901367
vt 0.844727 0.906250
vt 0.843262 0.901367
vt 0.767090 0.760742
vt 0.769531 0.757812
vt 0.769531 0.760742
vt 0.767090 0.754883
vt 0.769531 0.753906
vt 0.918945 0.760742
vt 0.920410 0.757812
vt 0.920410 0.760742
vt 0.918945 0.754883
vt 0.920410 0.753906
vt 0.766113 0.757812
vt 0.767090 0.757812
vt 0.767578 0.676758
vt 0.770020 0.676758
vt 0.766113 0.676758
vt 0.839844 0.831055
vt 0.841797 0.831055
vt 0.767090 0.831055
vt 0.844727 0.833008
vt 0.846680 0.833008
vt 0.920898 0.603516
vt 0.770020 0.750977
vt 0.767578 0.746094
vt 0.770020 0.746094
vt 0.770020 0.753906
vt 0.767578 0.750977
vt 0.918945 0.603516
vt 0.920898 0.599609
vt 0.839844 0.906250
vt 0.841309 0.907227
vt 0.839844 0.909180
vt 0.841797 0.901367
vt 0.839844 0.901367
vt 0.766113 0.746094
vt 0.766602 0.750977
vt 0.767578 0.753906
vt 0.844727 0.762695
vt 0.846680 0.757812
vt 0.846680 0.762695
vt 0.843262 0.762695
vt 0.844727 0.757812
vt 0.769531 0.906250
vt 0.767090 0.901367
vt 0.769531 0.901367
vt 0.767090 0.907227
vt 0.767090 0.906250
vt 0.920898 0.748047
vt 0.918945 0.745117
vt 0.920898 0.745117
vt 0.844727 0.756836
vt 0.846680 0.754883
vt 0.843750 0.757812
vt 0.769531 0.909180
vt 0.992676 0.906250
vt 0.842285 0.759766
vt 0.841797 0.754883
vt 0.842285 0.753906
vt 0.918945 0.750977
vt 0.918457 0.904297
vt 0.844727 0.750977
vt 0.844727 0.753906
vt 0.846680 0.676758
vt 0.918945 0.831055
vt 0.804688 0.599609
vt 0.992676 0.599609
vt 0.841797 0.759766
vt 0.842285 0.760742
vt 0.841797 0.763672
vt 0.918945 0.602539
vt 0.844727 0.602539
vt 0.843262 0.760742
vt 0.992676 0.748047
vt 0.918457 0.754883
vt 0.804688 0.753906
vt 0.918945 0.906250
vt 0.842773 0.760742
vt 0.843262 0.760742
vt 0.842773 0.765625
vt 0.841309 0.757812
vt 0.843750 0.906250
vt 0.918945 0.757812
vt 0.769531 0.831055
vt 0.843262 0.833008
vt 0.918945 0.599609
vt 0.842285 0.768555
vt 0.841797 0.765625
vt 0.842285 0.763672
vt 0.841309 0.906250
vt 0.918945 0.748047
vn 0.0000 1.0000 0.0000
vn 0.0000 0.1303 0.9915
vn -0.1280 -0.1280 0.9835
vn 0.0000 -0.1303 0.9915
vn -0.1216 -0.8623 0.4916
vn -0.4916 -0.8623 0.1216
vn -0.1280 -0.9835 0.1280
vn -0.1216 -0.4916 0.8623
vn -0.4488 -0.7727 0.4488
vn -0.4916 -0.1216 0.8623
vn -0.8623 -0.1216 0.4916
vn -0.4488 -0.4488 0.7727
vn -0.8623 -0.4916 0.1216
vn -0.9835 -0.1280 0.1280
vn -0.7727 -0.4488 0.4488
vn -0.4916 0.8623 0.1216
vn -0.1216 0.8623 0.4916
vn -0.1709 0.9703 0.1709
vn -0.8623 0.4916 0.1216
vn -0.4488 0.7727 0.4488
vn -0.8623 0.1216 0.4916
vn -0.9835 0.1280 0.1280
vn -0.4488 0.4488 0.7727
vn -0.7727 0.4488 0.4488
vn -0.1216 0.4916 0.8623
vn -0.4916 0.1216 0.8623
vn -0.1280 0.1280 0.9835
vn 0.0000 0.8661 0.4998
vn 0.0000 0.9660 0.2585
vn 0.0000 0.4998 0.8661
vn -0.4998 -0.8661 0.0000
vn -0.1303 -0.9915 -0.0000
vn -0.8661 -0.4998 0.0000
vn -0.9915 -0.1303 0.0000
vn 0.0000 -0.9915 0.1303
vn 0.0000 -1.0000 0.0000
vn -0.8661 0.4998 0.0000
vn -0.4998 0.8661 -0.0000
vn -0.2585 0.9660 0.0000
vn 0.0000 -0.4998 0.8661
vn 0.0000 -0.8661 0.4998
vn -0.1280 -0.1280 -0.9835
vn -0.0000 0.1303 -0.9915
vn -0.0000 -0.1303 -0.9915
vn -0.4916 -0.8623 -0.1216
vn -0.1216 -0.8623 -0.4916
vn -0.1280 -0.9835 -0.1280
vn -0.4488 -0.7727 -0.4488
vn -0.1216 -0.4916 -0.8623
vn -0.4916 -0.1216 -0.8623
vn -0.4488 -0.4488 -0.7727
vn -0.8623 -0.1216 -0.4916
vn -0.8623 -0.4916 -0.1216
vn -0.9835 -0.1280 -0.1280
vn -0.7727 -0.4488 -0.4488
vn -0.1216 0.8623 -0.4916
vn -0.4916 0.8623 -0.1216
vn -0.1709 0.9703 -0.1709
vn -0.4488 0.7727 -0.4488
vn -0.8623 0.4916 -0.1216
vn -0.8623 0.1216 -0.4916
vn -0.9835 0.1280 -0.1280
vn -0.4488 0.4488 -0.7727
vn -0.4916 0.1216 -0.8623
vn -0.1216 0.4916 -0.8623
vn -0.1280 0.1280 -0.9835
vn -0.7727 0.4488 -0.4488
vn -0.0000 0.8661 -0.4998
vn -0.0000 0.9660 -0.2585
vn -0.0000 0.4998 -0.8661
vn 0.0000 -0.9915 -0.1303
vn -0.0000 -0.4998 -0.8661
vn -0.0000 -0.8661 -0.4998
vn 0.1280 -0.1280 0.9835
vn 0.4916 -0.8623 0.1216
vn 0.1216 -0.8623 0.4916
vn 0.1280 -0.9835 0.1280
vn 0.4488 -0.7727 0.4488
vn 0.1216 -0.4916 0.8623
vn 0.4916 -0.1216 0.8623
vn 0.4488 -0.4488 0.7727
vn 0.8623 -0.1216 0.4916
vn 0.8623 -0.4916 0.1216
vn 0.9835 -0.1280 0.1280
vn 0.7727 -0.4488 0.4488
vn 0.1216 0.8623 0.4916
vn 0.4916 0.8623 0.1216
vn 0.1709 0.9703 0.1709
vn 0.4488 0.7727 0.4488
vn 0.8623 0.4916 0.1216
vn 0.8623 0.1216 0.4916
vn 0.9835 0.1280 0.1280
vn 0.4488 0.4488 0.7727
vn 0.4916 0.1216 0.8623
vn 0.1216 0.4916 0.8623
vn 0.1280 0.1280 0.9835
vn 0.7727 0.4488 0.4488
vn 0.4998 -0.8661 -0.0000
vn 0.1303 -0.9915 0.0000
vn 0.8661 -0.4998 -0.0000
vn 0.9915 -0.1303 -0.0000
vn 0.8661 0.4998 0.0000
vn 0.4998 0.8661 0.0000
vn 0.2585 0.9660 -0.0000
vn 0.1280 -0.1280 -0.9835
vn 0.1216 -0.8623 -0.4916
vn 0.4916 -0.8623 -0.1216
vn 0.1280 -0.9835 -0.1280
vn 0.1216 -0.4916 -0.8623
vn 0.4488 -0.7727 -0.4488
vn 0.4916 -0.1216 -0.8623
vn 0.8623 -0.1216 -0.4916
vn 0.4488 -0.4488 -0.7727
vn 0.8623 -0.4916 -0.1216
vn 0.9835 -0.1280 -0.1280
vn 0.7727 -0.4488 -0.4488
vn 0.4916 0.8623 -0.1216
vn 0.1216 0.8623 -0.4916
vn 0.1709 0.9703 -0.1709
vn 0.8623 0.4916 -0.1216
vn 0.4488 0.7727 -0.4488
vn 0.8623 0.1216 -0.4916
vn 0.9835 0.1280 -0.1280
vn 0.4488 0.4488 -0.7727
vn 0.7727 0.4488 -0.4488
vn 0.1216 0.4916 -0.8623
vn 0.4916 0.1216 -0.8623
vn 0.1280 0.1280 -0.9835
vn -0.9915 0.1303 0.0000
vn 0.9915 0.1303 -0.0000
usemtl CubeCustomText
s off
f 39/1/1 17/2/1 28/3/1
f 58/4/1 39/1/1 69/5/1
f 88/6/1 39/1/1 28/3/1
f 39/1/1 119/7/1 69/5/1
f 39/1/1 38/8/1 17/2/1
f 58/4/1 38/8/1 39/1/1
f 88/6/1 104/9/1 39/1/1
f 39/1/1 104/9/1 119/7/1
s 1
f 1/10/2 2/11/3 3/12/4
f 4/13/5 5/14/6 6/15/7
f 7/16/8 8/17/9 4/13/5
f 9/18/10 7/19/8 2/11/3
f 10/20/11 11/21/12 9/22/10
f 12/23/13 10/20/11 13/24/14
f 12/25/13 8/17/9 14/26/15
f 8/17/9 11/27/12 14/26/15
f 15/28/16 16/29/17 17/30/18
f 18/31/19 19/32/20 15/33/16
f 20/34/21 18/31/19 21/35/22
f 20/36/21 22/37/23 23/38/24
f 24/39/25 25/40/26 26/41/27
f 24/39/25 19/42/20 22/37/23
f 19/42/20 23/38/24 22/37/23
f 17/30/18 27/43/28 28/44/29
f 16/45/17 29/46/30 27/47/28
f 24/39/25 1/10/2 29/46/30
f 13/24/14 20/34/21 21/35/22
f 10/20/11 25/48/26 20/34/21
f 9/18/10 26/41/27 25/40/26
f 6/15/7 30/49/31 31/50/32
f 5/14/6 32/51/33 30/49/31
f 12/23/13 33/52/34 32/53/33
f 34/54/35 31/50/32 35/55/36
f 36/56/37 21/35/22 18/31/19
f 37/57/38 18/31/19 15/33/16
f 38/58/39 15/28/16 17/30/18
f 21/35/22 33/52/34 13/24/14
f 40/59/40 2/11/3 7/19/8
f 41/60/41 7/16/8 4/13/5
f 34/54/35 4/13/5 6/15/7
f 42/61/42 43/62/43 44/63/44
f 45/64/45 46/65/46 47/66/47
f 48/67/48 49/68/49 46/65/46
f 49/69/49 50/70/50 42/61/42
f 51/71/51 52/72/52 50/73/50
f 52/72/52 53/74/53 54/75/54
f 53/76/53 48/67/48 45/64/45
f 48/67/48 55/77/55 51/78/51
f 56/79/56 57/80/57 58/81/58
f 59/82/59 60/83/60 57/84/57
f 60/83/60 61/85/61 62/86/62
f 61/85/61 63/87/63 64/88/64
f 64/89/64 65/90/65 66/91/66
f 65/92/65 59/93/59 56/79/56
f 59/94/59 63/95/63 67/96/67
f 68/97/68 58/81/58 69/98/69
f 70/99/70 56/79/56 68/97/68
f 43/62/43 65/90/65 70/100/70
f 61/85/61 54/75/54 62/86/62
f 64/88/64 52/72/52 61/85/61
f 66/91/66 50/70/50 64/89/64
f 30/49/31 47/66/47 31/50/32
f 32/51/33 45/64/45 30/49/31
f 33/52/34 53/74/53 32/53/33
f 31/50/32 71/101/71 35/55/36
f 62/86/62 36/56/37 60/83/60
f 60/83/60 37/57/38 57/84/57
f 57/80/57 38/58/39 58/81/58
f 33/52/34 62/86/62 54/75/54
f 42/61/42 72/102/72 49/69/49
f 49/68/49 73/103/73 46/65/46
f 46/65/46 71/101/71 47/66/47
f 74/104/74 1/10/2 3/12/4
f 75/105/75 76/106/76 77/107/77
f 78/108/78 79/109/79 76/106/76
f 79/110/79 80/111/80 74/104/74
f 81/112/81 82/113/82 80/114/80
f 82/113/82 83/115/83 84/116/84
f 83/117/83 78/108/78 75/105/75
f 78/108/78 85/118/85 81/119/81
f 86/120/86 87/121/87 88/122/88
f 89/123/89 90/124/90 87/121/87
f 90/125/90 91/126/91 92/127/92
f 91/126/91 93/128/93 94/129/94
f 94/130/94 95/131/95 96/132/96
f 95/131/95 89/133/89 86/134/86
f 89/135/89 93/128/93 97/136/97
f 27/43/28 88/122/88 28/44/29
f 29/46/30 86/134/86 27/47/28
f 1/10/2 95/131/95 29/46/30
f 91/126/91 84/116/84 92/127/92
f 94/129/94 82/113/82 91/126/91
f 96/132/96 80/111/80 94/130/94
f 98/137/98 77/107/77 99/138/99
f 100/139/100 75/105/75 98/137/98
f 101/140/101 83/115/83 100/141/100
f 99/138/99 34/54/35 35/55/36
f 92/127/92 102/142/102 90/125/90
f 90/124/90 103/143/103 87/121/87
f 87/121/87 104/144/104 88/122/88
f 101/140/101 92/127/92 84/116/84
f 74/104/74 40/59/40 79/110/79
f 79/109/79 41/60/41 76/106/76
f 76/106/76 34/54/35 77/107/77
f 43/62/43 105/145/105 44/63/44
f 106/146/106 107/147/107 108/148/108
f 109/149/109 110/150/110 106/146/106
f 111/151/111 109/152/109 105/145/105
f 112/153/112 113/154/113 111/155/111
f 114/156/114 112/153/112 115/157/115
f 114/158/114 110/150/110 116/159/116
f 110/150/110 113/160/113 116/159/116
f 117/161/117 118/162/118 119/163/119
f 120/164/120 121/165/121 117/161/117
f 122/166/122 120/167/120 123/168/123
f 122/166/122 124/169/124 125/170/125
f 126/171/126 127/172/127 128/173/128
f 118/162/118 124/174/124 126/175/126
f 121/165/121 125/176/125 124/174/124
f 119/163/119 68/97/68 69/98/69
f 118/162/118 70/99/70 68/97/68
f 126/171/126 43/62/43 70/100/70
f 115/157/115 122/166/122 123/168/123
f 112/153/112 127/177/127 122/166/122
f 111/151/111 128/173/128 127/172/127
f 108/148/108 98/137/98 99/138/99
f 107/147/107 100/139/100 98/137/98
f 114/156/114 101/140/101 100/141/100
f 71/101/71 99/138/99 35/55/36
f 102/142/102 123/168/123 120/167/120
f 103/143/103 120/164/120 117/161/117
f 104/144/104 117/161/117 119/163/119
f 123/168/123 101/140/101 115/157/115
f 72/102/72 105/145/105 109/152/109
f 73/103/73 109/149/109 106/146/106
f 71/101/71 106/146/106 108/148/108
f 1/10/2 26/41/27 2/11/3
f 4/13/5 8/17/9 5/14/6
f 7/16/8 11/27/12 8/17/9
f 9/18/10 11/178/12 7/19/8
f 10/179/11 14/180/15 11/181/12
f 12/23/13 14/182/15 10/20/11
f 12/25/13 5/14/6 8/17/9
f 15/28/16 19/183/20 16/29/17
f 18/31/19 23/184/24 19/32/20
f 20/34/21 23/184/24 18/31/19
f 20/34/21 25/48/26 22/185/23
f 24/39/25 22/37/23 25/40/26
f 24/39/25 16/45/17 19/42/20
f 17/30/18 16/29/17 27/43/28
f 16/45/17 24/39/25 29/46/30
f 24/39/25 26/41/27 1/10/2
f 13/24/14 10/20/11 20/34/21
f 10/20/11 9/22/10 25/48/26
f 9/18/10 2/11/3 26/41/27
f 6/15/7 5/14/6 30/49/31
f 5/14/6 12/25/13 32/51/33
f 12/23/13 13/24/14 33/52/34
f 34/54/35 6/15/7 31/50/32
f 36/56/37 129/186/129 21/35/22
f 37/57/38 36/56/37 18/31/19
f 38/58/39 37/187/38 15/28/16
f 21/35/22 129/186/129 33/52/34
f 40/59/40 3/12/4 2/11/3
f 41/60/41 40/188/40 7/16/8
f 34/54/35 41/60/41 4/13/5
f 42/61/42 66/91/66 43/62/43
f 45/64/45 48/67/48 46/65/46
f 48/67/48 51/78/51 49/68/49
f 49/69/49 51/189/51 50/70/50
f 51/190/51 55/191/55 52/192/52
f 52/72/52 55/193/55 53/74/53
f 53/76/53 55/77/55 48/67/48
f 56/79/56 59/93/59 57/80/57
f 59/82/59 67/194/67 60/83/60
f 60/83/60 67/194/67 61/85/61
f 61/195/61 67/96/67 63/95/63
f 64/89/64 63/196/63 65/90/65
f 65/92/65 63/197/63 59/93/59
f 68/97/68 56/79/56 58/81/58
f 70/99/70 65/92/65 56/79/56
f 43/62/43 66/91/66 65/90/65
f 61/85/61 52/72/52 54/75/54
f 64/88/64 50/73/50 52/72/52
f 66/91/66 42/61/42 50/70/50
f 30/49/31 45/64/45 47/66/47
f 32/51/33 53/76/53 45/64/45
f 33/52/34 54/75/54 53/74/53
f 31/50/32 47/66/47 71/101/71
f 62/86/62 129/186/129 36/56/37
f 60/83/60 36/56/37 37/57/38
f 57/80/57 37/187/38 38/58/39
f 33/52/34 129/186/129 62/86/62
f 42/61/42 44/63/44 72/102/72
f 49/68/49 72/198/72 73/103/73
f 46/65/46 73/103/73 71/101/71
f 74/104/74 96/132/96 1/10/2
f 75/105/75 78/108/78 76/106/76
f 78/108/78 81/119/81 79/109/79
f 79/110/79 81/199/81 80/111/80
f 81/200/81 85/201/85 82/202/82
f 82/113/82 85/203/85 83/115/83
f 83/117/83 85/118/85 78/108/78
f 86/120/86 89/123/89 87/121/87
f 89/123/89 97/204/97 90/124/90
f 90/125/90 97/136/97 91/126/91
f 91/126/91 97/136/97 93/128/93
f 94/130/94 93/205/93 95/131/95
f 95/131/95 93/205/93 89/133/89
f 27/43/28 86/120/86 88/122/88
f 29/46/30 95/131/95 86/134/86
f 1/10/2 96/132/96 95/131/95
f 91/126/91 82/113/82 84/116/84
f 94/129/94 80/114/80 82/113/82
f 96/132/96 74/104/74 80/111/80
f 98/137/98 75/105/75 77/107/77
f 100/139/100 83/117/83 75/105/75
f 101/140/101 84/116/84 83/115/83
f 99/138/99 77/107/77 34/54/35
f 92/127/92 130/206/130 102/142/102
f 90/124/90 102/207/102 103/143/103
f 87/121/87 103/143/103 104/144/104
f 101/140/101 130/206/130 92/127/92
f 74/104/74 3/12/4 40/59/40
f 79/109/79 40/188/40 41/60/41
f 76/106/76 41/60/41 34/54/35
f 43/62/43 128/173/128 105/145/105
f 106/146/106 110/150/110 107/147/107
f 109/149/109 113/160/113 110/150/110
f 111/151/111 113/208/113 109/152/109
f 112/209/112 116/210/116 113/211/113
f 114/156/114 116/212/116 112/153/112
f 114/158/114 107/147/107 110/150/110
f 117/161/117 121/165/121 118/162/118
f 120/164/120 125/176/125 121/165/121
f 122/166/122 125/170/125 120/167/120
f 122/166/122 127/177/127 124/169/124
f 126/171/126 124/213/124 127/172/127
f 118/162/118 121/165/121 124/174/124
f 119/163/119 118/162/118 68/97/68
f 118/162/118 126/175/126 70/99/70
f 126/171/126 128/173/128 43/62/43
f 115/157/115 112/153/112 122/166/122
f 112/153/112 111/155/111 127/177/127
f 111/151/111 105/145/105 128/173/128
f 108/148/108 107/147/107 98/137/98
f 107/147/107 114/158/114 100/139/100
f 114/156/114 115/157/115 101/140/101
f 71/101/71 108/148/108 99/138/99
f 102/142/102 130/206/130 123/168/123
f 103/143/103 102/207/102 120/164/120
f 104/144/104 103/143/103 117/161/117
f 123/168/123 130/206/130 101/140/101
f 72/102/72 44/63/44 105/145/105
f 73/103/73 72/198/72 109/149/109
f 71/101/71 73/103/73 106/146/106
