# Blender v2.93.2 OBJ File: 'cubeTexturePower.blend'
# www.blender.org
mtllib piece10.mtl
o Rubiks_Cube_Cube.010_piece10
v -0.984804 0.897260 -2.949262
v -0.998343 -0.000000 -2.898658
v -0.998343 0.897260 -2.898658
v -0.897001 0.947865 -1.013539
v -0.000000 0.985064 -1.050738
v -0.897001 0.985064 -1.050738
v -0.897001 0.897260 -3.000000
v -0.947605 -0.000000 -2.986461
v -0.947605 0.897260 -2.986461
v -0.897001 0.897260 -1.000000
v -0.000000 0.947865 -1.013539
v -0.000000 0.000000 -1.000000
v -0.897001 -0.000000 -1.000000
v -0.984804 0.947865 -1.101342
v -0.984804 0.947865 -2.898658
v -0.000000 0.947865 -2.986461
v -0.897001 0.985064 -2.949262
v -0.000000 0.985064 -2.949262
v -0.945464 0.971912 -2.947121
v -0.945464 0.945723 -2.973310
v -0.971653 0.945723 -2.947121
v -0.947605 -0.000000 -1.013539
v -0.984804 0.897260 -1.050738
v -0.984804 -0.000000 -1.050738
v -0.897001 0.947865 -2.986461
v -0.947605 0.985064 -2.898658
v -0.998343 0.897260 -1.101342
v -0.998343 -0.000000 -1.101342
v -0.000000 0.897260 -3.000000
v -0.947605 0.985064 -1.101342
v -0.947605 0.897260 -1.013539
v -0.897001 0.998603 -2.898658
v -0.000000 0.998603 -2.898658
v -0.897001 0.998603 -1.101342
v -0.945464 0.945723 -1.026690
v -0.000000 0.998603 -1.101342
v -0.971653 0.945723 -1.052879
v -0.945464 0.971912 -1.052879
v -0.897001 -0.000000 -3.000000
v -0.000000 0.000000 -3.000000
v -0.984804 -0.000000 -2.949262
v 0.998343 0.000000 -2.898658
v 0.984804 0.897260 -2.949262
v 0.998343 0.897260 -2.898658
v 0.897001 0.947865 -1.013539
v 0.897001 0.985064 -1.050738
v 0.947605 0.000000 -2.986461
v 0.897001 0.897260 -3.000000
v 0.947605 0.897260 -2.986461
v 0.897001 0.897260 -1.000000
v 0.897001 0.000000 -1.000000
v 0.984804 0.947865 -1.101342
v 0.984804 0.947865 -2.898658
v 0.897001 0.985064 -2.949262
v 0.945464 0.971912 -2.947121
v 0.971653 0.945723 -2.947121
v 0.945464 0.945723 -2.973310
v 0.984804 0.897260 -1.050738
v 0.947605 0.000000 -1.013539
v 0.984804 0.000000 -1.050738
v 0.897001 0.947865 -2.986461
v 0.947605 0.985064 -2.898658
v 0.998343 0.897260 -1.101342
v 0.998343 0.000000 -1.101342
v 0.947605 0.985064 -1.101342
v 0.947605 0.897260 -1.013539
v 0.897001 0.998603 -2.898658
v 0.897001 0.998603 -1.101342
v 0.945464 0.945723 -1.026690
v 0.971653 0.945723 -1.052879
v 0.945464 0.971912 -1.052879
v 0.897001 0.000000 -3.000000
v 0.984804 0.000000 -2.949262
v -0.984804 -0.897260 -2.949262
v -0.998343 -0.897260 -2.898658
v -0.000000 -0.985064 -1.050738
v -0.897001 -0.947865 -1.013539
v -0.897001 -0.985064 -1.050738
v -0.897001 -0.897260 -3.000000
v -0.947605 -0.897260 -2.986461
v -0.000000 -0.947865 -1.013539
v -0.897001 -0.897260 -1.000000
v -0.984804 -0.947865 -1.101342
v -0.984804 -0.947865 -2.898658
v -0.897001 -0.985064 -2.949262
v -0.000000 -0.947865 -2.986461
v -0.000000 -0.985064 -2.949262
v -0.945464 -0.971912 -2.947121
v -0.971653 -0.945723 -2.947121
v -0.945464 -0.945723 -2.973310
v -0.984804 -0.897260 -1.050738
v -0.897001 -0.947865 -2.986461
v -0.947605 -0.985064 -2.898658
v -0.998343 -0.897260 -1.101342
v -0.000000 -0.897260 -3.000000
v -0.947605 -0.985064 -1.101342
v -0.947605 -0.897260 -1.013539
v -0.897001 -0.998603 -2.898658
v -0.000000 -0.998603 -2.898658
v -0.897001 -0.998603 -1.101342
v -0.945464 -0.945723 -1.026690
v -0.000000 -0.998603 -1.101342
v -0.971653 -0.945723 -1.052879
v -0.945464 -0.971912 -1.052879
v 0.984804 -0.897260 -2.949262
v 0.998343 -0.897260 -2.898658
v 0.897001 -0.947865 -1.013539
v 0.897001 -0.985064 -1.050738
v 0.897001 -0.897260 -3.000000
v 0.947605 -0.897260 -2.986461
v 0.897001 -0.897260 -1.000000
v 0.984804 -0.947865 -1.101342
v 0.984804 -0.947865 -2.898658
v 0.897001 -0.985064 -2.949262
v 0.945464 -0.971912 -2.947121
v 0.945464 -0.945723 -2.973310
v 0.971653 -0.945723 -2.947121
v 0.984804 -0.897260 -1.050738
v 0.897001 -0.947865 -2.986461
v 0.947605 -0.985064 -2.898658
v 0.998343 -0.897260 -1.101342
v 0.947605 -0.985064 -1.101342
v 0.947605 -0.897260 -1.013539
v 0.897001 -0.998603 -2.898658
v 0.897001 -0.998603 -1.101342
v 0.945464 -0.945723 -1.026690
v 0.971653 -0.945723 -1.052879
v 0.945464 -0.971912 -1.052879
v -0.000000 0.897260 -1.000000
v -0.000000 -0.897260 -1.000000
vt 0.416504 0.250000
vt 0.375000 0.333008
vt 0.375000 0.250000
vt 0.333496 0.250000
vt 0.375000 0.166992
vt 0.416504 0.333008
vt 0.333496 0.333008
vt 0.416504 0.166992
vt 0.333496 0.166992
vt 0.763184 0.517578
vt 0.798340 0.522461
vt 0.763184 0.522461
vt 0.911133 0.517578
vt 0.875488 0.516602
vt 0.911133 0.516602
vt 0.833496 0.818359
vt 0.835449 0.750000
vt 0.835449 0.818359
vt 0.911133 0.522461
vt 0.875488 0.517578
vt 0.875488 0.593750
vt 0.911133 0.593750
vt 0.761230 0.665039
vt 0.761230 0.522461
vt 0.951172 0.670898
vt 0.986328 0.673828
vt 0.951172 0.673828
vt 0.759766 0.519531
vt 0.761230 0.517578
vt 0.761230 0.519531
vt 0.798340 0.670898
vt 0.763184 0.668945
vt 0.798340 0.668945
vt 0.833496 0.823242
vt 0.763184 0.516602
vt 0.759277 0.522461
vt 0.763184 0.665039
vt 0.798340 0.665039
vt 0.798340 0.820312
vt 0.798340 0.823242
vt 0.759277 0.665039
vt 0.913086 0.522461
vt 0.913086 0.593750
vt 0.986328 0.670898
vt 0.988281 0.673828
vt 0.986328 0.677734
vt 0.951172 0.677734
vt 0.988770 0.818359
vt 0.986328 0.823242
vt 0.986328 0.818359
vt 0.761230 0.670898
vt 0.763184 0.670898
vt 0.951172 0.818359
vt 0.988770 0.677734
vt 0.913574 0.519531
vt 0.912598 0.519531
vt 0.912598 0.517578
vt 0.759766 0.667969
vt 0.798340 0.517578
vt 0.840332 0.748047
vt 0.837891 0.677734
vt 0.840332 0.677734
vt 0.840820 0.517578
vt 0.840820 0.516602
vt 0.761719 0.750000
vt 0.763184 0.820312
vt 0.761719 0.820312
vt 0.840820 0.522461
vt 0.840820 0.593750
vt 0.910645 0.673828
vt 0.840332 0.673828
vt 0.915527 0.673828
vt 0.837891 0.671875
vt 0.837891 0.673828
vt 0.836914 0.673828
vt 0.912598 0.677734
vt 0.914062 0.748047
vt 0.912598 0.748047
vt 0.763184 0.824219
vt 0.759766 0.824219
vt 0.759277 0.820312
vt 0.840332 0.670898
vt 0.910645 0.677734
vt 0.910645 0.748047
vt 0.910645 0.670898
vt 0.838379 0.522461
vt 0.838379 0.593750
vt 0.915527 0.670898
vt 0.914062 0.673828
vt 0.914062 0.671875
vt 0.915527 0.677734
vt 0.915527 0.823242
vt 0.914062 0.818359
vt 0.915527 0.818359
vt 0.913574 0.673828
vt 0.914062 0.677734
vt 0.914062 0.677734
vt 0.837402 0.519531
vt 0.838379 0.517578
vt 0.838379 0.519531
vt 0.912598 0.671875
vt 0.912598 0.673828
vt 0.759277 0.750000
vt 0.833496 0.517578
vt 0.833496 0.522461
vt 0.875488 0.670898
vt 0.911133 0.667969
vt 0.911133 0.670898
vt 0.833496 0.677734
vt 0.835449 0.677734
vt 0.875488 0.667969
vt 0.911133 0.665039
vt 0.835449 0.665039
vt 0.835449 0.522461
vt 0.833496 0.670898
vt 0.798340 0.674805
vt 0.797852 0.671875
vt 0.836426 0.519531
vt 0.835449 0.519531
vt 0.835449 0.517578
vt 0.833496 0.668945
vt 0.833496 0.673828
vt 0.833496 0.516602
vt 0.836914 0.522461
vt 0.833496 0.665039
vt 0.798340 0.679688
vt 0.836914 0.665039
vt 0.913086 0.665039
vt 0.834961 0.671875
vt 0.834961 0.673828
vt 0.832520 0.969727
vt 0.796875 0.973633
vt 0.796875 0.969727
vt 0.832520 0.824219
vt 0.833984 0.829102
vt 0.832520 0.829102
vt 0.835449 0.670898
vt 0.833496 0.670898
vt 0.796875 0.829102
vt 0.833984 0.969727
vt 0.832520 0.973633
vt 0.913574 0.667969
vt 0.912598 0.670898
vt 0.912598 0.667969
vt 0.836426 0.667969
vt 0.835449 0.667969
vt 0.837891 0.818359
vt 0.840332 0.818359
vt 0.840820 0.667969
vt 0.840820 0.670898
vt 0.763184 0.680664
vt 0.761719 0.680664
vt 0.840820 0.665039
vt 0.910645 0.823242
vt 0.840332 0.823242
vt 0.763184 0.673828
vt 0.761230 0.673828
vt 0.761719 0.676758
vt 0.759766 0.676758
vt 0.912598 0.818359
vt 0.763184 0.676758
vt 0.759277 0.679688
vt 0.837891 0.826172
vt 0.840332 0.826172
vt 0.910645 0.818359
vt 0.910645 0.826172
vt 0.838379 0.665039
vt 0.761719 0.969727
vt 0.759277 0.829102
vt 0.761719 0.824219
vt 0.761719 0.829102
vt 0.913574 0.823242
vt 0.914062 0.818359
vt 0.761719 0.973633
vt 0.759277 0.969727
vt 0.837402 0.667969
vt 0.838379 0.667969
vt 0.838379 0.670898
vt 0.912598 0.826172
vt 0.833496 0.750000
vt 0.875488 0.522461
vt 0.834961 0.821289
vt 0.988281 0.671875
vt 0.988281 0.823242
vt 0.914062 0.522461
vt 0.761230 0.667969
vt 0.798340 0.516602
vt 0.951172 0.823242
vt 0.837891 0.748047
vt 0.763184 0.750000
vt 0.761719 0.824219
vt 0.914062 0.823242
vt 0.836914 0.522461
vt 0.875488 0.665039
vt 0.833984 0.824219
vt 0.914062 0.665039
vt 0.833984 0.973633
vt 0.796875 0.824219
vt 0.837891 0.823242
vt 0.759766 0.824219
vt 0.836914 0.665039
vt 0.912598 0.823242
vt 0.759766 0.973633
vn 0.0000 0.0000 -1.0000
vn -0.8623 0.1216 -0.4916
vn -0.9915 0.0000 -0.1303
vn -0.9835 0.1280 -0.1280
vn -0.1216 0.4916 0.8623
vn 0.0000 0.8661 0.4998
vn -0.1216 0.8623 0.4916
vn -0.1709 0.1709 -0.9703
vn -0.4998 -0.0000 -0.8661
vn -0.4916 0.1216 -0.8623
vn -0.1280 0.1280 0.9835
vn 0.0000 0.4998 0.8661
vn 0.0000 0.0000 1.0000
vn -0.1303 -0.0000 0.9915
vn -0.8623 0.4916 0.1216
vn -0.8623 0.4916 -0.1216
vn 0.0000 0.4998 -0.8661
vn -0.1216 0.8623 -0.4916
vn -0.0000 0.8661 -0.4998
vn -0.4488 0.7727 -0.4488
vn -0.4488 0.4488 -0.7727
vn -0.7727 0.4488 -0.4488
vn -0.4998 -0.0000 0.8661
vn -0.8623 0.1216 0.4916
vn -0.8661 -0.0000 0.4998
vn -0.1216 0.4916 -0.8623
vn -0.4916 0.8623 -0.1216
vn -0.9835 0.1280 0.1280
vn -0.9915 -0.0000 0.1303
vn -0.0000 0.2585 -0.9660
vn -0.4916 0.8623 0.1216
vn -0.4916 0.1216 0.8623
vn -0.1280 0.9835 -0.1280
vn -0.0000 0.9915 -0.1303
vn -0.1280 0.9835 0.1280
vn -0.4488 0.4488 0.7727
vn -0.0000 0.9915 0.1303
vn -0.7727 0.4488 0.4488
vn -0.4488 0.7727 0.4488
vn -0.8661 -0.0000 -0.4998
vn 0.9915 0.0000 -0.1303
vn 0.8623 0.1216 -0.4916
vn 0.9835 0.1280 -0.1280
vn 0.1216 0.4916 0.8623
vn 0.1216 0.8623 0.4916
vn 0.4998 0.0000 -0.8661
vn 0.1709 0.1709 -0.9703
vn 0.4916 0.1216 -0.8623
vn 0.1280 0.1280 0.9835
vn 0.1303 0.0000 0.9915
vn 0.8623 0.4916 0.1216
vn 0.8623 0.4916 -0.1216
vn 0.1216 0.8623 -0.4916
vn 0.4488 0.7727 -0.4488
vn 0.7727 0.4488 -0.4488
vn 0.4488 0.4488 -0.7727
vn 0.8623 0.1216 0.4916
vn 0.4998 0.0000 0.8661
vn 0.8661 0.0000 0.4998
vn 0.1216 0.4916 -0.8623
vn 0.4916 0.8623 -0.1216
vn 0.9835 0.1280 0.1280
vn 0.9915 0.0000 0.1303
vn 0.4916 0.8623 0.1216
vn 0.4916 0.1216 0.8623
vn 0.1280 0.9835 -0.1280
vn 0.1280 0.9835 0.1280
vn 0.4488 0.4488 0.7727
vn 0.7727 0.4488 0.4488
vn 0.4488 0.7727 0.4488
vn 0.8661 0.0000 -0.4998
vn -0.8623 -0.1216 -0.4916
vn -0.9835 -0.1280 -0.1280
vn 0.0000 -0.8661 0.4998
vn -0.1216 -0.4916 0.8623
vn -0.1216 -0.8623 0.4916
vn -0.1709 -0.1709 -0.9703
vn -0.4916 -0.1216 -0.8623
vn 0.0000 -0.4998 0.8661
vn -0.1280 -0.1280 0.9835
vn -0.8623 -0.4916 0.1216
vn -0.8623 -0.4916 -0.1216
vn -0.1216 -0.8623 -0.4916
vn -0.0000 -0.4998 -0.8661
vn 0.0000 -0.8661 -0.4998
vn -0.4488 -0.7727 -0.4488
vn -0.7727 -0.4488 -0.4488
vn -0.4488 -0.4488 -0.7727
vn -0.8623 -0.1216 0.4916
vn -0.1216 -0.4916 -0.8623
vn -0.4916 -0.8623 -0.1216
vn -0.9835 -0.1280 0.1280
vn 0.0000 -0.2585 -0.9660
vn -0.4916 -0.8623 0.1216
vn -0.4916 -0.1216 0.8623
vn -0.1280 -0.9835 -0.1280
vn 0.0000 -0.9915 -0.1303
vn -0.1280 -0.9835 0.1280
vn -0.4488 -0.4488 0.7727
vn 0.0000 -0.9915 0.1303
vn -0.7727 -0.4488 0.4488
vn -0.4488 -0.7727 0.4488
vn 0.8623 -0.1216 -0.4916
vn 0.9835 -0.1280 -0.1280
vn 0.1216 -0.4916 0.8623
vn 0.1216 -0.8623 0.4916
vn 0.1709 -0.1709 -0.9703
vn 0.4916 -0.1216 -0.8623
vn 0.1280 -0.1280 0.9835
vn 0.8623 -0.4916 0.1216
vn 0.8623 -0.4916 -0.1216
vn 0.1216 -0.8623 -0.4916
vn 0.4488 -0.7727 -0.4488
vn 0.4488 -0.4488 -0.7727
vn 0.7727 -0.4488 -0.4488
vn 0.8623 -0.1216 0.4916
vn 0.1216 -0.4916 -0.8623
vn 0.4916 -0.8623 -0.1216
vn 0.9835 -0.1280 0.1280
vn 0.4916 -0.8623 0.1216
vn 0.4916 -0.1216 0.8623
vn 0.1280 -0.9835 -0.1280
vn 0.1280 -0.9835 0.1280
vn 0.4488 -0.4488 0.7727
vn 0.7727 -0.4488 0.4488
vn 0.4488 -0.7727 0.4488
vn -0.2585 -0.0000 -0.9660
vn 0.0000 0.1303 0.9915
vn 0.2585 0.0000 -0.9660
vn 0.0000 -0.1303 0.9915
usemtl CubeCustomText
s off
f 39/1/1 29/2/1 40/3/1
f 29/2/1 72/4/1 40/3/1
f 95/5/1 39/1/1 40/3/1
f 72/4/1 95/5/1 40/3/1
f 39/1/1 7/6/1 29/2/1
f 29/2/1 48/7/1 72/4/1
f 95/5/1 79/8/1 39/1/1
f 72/4/1 109/9/1 95/5/1
s 1
f 1/10/2 2/11/3 3/12/4
f 4/13/5 5/14/6 6/15/7
f 7/16/8 8/17/9 9/18/10
f 10/19/11 11/20/12 4/13/5
f 12/21/13 10/19/11 13/22/14
f 3/12/4 14/23/15 15/24/16
f 16/25/17 17/26/18 18/27/19
f 19/28/20 20/29/21 21/30/22
f 22/31/23 23/32/24 24/33/25
f 15/24/16 1/10/2 3/12/4
f 9/18/10 25/34/26 7/16/8
f 21/30/22 9/35/10 1/10/2
f 19/28/20 15/24/16 26/36/27
f 24/33/25 27/37/28 28/38/29
f 29/39/30 25/34/26 16/40/17
f 15/24/16 30/41/31 26/36/27
f 13/22/14 31/42/32 22/43/23
f 25/44/26 19/45/20 17/26/18
f 18/27/19 32/46/33 33/47/34
f 28/38/29 3/12/4 2/11/3
f 30/48/31 6/49/7 34/50/35
f 35/51/36 23/32/24 31/52/32
f 23/32/24 14/23/15 27/37/28
f 32/46/33 36/53/37 33/47/34
f 17/26/18 26/54/27 32/46/33
f 4/13/5 31/42/32 10/19/11
f 37/55/38 35/56/36 38/57/39
f 14/23/15 38/58/39 30/41/31
f 38/57/39 4/13/5 6/15/7
f 9/35/10 41/59/40 1/10/2
f 6/49/7 36/53/37 34/50/35
f 26/54/27 34/50/35 32/46/33
f 42/60/41 43/61/42 44/62/43
f 5/14/6 45/63/44 46/64/45
f 47/65/46 48/66/47 49/67/48
f 11/20/12 50/68/49 45/63/44
f 50/68/49 12/21/13 51/69/50
f 52/70/51 44/62/43 53/71/52
f 54/72/53 16/25/17 18/27/19
f 55/73/54 56/74/55 57/75/56
f 58/76/57 59/77/58 60/78/59
f 43/61/42 53/71/52 44/62/43
f 61/79/60 49/67/48 48/66/47
f 49/67/48 56/80/55 43/81/42
f 53/71/52 55/73/54 62/82/61
f 63/83/62 60/78/59 64/84/63
f 61/79/60 29/39/30 16/40/17
f 65/85/64 53/71/52 62/82/61
f 66/86/65 51/69/50 59/87/58
f 61/88/60 55/89/54 57/90/56
f 67/91/66 18/27/19 33/47/34
f 44/62/43 64/84/63 42/60/41
f 46/92/45 65/93/64 68/94/67
f 58/76/57 69/95/68 66/96/65
f 52/70/51 58/76/57 63/83/62
f 36/53/37 67/91/66 33/47/34
f 62/97/61 54/72/53 67/91/66
f 66/86/65 45/63/44 50/68/49
f 70/98/69 71/99/70 69/100/68
f 52/70/51 71/101/70 70/102/69
f 45/63/44 71/99/70 46/64/45
f 73/103/71 49/67/48 43/81/42
f 36/53/37 46/92/45 68/94/67
f 68/94/67 62/97/61 67/91/66
f 2/11/3 74/104/72 75/105/73
f 76/106/74 77/107/75 78/108/76
f 8/17/9 79/109/77 80/110/78
f 81/111/79 82/112/80 77/107/75
f 82/112/80 12/21/13 13/22/14
f 83/113/81 75/105/73 84/114/82
f 85/115/83 86/116/84 87/117/85
f 88/118/86 89/119/87 90/120/88
f 91/121/89 22/31/23 24/33/25
f 74/104/72 84/114/82 75/105/73
f 92/122/90 80/110/78 79/109/77
f 80/123/78 89/119/87 74/104/72
f 84/114/82 88/118/86 93/124/91
f 94/125/92 24/33/25 28/38/29
f 92/122/90 95/126/93 86/116/84
f 96/127/94 84/114/82 93/124/91
f 97/128/95 13/22/14 22/43/23
f 92/122/90 88/129/86 90/130/88
f 98/131/96 87/132/85 99/133/97
f 75/105/73 28/38/29 2/11/3
f 78/134/76 96/135/94 100/136/98
f 91/121/89 101/137/99 97/138/95
f 83/113/81 91/121/89 94/125/92
f 102/139/100 98/131/96 99/133/97
f 93/140/91 85/141/83 98/131/96
f 97/128/95 77/107/75 82/112/80
f 103/142/101 104/143/102 101/144/99
f 83/113/81 104/145/102 103/146/101
f 77/107/75 104/143/102 78/108/76
f 41/59/40 80/123/78 74/104/72
f 102/139/100 78/134/76 100/136/98
f 100/136/98 93/140/91 98/131/96
f 105/147/103 42/60/41 106/148/104
f 107/149/105 76/106/74 108/150/106
f 109/151/107 47/65/46 110/152/108
f 111/153/109 81/111/79 107/149/105
f 12/21/13 111/153/109 51/69/50
f 106/148/104 112/154/110 113/155/111
f 86/116/84 114/156/112 87/117/85
f 115/157/113 116/158/114 117/159/115
f 59/77/58 118/160/116 60/78/59
f 113/155/111 105/147/103 106/148/104
f 110/152/108 119/161/117 109/151/107
f 117/159/115 110/152/108 105/162/103
f 115/163/113 113/155/111 120/164/118
f 60/78/59 121/165/119 64/84/63
f 95/126/93 119/161/117 86/116/84
f 113/155/111 122/166/120 120/164/118
f 51/69/50 123/167/121 59/87/58
f 119/161/117 115/157/113 114/156/112
f 87/132/85 124/168/122 99/133/97
f 64/84/63 106/148/104 42/60/41
f 122/169/120 108/170/106 125/171/123
f 126/172/124 118/160/116 123/173/121
f 118/160/116 112/154/110 121/165/119
f 124/168/122 102/139/100 99/133/97
f 114/174/112 120/175/118 124/168/122
f 107/149/105 123/167/121 111/153/109
f 127/176/125 126/177/124 128/178/126
f 112/154/110 128/179/126 122/166/120
f 128/178/126 107/149/105 108/150/106
f 110/152/108 73/103/71 105/162/103
f 108/170/106 102/139/100 125/171/123
f 120/175/118 125/171/123 124/168/122
f 1/10/2 41/59/40 2/11/3
f 4/13/5 11/20/12 5/14/6
f 7/16/8 39/180/127 8/17/9
f 10/19/11 129/181/128 11/20/12
f 12/21/13 129/181/128 10/19/11
f 3/12/4 27/37/28 14/23/15
f 16/25/17 25/44/26 17/26/18
f 22/31/23 31/52/32 23/32/24
f 15/24/16 21/30/22 1/10/2
f 9/18/10 20/182/21 25/34/26
f 21/30/22 20/29/21 9/35/10
f 19/28/20 21/30/22 15/24/16
f 24/33/25 23/32/24 27/37/28
f 29/39/30 7/16/8 25/34/26
f 15/24/16 14/23/15 30/41/31
f 13/22/14 10/19/11 31/42/32
f 25/44/26 20/183/21 19/45/20
f 18/27/19 17/26/18 32/46/33
f 28/38/29 27/37/28 3/12/4
f 30/48/31 38/184/39 6/49/7
f 35/56/36 37/55/38 23/185/24
f 23/32/24 37/186/38 14/23/15
f 32/46/33 34/50/35 36/53/37
f 17/26/18 19/45/20 26/54/27
f 4/13/5 35/56/36 31/42/32
f 14/23/15 37/186/38 38/58/39
f 38/57/39 35/56/36 4/13/5
f 9/35/10 8/187/9 41/59/40
f 6/49/7 5/188/6 36/53/37
f 26/54/27 30/48/31 34/50/35
f 42/60/41 73/189/71 43/61/42
f 5/14/6 11/20/12 45/63/44
f 47/65/46 72/190/129 48/66/47
f 11/20/12 129/181/128 50/68/49
f 50/68/49 129/181/128 12/21/13
f 52/70/51 63/83/62 44/62/43
f 54/72/53 61/88/60 16/25/17
f 58/76/57 66/96/65 59/77/58
f 43/61/42 56/74/55 53/71/52
f 61/79/60 57/191/56 49/67/48
f 49/67/48 57/191/56 56/80/55
f 53/71/52 56/74/55 55/73/54
f 63/83/62 58/76/57 60/78/59
f 61/79/60 48/66/47 29/39/30
f 65/85/64 52/70/51 53/71/52
f 66/86/65 50/68/49 51/69/50
f 61/88/60 54/72/53 55/89/54
f 67/91/66 54/72/53 18/27/19
f 44/62/43 63/83/62 64/84/63
f 46/92/45 71/192/70 65/93/64
f 58/193/57 70/98/69 69/100/68
f 52/70/51 70/102/69 58/76/57
f 36/53/37 68/94/67 67/91/66
f 62/97/61 55/89/54 54/72/53
f 66/86/65 69/100/68 45/63/44
f 52/70/51 65/85/64 71/101/70
f 45/63/44 69/100/68 71/99/70
f 73/103/71 47/65/46 49/67/48
f 36/53/37 5/188/6 46/92/45
f 68/94/67 65/93/64 62/97/61
f 2/11/3 41/59/40 74/104/72
f 76/106/74 81/111/79 77/107/75
f 8/17/9 39/180/127 79/109/77
f 81/111/79 130/194/130 82/112/80
f 82/112/80 130/194/130 12/21/13
f 83/113/81 94/125/92 75/105/73
f 85/115/83 92/122/90 86/116/84
f 91/121/89 97/138/95 22/31/23
f 74/104/72 89/119/87 84/114/82
f 92/122/90 90/130/88 80/110/78
f 80/123/78 90/120/88 89/119/87
f 84/114/82 89/119/87 88/118/86
f 94/125/92 91/121/89 24/33/25
f 92/122/90 79/109/77 95/126/93
f 96/127/94 83/113/81 84/114/82
f 97/128/95 82/112/80 13/22/14
f 92/122/90 85/115/83 88/129/86
f 98/131/96 85/141/83 87/132/85
f 75/105/73 94/125/92 28/38/29
f 78/134/76 104/195/102 96/135/94
f 91/196/89 103/142/101 101/144/99
f 83/113/81 103/146/101 91/121/89
f 102/139/100 100/136/98 98/131/96
f 93/140/91 88/197/86 85/141/83
f 97/128/95 101/144/99 77/107/75
f 83/113/81 96/127/94 104/145/102
f 77/107/75 101/144/99 104/143/102
f 41/59/40 8/187/9 80/123/78
f 102/139/100 76/198/74 78/134/76
f 100/136/98 96/135/94 93/140/91
f 105/147/103 73/189/71 42/60/41
f 107/149/105 81/111/79 76/106/74
f 109/151/107 72/190/129 47/65/46
f 111/153/109 130/194/130 81/111/79
f 12/21/13 130/194/130 111/153/109
f 106/148/104 121/165/119 112/154/110
f 86/116/84 119/161/117 114/156/112
f 59/77/58 123/173/121 118/160/116
f 113/155/111 117/199/115 105/147/103
f 110/152/108 116/158/114 119/161/117
f 117/159/115 116/158/114 110/152/108
f 115/163/113 117/199/115 113/155/111
f 60/78/59 118/160/116 121/165/119
f 95/126/93 109/151/107 119/161/117
f 113/155/111 112/154/110 122/166/120
f 51/69/50 111/153/109 123/167/121
f 119/161/117 116/158/114 115/157/113
f 87/132/85 114/174/112 124/168/122
f 64/84/63 121/165/119 106/148/104
f 122/169/120 128/200/126 108/170/106
f 126/177/124 127/176/125 118/201/116
f 118/160/116 127/202/125 112/154/110
f 124/168/122 125/171/123 102/139/100
f 114/174/112 115/203/113 120/175/118
f 107/149/105 126/177/124 123/167/121
f 112/154/110 127/202/125 128/179/126
f 128/178/126 126/177/124 107/149/105
f 110/152/108 47/65/46 73/103/71
f 108/170/106 76/198/74 102/139/100
f 120/175/118 122/169/120 125/171/123
