# Blender v2.93.2 OBJ File: 'cubeTexturePower.blend'
# www.blender.org
mtllib piece18.mtl
o Rubiks_Cube_Cube.018_piece18
v -0.998343 -2.898657 -2.898658
v -0.998343 -1.101342 -1.101342
v -0.998343 -1.101342 -2.898658
v -0.000000 -2.898657 -3.000000
v -0.897001 -1.101342 -3.000000
v -0.000000 -1.101342 -3.000000
v 0.000000 -2.999999 -1.101342
v -0.897001 -2.999999 -2.898658
v -0.000000 -2.999999 -2.898658
v -0.947605 -1.013538 -1.101342
v -0.897001 -1.013538 -1.050738
v -0.897001 -0.999999 -1.101342
v -0.984804 -1.050737 -1.101342
v -0.945464 -1.026690 -1.052879
v -0.984804 -1.101342 -1.050738
v -0.945464 -1.052879 -1.026690
v -0.971653 -1.052879 -1.052879
v -0.897001 -1.050737 -1.013539
v -0.947605 -1.101342 -1.013539
v -0.897001 -1.101342 -1.000000
v -0.984803 -2.949261 -1.101342
v -0.984803 -2.898657 -1.050738
v -0.998343 -2.898657 -1.101342
v -0.945464 -2.973309 -1.052879
v -0.971653 -2.947120 -1.052879
v -0.897001 -2.986460 -1.050738
v -0.947605 -2.986460 -1.101342
v -0.897001 -2.999999 -1.101342
v -0.897001 -2.949261 -1.013539
v -0.947605 -2.898657 -1.013539
v -0.897001 -2.898657 -1.000000
v -0.945464 -2.947120 -1.026690
v -0.897001 -1.013538 -2.949262
v -0.947605 -1.013538 -2.898658
v -0.897001 -0.999999 -2.898658
v -0.897001 -1.050737 -2.986461
v -0.945464 -1.026690 -2.947121
v -0.947605 -1.101342 -2.986461
v -0.971653 -1.052879 -2.947121
v -0.945464 -1.052879 -2.973310
v -0.984804 -1.050737 -2.898658
v -0.984804 -1.101342 -2.949262
v -0.947605 -2.986460 -2.898658
v -0.897001 -2.986460 -2.949262
v -0.984803 -2.949261 -2.898658
v -0.945464 -2.973309 -2.947121
v -0.984803 -2.898657 -2.949262
v -0.945464 -2.947120 -2.973310
v -0.971653 -2.947120 -2.947121
v -0.897001 -2.949261 -2.986461
v -0.947605 -2.898657 -2.986461
v -0.897001 -2.898657 -3.000000
v -0.000000 -1.013538 -1.050738
v -0.000000 -0.999999 -1.101342
v -0.000000 -1.050737 -1.013539
v -0.000000 -1.101342 -1.000000
v -0.000000 -2.986460 -2.949262
v -0.000000 -2.949261 -2.986461
v -0.000000 -0.999999 -2.898658
v -0.000000 -1.050737 -2.986461
v -0.000000 -1.013538 -2.949262
v 0.000000 -2.949261 -1.013539
v 0.000000 -2.986460 -1.050738
v 0.998343 -1.101342 -1.101342
v 0.998343 -2.898657 -2.898658
v 0.998343 -1.101342 -2.898658
v 0.897001 -1.101342 -3.000000
v 0.897002 -2.999999 -2.898658
v 0.897001 -1.013538 -1.050738
v 0.947605 -1.013538 -1.101342
v 0.897001 -0.999999 -1.101342
v 0.945464 -1.026690 -1.052879
v 0.984804 -1.050737 -1.101342
v 0.984804 -1.101342 -1.050738
v 0.945464 -1.052879 -1.026690
v 0.947605 -1.101342 -1.013539
v 0.897001 -1.050737 -1.013539
v 0.897001 -1.101342 -1.000000
v 0.971653 -1.052879 -1.052879
v 0.984804 -2.898657 -1.050738
v 0.984804 -2.949261 -1.101342
v 0.998343 -2.898657 -1.101342
v 0.971653 -2.947120 -1.052879
v 0.947605 -2.986460 -1.101342
v 0.897002 -2.986460 -1.050738
v 0.897002 -2.999999 -1.101342
v 0.945464 -2.947120 -1.026690
v 0.897002 -2.949261 -1.013539
v 0.947605 -2.898657 -1.013539
v 0.897002 -2.898657 -1.000000
v 0.945464 -2.973309 -1.052879
v 0.947605 -1.013538 -2.898658
v 0.897001 -1.013538 -2.949262
v 0.897001 -0.999999 -2.898658
v 0.945464 -1.026690 -2.947121
v 0.897001 -1.050737 -2.986461
v 0.947605 -1.101342 -2.986461
v 0.971653 -1.052879 -2.947121
v 0.984804 -1.101342 -2.949262
v 0.984804 -1.050737 -2.898658
v 0.945464 -1.052879 -2.973310
v 0.897002 -2.986460 -2.949262
v 0.947605 -2.986460 -2.898658
v 0.945464 -2.973309 -2.947121
v 0.984804 -2.949261 -2.898658
v 0.984804 -2.898657 -2.949262
v 0.945464 -2.947120 -2.973310
v 0.947605 -2.898657 -2.986461
v 0.897002 -2.949261 -2.986461
v 0.897002 -2.898657 -3.000000
v 0.971653 -2.947120 -2.947121
v 0.000000 -2.898657 -1.000000
vt 0.375000 -0.000000
vt 0.416504 0.166992
vt 0.375000 0.166992
vt 0.125000 0.166992
vt 0.083496 -0.000000
vt 0.125000 -0.000000
vt 0.333496 0.166992
vt 0.166504 0.000000
vt 0.416504 0.000000
vt 0.083496 0.166992
vt 0.333496 -0.000000
vt 0.166504 0.166992
vt 0.915527 0.595703
vt 0.842285 0.743164
vt 0.842285 0.595703
vt 0.833008 0.752930
vt 0.834961 0.757812
vt 0.833008 0.757812
vt 0.833496 0.750000
vt 0.834961 0.752930
vt 0.842285 0.747070
vt 0.840332 0.743164
vt 0.840820 0.749023
vt 0.840820 0.747070
vt 0.838379 0.757812
vt 0.840820 0.752930
vt 0.840820 0.757812
vt 0.836914 0.757812
vt 0.836426 0.752930
vt 0.835449 0.751953
vt 0.917969 0.743164
vt 0.915527 0.747070
vt 0.915527 0.743164
vt 0.917969 0.740234
vt 0.919434 0.744141
vt 0.918457 0.744141
vt 0.921387 0.744141
vt 0.919434 0.740234
vt 0.921387 0.740234
vt 0.914062 0.757812
vt 0.915527 0.752930
vt 0.915527 0.757812
vt 0.912109 0.752930
vt 0.912109 0.757812
vt 0.912598 0.750000
vt 0.914062 0.752930
vt 0.914551 0.751953
vt 0.759766 0.757812
vt 0.761719 0.752930
vt 0.761719 0.757812
vt 0.758301 0.757812
vt 0.759766 0.752930
vt 0.990234 0.752930
vt 0.992188 0.757812
vt 0.990723 0.757812
vt 0.842285 0.588867
vt 0.840820 0.592773
vt 0.840820 0.589844
vt 0.840332 0.595703
vt 0.842285 0.592773
vt 0.838867 0.592773
vt 0.919434 0.592773
vt 0.921387 0.588867
vt 0.921387 0.592773
vt 0.917969 0.592773
vt 0.919434 0.588867
vt 0.915527 0.592773
vt 0.917969 0.595703
vt 0.919434 0.750000
vt 0.917969 0.752930
vt 0.916992 0.751953
vt 0.917969 0.757812
vt 0.919922 0.752930
vt 0.919922 0.757812
vt 0.915527 0.757812
vt 0.916016 0.752930
vt 0.834961 0.831055
vt 0.833008 0.831055
vt 0.836914 0.831055
vt 0.840820 0.831055
vt 0.838379 0.831055
vt 0.842285 0.750000
vt 0.957031 0.588867
vt 0.957520 0.592773
vt 0.917969 0.831055
vt 0.915527 0.831055
vt 0.919922 0.831055
vt 0.915527 0.588867
vt 0.838379 0.595703
vt 0.838379 0.743164
vt 0.761719 0.831055
vt 0.992188 0.831055
vt 0.759766 0.831055
vt 0.914062 0.831055
vt 0.915527 0.831055
vt 0.957520 0.740234
vt 0.762207 0.595703
vt 0.835449 0.743164
vt 0.762207 0.743164
vt 0.834961 0.904297
vt 0.833008 0.907227
vt 0.833008 0.904297
vt 0.834961 0.907227
vt 0.833496 0.910156
vt 0.759766 0.595703
vt 0.762207 0.592773
vt 0.759766 0.589844
vt 0.762207 0.588867
vt 0.840820 0.907227
vt 0.838379 0.904297
vt 0.840820 0.904297
vt 0.836914 0.904297
vt 0.836426 0.907227
vt 0.835449 0.910156
vt 0.835449 0.592773
vt 0.837402 0.595703
vt 0.835449 0.595703
vt 0.836914 0.592773
vt 0.838379 0.595703
vt 0.994629 0.740234
vt 0.992676 0.744141
vt 0.992676 0.740234
vt 0.915527 0.904297
vt 0.914062 0.907227
vt 0.914062 0.904297
vt 0.912109 0.907227
vt 0.912109 0.904297
vt 0.914551 0.910156
vt 0.912598 0.910156
vt 0.915527 0.907227
vt 0.761719 0.907227
vt 0.759766 0.904297
vt 0.761719 0.904297
vt 0.759766 0.907227
vt 0.758301 0.904297
vt 0.992188 0.904297
vt 0.990234 0.907227
vt 0.990723 0.904297
vt 0.762207 0.750000
vt 0.759766 0.747070
vt 0.762207 0.747070
vt 0.759766 0.743164
vt 0.758789 0.747070
vt 0.758301 0.743164
vt 0.759766 0.749023
vt 0.992676 0.588867
vt 0.994629 0.592773
vt 0.992676 0.592773
vt 0.837891 0.747070
vt 0.837402 0.743164
vt 0.838379 0.743164
vt 0.835449 0.747070
vt 0.919434 0.910156
vt 0.917969 0.907227
vt 0.919922 0.907227
vt 0.917969 0.904297
vt 0.919922 0.904297
vt 0.915527 0.904297
vt 0.916016 0.907227
vt 0.916992 0.910156
vt 0.835449 0.750000
vt 0.758301 0.595703
vt 0.912109 0.831055
vt 0.838867 0.752930
vt 0.916992 0.747070
vt 0.758789 0.752930
vt 0.992188 0.752930
vt 0.918457 0.588867
vt 0.916992 0.592773
vt 0.915527 0.750000
vt 0.990723 0.831055
vt 0.758301 0.831055
vt 0.957031 0.744141
vt 0.759766 0.592773
vt 0.838867 0.907227
vt 0.837891 0.592773
vt 0.994141 0.744141
vt 0.758789 0.907227
vt 0.992188 0.907227
vt 0.994141 0.588867
vt 0.836914 0.747070
vt 0.835449 0.588867
vn 0.0000 0.0000 -1.0000
vn 0.0000 -1.0000 0.0000
vn -0.9835 -0.1280 -0.1280
vn -0.9835 0.1280 0.1280
vn -0.9835 0.1280 -0.1280
vn -0.4916 0.8623 0.1216
vn -0.1216 0.8623 0.4916
vn -0.1280 0.9835 0.1280
vn -0.8623 0.4916 0.1216
vn -0.4488 0.7727 0.4488
vn -0.8623 0.1216 0.4916
vn -0.4488 0.4488 0.7727
vn -0.7727 0.4488 0.4488
vn -0.1216 0.4916 0.8623
vn -0.4916 0.1216 0.8623
vn -0.1280 0.1280 0.9835
vn -0.8623 -0.4916 0.1216
vn -0.8623 -0.1216 0.4916
vn -0.9835 -0.1280 0.1280
vn -0.4488 -0.7727 0.4488
vn -0.7727 -0.4488 0.4488
vn -0.1216 -0.8623 0.4916
vn -0.4916 -0.8623 0.1216
vn -0.1709 -0.9703 0.1709
vn -0.1216 -0.4916 0.8623
vn -0.4916 -0.1216 0.8623
vn -0.1280 -0.1280 0.9835
vn -0.4488 -0.4488 0.7727
vn -0.1216 0.8623 -0.4916
vn -0.4916 0.8623 -0.1216
vn -0.1280 0.9835 -0.1280
vn -0.1216 0.4916 -0.8623
vn -0.4488 0.7727 -0.4488
vn -0.4916 0.1216 -0.8623
vn -0.1709 0.1709 -0.9703
vn -0.7727 0.4488 -0.4488
vn -0.4488 0.4488 -0.7727
vn -0.8623 0.4916 -0.1216
vn -0.8623 0.1216 -0.4916
vn -0.4916 -0.8623 -0.1216
vn -0.1216 -0.8623 -0.4916
vn -0.1709 -0.9703 -0.1709
vn -0.8623 -0.4916 -0.1216
vn -0.4488 -0.7727 -0.4488
vn -0.8623 -0.1216 -0.4916
vn -0.4488 -0.4488 -0.7727
vn -0.7727 -0.4488 -0.4488
vn -0.1216 -0.4916 -0.8623
vn -0.4916 -0.1216 -0.8623
vn -0.1709 -0.1709 -0.9703
vn 0.0000 0.8661 0.4998
vn -0.0000 0.9915 0.1303
vn 0.0000 0.4998 0.8661
vn 0.0000 0.1303 0.9915
vn 0.0000 -0.8661 -0.4998
vn 0.0000 -0.9660 -0.2585
vn 0.0000 -0.4998 -0.8661
vn 0.0000 -0.2585 -0.9660
vn -0.0000 0.9915 -0.1303
vn 0.0000 0.4998 -0.8661
vn 0.0000 0.8661 -0.4998
vn 0.0000 -0.4998 0.8661
vn 0.0000 -0.8661 0.4998
vn 0.0000 -0.9660 0.2585
vn 0.9835 0.1280 0.1280
vn 0.9835 -0.1280 -0.1280
vn 0.9835 0.1280 -0.1280
vn 0.1216 0.8623 0.4916
vn 0.4916 0.8623 0.1216
vn 0.1280 0.9835 0.1280
vn 0.4488 0.7727 0.4488
vn 0.8623 0.4916 0.1216
vn 0.8623 0.1216 0.4916
vn 0.4488 0.4488 0.7727
vn 0.4916 0.1216 0.8623
vn 0.1216 0.4916 0.8623
vn 0.1280 0.1280 0.9835
vn 0.7727 0.4488 0.4488
vn 0.8623 -0.1216 0.4916
vn 0.8623 -0.4916 0.1216
vn 0.9835 -0.1280 0.1280
vn 0.7727 -0.4488 0.4488
vn 0.4916 -0.8623 0.1216
vn 0.1216 -0.8623 0.4916
vn 0.1709 -0.9703 0.1709
vn 0.4488 -0.4488 0.7727
vn 0.1216 -0.4916 0.8623
vn 0.4916 -0.1216 0.8623
vn 0.1280 -0.1280 0.9835
vn 0.4488 -0.7727 0.4488
vn 0.4916 0.8623 -0.1216
vn 0.1216 0.8623 -0.4916
vn 0.1280 0.9835 -0.1280
vn 0.4488 0.7727 -0.4488
vn 0.1216 0.4916 -0.8623
vn 0.4916 0.1216 -0.8623
vn 0.1709 0.1709 -0.9703
vn 0.7727 0.4488 -0.4488
vn 0.8623 0.1216 -0.4916
vn 0.8623 0.4916 -0.1216
vn 0.4488 0.4488 -0.7727
vn 0.1216 -0.8623 -0.4916
vn 0.4916 -0.8623 -0.1216
vn 0.1709 -0.9703 -0.1709
vn 0.4488 -0.7727 -0.4488
vn 0.8623 -0.4916 -0.1216
vn 0.8623 -0.1216 -0.4916
vn 0.4488 -0.4488 -0.7727
vn 0.4916 -0.1216 -0.8623
vn 0.1216 -0.4916 -0.8623
vn 0.1709 -0.1709 -0.9703
vn 0.7727 -0.4488 -0.4488
vn 0.0000 -0.1303 0.9915
vn 0.0000 0.2585 -0.9660
usemtl CubeCustomText
s off
f 4/1/1 5/2/1 6/3/1
f 7/4/2 8/5/2 9/6/2
f 67/7/1 4/1/1 6/3/1
f 68/8/2 7/4/2 9/6/2
f 4/1/1 52/9/1 5/2/1
f 7/4/2 28/10/2 8/5/2
f 67/7/1 110/11/1 4/1/1
f 68/8/2 86/12/2 7/4/2
s 1
f 1/13/3 2/14/4 3/15/5
f 10/16/6 11/17/7 12/18/8
f 13/19/9 14/20/10 10/16/6
f 15/21/11 13/22/9 2/14/4
f 15/21/11 16/23/12 17/24/13
f 18/25/14 19/26/15 20/27/16
f 18/28/14 14/20/10 16/29/12
f 14/20/10 17/30/13 16/29/12
f 21/31/17 22/32/18 23/33/19
f 21/34/17 24/35/20 25/36/21
f 26/37/22 27/38/23 28/39/24
f 29/40/25 24/41/20 26/42/22
f 30/43/26 29/40/25 31/44/27
f 22/45/18 32/46/28 30/43/26
f 25/47/21 24/41/20 32/46/28
f 33/48/29 34/49/30 35/50/31
f 36/51/32 37/52/33 33/48/29
f 38/53/34 36/54/32 5/55/35
f 38/56/34 39/57/36 40/58/37
f 41/59/38 42/60/39 3/15/5
f 41/59/38 37/61/33 39/57/36
f 37/61/33 40/58/37 39/57/36
f 43/62/40 44/63/41 8/64/42
f 45/65/43 46/66/44 43/62/40
f 47/67/45 45/68/43 1/13/3
f 47/69/45 48/70/46 49/71/47
f 50/72/48 51/73/49 52/74/50
f 44/75/41 48/70/46 50/72/48
f 46/76/44 49/71/47 48/70/46
f 12/18/8 53/77/51 54/78/52
f 11/17/7 55/79/53 53/77/51
f 18/25/14 56/80/54 55/81/53
f 23/33/19 15/21/11 2/14/4
f 22/32/18 19/82/15 15/21/11
f 30/43/26 20/27/16 19/26/15
f 8/64/42 57/83/55 9/84/56
f 44/75/41 58/85/57 57/86/55
f 50/72/48 4/87/58 58/85/57
f 3/15/5 47/67/45 1/13/3
f 47/67/45 38/56/34 51/88/49
f 38/53/34 52/74/50 51/73/49
f 35/50/31 10/16/6 12/18/8
f 34/89/30 13/22/9 10/90/6
f 41/59/38 2/14/4 13/22/9
f 28/39/24 43/62/40 8/64/42
f 27/38/23 45/65/43 43/62/40
f 21/31/17 1/13/3 45/68/43
f 59/91/59 12/18/8 54/78/52
f 60/92/60 5/55/35 36/54/32
f 61/93/61 36/51/32 33/48/29
f 59/91/59 33/48/29 35/50/31
f 62/94/62 31/44/27 29/40/25
f 63/95/63 29/40/25 26/42/22
f 7/96/64 26/37/22 28/39/24
f 31/44/27 56/80/54 20/27/16
f 64/97/65 65/98/66 66/99/67
f 69/100/68 70/101/69 71/102/70
f 72/103/71 73/104/72 70/101/69
f 73/105/72 74/106/73 64/97/65
f 74/106/73 75/107/74 76/108/75
f 76/109/75 77/110/76 78/111/77
f 77/112/76 72/103/71 69/100/68
f 72/103/71 75/113/74 79/114/78
f 80/115/79 81/116/80 82/117/81
f 83/118/82 84/119/83 81/116/80
f 84/120/83 85/121/84 86/122/85
f 85/123/84 87/124/86 88/125/87
f 88/125/87 89/126/88 90/127/89
f 89/126/88 83/128/82 80/129/79
f 83/128/82 87/124/86 91/130/90
f 92/131/91 93/132/92 94/133/93
f 95/134/94 96/135/95 93/132/92
f 96/136/95 97/137/96 67/138/97
f 97/139/96 98/140/98 99/141/99
f 99/141/99 100/142/100 66/99/67
f 100/142/100 95/143/94 92/144/91
f 95/143/94 98/140/98 101/145/101
f 102/146/102 103/147/103 68/148/104
f 104/149/105 105/150/106 103/151/103
f 105/150/106 106/152/107 65/98/66
f 106/153/107 107/154/108 108/155/109
f 108/155/109 109/156/110 110/157/111
f 107/154/108 102/158/102 109/156/110
f 104/159/105 107/154/108 111/160/112
f 53/77/51 71/102/70 54/78/52
f 55/79/53 69/100/68 53/77/51
f 56/80/54 77/110/76 55/81/53
f 74/106/73 82/117/81 64/97/65
f 76/108/75 80/115/79 74/106/73
f 78/111/77 89/126/88 76/109/75
f 57/83/55 68/148/104 9/84/56
f 58/85/57 102/158/102 57/86/55
f 4/87/58 109/156/110 58/85/57
f 106/152/107 66/99/67 65/98/66
f 108/161/109 99/141/99 106/152/107
f 108/155/109 67/138/97 97/137/96
f 70/101/69 94/133/93 71/102/70
f 73/105/72 92/144/91 70/162/69
f 64/97/65 100/142/100 73/105/72
f 103/147/103 86/122/85 68/148/104
f 105/150/106 84/119/83 103/151/103
f 65/98/66 81/116/80 105/150/106
f 71/102/70 59/91/59 54/78/52
f 67/138/97 60/92/60 96/136/95
f 96/135/95 61/93/61 93/132/92
f 93/132/92 59/91/59 94/133/93
f 90/127/89 62/94/62 88/125/87
f 88/125/87 63/95/63 85/123/84
f 85/121/84 7/96/64 86/122/85
f 78/111/77 112/163/113 90/127/89
f 1/13/3 23/33/19 2/14/4
f 10/16/6 14/20/10 11/17/7
f 13/19/9 17/30/13 14/20/10
f 15/21/11 17/24/13 13/22/9
f 15/21/11 19/82/15 16/23/12
f 18/25/14 16/164/12 19/26/15
f 18/28/14 11/17/7 14/20/10
f 21/31/17 25/165/21 22/32/18
f 21/34/17 27/38/23 24/35/20
f 26/37/22 24/35/20 27/38/23
f 29/40/25 32/46/28 24/41/20
f 30/43/26 32/46/28 29/40/25
f 22/45/18 25/47/21 32/46/28
f 33/48/29 37/52/33 34/49/30
f 36/51/32 40/166/37 37/52/33
f 38/53/34 40/167/37 36/54/32
f 38/56/34 42/60/39 39/57/36
f 41/59/38 39/57/36 42/60/39
f 41/59/38 34/89/30 37/61/33
f 43/62/40 46/66/44 44/63/41
f 45/65/43 49/168/47 46/66/44
f 47/67/45 49/169/47 45/68/43
f 47/69/45 51/73/49 48/70/46
f 50/72/48 48/70/46 51/73/49
f 44/75/41 46/76/44 48/70/46
f 12/18/8 11/17/7 53/77/51
f 11/17/7 18/28/14 55/79/53
f 18/25/14 20/27/16 56/80/54
f 23/33/19 22/32/18 15/21/11
f 22/32/18 30/170/26 19/82/15
f 30/43/26 31/44/27 20/27/16
f 8/64/42 44/63/41 57/83/55
f 44/75/41 50/72/48 58/85/57
f 50/72/48 52/74/50 4/87/58
f 3/15/5 42/60/39 47/67/45
f 47/67/45 42/60/39 38/56/34
f 38/53/34 5/55/35 52/74/50
f 35/50/31 34/49/30 10/16/6
f 34/89/30 41/59/38 13/22/9
f 41/59/38 3/15/5 2/14/4
f 28/39/24 27/38/23 43/62/40
f 27/38/23 21/34/17 45/65/43
f 21/31/17 23/33/19 1/13/3
f 59/91/59 35/50/31 12/18/8
f 60/92/60 6/171/114 5/55/35
f 61/93/61 60/172/60 36/51/32
f 59/91/59 61/93/61 33/48/29
f 62/94/62 112/163/113 31/44/27
f 63/95/63 62/94/62 29/40/25
f 7/96/64 63/173/63 26/37/22
f 31/44/27 112/163/113 56/80/54
f 64/97/65 82/117/81 65/98/66
f 69/100/68 72/103/71 70/101/69
f 72/103/71 79/114/78 73/104/72
f 73/105/72 79/174/78 74/106/73
f 74/106/73 79/174/78 75/107/74
f 76/109/75 75/175/74 77/110/76
f 77/112/76 75/113/74 72/103/71
f 80/115/79 83/118/82 81/116/80
f 83/118/82 91/176/90 84/119/83
f 84/120/83 91/177/90 85/121/84
f 85/123/84 91/130/90 87/124/86
f 88/125/87 87/124/86 89/126/88
f 89/126/88 87/124/86 83/128/82
f 92/131/91 95/134/94 93/132/92
f 95/134/94 101/178/101 96/135/95
f 96/136/95 101/179/101 97/137/96
f 97/139/96 101/145/101 98/140/98
f 99/141/99 98/140/98 100/142/100
f 100/142/100 98/140/98 95/143/94
f 102/146/102 104/180/105 103/147/103
f 104/149/105 111/181/112 105/150/106
f 105/150/106 111/181/112 106/152/107
f 106/153/107 111/160/112 107/154/108
f 108/155/109 107/154/108 109/156/110
f 107/154/108 104/159/105 102/158/102
f 53/77/51 69/100/68 71/102/70
f 55/79/53 77/112/76 69/100/68
f 56/80/54 78/111/77 77/110/76
f 74/106/73 80/115/79 82/117/81
f 76/108/75 89/182/88 80/115/79
f 78/111/77 90/127/89 89/126/88
f 57/83/55 102/146/102 68/148/104
f 58/85/57 109/156/110 102/158/102
f 4/87/58 110/157/111 109/156/110
f 106/152/107 99/141/99 66/99/67
f 108/161/109 97/139/96 99/141/99
f 108/155/109 110/157/111 67/138/97
f 70/101/69 92/131/91 94/133/93
f 73/105/72 100/142/100 92/144/91
f 64/97/65 66/99/67 100/142/100
f 103/147/103 84/120/83 86/122/85
f 105/150/106 81/116/80 84/119/83
f 65/98/66 82/117/81 81/116/80
f 71/102/70 94/133/93 59/91/59
f 67/138/97 6/171/114 60/92/60
f 96/135/95 60/172/60 61/93/61
f 93/132/92 61/93/61 59/91/59
f 90/127/89 112/163/113 62/94/62
f 88/125/87 62/94/62 63/95/63
f 85/121/84 63/173/63 7/96/64
f 78/111/77 56/80/54 112/163/113
