# Blender v2.93.2 OBJ File: 'cubeTexturePower.blend'
# www.blender.org
mtllib piece7.mtl
o Rubiks_Cube_Cube.007_piece7
v -0.998343 2.898657 2.898658
v -0.998343 1.101342 1.101342
v -0.998343 1.101342 2.898658
v 0.000000 2.898657 3.000000
v -0.897001 1.101342 3.000000
v 0.000000 1.101342 3.000000
v -0.000000 3.000000 1.101342
v -0.897002 3.000000 2.898658
v 0.000000 3.000000 2.898658
v -0.947605 1.013538 1.101342
v -0.897001 1.013538 1.050738
v -0.897001 0.999999 1.101342
v -0.984804 1.050737 1.101342
v -0.945464 1.026690 1.052879
v -0.984804 1.101342 1.050738
v -0.945464 1.052879 1.026690
v -0.971653 1.052879 1.052879
v -0.897001 1.050737 1.013539
v -0.947605 1.101342 1.013539
v -0.897001 1.101342 1.000000
v -0.984804 2.949261 1.101342
v -0.984804 2.898657 1.050738
v -0.998343 2.898657 1.101342
v -0.947605 2.986460 1.101342
v -0.971653 2.947120 1.052879
v -0.897002 2.986460 1.050738
v -0.897002 3.000000 1.101342
v -0.897002 2.949261 1.013539
v -0.945464 2.973310 1.052879
v -0.947605 2.898657 1.013539
v -0.897002 2.898657 1.000000
v -0.945464 2.947120 1.026690
v -0.897001 1.013538 2.949262
v -0.947605 1.013538 2.898658
v -0.897001 0.999999 2.898658
v -0.897001 1.050737 2.986461
v -0.945464 1.026690 2.947121
v -0.947605 1.101342 2.986461
v -0.971653 1.052879 2.947121
v -0.945464 1.052879 2.973310
v -0.984804 1.050737 2.898658
v -0.984804 1.101342 2.949262
v -0.947605 2.986460 2.898658
v -0.897002 2.986460 2.949262
v -0.984804 2.949261 2.898658
v -0.945464 2.973310 2.947121
v -0.984804 2.898657 2.949262
v -0.945464 2.947120 2.973310
v -0.971653 2.947120 2.947121
v -0.897002 2.949261 2.986461
v -0.947605 2.898657 2.986461
v -0.897002 2.898657 3.000000
v 0.000000 1.013538 1.050738
v 0.000000 0.999999 1.101342
v 0.000000 1.050737 1.013539
v 0.000000 1.101342 1.000000
v 0.000000 2.986460 2.949262
v 0.000000 2.949261 2.986461
v 0.000000 0.999999 2.898658
v 0.000000 1.050737 2.986461
v 0.000000 1.013538 2.949262
v -0.000000 2.949261 1.013539
v -0.000000 2.986460 1.050738
v -0.000000 2.898657 1.000000
v 0.998343 1.101342 1.101342
v 0.998343 2.898657 2.898658
v 0.998343 1.101342 2.898658
v 0.897001 1.101342 3.000000
v 0.897001 3.000000 2.898658
v 0.897001 1.013538 1.050738
v 0.947605 1.013538 1.101342
v 0.897001 0.999999 1.101342
v 0.945464 1.026690 1.052879
v 0.984804 1.050737 1.101342
v 0.984804 1.101342 1.050738
v 0.945464 1.052879 1.026690
v 0.947605 1.101342 1.013539
v 0.897001 1.050737 1.013539
v 0.897001 1.101342 1.000000
v 0.971653 1.052879 1.052879
v 0.984803 2.898657 1.050738
v 0.984803 2.949261 1.101342
v 0.998343 2.898657 1.101342
v 0.945464 2.973310 1.052879
v 0.947605 2.986460 1.101342
v 0.897001 2.986460 1.050738
v 0.897001 3.000000 1.101342
v 0.897001 2.949261 1.013539
v 0.947605 2.898657 1.013539
v 0.897001 2.898657 1.000000
v 0.945464 2.947120 1.026690
v 0.971653 2.947120 1.052879
v 0.947605 1.013538 2.898658
v 0.897001 1.013538 2.949262
v 0.897001 0.999999 2.898658
v 0.945464 1.026690 2.947121
v 0.897001 1.050737 2.986461
v 0.947605 1.101342 2.986461
v 0.971653 1.052879 2.947121
v 0.984804 1.101342 2.949262
v 0.984804 1.050737 2.898658
v 0.945464 1.052879 2.973310
v 0.897001 2.986460 2.949262
v 0.947605 2.986460 2.898658
v 0.945464 2.973310 2.947121
v 0.984803 2.949261 2.898658
v 0.984803 2.898657 2.949262
v 0.945464 2.947120 2.973310
v 0.947605 2.898657 2.986461
v 0.897001 2.949261 2.986461
v 0.897001 2.898657 3.000000
v 0.971653 2.947120 2.947121
vt 0.375000 1.000000
vt 0.333496 0.833008
vt 0.375000 0.833008
vt 0.125000 0.666992
vt 0.083496 0.500000
vt 0.125000 0.500000
vt 0.416504 0.833008
vt 0.166504 0.500000
vt 0.333496 1.000000
vt 0.083496 0.666992
vt 0.416504 1.000000
vt 0.166504 0.666992
vt 0.769043 0.599609
vt 0.838379 0.738281
vt 0.769043 0.738281
vt 0.835938 0.747070
vt 0.838379 0.751953
vt 0.835938 0.751953
vt 0.836426 0.744141
vt 0.838379 0.747070
vt 0.840332 0.738281
vt 0.838379 0.741211
vt 0.841309 0.741211
vt 0.840332 0.741211
vt 0.841797 0.751953
vt 0.843750 0.747070
vt 0.843262 0.751953
vt 0.839844 0.751953
vt 0.839355 0.747070
vt 0.838379 0.746094
vt 0.838379 0.594727
vt 0.840332 0.599609
vt 0.838379 0.599609
vt 0.838379 0.591797
vt 0.840332 0.594727
vt 0.988281 0.591797
vt 0.990234 0.596680
vt 0.988281 0.596680
vt 0.913574 0.751953
vt 0.914551 0.747070
vt 0.915039 0.751953
vt 0.911621 0.747070
vt 0.911621 0.751953
vt 0.913574 0.746094
vt 0.913574 0.747070
vt 0.766113 0.751953
vt 0.768555 0.747070
vt 0.768555 0.751953
vt 0.765137 0.751953
vt 0.766602 0.747070
vt 0.986328 0.747070
vt 0.988281 0.751953
vt 0.986328 0.751953
vt 0.765137 0.738281
vt 0.766602 0.741211
vt 0.765625 0.741211
vt 0.769043 0.741211
vt 0.766602 0.738281
vt 0.766602 0.744141
vt 0.990234 0.735352
vt 0.988281 0.740234
vt 0.988281 0.735352
vt 0.769043 0.594727
vt 0.766602 0.591797
vt 0.769043 0.591797
vt 0.766602 0.599609
vt 0.918457 0.744141
vt 0.916992 0.747070
vt 0.916992 0.746094
vt 0.916992 0.751953
vt 0.918945 0.747070
vt 0.918945 0.751953
vt 0.915039 0.751953
vt 0.916016 0.747070
vt 0.838379 0.821289
vt 0.835938 0.821289
vt 0.839844 0.821289
vt 0.843262 0.821289
vt 0.841797 0.821289
vt 0.841797 0.738281
vt 0.954102 0.740234
vt 0.954102 0.735352
vt 0.916992 0.821289
vt 0.915039 0.821289
vt 0.918945 0.821289
vt 0.765137 0.599609
vt 0.769043 0.744141
vt 0.838379 0.744141
vt 0.768555 0.821289
vt 0.988281 0.821289
vt 0.766113 0.821289
vt 0.913574 0.821289
vt 0.915039 0.821289
vt 0.954102 0.596680
vt 0.911621 0.821289
vt 0.913086 0.738281
vt 0.843750 0.599609
vt 0.913086 0.599609
vt 0.838379 0.891602
vt 0.835938 0.895508
vt 0.835938 0.891602
vt 0.838379 0.895508
vt 0.836426 0.898438
vt 0.915039 0.738281
vt 0.913086 0.741211
vt 0.915039 0.744141
vt 0.913086 0.744141
vt 0.843750 0.895508
vt 0.841797 0.891602
vt 0.843262 0.891602
vt 0.839844 0.891602
vt 0.839355 0.895508
vt 0.838379 0.897461
vt 0.843750 0.741211
vt 0.841797 0.738281
vt 0.843750 0.738281
vt 0.916992 0.596680
vt 0.918457 0.591797
vt 0.918457 0.596680
vt 0.920410 0.591797
vt 0.920410 0.596680
vt 0.914551 0.895508
vt 0.913574 0.891602
vt 0.915039 0.891602
vt 0.911621 0.895508
vt 0.911621 0.891602
vt 0.913574 0.895508
vt 0.912109 0.898438
vt 0.913574 0.897461
vt 0.768555 0.895508
vt 0.766113 0.891602
vt 0.768555 0.891602
vt 0.766602 0.895508
vt 0.765137 0.891602
vt 0.988281 0.891602
vt 0.986328 0.895508
vt 0.986328 0.891602
vt 0.913086 0.591797
vt 0.915039 0.594727
vt 0.913086 0.594727
vt 0.915039 0.599609
vt 0.916504 0.594727
vt 0.916992 0.599609
vt 0.915039 0.591797
vt 0.920410 0.740234
vt 0.918457 0.735352
vt 0.920410 0.735352
vt 0.918457 0.740234
vt 0.916992 0.735352
vt 0.841797 0.599609
vt 0.843750 0.594727
vt 0.918457 0.898438
vt 0.916992 0.895508
vt 0.918945 0.895508
vt 0.916992 0.891602
vt 0.918945 0.891602
vt 0.915039 0.891602
vt 0.916016 0.895508
vt 0.916992 0.897461
vt 0.916992 0.738281
vt 0.841797 0.747070
vt 0.840332 0.591797
vt 0.990234 0.591797
vt 0.912109 0.744141
vt 0.765625 0.747070
vt 0.987793 0.747070
vt 0.990234 0.740234
vt 0.766602 0.594727
vt 0.841797 0.599609
vt 0.986328 0.821289
vt 0.765137 0.821289
vt 0.954102 0.591797
vt 0.915039 0.741211
vt 0.841797 0.895508
vt 0.841797 0.741211
vt 0.917480 0.591797
vt 0.765625 0.895508
vt 0.987793 0.895508
vt 0.917480 0.740234
vt 0.841797 0.594727
vt 0.843750 0.744141
vt 0.843750 0.591797
vn 0.0000 0.0000 1.0000
vn 0.0000 1.0000 0.0000
vn -0.9835 0.1280 0.1280
vn -0.9835 -0.1280 -0.1280
vn -0.9835 -0.1280 0.1280
vn -0.4916 -0.8623 -0.1216
vn -0.1216 -0.8623 -0.4916
vn -0.1280 -0.9835 -0.1280
vn -0.8623 -0.4916 -0.1216
vn -0.4488 -0.7727 -0.4488
vn -0.8623 -0.1216 -0.4916
vn -0.4488 -0.4488 -0.7727
vn -0.7727 -0.4488 -0.4488
vn -0.1216 -0.4916 -0.8623
vn -0.4916 -0.1216 -0.8623
vn -0.1280 -0.1280 -0.9835
vn -0.8623 0.4916 -0.1216
vn -0.8623 0.1216 -0.4916
vn -0.9835 0.1280 -0.1280
vn -0.4916 0.8623 -0.1216
vn -0.7727 0.4488 -0.4488
vn -0.1216 0.8623 -0.4916
vn -0.1709 0.9703 -0.1709
vn -0.1216 0.4916 -0.8623
vn -0.4488 0.7727 -0.4488
vn -0.4916 0.1216 -0.8623
vn -0.1280 0.1280 -0.9835
vn -0.4488 0.4488 -0.7727
vn -0.1216 -0.8623 0.4916
vn -0.4916 -0.8623 0.1216
vn -0.1280 -0.9835 0.1280
vn -0.1216 -0.4916 0.8623
vn -0.4488 -0.7727 0.4488
vn -0.4916 -0.1216 0.8623
vn -0.1709 -0.1709 0.9703
vn -0.7727 -0.4488 0.4488
vn -0.4488 -0.4488 0.7727
vn -0.8623 -0.4916 0.1216
vn -0.8623 -0.1216 0.4916
vn -0.4916 0.8623 0.1216
vn -0.1216 0.8623 0.4916
vn -0.1709 0.9703 0.1709
vn -0.8623 0.4916 0.1216
vn -0.4488 0.7727 0.4488
vn -0.8623 0.1216 0.4916
vn -0.4488 0.4488 0.7727
vn -0.7727 0.4488 0.4488
vn -0.1216 0.4916 0.8623
vn -0.4916 0.1216 0.8623
vn -0.1709 0.1709 0.9703
vn -0.0000 -0.8661 -0.4998
vn 0.0000 -0.9915 -0.1303
vn -0.0000 -0.4998 -0.8661
vn -0.0000 -0.1303 -0.9915
vn 0.0000 0.8661 0.4998
vn 0.0000 0.9660 0.2585
vn 0.0000 0.4998 0.8661
vn 0.0000 0.2585 0.9660
vn 0.0000 -0.9915 0.1303
vn 0.0000 -0.4998 0.8661
vn 0.0000 -0.8661 0.4998
vn -0.0000 0.4998 -0.8661
vn -0.0000 0.8661 -0.4998
vn -0.0000 0.9660 -0.2585
vn -0.0000 0.1303 -0.9915
vn 0.9835 -0.1280 -0.1280
vn 0.9835 0.1280 0.1280
vn 0.9835 -0.1280 0.1280
vn 0.1216 -0.8623 -0.4916
vn 0.4916 -0.8623 -0.1216
vn 0.1280 -0.9835 -0.1280
vn 0.4488 -0.7727 -0.4488
vn 0.8623 -0.4916 -0.1216
vn 0.8623 -0.1216 -0.4916
vn 0.4488 -0.4488 -0.7727
vn 0.4916 -0.1216 -0.8623
vn 0.1216 -0.4916 -0.8623
vn 0.1280 -0.1280 -0.9835
vn 0.7727 -0.4488 -0.4488
vn 0.8623 0.1216 -0.4916
vn 0.8623 0.4916 -0.1216
vn 0.9835 0.1280 -0.1280
vn 0.4488 0.7727 -0.4488
vn 0.4916 0.8623 -0.1216
vn 0.1216 0.8623 -0.4916
vn 0.1709 0.9703 -0.1709
vn 0.1216 0.4916 -0.8623
vn 0.4916 0.1216 -0.8623
vn 0.1280 0.1280 -0.9835
vn 0.4488 0.4488 -0.7727
vn 0.7727 0.4488 -0.4488
vn 0.4916 -0.8623 0.1216
vn 0.1216 -0.8623 0.4916
vn 0.1280 -0.9835 0.1280
vn 0.4488 -0.7727 0.4488
vn 0.1216 -0.4916 0.8623
vn 0.4916 -0.1216 0.8623
vn 0.1709 -0.1709 0.9703
vn 0.7727 -0.4488 0.4488
vn 0.8623 -0.1216 0.4916
vn 0.8623 -0.4916 0.1216
vn 0.4488 -0.4488 0.7727
vn 0.1216 0.8623 0.4916
vn 0.4916 0.8623 0.1216
vn 0.1709 0.9703 0.1709
vn 0.4488 0.7727 0.4488
vn 0.8623 0.4916 0.1216
vn 0.8623 0.1216 0.4916
vn 0.4488 0.4488 0.7727
vn 0.4916 0.1216 0.8623
vn 0.1216 0.4916 0.8623
vn 0.1709 0.1709 0.9703
vn 0.7727 0.4488 0.4488
vn 0.0000 -0.2585 0.9660
usemtl CubeCustomText
s off
f 4/1/1 5/2/1 6/3/1
f 7/4/2 8/5/2 9/6/2
f 68/7/1 4/1/1 6/3/1
f 69/8/2 7/4/2 9/6/2
f 4/1/1 52/9/1 5/2/1
f 7/4/2 27/10/2 8/5/2
f 68/7/1 111/11/1 4/1/1
f 69/8/2 87/12/2 7/4/2
s 1
f 1/13/3 2/14/4 3/15/5
f 10/16/6 11/17/7 12/18/8
f 13/19/9 14/20/10 10/16/6
f 15/21/11 13/22/9 2/14/4
f 15/21/11 16/23/12 17/24/13
f 18/25/14 19/26/15 20/27/16
f 18/28/14 14/20/10 16/29/12
f 14/20/10 17/30/13 16/29/12
f 21/31/17 22/32/18 23/33/19
f 24/34/20 25/35/21 21/31/17
f 26/36/22 24/37/20 27/38/23
f 28/39/24 29/40/25 26/41/22
f 30/42/26 28/39/24 31/43/27
f 30/42/26 25/44/21 32/45/28
f 25/44/21 29/40/25 32/45/28
f 33/46/29 34/47/30 35/48/31
f 36/49/32 37/50/33 33/46/29
f 38/51/34 36/52/32 5/53/35
f 38/54/34 39/55/36 40/56/37
f 41/57/38 42/58/39 3/15/5
f 41/57/38 37/59/33 39/55/36
f 37/59/33 40/56/37 39/55/36
f 43/60/40 44/61/41 8/62/42
f 45/63/43 46/64/44 43/65/40
f 47/66/45 45/63/43 1/13/3
f 47/67/45 48/68/46 49/69/47
f 50/70/48 51/71/49 52/72/50
f 44/73/41 48/68/46 50/70/48
f 46/74/44 49/69/47 48/68/46
f 12/18/8 53/75/51 54/76/52
f 11/17/7 55/77/53 53/75/51
f 18/25/14 56/78/54 55/79/53
f 23/33/19 15/21/11 2/14/4
f 22/32/18 19/80/15 15/21/11
f 30/42/26 20/27/16 19/26/15
f 8/62/42 57/81/55 9/82/56
f 44/73/41 58/83/57 57/84/55
f 50/70/48 4/85/58 58/83/57
f 3/15/5 47/66/45 1/13/3
f 42/58/39 51/86/49 47/66/45
f 51/71/49 5/53/35 52/72/50
f 35/48/31 10/16/6 12/18/8
f 34/87/30 13/22/9 10/88/6
f 41/57/38 2/14/4 13/22/9
f 27/38/23 43/60/40 8/62/42
f 24/34/20 45/63/43 43/65/40
f 21/31/17 1/13/3 45/63/43
f 59/89/59 12/18/8 54/76/52
f 60/90/60 5/53/35 36/52/32
f 61/91/61 36/49/32 33/46/29
f 59/89/59 33/46/29 35/48/31
f 62/92/62 31/43/27 28/39/24
f 63/93/63 28/39/24 26/41/22
f 7/94/64 26/36/22 27/38/23
f 20/27/16 64/95/65 56/78/54
f 65/96/66 66/97/67 67/98/68
f 70/99/69 71/100/70 72/101/71
f 73/102/72 74/103/73 71/100/70
f 74/104/73 75/105/74 65/96/66
f 75/105/74 76/106/75 77/107/76
f 77/108/76 78/109/77 79/110/78
f 78/111/77 73/102/72 70/99/69
f 73/102/72 76/112/75 80/113/79
f 81/114/80 82/115/81 83/116/82
f 82/117/81 84/118/83 85/119/84
f 85/119/84 86/120/85 87/121/86
f 84/122/83 88/123/87 86/124/85
f 88/123/87 89/125/88 90/126/89
f 91/127/90 81/128/80 89/125/88
f 92/129/91 91/127/90 84/122/83
f 93/130/92 94/131/93 95/132/94
f 96/133/95 97/134/96 94/131/93
f 97/135/96 98/136/97 68/137/98
f 98/138/97 99/139/99 100/140/100
f 100/140/100 101/141/101 67/98/68
f 101/141/101 96/142/95 93/143/92
f 96/142/95 99/139/99 102/144/102
f 103/145/103 104/146/104 69/147/105
f 105/148/106 106/149/107 104/146/104
f 106/150/107 107/151/108 66/97/67
f 107/152/108 108/153/109 109/154/110
f 109/154/110 110/155/111 111/156/112
f 108/153/109 103/157/103 110/155/111
f 105/158/106 108/153/109 112/159/113
f 53/75/51 72/101/71 54/76/52
f 55/77/53 70/99/69 53/75/51
f 56/78/54 78/109/77 55/79/53
f 75/105/74 83/116/82 65/96/66
f 77/107/76 81/114/80 75/105/74
f 79/110/78 89/125/88 77/108/76
f 57/81/55 69/147/105 9/82/56
f 58/83/57 103/157/103 57/84/55
f 4/85/58 110/155/111 58/83/57
f 107/151/108 67/98/68 66/97/67
f 107/151/108 98/138/97 100/140/100
f 111/156/112 98/136/97 109/154/110
f 71/100/70 95/132/94 72/101/71
f 74/104/73 93/143/92 71/160/70
f 65/96/66 101/141/101 74/104/73
f 104/146/104 87/121/86 69/147/105
f 106/149/107 85/119/84 104/146/104
f 66/97/67 82/115/81 106/150/107
f 72/101/71 59/89/59 54/76/52
f 68/137/98 60/90/60 97/135/96
f 97/134/96 61/91/61 94/131/93
f 94/131/93 59/89/59 95/132/94
f 90/126/89 62/92/62 88/123/87
f 88/123/87 63/93/63 86/124/85
f 86/120/85 7/94/64 87/121/86
f 56/78/54 90/126/89 79/110/78
f 1/13/3 23/33/19 2/14/4
f 10/16/6 14/20/10 11/17/7
f 13/19/9 17/30/13 14/20/10
f 15/21/11 17/24/13 13/22/9
f 15/21/11 19/80/15 16/23/12
f 18/25/14 16/161/12 19/26/15
f 18/28/14 11/17/7 14/20/10
f 21/31/17 25/35/21 22/32/18
f 24/34/20 29/162/25 25/35/21
f 26/36/22 29/163/25 24/37/20
f 28/39/24 32/45/28 29/40/25
f 30/42/26 32/45/28 28/39/24
f 30/42/26 22/164/18 25/44/21
f 33/46/29 37/50/33 34/47/30
f 36/49/32 40/165/37 37/50/33
f 38/51/34 40/166/37 36/52/32
f 38/54/34 42/58/39 39/55/36
f 41/57/38 39/55/36 42/58/39
f 41/57/38 34/87/30 37/59/33
f 43/60/40 46/167/44 44/61/41
f 45/63/43 49/168/47 46/64/44
f 47/66/45 49/168/47 45/63/43
f 47/67/45 51/71/49 48/68/46
f 50/70/48 48/68/46 51/71/49
f 44/73/41 46/74/44 48/68/46
f 12/18/8 11/17/7 53/75/51
f 11/17/7 18/28/14 55/77/53
f 18/25/14 20/27/16 56/78/54
f 23/33/19 22/32/18 15/21/11
f 22/32/18 30/169/26 19/80/15
f 30/42/26 31/43/27 20/27/16
f 8/62/42 44/61/41 57/81/55
f 44/73/41 50/70/48 58/83/57
f 50/70/48 52/72/50 4/85/58
f 3/15/5 42/58/39 47/66/45
f 42/58/39 38/54/34 51/86/49
f 51/71/49 38/51/34 5/53/35
f 35/48/31 34/47/30 10/16/6
f 34/87/30 41/57/38 13/22/9
f 41/57/38 3/15/5 2/14/4
f 27/38/23 24/37/20 43/60/40
f 24/34/20 21/31/17 45/63/43
f 21/31/17 23/33/19 1/13/3
f 59/89/59 35/48/31 12/18/8
f 60/90/60 6/170/114 5/53/35
f 61/91/61 60/171/60 36/49/32
f 59/89/59 61/91/61 33/46/29
f 62/92/62 64/95/65 31/43/27
f 63/93/63 62/92/62 28/39/24
f 7/94/64 63/172/63 26/36/22
f 20/27/16 31/43/27 64/95/65
f 65/96/66 83/116/82 66/97/67
f 70/99/69 73/102/72 71/100/70
f 73/102/72 80/113/79 74/103/73
f 74/104/73 80/173/79 75/105/74
f 75/105/74 80/173/79 76/106/75
f 77/108/76 76/174/75 78/109/77
f 78/111/77 76/112/75 73/102/72
f 81/114/80 92/175/91 82/115/81
f 82/117/81 92/176/91 84/118/83
f 85/119/84 84/118/83 86/120/85
f 84/122/83 91/127/90 88/123/87
f 88/123/87 91/127/90 89/125/88
f 91/127/90 92/129/91 81/128/80
f 93/130/92 96/133/95 94/131/93
f 96/133/95 102/177/102 97/134/96
f 97/135/96 102/178/102 98/136/97
f 98/138/97 102/144/102 99/139/99
f 100/140/100 99/139/99 101/141/101
f 101/141/101 99/139/99 96/142/95
f 103/145/103 105/148/106 104/146/104
f 105/148/106 112/179/113 106/149/107
f 106/150/107 112/180/113 107/151/108
f 107/152/108 112/159/113 108/153/109
f 109/154/110 108/153/109 110/155/111
f 108/153/109 105/158/106 103/157/103
f 53/75/51 70/99/69 72/101/71
f 55/77/53 78/111/77 70/99/69
f 56/78/54 79/110/78 78/109/77
f 75/105/74 81/114/80 83/116/82
f 77/107/76 89/181/88 81/114/80
f 79/110/78 90/126/89 89/125/88
f 57/81/55 103/145/103 69/147/105
f 58/83/57 110/155/111 103/157/103
f 4/85/58 111/156/112 110/155/111
f 107/151/108 100/140/100 67/98/68
f 107/151/108 109/182/110 98/138/97
f 111/156/112 68/137/98 98/136/97
f 71/100/70 93/130/92 95/132/94
f 74/104/73 101/141/101 93/143/92
f 65/96/66 67/98/68 101/141/101
f 104/146/104 85/119/84 87/121/86
f 106/149/107 82/117/81 85/119/84
f 66/97/67 83/116/82 82/115/81
f 72/101/71 95/132/94 59/89/59
f 68/137/98 6/170/114 60/90/60
f 97/134/96 60/171/60 61/91/61
f 94/131/93 61/91/61 59/89/59
f 90/126/89 64/95/65 62/92/62
f 88/123/87 62/92/62 63/93/63
f 86/120/85 63/172/63 7/94/64
f 56/78/54 64/95/65 90/126/89
