# Blender v2.93.2 OBJ File: 'cubeTexturePower.blend'
# www.blender.org
mtllib piece3.mtl
o Rubiks_Cube_Cube.003_piece3
v -1.101342 1.101342 0.998899
v -2.898659 2.898655 0.998899
v -2.898658 1.101342 0.998899
v -1.000000 2.898657 0.000000
v -1.000000 1.101342 0.897557
v -1.000000 1.101342 0.000000
v -2.898658 1.013538 0.948161
v -2.949262 1.013538 0.897557
v -2.898658 0.999999 0.897557
v -2.898658 1.050736 0.985360
v -2.947121 1.026690 0.946020
v -2.949262 1.101342 0.985360
v -2.986461 1.101342 0.948161
v -2.947121 1.052879 0.972209
v -2.986461 1.050736 0.897557
v -3.000000 1.101342 0.897557
v -2.973310 1.052879 0.946020
v -2.949262 2.986460 0.897557
v -2.898659 2.986460 0.948161
v -2.898659 2.999999 0.897557
v -2.986461 2.949261 0.897557
v -2.947121 2.973309 0.946020
v -2.986461 2.898655 0.948161
v -3.000000 2.898655 0.897557
v -2.947121 2.947120 0.972209
v -2.973310 2.947120 0.946020
v -2.898659 2.949261 0.985360
v -2.949262 2.898655 0.985360
v -1.050738 1.013538 0.897557
v -1.101342 1.013538 0.948161
v -1.101342 0.999999 0.897557
v -1.013539 1.050737 0.897557
v -1.052879 1.026690 0.946020
v -1.013539 1.101342 0.948161
v -1.052879 1.052879 0.972209
v -1.026690 1.052879 0.946020
v -1.101342 1.050737 0.985360
v -1.050738 1.101342 0.985360
v -1.101342 2.986460 0.948161
v -1.050738 2.986460 0.897557
v -1.101342 3.000000 0.897557
v -1.101342 2.949261 0.985360
v -1.052879 2.973310 0.946020
v -1.050738 2.898657 0.985360
v -1.101342 2.898657 0.998899
v -1.013539 2.898657 0.948161
v -1.052879 2.947120 0.972209
v -1.013539 2.949261 0.897557
v -1.000000 2.898657 0.897557
v -1.026690 2.947120 0.946020
v -1.050738 2.986460 0.000000
v -1.101342 3.000000 0.000000
v -1.013539 2.949261 0.000000
v -2.949262 1.013538 0.000000
v -2.898658 0.999999 0.000000
v -2.986461 1.050736 0.000000
v -3.000000 1.101342 0.000000
v -1.101342 0.999999 0.000000
v -2.986461 2.949261 0.000000
v -2.949262 2.986460 0.000000
v -2.898659 2.999999 0.000000
v -1.013539 1.050737 0.000000
v -1.050738 1.013538 0.000000
v -1.101342 1.101342 -0.998899
v -2.898659 2.898655 -0.998899
v -1.101342 2.898657 -0.998899
v -1.000000 1.101342 -0.897557
v -2.949262 1.013538 -0.897557
v -2.898658 1.013538 -0.948161
v -2.898658 0.999999 -0.897557
v -2.947121 1.026690 -0.946020
v -2.898658 1.050736 -0.985360
v -2.949262 1.101342 -0.985360
v -2.898658 1.101342 -0.998899
v -2.947121 1.052879 -0.972209
v -2.986461 1.101342 -0.948161
v -2.986461 1.050736 -0.897557
v -3.000000 1.101342 -0.897557
v -2.973310 1.052879 -0.946020
v -2.898659 2.986460 -0.948161
v -2.949262 2.986460 -0.897557
v -2.898659 2.999999 -0.897557
v -2.947121 2.973309 -0.946020
v -2.986461 2.949261 -0.897557
v -2.986461 2.898655 -0.948161
v -3.000000 2.898655 -0.897557
v -2.973310 2.947120 -0.946020
v -2.949262 2.898655 -0.985360
v -2.898659 2.949261 -0.985360
v -2.947121 2.947120 -0.972209
v -1.101342 1.013538 -0.948161
v -1.050738 1.013538 -0.897557
v -1.101342 0.999999 -0.897557
v -1.052879 1.026690 -0.946020
v -1.013539 1.050737 -0.897557
v -1.013539 1.101342 -0.948161
v -1.052879 1.052879 -0.972209
v -1.050738 1.101342 -0.985360
v -1.101342 1.050737 -0.985360
v -1.026690 1.052879 -0.946020
v -1.050738 2.986460 -0.897557
v -1.101342 2.986460 -0.948161
v -1.101342 3.000000 -0.897557
v -1.052879 2.973310 -0.946020
v -1.101342 2.949261 -0.985360
v -1.050738 2.898657 -0.985360
v -1.052879 2.947120 -0.972209
v -1.013539 2.898657 -0.948161
v -1.013539 2.949261 -0.897557
v -1.000000 2.898657 -0.897557
v -1.026690 2.947120 -0.946020
v -3.000000 2.898655 0.000000
vt 0.083496 0.750000
vt -0.000000 0.666992
vt 0.083496 0.666992
vt 0.666504 0.500000
vt 0.625000 0.333008
vt 0.666504 0.333008
vt 0.000000 0.833008
vt 0.083496 0.833008
vt 0.583496 0.500000
vt 0.583496 0.333008
vt 0.000000 0.750000
vt 0.625000 0.500000
vt 0.767090 0.900391
vt 0.834961 0.762695
vt 0.834961 0.900391
vt 0.768555 0.681641
vt 0.836426 0.614258
vt 0.836426 0.681641
vt 0.909668 0.610352
vt 0.911621 0.614258
vt 0.909668 0.614258
vt 0.909668 0.607422
vt 0.911621 0.610352
vt 0.836914 0.900391
vt 0.834961 0.903320
vt 0.838379 0.900391
vt 0.836914 0.903320
vt 0.913086 0.751953
vt 0.911621 0.748047
vt 0.913086 0.748047
vt 0.911621 0.753906
vt 0.911621 0.751953
vt 0.836914 0.904297
vt 0.837891 0.903320
vt 0.909668 0.898438
vt 0.908203 0.903320
vt 0.908203 0.898438
vt 0.911621 0.898438
vt 0.909668 0.903320
vt 0.911621 0.613281
vt 0.913086 0.608398
vt 0.913086 0.613281
vt 0.838379 0.762695
vt 0.836914 0.759766
vt 0.837891 0.759766
vt 0.834961 0.759766
vt 0.836914 0.762695
vt 0.910156 0.904297
vt 0.908691 0.906250
vt 0.911133 0.903320
vt 0.839844 0.614258
vt 0.841309 0.610352
vt 0.841309 0.614258
vt 0.838379 0.614258
vt 0.839844 0.610352
vt 0.836426 0.610352
vt 0.838379 0.607422
vt 0.838379 0.610352
vt 0.767090 0.903320
vt 0.764648 0.900391
vt 0.841309 0.607422
vt 0.839844 0.607422
vt 0.838867 0.610352
vt 0.842285 0.903320
vt 0.840332 0.898438
vt 0.841797 0.898438
vt 0.767090 0.759766
vt 0.765137 0.757812
vt 0.767090 0.756836
vt 0.764648 0.762695
vt 0.767090 0.762695
vt 0.768555 0.610352
vt 0.766602 0.607422
vt 0.768555 0.607422
vt 0.766602 0.614258
vt 0.768555 0.614258
vt 0.765137 0.610352
vt 0.766602 0.610352
vt 0.840332 0.831055
vt 0.841797 0.831055
vt 0.764648 0.614258
vt 0.766602 0.681641
vt 0.764648 0.681641
vt 0.836426 0.607422
vt 0.834961 0.756836
vt 0.911621 0.681641
vt 0.909668 0.681641
vt 0.913574 0.754883
vt 0.947266 0.750977
vt 0.947266 0.753906
vt 0.947266 0.748047
vt 0.841309 0.681641
vt 0.947266 0.607422
vt 0.909668 0.831055
vt 0.908203 0.831055
vt 0.838379 0.681641
vt 0.839844 0.681641
vt 0.913086 0.762695
vt 0.981445 0.898438
vt 0.913086 0.898438
vt 0.836426 0.749023
vt 0.911621 0.749023
vt 0.909668 0.753906
vt 0.909668 0.749023
vt 0.911621 0.753906
vt 0.909668 0.756836
vt 0.981445 0.757812
vt 0.983398 0.762695
vt 0.981445 0.762695
vt 0.983887 0.750977
vt 0.982910 0.746094
vt 0.984863 0.746094
vt 0.980957 0.749023
vt 0.980957 0.746094
vt 0.982910 0.751953
vt 0.980957 0.751953
vt 0.982422 0.749023
vt 0.908203 0.759766
vt 0.909668 0.762695
vt 0.908203 0.762695
vt 0.909668 0.759766
vt 0.911621 0.762695
vt 0.980957 0.607422
vt 0.982910 0.611328
vt 0.980957 0.611328
vt 0.982422 0.607422
vt 0.984863 0.611328
vt 0.983398 0.898438
vt 0.981445 0.901367
vt 0.910156 0.757812
vt 0.908691 0.756836
vt 0.911133 0.759766
vt 0.841309 0.753906
vt 0.839844 0.749023
vt 0.841309 0.749023
vt 0.839844 0.753906
vt 0.838379 0.749023
vt 0.836426 0.753906
vt 0.838379 0.754883
vt 0.836426 0.756836
vt 0.911621 0.762695
vt 0.913086 0.757812
vt 0.841309 0.756836
vt 0.839844 0.754883
vt 0.838867 0.753906
vt 0.840332 0.762695
vt 0.842285 0.759766
vt 0.841797 0.762695
vt 0.911621 0.903320
vt 0.913086 0.901367
vt 0.913086 0.904297
vt 0.911621 0.898438
vt 0.766602 0.754883
vt 0.768555 0.753906
vt 0.768555 0.756836
vt 0.766602 0.749023
vt 0.768555 0.749023
vt 0.766602 0.753906
vt 0.764648 0.749023
vt 0.765137 0.753906
vt 0.981445 0.904297
vt 0.911621 0.610352
vt 0.765137 0.903320
vt 0.840820 0.903320
vt 0.765137 0.759766
vt 0.947266 0.611328
vt 0.911621 0.831055
vt 0.982910 0.756836
vt 0.982910 0.759766
vt 0.983887 0.607422
vt 0.982910 0.901367
vt 0.838379 0.753906
vt 0.911621 0.759766
vt 0.840820 0.759766
vt 0.911621 0.901367
vn -0.0000 1.0000 0.0000
vn -1.0000 0.0000 0.0000
vn 0.1280 -0.1280 0.9835
vn -0.1280 0.1280 0.9835
vn -0.1280 -0.1280 0.9835
vn 0.9915 0.1303 -0.0000
vn 0.9835 -0.1280 0.1280
vn 0.9915 -0.1303 -0.0000
vn -0.1216 -0.8623 0.4916
vn -0.4916 -0.8623 0.1216
vn -0.1280 -0.9835 0.1280
vn -0.1216 -0.4916 0.8623
vn -0.4488 -0.7727 0.4488
vn -0.4916 -0.1216 0.8623
vn -0.8623 -0.1216 0.4916
vn -0.4489 -0.4488 0.7727
vn -0.8623 -0.4916 0.1216
vn -0.9703 -0.1709 0.1709
vn -0.7727 -0.4488 0.4489
vn -0.4916 0.8623 0.1216
vn -0.1216 0.8623 0.4916
vn -0.1709 0.9703 0.1709
vn -0.8623 0.4916 0.1216
vn -0.4488 0.7727 0.4488
vn -0.8623 0.1216 0.4916
vn -0.9703 0.1709 0.1709
vn -0.4488 0.4488 0.7727
vn -0.7727 0.4488 0.4488
vn -0.1216 0.4916 0.8623
vn -0.4916 0.1216 0.8623
vn 0.4916 -0.8623 0.1216
vn 0.1216 -0.8623 0.4916
vn 0.1280 -0.9835 0.1280
vn 0.8623 -0.4916 0.1216
vn 0.4488 -0.7727 0.4488
vn 0.8623 -0.1216 0.4916
vn 0.4488 -0.4488 0.7727
vn 0.7727 -0.4488 0.4488
vn 0.1216 -0.4916 0.8623
vn 0.4916 -0.1216 0.8623
vn 0.1216 0.8623 0.4916
vn 0.4916 0.8623 0.1216
vn 0.1709 0.9703 0.1709
vn 0.1216 0.4916 0.8623
vn 0.4488 0.7727 0.4488
vn 0.4916 0.1216 0.8623
vn 0.1280 0.1280 0.9835
vn 0.8623 0.1216 0.4916
vn 0.4488 0.4488 0.7727
vn 0.8623 0.4916 0.1216
vn 0.9835 0.1280 0.1280
vn 0.7727 0.4488 0.4488
vn 0.4998 0.8661 0.0000
vn 0.2585 0.9660 0.0000
vn 0.8661 0.4998 -0.0000
vn -0.4998 -0.8661 0.0000
vn -0.1303 -0.9915 0.0000
vn -0.8661 -0.4998 0.0000
vn -0.9660 -0.2585 0.0000
vn 0.1303 -0.9915 0.0000
vn -0.8661 0.4998 0.0000
vn -0.4998 0.8661 0.0000
vn -0.2585 0.9660 0.0000
vn 0.8661 -0.4998 -0.0000
vn 0.4998 -0.8661 0.0000
vn 0.1280 -0.1280 -0.9835
vn -0.1280 0.1280 -0.9835
vn 0.1280 0.1280 -0.9835
vn 0.9835 -0.1280 -0.1280
vn -0.4916 -0.8623 -0.1216
vn -0.1216 -0.8623 -0.4916
vn -0.1280 -0.9835 -0.1280
vn -0.4488 -0.7727 -0.4488
vn -0.1216 -0.4916 -0.8623
vn -0.4916 -0.1216 -0.8623
vn -0.1280 -0.1280 -0.9835
vn -0.4489 -0.4488 -0.7727
vn -0.8623 -0.1216 -0.4916
vn -0.8623 -0.4916 -0.1216
vn -0.9703 -0.1709 -0.1709
vn -0.7727 -0.4488 -0.4489
vn -0.1216 0.8623 -0.4916
vn -0.4916 0.8623 -0.1216
vn -0.1709 0.9703 -0.1709
vn -0.4488 0.7727 -0.4488
vn -0.8623 0.4916 -0.1216
vn -0.8623 0.1216 -0.4916
vn -0.9703 0.1709 -0.1709
vn -0.7727 0.4488 -0.4488
vn -0.4916 0.1216 -0.8623
vn -0.1216 0.4916 -0.8623
vn -0.4488 0.4488 -0.7727
vn 0.1216 -0.8623 -0.4916
vn 0.4916 -0.8623 -0.1216
vn 0.1280 -0.9835 -0.1280
vn 0.4488 -0.7727 -0.4488
vn 0.8623 -0.4916 -0.1216
vn 0.8623 -0.1216 -0.4916
vn 0.4488 -0.4488 -0.7727
vn 0.4916 -0.1216 -0.8623
vn 0.1216 -0.4916 -0.8623
vn 0.7727 -0.4488 -0.4488
vn 0.4916 0.8623 -0.1216
vn 0.1216 0.8623 -0.4916
vn 0.1709 0.9703 -0.1709
vn 0.4488 0.7727 -0.4488
vn 0.1216 0.4916 -0.8623
vn 0.4916 0.1216 -0.8623
vn 0.4488 0.4488 -0.7727
vn 0.8623 0.1216 -0.4916
vn 0.8623 0.4916 -0.1216
vn 0.9835 0.1280 -0.1280
vn 0.7727 0.4488 -0.4488
vn -0.9660 0.2584 0.0000
usemtl CubeCustomText
s off
f 52/1/1 20/2/1 41/3/1
f 24/4/2 57/5/2 16/6/2
f 82/7/1 52/1/1 103/8/1
f 57/5/2 86/9/2 78/10/2
f 52/1/1 61/11/1 20/2/1
f 24/4/2 112/12/2 57/5/2
f 82/7/1 61/11/1 52/1/1
f 57/5/2 112/12/2 86/9/2
s 1
f 1/13/3 2/14/4 3/15/5
f 4/16/6 5/17/7 6/18/8
f 7/19/9 8/20/10 9/21/11
f 10/22/12 11/23/13 7/19/9
f 12/24/14 10/25/12 3/15/5
f 13/26/15 14/27/16 12/24/14
f 15/28/17 13/29/15 16/30/18
f 15/28/17 11/31/13 17/32/19
f 11/33/13 14/27/16 17/34/19
f 18/35/20 19/36/21 20/37/22
f 21/38/23 22/39/24 18/35/20
f 23/40/25 21/41/23 24/42/26
f 23/43/25 25/44/27 26/45/28
f 27/46/29 28/47/30 2/14/4
f 19/36/21 25/48/27 27/49/29
f 22/39/24 26/50/28 25/48/27
f 29/51/31 30/52/32 31/53/33
f 32/54/34 33/55/35 29/51/31
f 34/56/36 32/54/34 5/17/7
f 34/56/36 35/57/37 36/58/38
f 37/59/39 38/60/40 1/13/3
f 37/61/39 33/55/35 35/62/37
f 33/55/35 36/63/38 35/62/37
f 39/64/41 40/65/42 41/66/43
f 42/67/44 43/68/45 39/69/41
f 44/70/46 42/67/44 45/71/47
f 46/72/48 47/73/49 44/74/46
f 48/75/50 46/72/48 49/76/51
f 48/75/50 43/77/45 50/78/52
f 43/77/45 47/73/49 50/78/52
f 41/66/43 51/79/53 52/80/54
f 40/81/42 53/82/55 51/83/53
f 48/75/50 4/16/6 53/82/55
f 1/13/3 44/70/46 45/71/47
f 38/84/40 46/72/48 44/74/46
f 34/56/36 49/76/51 46/72/48
f 31/53/33 7/19/9 9/21/11
f 30/52/32 10/22/12 7/19/9
f 37/59/39 3/15/5 10/25/12
f 20/37/22 39/64/41 41/66/43
f 19/85/21 42/67/44 39/69/41
f 27/46/29 45/71/47 42/67/44
f 16/30/18 23/40/25 24/42/26
f 13/26/15 28/47/30 23/43/25
f 12/24/14 2/14/4 28/47/30
f 9/21/11 54/86/56 55/87/57
f 8/88/10 56/89/58 54/90/56
f 15/28/17 57/91/59 56/89/58
f 31/53/33 55/87/57 58/92/60
f 59/93/61 24/42/26 21/41/23
f 60/94/62 21/38/23 18/35/20
f 61/95/63 18/35/20 20/37/22
f 62/96/64 5/17/7 32/54/34
f 63/97/65 32/54/34 29/51/31
f 58/92/60 29/51/31 31/53/33
f 64/98/66 65/99/67 66/100/68
f 67/101/69 4/16/6 6/18/8
f 68/102/70 69/103/71 70/104/72
f 71/105/73 72/106/74 69/103/71
f 72/107/74 73/108/75 74/109/76
f 75/110/77 76/111/78 73/112/75
f 76/111/78 77/113/79 78/114/80
f 77/113/79 71/115/73 68/116/70
f 71/115/73 79/117/81 75/110/77
f 80/118/82 81/119/83 82/120/84
f 83/121/85 84/122/86 81/119/83
f 84/123/86 85/124/87 86/125/88
f 87/126/89 88/127/90 85/124/87
f 88/128/90 89/129/91 65/99/67
f 90/130/92 80/118/82 89/131/91
f 83/121/85 90/130/92 87/132/89
f 91/133/93 92/134/94 93/135/95
f 94/136/96 95/137/97 92/134/94
f 95/137/97 96/138/98 67/101/69
f 96/138/98 97/139/99 98/140/100
f 98/141/100 99/142/101 64/98/66
f 99/143/101 94/136/96 91/133/93
f 94/136/96 97/144/99 100/145/102
f 101/146/103 102/147/104 103/148/105
f 104/149/106 105/150/107 102/151/104
f 105/150/107 106/152/108 66/100/68
f 107/153/109 108/154/110 106/155/108
f 108/154/110 109/156/111 110/157/112
f 111/158/113 101/159/103 109/156/111
f 104/160/106 111/158/113 107/153/109
f 51/79/53 103/148/105 52/80/54
f 53/82/55 101/159/103 51/83/53
f 4/16/6 109/156/111 53/82/55
f 106/152/108 64/98/66 66/100/68
f 108/154/110 98/140/100 106/155/108
f 110/157/112 96/138/98 108/154/110
f 69/103/71 93/135/95 70/104/72
f 72/106/74 91/133/93 69/103/71
f 74/109/76 99/142/101 72/107/74
f 102/147/104 82/120/84 103/148/105
f 105/150/107 80/161/82 102/151/104
f 66/100/68 89/129/91 105/150/107
f 85/124/87 78/114/80 86/125/88
f 88/127/90 76/111/78 85/124/87
f 65/99/67 73/108/75 88/128/90
f 54/86/56 70/104/72 55/87/57
f 56/89/58 68/116/70 54/90/56
f 57/91/59 77/113/79 56/89/58
f 55/87/57 93/135/95 58/92/60
f 86/125/88 59/93/61 84/123/86
f 84/122/86 60/94/62 81/119/83
f 81/119/83 61/95/63 82/120/84
f 67/101/69 62/96/64 95/137/97
f 95/137/97 63/97/65 92/134/94
f 92/134/94 58/92/60 93/135/95
f 1/13/3 45/71/47 2/14/4
f 4/16/6 49/76/51 5/17/7
f 7/19/9 11/23/13 8/20/10
f 10/25/12 14/27/16 11/33/13
f 12/24/14 14/27/16 10/25/12
f 13/26/15 17/34/19 14/27/16
f 15/28/17 17/32/19 13/29/15
f 15/28/17 8/88/10 11/31/13
f 18/35/20 22/39/24 19/36/21
f 21/38/23 26/50/28 22/39/24
f 23/40/25 26/162/28 21/41/23
f 23/43/25 28/47/30 25/44/27
f 27/46/29 25/44/27 28/47/30
f 19/36/21 22/39/24 25/48/27
f 29/51/31 33/55/35 30/52/32
f 32/54/34 36/63/38 33/55/35
f 34/56/36 36/58/38 32/54/34
f 34/56/36 38/84/40 35/57/37
f 37/59/39 35/163/37 38/60/40
f 37/61/39 30/52/32 33/55/35
f 39/64/41 43/164/45 40/65/42
f 42/67/44 47/165/49 43/68/45
f 44/70/46 47/165/49 42/67/44
f 46/72/48 50/78/52 47/73/49
f 48/75/50 50/78/52 46/72/48
f 48/75/50 40/81/42 43/77/45
f 41/66/43 40/65/42 51/79/53
f 40/81/42 48/75/50 53/82/55
f 48/75/50 49/76/51 4/16/6
f 1/13/3 38/60/40 44/70/46
f 38/84/40 34/56/36 46/72/48
f 34/56/36 5/17/7 49/76/51
f 31/53/33 30/52/32 7/19/9
f 30/52/32 37/61/39 10/22/12
f 37/59/39 1/13/3 3/15/5
f 20/37/22 19/36/21 39/64/41
f 19/85/21 27/46/29 42/67/44
f 27/46/29 2/14/4 45/71/47
f 16/30/18 13/29/15 23/40/25
f 13/26/15 12/24/14 28/47/30
f 12/24/14 3/15/5 2/14/4
f 9/21/11 8/20/10 54/86/56
f 8/88/10 15/28/17 56/89/58
f 15/28/17 16/30/18 57/91/59
f 31/53/33 9/21/11 55/87/57
f 59/93/61 112/166/114 24/42/26
f 60/94/62 59/167/61 21/38/23
f 61/95/63 60/94/62 18/35/20
f 62/96/64 6/18/8 5/17/7
f 63/97/65 62/96/64 32/54/34
f 58/92/60 63/97/65 29/51/31
f 64/98/66 74/109/76 65/99/67
f 67/101/69 110/157/112 4/16/6
f 68/102/70 71/105/73 69/103/71
f 71/168/73 75/169/77 72/107/74
f 72/107/74 75/169/77 73/108/75
f 75/110/77 79/117/81 76/111/78
f 76/111/78 79/117/81 77/113/79
f 77/113/79 79/117/81 71/115/73
f 80/118/82 83/121/85 81/119/83
f 83/121/85 87/132/89 84/122/86
f 84/123/86 87/126/89 85/124/87
f 87/126/89 90/170/92 88/127/90
f 88/128/90 90/171/92 89/129/91
f 90/130/92 83/121/85 80/118/82
f 91/133/93 94/136/96 92/134/94
f 94/136/96 100/145/102 95/137/97
f 95/137/97 100/172/102 96/138/98
f 96/138/98 100/172/102 97/139/99
f 98/141/100 97/173/99 99/142/101
f 99/143/101 97/144/99 94/136/96
f 101/146/103 104/174/106 102/147/104
f 104/149/106 107/175/109 105/150/107
f 105/150/107 107/175/109 106/152/108
f 107/153/109 111/158/113 108/154/110
f 108/154/110 111/158/113 109/156/111
f 111/158/113 104/160/106 101/159/103
f 51/79/53 101/146/103 103/148/105
f 53/82/55 109/156/111 101/159/103
f 4/16/6 110/157/112 109/156/111
f 106/152/108 98/141/100 64/98/66
f 108/154/110 96/138/98 98/140/100
f 110/157/112 67/101/69 96/138/98
f 69/103/71 91/133/93 93/135/95
f 72/106/74 99/143/101 91/133/93
f 74/109/76 64/98/66 99/142/101
f 102/147/104 80/118/82 82/120/84
f 105/150/107 89/129/91 80/161/82
f 66/100/68 65/99/67 89/129/91
f 85/124/87 76/111/78 78/114/80
f 88/127/90 73/112/75 76/111/78
f 65/99/67 74/109/76 73/108/75
f 54/86/56 68/102/70 70/104/72
f 56/89/58 77/113/79 68/116/70
f 57/91/59 78/114/80 77/113/79
f 55/87/57 70/104/72 93/135/95
f 86/125/88 112/166/114 59/93/61
f 84/122/86 59/167/61 60/94/62
f 81/119/83 60/94/62 61/95/63
f 67/101/69 6/18/8 62/96/64
f 95/137/97 62/96/64 63/97/65
f 92/134/94 63/97/65 58/92/60
