# Blender v2.93.2 OBJ File: 'cubeTexturePower.blend'
# www.blender.org
mtllib piece24.mtl
o Rubiks_Cube_Cube.024_piece24
v -0.998343 -1.101342 1.101342
v -0.998343 -2.898657 2.898658
v -0.998343 -1.101342 2.898658
v -0.897001 -1.101342 3.000000
v 0.000000 -2.898657 3.000000
v 0.000000 -1.101342 3.000000
v -0.897001 -3.000000 2.898658
v 0.000000 -3.000000 1.101342
v 0.000000 -3.000000 2.898658
v -0.897001 -1.013538 1.050738
v -0.947605 -1.013538 1.101342
v -0.897001 -0.999999 1.101342
v -0.945464 -1.026690 1.052879
v -0.984804 -1.050737 1.101342
v -0.984804 -1.101342 1.050738
v -0.945464 -1.052879 1.026690
v -0.947605 -1.101342 1.013539
v -0.897001 -1.050737 1.013539
v -0.897001 -1.101342 1.000000
v -0.971653 -1.052879 1.052879
v -0.984803 -2.898657 1.050738
v -0.984803 -2.949261 1.101342
v -0.998343 -2.898657 1.101342
v -0.945464 -2.973310 1.052879
v -0.947605 -2.986460 1.101342
v -0.897001 -2.986460 1.050738
v -0.897001 -3.000000 1.101342
v -0.897001 -2.949261 1.013539
v -0.947605 -2.898657 1.013539
v -0.897001 -2.898657 1.000000
v -0.945464 -2.947120 1.026690
v -0.971653 -2.947120 1.052879
v -0.947605 -1.013538 2.898658
v -0.897001 -1.013538 2.949262
v -0.897001 -0.999999 2.898658
v -0.945464 -1.026690 2.947121
v -0.897001 -1.050737 2.986461
v -0.947605 -1.101342 2.986461
v -0.971653 -1.052879 2.947121
v -0.984804 -1.101342 2.949262
v -0.984804 -1.050737 2.898658
v -0.945464 -1.052879 2.973310
v -0.897001 -2.986460 2.949262
v -0.947605 -2.986460 2.898658
v -0.945464 -2.973310 2.947121
v -0.984803 -2.949261 2.898658
v -0.984803 -2.898657 2.949262
v -0.945464 -2.947120 2.973310
v -0.947605 -2.898657 2.986461
v -0.897001 -2.949261 2.986461
v -0.897001 -2.898657 3.000000
v -0.971653 -2.947120 2.947121
v 0.000000 -1.013538 1.050738
v 0.000000 -0.999999 1.101342
v 0.000000 -1.050737 1.013539
v 0.000000 -1.101342 1.000000
v 0.000000 -2.986460 2.949262
v 0.000000 -2.949261 2.986461
v 0.000000 -0.999999 2.898658
v 0.000000 -1.050737 2.986461
v 0.000000 -1.013538 2.949262
v 0.000000 -2.949261 1.013539
v 0.000000 -2.986460 1.050738
v 0.998343 -2.898657 2.898658
v 0.998343 -1.101342 1.101342
v 0.998343 -1.101342 2.898658
v 0.897001 -1.101342 3.000000
v 0.897002 -3.000000 2.898658
v 0.947605 -1.013538 1.101342
v 0.897001 -1.013538 1.050738
v 0.897001 -0.999999 1.101342
v 0.984804 -1.050737 1.101342
v 0.945464 -1.026690 1.052879
v 0.984804 -1.101342 1.050738
v 0.945464 -1.052879 1.026690
v 0.971653 -1.052879 1.052879
v 0.897001 -1.050737 1.013539
v 0.947605 -1.101342 1.013539
v 0.897001 -1.101342 1.000000
v 0.984804 -2.949261 1.101342
v 0.984804 -2.898657 1.050738
v 0.998343 -2.898657 1.101342
v 0.947605 -2.986460 1.101342
v 0.971653 -2.947120 1.052879
v 0.897002 -2.986460 1.050738
v 0.897002 -3.000000 1.101342
v 0.897002 -2.949261 1.013539
v 0.945464 -2.973310 1.052879
v 0.947605 -2.898657 1.013539
v 0.897002 -2.898657 1.000000
v 0.945464 -2.947120 1.026690
v 0.897001 -1.013538 2.949262
v 0.947605 -1.013538 2.898658
v 0.897001 -0.999999 2.898658
v 0.897001 -1.050737 2.986461
v 0.945464 -1.026690 2.947121
v 0.947605 -1.101342 2.986461
v 0.971653 -1.052879 2.947121
v 0.945464 -1.052879 2.973310
v 0.984804 -1.050737 2.898658
v 0.984804 -1.101342 2.949262
v 0.947605 -2.986460 2.898658
v 0.897002 -2.986460 2.949262
v 0.984804 -2.949261 2.898658
v 0.945464 -2.973310 2.947121
v 0.984804 -2.898657 2.949262
v 0.945464 -2.947120 2.973310
v 0.971653 -2.947120 2.947121
v 0.897002 -2.949261 2.986461
v 0.947605 -2.898657 2.986461
v 0.897002 -2.898657 3.000000
v 0.000000 -2.898657 1.000000
vt 0.333496 0.666992
vt 0.375000 0.500000
vt 0.375000 0.666992
vt 0.083496 0.500000
vt 0.125000 0.333008
vt 0.125000 0.500000
vt 0.416504 0.666992
vt 0.166504 0.500000
vt 0.333496 0.500000
vt 0.083496 0.333008
vt 0.416504 0.500000
vt 0.166504 0.333008
vt 0.842285 0.604492
vt 0.912598 0.746094
vt 0.842285 0.746094
vt 0.763672 0.758789
vt 0.765625 0.754883
vt 0.765625 0.758789
vt 0.763672 0.754883
vt 0.765137 0.751953
vt 0.840332 0.604492
vt 0.842285 0.600586
vt 0.840332 0.598633
vt 0.842285 0.598633
vt 0.911133 0.754883
vt 0.912598 0.758789
vt 0.911133 0.758789
vt 0.762207 0.758789
vt 0.762695 0.754883
vt 0.763672 0.752930
vt 0.912598 0.600586
vt 0.914062 0.604492
vt 0.912598 0.604492
vt 0.914062 0.601562
vt 0.916504 0.598633
vt 0.916504 0.601562
vt 0.917969 0.598633
vt 0.918457 0.601562
vt 0.839355 0.754883
vt 0.840820 0.758789
vt 0.838867 0.758789
vt 0.842285 0.754883
vt 0.842773 0.758789
vt 0.840820 0.754883
vt 0.842285 0.751953
vt 0.840332 0.752930
vt 0.833984 0.754883
vt 0.835938 0.758789
vt 0.833984 0.758789
vt 0.835449 0.754883
vt 0.836914 0.758789
vt 0.912598 0.758789
vt 0.914551 0.754883
vt 0.914551 0.758789
vt 0.842285 0.751953
vt 0.840332 0.749023
vt 0.842285 0.749023
vt 0.840332 0.746094
vt 0.839355 0.749023
vt 0.838867 0.746094
vt 0.840332 0.751953
vt 0.917969 0.747070
vt 0.916504 0.743164
vt 0.918457 0.743164
vt 0.916504 0.746094
vt 0.914062 0.743164
vt 0.914062 0.746094
vt 0.912598 0.749023
vt 0.982910 0.751953
vt 0.984375 0.754883
vt 0.982422 0.754883
vt 0.984375 0.758789
vt 0.982422 0.758789
vt 0.986328 0.758789
vt 0.985352 0.754883
vt 0.984375 0.752930
vt 0.763672 0.829102
vt 0.765625 0.829102
vt 0.762207 0.829102
vt 0.911133 0.829102
vt 0.912598 0.829102
vt 0.952148 0.747070
vt 0.952148 0.743164
vt 0.984375 0.829102
vt 0.986328 0.829102
vt 0.982422 0.829102
vt 0.838867 0.604492
vt 0.833984 0.829102
vt 0.912598 0.829102
vt 0.835938 0.829102
vt 0.840820 0.829102
vt 0.838867 0.829102
vt 0.952148 0.601562
vt 0.835449 0.746094
vt 0.765137 0.604492
vt 0.835449 0.604492
vt 0.765625 0.902344
vt 0.763672 0.898438
vt 0.765625 0.898438
vt 0.765137 0.905273
vt 0.763672 0.902344
vt 0.763672 0.604492
vt 0.765137 0.600586
vt 0.762695 0.600586
vt 0.763672 0.600586
vt 0.912598 0.898438
vt 0.911133 0.902344
vt 0.911133 0.898438
vt 0.762207 0.898438
vt 0.762695 0.902344
vt 0.763672 0.905273
vt 0.765137 0.749023
vt 0.763672 0.746094
vt 0.765137 0.746094
vt 0.765137 0.751953
vt 0.763672 0.749023
vt 0.986816 0.598633
vt 0.988281 0.601562
vt 0.986816 0.601562
vt 0.840820 0.898438
vt 0.839355 0.902344
vt 0.838867 0.898438
vt 0.842285 0.902344
vt 0.842773 0.898438
vt 0.840332 0.905273
vt 0.840820 0.902344
vt 0.835938 0.898438
vt 0.833984 0.902344
vt 0.833984 0.898438
vt 0.836914 0.898438
vt 0.835449 0.902344
vt 0.914551 0.902344
vt 0.912598 0.898438
vt 0.914551 0.898438
vt 0.838867 0.604492
vt 0.837891 0.600586
vt 0.838379 0.600586
vt 0.835449 0.600586
vt 0.837891 0.604492
vt 0.837891 0.598633
vt 0.988281 0.743164
vt 0.986816 0.747070
vt 0.986816 0.743164
vt 0.835449 0.749023
vt 0.837891 0.751953
vt 0.835449 0.751953
vt 0.837891 0.746094
vt 0.982910 0.905273
vt 0.984375 0.902344
vt 0.984375 0.905273
vt 0.984375 0.898438
vt 0.982422 0.902344
vt 0.982422 0.898438
vt 0.986328 0.898438
vt 0.985352 0.902344
vt 0.762207 0.604492
vt 0.838867 0.746094
vt 0.835449 0.598633
vt 0.765137 0.598633
vt 0.842773 0.829102
vt 0.840332 0.600586
vt 0.912598 0.754883
vt 0.914062 0.600586
vt 0.914551 0.598633
vt 0.836426 0.754883
vt 0.913086 0.754883
vt 0.914551 0.746094
vt 0.914062 0.749023
vt 0.912598 0.598633
vt 0.912598 0.751953
vt 0.914551 0.829102
vt 0.836914 0.829102
vt 0.952148 0.598633
vt 0.912598 0.902344
vt 0.763672 0.751953
vt 0.988281 0.598633
vt 0.842285 0.905273
vt 0.836426 0.902344
vt 0.913086 0.902344
vt 0.988281 0.746094
vt 0.837891 0.749023
vt 0.762207 0.746094
vn 0.0000 0.0000 1.0000
vn 0.0000 -1.0000 0.0000
vn -0.9835 0.1280 -0.1280
vn -0.9835 -0.1280 0.1280
vn -0.9835 0.1280 0.1280
vn -0.1216 0.8623 -0.4916
vn -0.4916 0.8623 -0.1216
vn -0.1280 0.9835 -0.1280
vn -0.4488 0.7727 -0.4488
vn -0.8623 0.4916 -0.1216
vn -0.8623 0.1216 -0.4916
vn -0.4488 0.4488 -0.7727
vn -0.4916 0.1216 -0.8623
vn -0.1216 0.4916 -0.8623
vn -0.1280 0.1280 -0.9835
vn -0.7727 0.4488 -0.4488
vn -0.8623 -0.1216 -0.4916
vn -0.8623 -0.4916 -0.1216
vn -0.9835 -0.1280 -0.1280
vn -0.4488 -0.7727 -0.4488
vn -0.4916 -0.8623 -0.1216
vn -0.1216 -0.8623 -0.4916
vn -0.1709 -0.9703 -0.1709
vn -0.1216 -0.4916 -0.8623
vn -0.4916 -0.1216 -0.8623
vn -0.1280 -0.1280 -0.9835
vn -0.4488 -0.4488 -0.7727
vn -0.7727 -0.4488 -0.4488
vn -0.4916 0.8623 0.1216
vn -0.1216 0.8623 0.4916
vn -0.1280 0.9835 0.1280
vn -0.4488 0.7727 0.4488
vn -0.1216 0.4916 0.8623
vn -0.4916 0.1216 0.8623
vn -0.1709 0.1709 0.9703
vn -0.7727 0.4488 0.4488
vn -0.8623 0.1216 0.4916
vn -0.8623 0.4916 0.1216
vn -0.4488 0.4488 0.7727
vn -0.1216 -0.8623 0.4916
vn -0.4916 -0.8623 0.1216
vn -0.1709 -0.9703 0.1709
vn -0.4488 -0.7727 0.4488
vn -0.8623 -0.4916 0.1216
vn -0.8623 -0.1216 0.4916
vn -0.4488 -0.4488 0.7727
vn -0.4916 -0.1216 0.8623
vn -0.1216 -0.4916 0.8623
vn -0.1709 -0.1709 0.9703
vn -0.7727 -0.4488 0.4488
vn -0.0000 0.8661 -0.4998
vn -0.0000 0.9915 -0.1303
vn -0.0000 0.4998 -0.8661
vn -0.0000 0.1303 -0.9915
vn 0.0000 -0.8661 0.4998
vn 0.0000 -0.9660 0.2585
vn 0.0000 -0.4998 0.8661
vn 0.0000 -0.2585 0.9660
vn -0.0000 0.9915 0.1303
vn 0.0000 0.4998 0.8661
vn 0.0000 0.8661 0.4998
vn -0.0000 -0.4998 -0.8661
vn -0.0000 -0.8661 -0.4998
vn -0.0000 -0.9660 -0.2585
vn 0.9835 -0.1280 0.1280
vn 0.9835 0.1280 -0.1280
vn 0.9835 0.1280 0.1280
vn 0.4916 0.8623 -0.1216
vn 0.1216 0.8623 -0.4916
vn 0.1280 0.9835 -0.1280
vn 0.8623 0.4916 -0.1216
vn 0.4488 0.7727 -0.4488
vn 0.8623 0.1216 -0.4916
vn 0.4488 0.4488 -0.7727
vn 0.7727 0.4488 -0.4488
vn 0.1216 0.4916 -0.8623
vn 0.4916 0.1216 -0.8623
vn 0.1280 0.1280 -0.9835
vn 0.8623 -0.4916 -0.1216
vn 0.8623 -0.1216 -0.4916
vn 0.9835 -0.1280 -0.1280
vn 0.4916 -0.8623 -0.1216
vn 0.7727 -0.4488 -0.4488
vn 0.1216 -0.8623 -0.4916
vn 0.1709 -0.9703 -0.1709
vn 0.1216 -0.4916 -0.8623
vn 0.4488 -0.7727 -0.4488
vn 0.4916 -0.1216 -0.8623
vn 0.1280 -0.1280 -0.9835
vn 0.4488 -0.4488 -0.7727
vn 0.1216 0.8623 0.4916
vn 0.4916 0.8623 0.1216
vn 0.1280 0.9835 0.1280
vn 0.1216 0.4916 0.8623
vn 0.4488 0.7727 0.4488
vn 0.4916 0.1216 0.8623
vn 0.1709 0.1709 0.9703
vn 0.7727 0.4488 0.4488
vn 0.4488 0.4488 0.7727
vn 0.8623 0.4916 0.1216
vn 0.8623 0.1216 0.4916
vn 0.4916 -0.8623 0.1216
vn 0.1216 -0.8623 0.4916
vn 0.1709 -0.9703 0.1709
vn 0.8623 -0.4916 0.1216
vn 0.4488 -0.7727 0.4488
vn 0.8623 -0.1216 0.4916
vn 0.4488 -0.4488 0.7727
vn 0.7727 -0.4488 0.4488
vn 0.1216 -0.4916 0.8623
vn 0.4916 -0.1216 0.8623
vn 0.1709 -0.1709 0.9703
vn -0.0000 -0.1303 -0.9915
vn 0.0000 0.2585 0.9660
usemtl CubeCustomText
s off
f 4/1/1 5/2/1 6/3/1
f 7/4/2 8/5/2 9/6/2
f 5/2/1 67/7/1 6/3/1
f 8/5/2 68/8/2 9/6/2
f 4/1/1 51/9/1 5/2/1
f 7/4/2 27/10/2 8/5/2
f 5/2/1 111/11/1 67/7/1
f 8/5/2 86/12/2 68/8/2
s 1
f 1/13/3 2/14/4 3/15/5
f 10/16/6 11/17/7 12/18/8
f 13/19/9 14/20/10 11/17/7
f 14/21/10 15/22/11 1/13/3
f 15/22/11 16/23/12 17/24/13
f 17/25/13 18/26/14 19/27/15
f 18/28/14 13/19/9 10/16/6
f 13/19/9 16/29/12 20/30/16
f 21/31/17 22/32/18 23/33/19
f 22/34/18 24/35/20 25/36/21
f 25/36/21 26/37/22 27/38/23
f 24/39/20 28/40/24 26/41/22
f 28/40/24 29/42/25 30/43/26
f 31/44/27 21/45/17 29/42/25
f 32/46/28 31/44/27 24/39/20
f 33/47/29 34/48/30 35/49/31
f 36/50/32 37/51/33 34/48/30
f 37/52/33 38/53/34 4/54/35
f 38/55/34 39/56/36 40/57/37
f 40/57/37 41/58/38 3/15/5
f 41/58/38 36/59/32 33/60/29
f 36/59/32 39/56/36 42/61/39
f 43/62/40 44/63/41 7/64/42
f 45/65/43 46/66/44 44/63/41
f 46/67/44 47/68/45 2/14/4
f 47/69/45 48/70/46 49/71/47
f 49/71/47 50/72/48 51/73/49
f 48/70/46 43/74/40 50/72/48
f 45/75/43 48/70/46 52/76/50
f 53/77/51 12/18/8 54/78/52
f 55/79/53 10/16/6 53/77/51
f 56/80/54 18/26/14 55/81/53
f 15/22/11 23/33/19 1/13/3
f 17/24/13 21/31/17 15/22/11
f 19/27/15 29/42/25 17/25/13
f 57/82/55 7/64/42 9/83/56
f 58/84/57 43/74/40 57/85/55
f 5/86/58 50/72/48 58/84/57
f 47/68/45 3/15/5 2/14/4
f 47/68/45 38/55/34 40/57/37
f 51/73/49 38/53/34 49/71/47
f 11/17/7 35/49/31 12/18/8
f 14/21/10 33/60/29 11/87/7
f 1/13/3 41/58/38 14/21/10
f 44/63/41 27/38/23 7/64/42
f 46/66/44 25/36/21 44/63/41
f 2/14/4 22/32/18 46/67/44
f 12/18/8 59/88/59 54/78/52
f 4/54/35 60/89/60 37/52/33
f 37/51/33 61/90/61 34/48/30
f 34/48/30 59/88/59 35/49/31
f 30/43/26 62/91/62 28/40/24
f 28/40/24 63/92/63 26/41/22
f 26/37/22 8/93/64 27/38/23
f 56/80/54 30/43/26 19/27/15
f 64/94/65 65/95/66 66/96/67
f 69/97/68 70/98/69 71/99/70
f 72/100/71 73/101/72 69/97/68
f 74/102/73 72/103/71 65/95/66
f 74/102/73 75/104/74 76/105/75
f 77/106/76 78/107/77 79/108/78
f 77/109/76 73/101/72 75/110/74
f 73/101/72 76/111/75 75/110/74
f 80/112/79 81/113/80 82/114/81
f 83/115/82 84/116/83 80/112/79
f 85/117/84 83/118/82 86/119/85
f 87/120/86 88/121/87 85/122/84
f 89/123/88 87/120/86 90/124/89
f 89/123/88 84/125/83 91/126/90
f 84/125/83 88/121/87 91/126/90
f 92/127/91 93/128/92 94/129/93
f 95/130/94 96/131/95 92/127/91
f 97/132/96 95/133/94 67/134/97
f 97/135/96 98/136/98 99/137/99
f 100/138/100 101/139/101 66/96/67
f 100/138/100 96/140/95 98/136/98
f 96/140/95 99/137/99 98/136/98
f 102/141/102 103/142/103 68/143/104
f 104/144/105 105/145/106 102/146/102
f 106/147/107 104/144/105 64/94/65
f 106/148/107 107/149/108 108/150/109
f 109/151/110 110/152/111 111/153/112
f 103/154/103 107/149/108 109/151/110
f 105/155/106 108/150/109 107/149/108
f 71/99/70 53/77/51 54/78/52
f 70/98/69 55/79/53 53/77/51
f 77/106/76 56/80/54 55/81/53
f 82/114/81 74/102/73 65/95/66
f 81/113/80 78/156/77 74/102/73
f 89/123/88 79/108/78 78/107/77
f 68/143/104 57/82/55 9/83/56
f 103/154/103 58/84/57 57/85/55
f 109/151/110 5/86/58 58/84/57
f 66/96/67 106/147/107 64/94/65
f 101/139/101 110/157/111 106/147/107
f 110/152/111 67/134/97 111/153/112
f 94/129/93 69/97/68 71/99/70
f 93/158/92 72/103/71 69/159/68
f 100/138/100 65/95/66 72/103/71
f 86/119/85 102/141/102 68/143/104
f 83/115/82 104/144/105 102/146/102
f 80/112/79 64/94/65 104/144/105
f 59/88/59 71/99/70 54/78/52
f 60/89/60 67/134/97 95/133/94
f 61/90/61 95/130/94 92/127/91
f 59/88/59 92/127/91 94/129/93
f 62/91/62 90/124/89 87/120/86
f 63/92/63 87/120/86 85/122/84
f 8/93/64 85/117/84 86/119/85
f 79/108/78 112/160/113 56/80/54
f 1/13/3 23/33/19 2/14/4
f 10/16/6 13/19/9 11/17/7
f 13/19/9 20/30/16 14/20/10
f 14/21/10 20/161/16 15/22/11
f 15/22/11 20/161/16 16/23/12
f 17/25/13 16/162/12 18/26/14
f 18/28/14 16/29/12 13/19/9
f 21/31/17 32/163/28 22/32/18
f 22/34/18 32/164/28 24/35/20
f 25/36/21 24/35/20 26/37/22
f 24/39/20 31/44/27 28/40/24
f 28/40/24 31/44/27 29/42/25
f 31/44/27 32/46/28 21/45/17
f 33/47/29 36/50/32 34/48/30
f 36/50/32 42/165/39 37/51/33
f 37/52/33 42/166/39 38/53/34
f 38/55/34 42/61/39 39/56/36
f 40/57/37 39/56/36 41/58/38
f 41/58/38 39/56/36 36/59/32
f 43/62/40 45/65/43 44/63/41
f 45/65/43 52/167/50 46/66/44
f 46/67/44 52/168/50 47/68/45
f 47/69/45 52/76/50 48/70/46
f 49/71/47 48/70/46 50/72/48
f 48/70/46 45/75/43 43/74/40
f 53/77/51 10/16/6 12/18/8
f 55/79/53 18/28/14 10/16/6
f 56/80/54 19/27/15 18/26/14
f 15/22/11 21/31/17 23/33/19
f 17/24/13 29/169/25 21/31/17
f 19/27/15 30/43/26 29/42/25
f 57/82/55 43/62/40 7/64/42
f 58/84/57 50/72/48 43/74/40
f 5/86/58 51/73/49 50/72/48
f 47/68/45 40/57/37 3/15/5
f 47/68/45 49/170/47 38/55/34
f 51/73/49 4/54/35 38/53/34
f 11/17/7 33/47/29 35/49/31
f 14/21/10 41/58/38 33/60/29
f 1/13/3 3/15/5 41/58/38
f 44/63/41 25/36/21 27/38/23
f 46/66/44 22/34/18 25/36/21
f 2/14/4 23/33/19 22/32/18
f 12/18/8 35/49/31 59/88/59
f 4/54/35 6/171/114 60/89/60
f 37/51/33 60/172/60 61/90/61
f 34/48/30 61/90/61 59/88/59
f 30/43/26 112/160/113 62/91/62
f 28/40/24 62/91/62 63/92/63
f 26/37/22 63/173/63 8/93/64
f 56/80/54 112/160/113 30/43/26
f 64/94/65 82/114/81 65/95/66
f 69/97/68 73/101/72 70/98/69
f 72/100/71 76/111/75 73/101/72
f 74/102/73 76/105/75 72/103/71
f 74/102/73 78/156/77 75/104/74
f 77/106/76 75/174/74 78/107/77
f 77/109/76 70/98/69 73/101/72
f 80/112/79 84/116/83 81/113/80
f 83/115/82 88/175/87 84/116/83
f 85/117/84 88/176/87 83/118/82
f 87/120/86 91/126/90 88/121/87
f 89/123/88 91/126/90 87/120/86
f 89/123/88 81/177/80 84/125/83
f 92/127/91 96/131/95 93/128/92
f 95/130/94 99/178/99 96/131/95
f 97/132/96 99/179/99 95/133/94
f 97/135/96 101/139/101 98/136/98
f 100/138/100 98/136/98 101/139/101
f 100/138/100 93/158/92 96/140/95
f 102/141/102 105/180/106 103/142/103
f 104/144/105 108/181/109 105/145/106
f 106/147/107 108/181/109 104/144/105
f 106/148/107 110/152/111 107/149/108
f 109/151/110 107/149/108 110/152/111
f 103/154/103 105/155/106 107/149/108
f 71/99/70 70/98/69 53/77/51
f 70/98/69 77/109/76 55/79/53
f 77/106/76 79/108/78 56/80/54
f 82/114/81 81/113/80 74/102/73
f 81/113/80 89/182/88 78/156/77
f 89/123/88 90/124/89 79/108/78
f 68/143/104 103/142/103 57/82/55
f 103/154/103 109/151/110 58/84/57
f 109/151/110 111/153/112 5/86/58
f 66/96/67 101/139/101 106/147/107
f 101/139/101 97/135/96 110/157/111
f 110/152/111 97/132/96 67/134/97
f 94/129/93 93/128/92 69/97/68
f 93/158/92 100/138/100 72/103/71
f 100/138/100 66/96/67 65/95/66
f 86/119/85 83/118/82 102/141/102
f 83/115/82 80/112/79 104/144/105
f 80/112/79 82/114/81 64/94/65
f 59/88/59 94/129/93 71/99/70
f 60/89/60 6/171/114 67/134/97
f 61/90/61 60/172/60 95/130/94
f 59/88/59 61/90/61 92/127/91
f 62/91/62 112/160/113 90/124/89
f 63/92/63 62/91/62 87/120/86
f 8/93/64 63/173/63 85/117/84
f 79/108/78 90/124/89 112/160/113
