# Blender v2.93.2 OBJ File: 'cubeTexturePower.blend'
# www.blender.org
mtllib piece11.mtl
o Rubiks_Cube_Cube.011_piece11
v 2.898658 0.947865 -2.986461
v 1.101342 0.897260 -3.000000
v 1.101342 0.947865 -2.986461
v 1.050738 0.000000 -2.986461
v 1.013539 0.897260 -2.949262
v 1.050738 0.897260 -2.986461
v 2.949262 0.000000 -2.986461
v 2.898658 0.897260 -3.000000
v 2.949262 0.897260 -2.986461
v 1.013539 0.000000 -1.050738
v 1.050738 0.897260 -1.013539
v 1.013539 0.897260 -1.050738
v 2.986461 0.947865 -1.101342
v 3.000000 0.897260 -2.898658
v 2.986461 0.947865 -2.898658
v 2.898658 0.985065 -2.949262
v 1.101342 0.985064 -2.949262
v 2.898658 0.998603 -2.898658
v 1.101342 0.998603 -2.898658
v 1.050738 0.985064 -1.101342
v 1.101342 0.998603 -1.101342
v 2.986461 0.000000 -2.949262
v 2.986461 0.897260 -2.949262
v 2.898658 0.998603 -1.101342
v 2.949262 0.985065 -2.898658
v 1.101342 0.000000 -3.000000
v 1.013539 0.000000 -2.949262
v 1.000000 0.897260 -2.898658
v 3.000000 0.000000 -2.898658
v 1.050738 0.000000 -1.013539
v 1.101342 0.897260 -1.000000
v 1.013539 0.947865 -2.898658
v 1.052879 0.971912 -2.947121
v 1.026690 0.945723 -2.947121
v 1.101342 0.947865 -1.013539
v 2.898658 0.897260 -1.000000
v 2.898658 0.947865 -1.013539
v 2.986461 0.897260 -1.050738
v 2.949262 0.000000 -1.013539
v 2.986461 0.000000 -1.050738
v 1.050738 0.985064 -2.898658
v 2.947121 0.945723 -2.973310
v 2.973310 0.945723 -2.947121
v 2.947121 0.971913 -2.947121
v 1.052879 0.945723 -2.973310
v 2.949262 0.897260 -1.013539
v 2.898658 0.000000 -1.000000
v 1.101342 0.985064 -1.050738
v 2.898658 0.985065 -1.050738
v 1.052879 0.971912 -1.052879
v 1.026690 0.945723 -1.052879
v 1.052879 0.945723 -1.026690
v 1.013539 0.947865 -1.101342
v 2.973310 0.945723 -1.052879
v 2.947121 0.971913 -1.052879
v 2.947121 0.945723 -1.026690
v 2.949262 0.985065 -1.101342
v 1.000000 0.897260 -1.101342
v 3.000000 0.897260 -1.101342
v 3.000000 0.000000 -1.101342
v 1.101342 0.000000 -1.000000
v 2.898658 0.000000 -3.000000
v 1.000000 0.000000 -2.898658
v 1.000000 0.000000 -1.101342
v 1.101342 -0.897260 -3.000000
v 2.898658 -0.947865 -2.986461
v 1.101342 -0.947865 -2.986461
v 1.013539 -0.897260 -2.949262
v 1.050738 -0.897260 -2.986461
v 2.898658 -0.897260 -3.000000
v 2.949262 -0.897260 -2.986461
v 1.050738 -0.897260 -1.013539
v 1.013539 -0.897260 -1.050738
v 3.000000 -0.897260 -2.898658
v 2.986461 -0.947865 -1.101342
v 2.986461 -0.947865 -2.898658
v 2.898658 -0.985064 -2.949262
v 1.101342 -0.985064 -2.949262
v 2.898658 -0.998603 -2.898658
v 1.101342 -0.998603 -2.898658
v 1.050738 -0.985064 -1.101342
v 1.101342 -0.998603 -1.101342
v 2.986461 -0.897260 -2.949262
v 2.949262 -0.985064 -2.898658
v 2.898658 -0.998603 -1.101342
v 1.000000 -0.897260 -2.898658
v 1.101342 -0.897260 -1.000000
v 1.013539 -0.947865 -2.898658
v 1.052879 -0.971912 -2.947121
v 1.050738 -0.985064 -2.898658
v 2.898658 -0.897260 -1.000000
v 1.101342 -0.947865 -1.013539
v 2.898658 -0.947865 -1.013539
v 2.986461 -0.897260 -1.050738
v 2.947121 -0.945723 -2.973310
v 2.947121 -0.971912 -2.947121
v 2.973310 -0.945723 -2.947121
v 1.026690 -0.945723 -2.947121
v 1.052879 -0.945723 -2.973310
v 2.949262 -0.897260 -1.013539
v 1.101342 -0.985064 -1.050738
v 2.898658 -0.985064 -1.050738
v 1.052879 -0.971912 -1.052879
v 1.052879 -0.945723 -1.026690
v 1.026690 -0.945723 -1.052879
v 1.013539 -0.947865 -1.101342
v 2.973310 -0.945723 -1.052879
v 2.947121 -0.945723 -1.026690
v 2.947121 -0.971912 -1.052879
v 2.949262 -0.985064 -1.101342
v 1.000000 -0.897260 -1.101342
v 3.000000 -0.897260 -1.101342
vt 0.750000 0.833008
vt 0.666504 0.750000
vt 0.750000 0.750000
vt 0.333496 0.333008
vt 0.250000 0.250000
vt 0.333496 0.250000
vt 0.750000 0.666992
vt 0.333496 0.166992
vt 0.666504 0.833008
vt 0.250000 0.333008
vt 0.666504 0.666992
vt 0.250000 0.166992
vt 0.917969 0.773438
vt 0.986816 0.768555
vt 0.986816 0.773438
vt 0.987793 0.853516
vt 0.985840 0.783203
vt 0.987793 0.783203
vt 0.916016 0.698242
vt 0.917969 0.768555
vt 0.916016 0.768555
vt 0.914551 0.698242
vt 0.913086 0.625977
vt 0.914551 0.625977
vt 0.836914 0.783203
vt 0.838867 0.923828
vt 0.836914 0.923828
vt 0.762695 0.623047
vt 0.833984 0.620117
vt 0.833984 0.623047
vt 0.762695 0.625977
vt 0.833984 0.625977
vt 0.835449 0.770508
vt 0.833984 0.770508
vt 0.914551 0.698242
vt 0.914551 0.768555
vt 0.762695 0.770508
vt 0.760742 0.625977
vt 0.986816 0.698242
vt 0.988281 0.768555
vt 0.985840 0.853516
vt 0.983887 0.783203
vt 0.874512 0.925781
vt 0.838867 0.928711
vt 0.913086 0.698242
vt 0.911133 0.625977
vt 0.984375 0.779297
vt 0.986328 0.777344
vt 0.985840 0.779297
vt 0.911133 0.623047
vt 0.839844 0.625977
vt 0.839844 0.623047
vt 0.838867 0.779297
vt 0.874512 0.777344
vt 0.874512 0.780273
vt 0.835449 0.625977
vt 0.916016 0.773438
vt 0.915039 0.773438
vt 0.916016 0.774414
vt 0.759277 0.625977
vt 0.760742 0.623047
vt 0.835449 0.623047
vt 0.987305 0.779297
vt 0.837891 0.625977
vt 0.839844 0.698242
vt 0.837891 0.698242
vt 0.911133 0.620117
vt 0.839844 0.620117
vt 0.762695 0.774414
vt 0.835449 0.773438
vt 0.836426 0.773438
vt 0.835449 0.774414
vt 0.914062 0.623047
vt 0.836914 0.770508
vt 0.833984 0.774414
vt 0.836914 0.623047
vt 0.837891 0.622070
vt 0.837891 0.623047
vt 0.760742 0.770508
vt 0.838867 0.776367
vt 0.837402 0.779297
vt 0.837402 0.777344
vt 0.913086 0.783203
vt 0.915039 0.779297
vt 0.915039 0.783203
vt 0.838867 0.783203
vt 0.911133 0.698242
vt 0.759277 0.770508
vt 0.760742 0.773438
vt 0.759766 0.773438
vt 0.983887 0.853516
vt 0.915039 0.853516
vt 0.913086 0.622070
vt 0.913086 0.623047
vt 0.874512 0.785156
vt 0.986816 0.625977
vt 0.917969 0.623047
vt 0.986816 0.623047
vt 0.985840 0.925781
vt 0.987793 0.925781
vt 0.917969 0.625977
vt 0.916016 0.625977
vt 0.913086 0.768555
vt 0.914551 0.768555
vt 0.909180 0.925781
vt 0.911621 0.785156
vt 0.911621 0.925781
vt 0.759277 0.922852
vt 0.760742 0.780273
vt 0.760742 0.922852
vt 0.762695 0.780273
vt 0.762695 0.922852
vt 0.833984 0.925781
vt 0.833984 0.922852
vt 0.914551 0.625977
vt 0.762695 0.776367
vt 0.833984 0.780273
vt 0.988281 0.625977
vt 0.983887 0.925781
vt 0.909180 0.929688
vt 0.911133 0.768555
vt 0.984375 0.928711
vt 0.986328 0.929688
vt 0.984375 0.931641
vt 0.839844 0.768555
vt 0.911133 0.773438
vt 0.839844 0.773438
vt 0.909180 0.782227
vt 0.762695 0.925781
vt 0.916016 0.623047
vt 0.916016 0.622070
vt 0.915039 0.623047
vt 0.912598 0.929688
vt 0.913086 0.925781
vt 0.917480 0.620117
vt 0.760742 0.925781
vt 0.985840 0.928711
vt 0.987305 0.928711
vt 0.837891 0.768555
vt 0.911133 0.776367
vt 0.839844 0.776367
vt 0.835449 0.780273
vt 0.913086 0.774414
vt 0.913086 0.773438
vt 0.914062 0.773438
vt 0.835449 0.925781
vt 0.833984 0.928711
vt 0.835449 0.922852
vt 0.911621 0.782227
vt 0.911621 0.779297
vt 0.912598 0.782227
vt 0.833984 0.776367
vt 0.909668 0.777344
vt 0.837891 0.774414
vt 0.915039 0.928711
vt 0.913086 0.925781
vt 0.915039 0.925781
vt 0.909180 0.785156
vt 0.913086 0.785156
vt 0.917969 0.698242
vt 0.762695 0.620117
vt 0.988281 0.698242
vt 0.874512 0.928711
vt 0.984375 0.776367
vt 0.988281 0.773438
vt 0.837402 0.928711
vt 0.759766 0.623047
vt 0.917480 0.776367
vt 0.835449 0.622070
vt 0.913574 0.779297
vt 0.833984 0.776367
vt 0.836914 0.625977
vt 0.913086 0.853516
vt 0.759277 0.780273
vt 0.988281 0.623047
vt 0.911621 0.929688
vt 0.760742 0.777344
vt 0.759766 0.925781
vt 0.835449 0.928711
vt 0.835449 0.777344
vt 0.837891 0.773438
vt 0.913574 0.928711
vt 0.762695 0.928711
vn 1.0000 0.0000 -0.0000
vn 0.0000 0.0000 -1.0000
vn 0.1216 0.4916 -0.8623
vn -0.1709 0.1709 -0.9703
vn -0.1216 0.4916 -0.8623
vn -0.4998 0.0000 -0.8661
vn -0.8623 0.1216 -0.4916
vn -0.4916 0.1216 -0.8623
vn 0.4998 0.0000 -0.8661
vn 0.1709 0.1709 -0.9703
vn 0.4916 0.1216 -0.8623
vn -0.8661 -0.0000 0.4998
vn -0.4916 0.1216 0.8623
vn -0.8623 0.1216 0.4916
vn 0.8623 0.4916 0.1216
vn 0.9703 0.1709 -0.1709
vn 0.8623 0.4916 -0.1216
vn 0.1216 0.8623 -0.4916
vn -0.1216 0.8623 -0.4916
vn 0.1280 0.9835 -0.1280
vn -0.1280 0.9835 -0.1280
vn -0.4916 0.8623 0.1216
vn -0.1280 0.9835 0.1280
vn 0.8661 0.0000 -0.4998
vn 0.8623 0.1216 -0.4916
vn 0.1280 0.9835 0.1280
vn 0.4916 0.8623 -0.1216
vn -0.2585 0.0000 -0.9660
vn -0.8661 -0.0000 -0.4998
vn -0.9835 0.1280 -0.1280
vn 0.9660 0.0000 -0.2585
vn -0.4998 -0.0000 0.8661
vn -0.1280 0.1280 0.9835
vn -0.8623 0.4916 -0.1216
vn -0.4488 0.7727 -0.4488
vn -0.7727 0.4488 -0.4488
vn -0.1216 0.4916 0.8623
vn 0.1280 0.1280 0.9835
vn 0.1216 0.4916 0.8623
vn 0.8623 0.1216 0.4916
vn 0.4998 0.0000 0.8661
vn 0.8661 0.0000 0.4998
vn -0.4916 0.8623 -0.1216
vn 0.4488 0.4488 -0.7727
vn 0.7727 0.4488 -0.4489
vn 0.4489 0.7727 -0.4489
vn -0.4488 0.4488 -0.7727
vn 0.4916 0.1216 0.8623
vn 0.1303 0.0000 0.9915
vn -0.1216 0.8623 0.4916
vn 0.1216 0.8623 0.4916
vn -0.4488 0.7727 0.4488
vn -0.7727 0.4488 0.4488
vn -0.4488 0.4488 0.7727
vn -0.8623 0.4916 0.1216
vn 0.7727 0.4488 0.4488
vn 0.4489 0.7727 0.4489
vn 0.4488 0.4488 0.7727
vn 0.4916 0.8623 0.1216
vn -0.9835 0.1280 0.1280
vn 0.9703 0.1709 0.1709
vn -0.1303 -0.0000 0.9915
vn -0.9915 -0.0000 -0.1303
vn -0.9915 -0.0000 0.1303
vn 0.9660 0.0000 0.2585
vn -0.1709 -0.1709 -0.9703
vn 0.1216 -0.4916 -0.8623
vn -0.1216 -0.4916 -0.8623
vn -0.8623 -0.1216 -0.4916
vn -0.4916 -0.1216 -0.8623
vn 0.1709 -0.1709 -0.9703
vn 0.4916 -0.1216 -0.8623
vn -0.4916 -0.1216 0.8623
vn -0.8623 -0.1216 0.4916
vn 0.9703 -0.1709 -0.1709
vn 0.8623 -0.4916 0.1216
vn 0.8623 -0.4916 -0.1216
vn 0.1216 -0.8623 -0.4916
vn -0.1216 -0.8623 -0.4916
vn 0.1280 -0.9835 -0.1280
vn -0.1280 -0.9835 -0.1280
vn -0.4916 -0.8623 0.1216
vn -0.1280 -0.9835 0.1280
vn 0.8623 -0.1216 -0.4916
vn 0.4916 -0.8623 -0.1216
vn 0.1280 -0.9835 0.1280
vn -0.9835 -0.1280 -0.1280
vn -0.1280 -0.1280 0.9835
vn -0.8623 -0.4916 -0.1216
vn -0.4488 -0.7727 -0.4488
vn -0.4916 -0.8623 -0.1216
vn 0.1280 -0.1280 0.9835
vn -0.1216 -0.4916 0.8623
vn 0.1216 -0.4916 0.8623
vn 0.8623 -0.1216 0.4916
vn 0.4488 -0.4488 -0.7727
vn 0.4488 -0.7727 -0.4488
vn 0.7727 -0.4488 -0.4488
vn -0.7727 -0.4488 -0.4488
vn -0.4488 -0.4488 -0.7727
vn 0.4916 -0.1216 0.8623
vn -0.1216 -0.8623 0.4916
vn 0.1216 -0.8623 0.4916
vn -0.4488 -0.7727 0.4488
vn -0.4488 -0.4488 0.7727
vn -0.7727 -0.4488 0.4488
vn -0.8623 -0.4916 0.1216
vn 0.7727 -0.4488 0.4488
vn 0.4488 -0.4488 0.7727
vn 0.4488 -0.7727 0.4488
vn 0.4916 -0.8623 0.1216
vn -0.9835 -0.1280 0.1280
vn 0.9703 -0.1709 0.1709
vn 0.2585 0.0000 -0.9660
usemtl CubeCustomText
s off
f 14/1/1 60/2/1 29/3/1
f 2/4/2 62/5/2 26/6/2
f 60/2/1 74/7/1 29/3/1
f 62/5/2 65/8/2 26/6/2
f 14/1/1 59/9/1 60/2/1
f 2/4/2 8/10/2 62/5/2
f 60/2/1 112/11/1 74/7/1
f 62/5/2 70/12/2 65/8/2
s 1
f 1/13/3 2/14/4 3/15/5
f 4/16/6 5/17/7 6/18/8
f 7/19/9 8/20/10 9/21/11
f 10/22/12 11/23/13 12/24/14
f 13/25/15 14/26/16 15/27/17
f 16/28/18 3/29/5 17/30/19
f 18/31/20 17/30/19 19/32/21
f 19/32/21 20/33/22 21/34/23
f 22/35/24 9/21/11 23/36/25
f 24/37/26 25/38/27 18/31/20
f 26/39/28 6/40/8 2/14/4
f 27/41/29 28/42/30 5/17/7
f 29/43/31 23/44/25 14/26/16
f 30/45/32 31/46/33 11/23/13
f 32/47/34 33/48/35 34/49/36
f 1/13/3 9/21/11 8/20/10
f 35/50/37 36/51/38 37/52/39
f 32/47/34 5/17/7 28/42/30
f 38/53/40 39/54/41 40/55/42
f 6/40/8 3/15/5 2/14/4
f 17/30/19 41/56/43 19/32/21
f 23/36/25 42/57/44 43/58/45
f 44/59/46 43/58/45 42/57/44
f 23/44/25 15/27/17 14/26/16
f 25/38/27 16/28/18 18/31/20
f 15/60/17 44/61/46 25/38/27
f 1/13/3 44/59/46 42/57/44
f 3/29/5 33/62/35 17/30/19
f 33/48/35 45/63/47 34/49/36
f 46/64/48 47/65/49 39/66/41
f 5/17/7 45/63/47 6/18/8
f 48/67/50 37/52/39 49/68/51
f 21/34/23 49/69/51 24/37/26
f 50/70/52 51/71/53 52/72/54
f 11/23/13 51/73/53 12/24/14
f 35/50/37 11/23/13 31/46/33
f 53/74/55 50/70/52 20/33/22
f 20/33/22 48/75/50 21/34/23
f 54/76/56 55/77/57 56/78/58
f 49/69/51 57/79/59 24/37/26
f 46/80/48 54/81/56 56/82/58
f 37/52/39 55/77/57 49/68/51
f 46/64/48 37/52/39 36/51/38
f 12/83/14 53/84/55 58/85/60
f 13/25/15 38/53/40 59/86/61
f 36/51/38 61/87/62 47/65/49
f 13/88/15 55/89/57 54/90/56
f 21/34/23 18/31/20 19/32/21
f 58/85/60 63/91/63 64/92/64
f 35/50/37 50/93/52 52/94/54
f 41/56/43 53/74/55 20/33/22
f 32/47/34 58/85/60 53/84/55
f 57/79/59 15/60/17 25/38/27
f 64/92/64 12/83/14 58/85/60
f 59/86/61 40/55/42 60/95/65
f 65/96/66 66/97/67 67/98/68
f 68/99/69 4/16/6 69/100/70
f 70/101/71 7/19/9 71/102/72
f 72/103/73 10/22/12 73/104/74
f 74/105/75 75/106/76 76/107/77
f 67/108/68 77/109/78 78/110/79
f 78/110/79 79/111/80 80/112/81
f 81/113/82 80/112/81 82/114/83
f 71/102/72 22/35/24 83/115/84
f 84/116/85 85/117/86 79/111/80
f 69/118/70 26/39/28 65/96/66
f 86/119/87 27/41/29 68/99/69
f 83/120/84 29/43/31 74/105/75
f 87/121/88 30/45/32 72/103/73
f 88/122/89 89/123/90 90/124/91
f 71/102/72 66/97/67 70/101/71
f 91/125/92 92/126/93 93/127/94
f 68/99/69 88/122/89 86/119/87
f 39/54/41 94/128/95 40/55/42
f 67/98/68 69/118/70 65/96/66
f 90/129/91 78/110/79 80/112/81
f 83/115/84 95/130/96 71/102/72
f 96/131/97 95/130/96 97/132/98
f 76/107/77 83/120/84 74/105/75
f 77/109/78 84/116/85 79/111/80
f 96/133/97 76/107/77 84/134/85
f 66/97/67 96/131/97 77/135/78
f 89/136/90 67/108/68 78/110/79
f 89/123/90 98/137/99 99/138/100
f 47/65/49 100/139/101 39/66/41
f 69/100/70 98/137/99 68/99/69
f 93/127/94 101/140/102 102/141/103
f 102/142/103 82/114/83 85/117/86
f 103/143/104 104/144/105 105/145/106
f 73/104/74 104/144/105 72/103/73
f 72/103/73 92/126/93 87/121/88
f 103/146/104 106/147/107 81/113/82
f 101/148/102 81/113/82 82/114/83
f 107/149/108 108/150/109 109/151/110
f 110/152/111 102/142/103 85/117/86
f 100/153/101 107/149/108 94/128/95
f 109/154/110 93/127/94 102/141/103
f 93/127/94 100/139/101 91/125/92
f 106/155/107 73/156/74 111/157/112
f 94/128/95 75/106/76 112/158/113
f 61/87/62 91/125/92 47/65/49
f 75/106/76 109/151/110 110/159/111
f 79/111/80 82/114/83 80/112/81
f 63/91/63 111/157/112 64/92/64
f 92/126/93 103/143/104 101/140/102
f 106/147/107 90/129/91 81/113/82
f 111/157/112 88/122/89 106/155/107
f 76/107/77 110/159/111 84/134/85
f 73/156/74 64/92/64 111/157/112
f 40/55/42 112/158/113 60/95/65
f 1/13/3 8/20/10 2/14/4
f 4/16/6 27/41/29 5/17/7
f 7/19/9 62/160/114 8/20/10
f 10/22/12 30/45/32 11/23/13
f 13/25/15 59/86/61 14/26/16
f 16/28/18 1/161/3 3/29/5
f 18/31/20 16/28/18 17/30/19
f 19/32/21 41/56/43 20/33/22
f 22/35/24 7/19/9 9/21/11
f 24/37/26 57/79/59 25/38/27
f 26/39/28 4/162/6 6/40/8
f 27/41/29 63/91/63 28/42/30
f 29/43/31 22/163/24 23/44/25
f 30/45/32 61/87/62 31/46/33
f 32/47/34 41/164/43 33/48/35
f 1/13/3 42/57/44 9/21/11
f 35/50/37 31/46/33 36/51/38
f 32/47/34 34/49/36 5/17/7
f 38/53/40 46/80/48 39/54/41
f 6/40/8 45/165/47 3/15/5
f 17/30/19 33/62/35 41/56/43
f 23/36/25 9/21/11 42/57/44
f 23/44/25 43/166/45 15/27/17
f 25/38/27 44/61/46 16/28/18
f 15/60/17 43/167/45 44/61/46
f 1/13/3 16/168/18 44/59/46
f 3/29/5 45/169/47 33/62/35
f 46/64/48 36/51/38 47/65/49
f 5/17/7 34/49/36 45/63/47
f 48/67/50 35/50/37 37/52/39
f 21/34/23 48/75/50 49/69/51
f 11/23/13 52/94/54 51/73/53
f 35/50/37 52/94/54 11/23/13
f 53/74/55 51/71/53 50/70/52
f 20/33/22 50/70/52 48/75/50
f 49/69/51 55/89/57 57/79/59
f 46/80/48 38/53/40 54/81/56
f 37/52/39 56/78/58 55/77/57
f 46/64/48 56/78/58 37/52/39
f 12/83/14 51/170/53 53/84/55
f 13/25/15 54/81/56 38/53/40
f 36/51/38 31/46/33 61/87/62
f 13/88/15 57/79/59 55/89/57
f 21/34/23 24/37/26 18/31/20
f 58/85/60 28/42/30 63/91/63
f 35/171/37 48/75/50 50/70/52
f 41/56/43 32/172/34 53/74/55
f 32/47/34 28/42/30 58/85/60
f 57/79/59 13/88/15 15/60/17
f 64/92/64 10/173/12 12/83/14
f 59/86/61 38/53/40 40/55/42
f 65/96/66 70/101/71 66/97/67
f 68/99/69 27/41/29 4/16/6
f 70/101/71 62/160/114 7/19/9
f 72/103/73 30/45/32 10/22/12
f 74/105/75 112/158/113 75/106/76
f 67/108/68 66/174/67 77/109/78
f 78/110/79 77/109/78 79/111/80
f 81/113/82 90/129/91 80/112/81
f 71/102/72 7/19/9 22/35/24
f 84/116/85 110/152/111 85/117/86
f 69/118/70 4/162/6 26/39/28
f 86/119/87 63/91/63 27/41/29
f 83/120/84 22/163/24 29/43/31
f 87/121/88 61/87/62 30/45/32
f 88/122/89 98/137/99 89/123/90
f 71/102/72 95/130/96 66/97/67
f 91/125/92 87/121/88 92/126/93
f 68/99/69 98/137/99 88/122/89
f 39/54/41 100/153/101 94/128/95
f 67/98/68 99/175/100 69/118/70
f 90/129/91 89/136/90 78/110/79
f 83/115/84 97/132/98 95/130/96
f 76/107/77 97/176/98 83/120/84
f 77/109/78 96/177/97 84/116/85
f 96/133/97 97/176/98 76/107/77
f 66/97/67 95/130/96 96/131/97
f 89/136/90 99/178/100 67/108/68
f 47/65/49 91/125/92 100/139/101
f 69/100/70 99/138/100 98/137/99
f 93/127/94 92/126/93 101/140/102
f 102/142/103 101/148/102 82/114/83
f 73/104/74 105/145/106 104/144/105
f 72/103/73 104/144/105 92/126/93
f 103/146/104 105/179/106 106/147/107
f 101/148/102 103/146/104 81/113/82
f 110/152/111 109/180/110 102/142/103
f 100/153/101 108/150/109 107/149/108
f 109/154/110 108/181/109 93/127/94
f 93/127/94 108/181/109 100/139/101
f 106/155/107 105/182/106 73/156/74
f 94/128/95 107/149/108 75/106/76
f 61/87/62 87/121/88 91/125/92
f 75/106/76 107/149/108 109/151/110
f 79/111/80 85/117/86 82/114/83
f 63/91/63 86/119/87 111/157/112
f 92/126/93 104/144/105 103/143/104
f 106/147/107 88/183/89 90/129/91
f 111/157/112 86/119/87 88/122/89
f 76/107/77 75/106/76 110/159/111
f 73/156/74 10/173/12 64/92/64
f 40/55/42 94/128/95 112/158/113
