<?xml version="1.0" encoding="UTF-8"?>
<svg width="125.67" height="135.7" version="1.1" viewBox="-.9 -.9 1.5081 1.6284" xmlns="http://www.w3.org/2000/svg">
<g transform="translate(-.14595 -.13266)" stroke="#000" stroke-linejoin="round" stroke-width=".1">
<polygon points="6.3109e-17 -0.021725 -0.70405 -0.41273 -4.9165e-17 -0.71734 0.70405 -0.41273"/>
<polygon points="0.62948 0.36901 5.5589e-17 0.81107 6.3109e-17 -0.021725 0.70405 -0.41273"/>
<polygon points="5.5589e-17 0.81107 -0.62948 0.36901 -0.70405 -0.41273 6.3109e-17 -0.021725"/>
</g>
<g transform="translate(-.14595 -.13266)" stroke="#000" stroke-linejoin="round" stroke-opacity=".5" stroke-width="0">
<polygon points="-1.698e-17 -0.57124 -0.19599 -0.66277 -4.944e-17 -0.74757 0.19599 -0.66277" fill="#ebeb00"/>
<polygon points="0.24823 -0.45589 0.036018 -0.55501 0.23201 -0.64655 0.44357 -0.55501" fill="#01f"/>
<polygon points="0.51778 -0.33064 0.28724 -0.43832 0.48258 -0.53743 0.71167 -0.43832" fill="#f00"/>
<polygon points="-0.24823 -0.45589 -0.44357 -0.55501 -0.23201 -0.64655 -0.036018 -0.55501" fill="#f00"/>
<polygon points="1.3126e-17 -0.33064 -0.21221 -0.43832 -1.1907e-17 -0.53743 0.21221 -0.43832" fill="#f00"/>
<polygon points="0.27051 -0.19414 0.03914 -0.31154 0.25135 -0.41921 0.4819 -0.31154" fill="#30db3c"/>
<polygon points="-0.51778 -0.33064 -0.71167 -0.43832 -0.48258 -0.53743 -0.28724 -0.43832" fill="#fff"/>
<polygon points="-0.27051 -0.19414 -0.4819 -0.31154 -0.25135 -0.41921 -0.03914 -0.31154" fill="#01f"/>
<polygon points="6.3252e-17 -0.044808 -0.23137 -0.1733 1.922e-17 -0.2907 0.23137 -0.1733" fill="#ebeb00"/>
<polygon points="0.24139 0.12673 0.019572 0.26172 0.019572 -0.010963 0.25094 -0.13946" fill="#30db3c"/>
<polygon points="0.48318 -0.019324 0.27976 0.10447 0.28931 -0.16172 0.50069 -0.27911" fill="#f00"/>
<polygon points="0.70556 -0.15367 0.51835 -0.039735 0.53586 -0.29952 0.72975 -0.4072" fill="#fff"/>
<polygon points="0.23182 0.41749 0.018796 0.55753 0.018796 0.3074 0.24062 0.17241" fill="#fff"/>
<polygon points="0.46472 0.26535 0.26869 0.39421 0.27748 0.14913 0.4809 0.02534" fill="#30db3c"/>
<polygon points="0.67963 0.12496 0.49864 0.24393 0.51482 0.0039203 0.70204 -0.11001" fill="#ebeb00"/>
<polygon points="0.22298 0.68593 0.01808 0.82983 0.01808 0.59957 0.23111 0.45954" fill="#f80"/>
<polygon points="0.44763 0.52902 0.25847 0.66186 0.26659 0.43546 0.46262 0.3066" fill="#30db3c"/>
<polygon points="0.65553 0.38379 0.48038 0.5068 0.49537 0.28438 0.67636 0.16541" fill="#f80"/>
<polygon points="-0.51893 -0.039183 -0.70615 -0.15312 -0.73034 -0.40665 -0.53645 -0.29897" fill="#01f"/>
<polygon points="-0.28046 0.10503 -0.48388 -0.01876 -0.50139 -0.27855 -0.29001 -0.16115" fill="#ebeb00"/>
<polygon points="-0.020415 0.26229 -0.24223 0.1273 -0.25178 -0.13888 -0.020415 -0.01039" fill="#f00"/>
<polygon points="-0.49919 0.24438 -0.68018 0.12541 -0.70259 -0.10957 -0.51537 0.0043649" fill="#f80"/>
<polygon points="-0.26934 0.39466 -0.46537 0.2658 -0.48156 0.025787 -0.27814 0.14958" fill="#fff"/>
<polygon points="-0.019572 0.55797 -0.2326 0.41794 -0.24139 0.17286 -0.019572 0.30785" fill="#f00"/>
<polygon points="-0.48089 0.50715 -0.65604 0.38415 -0.67687 0.16577 -0.49589 0.28474" fill="#f80"/>
<polygon points="-0.25908 0.66221 -0.44823 0.52937 -0.46323 0.30696 -0.2672 0.43581" fill="#30db3c"/>
<polygon points="-0.018796 0.83017 -0.2237 0.68627 -0.23182 0.45988 -0.018796 0.59991" fill="#01f"/>
</g>
</svg>
