# Blender v2.93.2 OBJ File: 'cubeTexture.blend'
# www.blender.org
mtllib piece6.mtl
o Rubiks_Cube_Cube.006_Rubiks_Cube_Cube.002
v -3.000000 2.897455 2.898658
v -3.000000 1.100142 1.101342
v -3.000000 1.100142 2.898658
v -1.101342 1.100142 3.000000
v -2.898659 2.897455 3.000000
v -2.898658 1.100142 3.000000
v -1.101342 2.998799 1.101342
v -2.898659 2.998799 2.898658
v -1.101342 2.998799 2.898658
v -2.898659 2.897455 1.000000
v -1.101342 1.100142 1.000000
v -2.898658 1.100142 1.000000
v -1.000000 2.897457 1.101342
v -1.000000 1.100142 2.898658
v -1.000000 1.100142 1.101342
v -2.949262 1.012338 1.101342
v -2.898658 1.012338 1.050738
v -2.898658 0.998799 1.101342
v -2.986461 1.049536 1.101342
v -2.947121 1.025490 1.052879
v -2.986461 1.100142 1.050738
v -2.947121 1.051679 1.026690
v -2.973310 1.051679 1.052879
v -2.898658 1.049536 1.013539
v -2.949262 1.100142 1.013539
v -2.986461 2.948061 1.101342
v -2.986461 2.897455 1.050738
v -3.000000 2.897455 1.101342
v -2.947121 2.972109 1.052879
v -2.973310 2.945920 1.052879
v -2.898659 2.985260 1.050738
v -2.949262 2.985260 1.101342
v -2.898659 2.998799 1.101342
v -2.947121 2.945920 1.026690
v -2.949262 2.897455 1.013539
v -2.898659 2.948061 1.013539
v -1.101342 1.012338 1.050738
v -1.050738 1.012338 1.101342
v -1.101342 0.998799 1.101342
v -1.101342 1.049537 1.013539
v -1.052879 1.025490 1.052879
v -1.050738 1.100142 1.013539
v -1.026690 1.051679 1.052879
v -1.052879 1.051679 1.026690
v -1.013539 1.049537 1.101342
v -1.013539 1.100142 1.050738
v -1.050738 2.985260 1.101342
v -1.101342 2.985260 1.050738
v -1.013539 2.948061 1.101342
v -1.052879 2.972109 1.052879
v -1.013539 2.897457 1.050738
v -1.050738 2.897457 1.013539
v -1.026690 2.945920 1.052879
v -1.101342 2.948061 1.013539
v -1.101342 2.897457 1.000000
v -1.052879 2.945920 1.026690
v -2.898658 1.012338 2.949262
v -2.949262 1.012338 2.898658
v -2.898658 0.998799 2.898658
v -2.898658 1.049536 2.986461
v -2.947121 1.025490 2.947121
v -2.949262 1.100142 2.986461
v -2.986461 1.100142 2.949262
v -2.947121 1.051679 2.973310
v -2.986461 1.049536 2.898658
v -2.973310 1.051679 2.947121
v -2.949262 2.985260 2.898658
v -2.898659 2.985260 2.949262
v -2.973310 2.945920 2.947121
v -2.947121 2.972109 2.947121
v -2.986461 2.897455 2.949262
v -2.986461 2.948061 2.898658
v -2.949262 2.897455 2.986461
v -2.898659 2.948061 2.986461
v -2.947121 2.945920 2.973310
v -1.050738 1.012338 2.898658
v -1.101342 1.012338 2.949262
v -1.101342 0.998799 2.898658
v -1.013539 1.049537 2.898658
v -1.052879 1.025490 2.947121
v -1.013539 1.100142 2.949262
v -1.050738 1.100142 2.986461
v -1.026690 1.051679 2.947121
v -1.101342 1.049537 2.986461
v -1.052879 1.051679 2.973310
v -1.101342 2.985260 2.949262
v -1.050738 2.985260 2.898658
v -1.052879 2.945920 2.973310
v -1.052879 2.972109 2.947121
v -1.050738 2.897457 2.986461
v -1.101342 2.948061 2.986461
v -1.101342 2.897457 3.000000
v -1.013539 2.897457 2.949262
v -1.013539 2.948061 2.898658
v -1.000000 2.897457 2.898658
v -1.026690 2.945920 2.947121
vt 1.000000 0.666667
vt 0.888889 0.555556
vt 1.000000 0.555556
vt 0.444444 0.888889
vt 0.333333 1.000000
vt 0.333333 0.888889
vt 0.111111 0.777778
vt 0.000000 0.666667
vt 0.111111 0.666667
vt 0.205556 0.125694
vt 0.126389 0.047222
vt 0.205556 0.047222
vt 0.126389 0.211111
vt 0.204861 0.131944
vt 0.204861 0.209722
vt 0.122917 0.126389
vt 0.120833 0.128472
vt 0.120833 0.126389
vt 0.124306 0.126389
vt 0.122917 0.128472
vt 0.119444 0.131944
vt 0.122222 0.134028
vt 0.120139 0.134028
vt 0.209028 0.047222
vt 0.207639 0.045139
vt 0.208333 0.045139
vt 0.205556 0.045139
vt 0.207639 0.047222
vt 0.207639 0.043750
vt 0.041667 0.134028
vt 0.043750 0.131944
vt 0.043750 0.134028
vt 0.040278 0.131944
vt 0.041667 0.131944
vt 0.288889 0.131250
vt 0.290972 0.134028
vt 0.288889 0.134028
vt 0.205556 0.129861
vt 0.207639 0.128472
vt 0.207639 0.129167
vt 0.207639 0.125694
vt 0.205556 0.128472
vt 0.043056 0.130556
vt 0.040972 0.131250
vt 0.041667 0.128472
vt 0.039583 0.126389
vt 0.041667 0.126389
vt 0.041667 0.130556
vt 0.039583 0.128472
vt 0.124306 0.047222
vt 0.126389 0.045139
vt 0.204861 0.213889
vt 0.206944 0.212500
vt 0.206944 0.213194
vt 0.206944 0.210417
vt 0.204861 0.212500
vt 0.208333 0.212500
vt 0.210417 0.134028
vt 0.212500 0.131250
vt 0.213194 0.134028
vt 0.208333 0.134028
vt 0.210417 0.131250
vt 0.126389 0.213889
vt 0.124306 0.211111
vt 0.127083 0.215278
vt 0.124306 0.213889
vt 0.126389 0.128472
vt 0.124306 0.125694
vt 0.126389 0.125694
vt 0.210417 0.130556
vt 0.212500 0.129861
vt 0.209028 0.131250
vt 0.120833 0.045833
vt 0.122917 0.047917
vt 0.120833 0.047917
vt 0.120833 0.043750
vt 0.122917 0.045833
vt 0.124306 0.219444
vt 0.126389 0.217361
vt 0.126389 0.219444
vt 0.119444 0.215278
vt 0.121528 0.215972
vt 0.119444 0.216667
vt 0.122222 0.213194
vt 0.120139 0.213194
vt 0.124306 0.047917
vt 0.123611 0.045833
vt 0.122917 0.044444
vt 0.290972 0.212500
vt 0.288889 0.214583
vt 0.288889 0.212500
vt 0.039583 0.213194
vt 0.041667 0.215278
vt 0.040278 0.215278
vt 0.043750 0.215278
vt 0.041667 0.213194
vt 0.043750 0.213194
vt 0.043056 0.216667
vt 0.126389 0.300000
vt 0.124306 0.297917
vt 0.126389 0.297917
vt 0.290278 0.215972
vt 0.288194 0.215972
vt 0.040972 0.215972
vt 0.039583 0.047917
vt 0.041667 0.045833
vt 0.041667 0.047917
vt 0.206944 0.131944
vt 0.208333 0.129861
vt 0.208333 0.131944
vt 0.204861 0.129861
vt 0.204861 0.219444
vt 0.206250 0.217361
vt 0.206944 0.219444
vt 0.202778 0.217361
vt 0.202083 0.219444
vt 0.204861 0.215972
vt 0.204861 0.217361
vt 0.212500 0.214583
vt 0.210417 0.212500
vt 0.213194 0.212500
vt 0.202778 0.302083
vt 0.204861 0.300000
vt 0.204861 0.301389
vt 0.204861 0.297917
vt 0.202778 0.300000
vt 0.202083 0.297917
vt 0.206944 0.297917
vt 0.124306 0.133333
vt 0.126389 0.131250
vt 0.126389 0.133333
vt 0.209028 0.214583
vt 0.208333 0.212500
vt 0.206250 0.300000
vt 0.209028 0.125694
vt 0.126389 0.129861
vt 0.208333 0.210417
vt 0.127083 0.302083
vt 0.039583 0.134028
vt 0.888889 0.666667
vt 0.444444 1.000000
vt -0.000000 0.777778
vt 0.123611 0.128472
vt 0.121528 0.131944
vt 0.120833 0.130556
vt 0.290972 0.131250
vt 0.039583 0.129861
vt 0.124306 0.045139
vt 0.125000 0.214583
vt 0.124306 0.128472
vt 0.124306 0.217361
vt 0.121528 0.215278
vt 0.290972 0.214583
vt 0.124306 0.300000
vt 0.039583 0.045833
vt 0.206944 0.129861
vt 0.202778 0.215278
vt 0.210417 0.214583
vt 0.124306 0.131250
vt 0.041667 0.043750
vn -0.9835 0.1280 0.1280
vn -0.9835 -0.1280 -0.1280
vn -0.9835 -0.1280 0.1280
vn 0.1280 -0.1280 0.9835
vn -0.1280 0.1280 0.9835
vn -0.1280 -0.1280 0.9835
vn 0.1280 0.9835 -0.1280
vn -0.1280 0.9835 0.1280
vn 0.1280 0.9835 0.1280
vn -0.1280 0.1280 -0.9835
vn 0.1280 -0.1280 -0.9835
vn -0.1280 -0.1280 -0.9835
vn 0.9835 0.1280 -0.1280
vn 0.9835 -0.1280 0.1280
vn 0.9835 -0.1280 -0.1280
vn -0.4916 -0.8623 -0.1216
vn -0.1216 -0.8623 -0.4916
vn -0.1280 -0.9835 -0.1280
vn -0.8623 -0.4916 -0.1216
vn -0.4488 -0.7727 -0.4488
vn -0.8623 -0.1216 -0.4916
vn -0.4489 -0.4488 -0.7727
vn -0.7727 -0.4488 -0.4489
vn -0.1216 -0.4916 -0.8623
vn -0.4916 -0.1216 -0.8623
vn -0.8623 0.4916 -0.1216
vn -0.8623 0.1216 -0.4916
vn -0.9835 0.1280 -0.1280
vn -0.4488 0.7727 -0.4488
vn -0.7727 0.4488 -0.4488
vn -0.1216 0.8623 -0.4916
vn -0.4916 0.8623 -0.1216
vn -0.1280 0.9835 -0.1280
vn -0.4488 0.4488 -0.7727
vn -0.4916 0.1216 -0.8623
vn -0.1216 0.4916 -0.8623
vn 0.1216 -0.8623 -0.4916
vn 0.4916 -0.8623 -0.1216
vn 0.1280 -0.9835 -0.1280
vn 0.1216 -0.4916 -0.8623
vn 0.4488 -0.7727 -0.4488
vn 0.4916 -0.1216 -0.8623
vn 0.7727 -0.4488 -0.4488
vn 0.4488 -0.4488 -0.7727
vn 0.8623 -0.4916 -0.1216
vn 0.8623 -0.1216 -0.4916
vn 0.4916 0.8623 -0.1216
vn 0.1216 0.8623 -0.4916
vn 0.8623 0.4916 -0.1216
vn 0.4488 0.7727 -0.4488
vn 0.8623 0.1216 -0.4916
vn 0.4916 0.1216 -0.8623
vn 0.7727 0.4488 -0.4488
vn 0.1216 0.4916 -0.8623
vn 0.1280 0.1280 -0.9835
vn 0.4488 0.4488 -0.7727
vn -0.1216 -0.8623 0.4916
vn -0.4916 -0.8623 0.1216
vn -0.1280 -0.9835 0.1280
vn -0.1216 -0.4916 0.8623
vn -0.4488 -0.7727 0.4488
vn -0.4916 -0.1216 0.8623
vn -0.8623 -0.1216 0.4916
vn -0.4489 -0.4488 0.7727
vn -0.8623 -0.4916 0.1216
vn -0.7727 -0.4488 0.4489
vn -0.4916 0.8623 0.1216
vn -0.1216 0.8623 0.4916
vn -0.7727 0.4488 0.4488
vn -0.4488 0.7727 0.4488
vn -0.8623 0.1216 0.4916
vn -0.8623 0.4916 0.1216
vn -0.4916 0.1216 0.8623
vn -0.1216 0.4916 0.8623
vn -0.4488 0.4488 0.7727
vn 0.4916 -0.8623 0.1216
vn 0.1216 -0.8623 0.4916
vn 0.1280 -0.9835 0.1280
vn 0.8623 -0.4916 0.1216
vn 0.4488 -0.7727 0.4488
vn 0.8623 -0.1216 0.4916
vn 0.4916 -0.1216 0.8623
vn 0.7727 -0.4488 0.4488
vn 0.1216 -0.4916 0.8623
vn 0.4488 -0.4488 0.7727
vn 0.1216 0.8623 0.4916
vn 0.4916 0.8623 0.1216
vn 0.4488 0.4488 0.7727
vn 0.4488 0.7727 0.4488
vn 0.4916 0.1216 0.8623
vn 0.1216 0.4916 0.8623
vn 0.1280 0.1280 0.9835
vn 0.8623 0.1216 0.4916
vn 0.8623 0.4916 0.1216
vn 0.9835 0.1280 0.1280
vn 0.7727 0.4488 0.4488
usemtl CubeCustomText
s 1
f 1/1/1 2/2/2 3/3/3
f 4/4/4 5/5/5 6/6/6
f 7/7/7 8/8/8 9/9/9
f 10/10/10 11/11/11 12/12/12
f 13/13/13 14/14/14 15/15/15
f 16/16/16 17/17/17 18/18/18
f 19/19/19 20/20/20 16/16/16
f 21/21/21 19/22/19 2/23/2
f 21/24/21 22/25/22 23/26/23
f 24/27/24 25/28/25 12/12/12
f 24/27/24 20/29/20 22/25/22
f 20/29/20 23/26/23 22/25/22
f 26/30/26 27/31/27 28/32/28
f 26/30/26 29/33/29 30/34/30
f 31/35/31 32/36/32 33/37/33
f 31/38/31 34/39/34 29/40/29
f 35/41/35 36/42/36 10/10/10
f 35/43/35 30/34/30 34/44/34
f 30/34/30 29/33/29 34/44/34
f 37/45/37 38/46/38 39/47/39
f 40/48/40 41/49/41 37/45/37
f 42/50/42 40/51/40 11/11/11
f 42/52/42 43/53/43 44/54/44
f 45/55/45 46/56/46 15/15/15
f 45/55/45 41/57/41 43/53/43
f 41/57/41 44/54/44 43/53/43
f 47/58/47 48/59/48 7/60/7
f 49/61/49 50/62/50 47/58/47
f 51/63/51 49/64/49 13/13/13
f 52/65/52 53/66/53 51/63/51
f 54/67/54 52/68/52 55/69/55
f 48/59/48 56/70/56 54/71/54
f 50/62/50 53/72/53 56/70/56
f 57/73/57 58/74/58 59/75/59
f 60/76/60 61/77/61 57/73/57
f 62/78/62 60/79/60 6/80/6
f 63/81/63 64/82/64 62/83/62
f 65/84/65 63/81/63 3/85/3
f 65/86/65 61/77/61 66/87/66
f 61/77/61 64/88/64 66/87/66
f 67/89/67 68/90/68 8/91/8
f 67/92/67 69/93/69 70/94/70
f 71/95/71 72/96/72 1/97/1
f 73/98/73 69/93/69 71/95/71
f 74/99/74 73/100/73 5/101/5
f 68/90/68 75/102/75 74/103/74
f 70/94/70 69/93/69 75/104/75
f 76/105/76 77/106/77 78/107/78
f 79/108/79 80/109/80 76/110/76
f 81/111/81 79/108/79 14/14/14
f 82/112/82 83/113/83 81/114/81
f 84/115/84 82/112/82 4/116/4
f 84/115/84 80/117/80 85/118/85
f 80/117/80 83/113/83 85/118/85
f 86/119/86 87/120/87 9/121/9
f 86/122/86 88/123/88 89/124/89
f 90/125/90 91/126/91 92/127/92
f 93/128/93 88/123/88 90/125/90
f 94/129/94 93/130/93 95/131/95
f 87/120/87 96/132/96 94/133/94
f 89/124/89 88/123/88 96/134/96
f 18/18/18 37/45/37 39/47/39
f 17/17/17 40/48/40 37/45/37
f 24/27/24 11/11/11 40/51/40
f 28/32/28 21/21/21 2/23/2
f 27/135/27 25/28/25 21/24/21
f 35/41/35 12/12/12 25/28/25
f 7/60/7 31/35/31 33/37/33
f 48/136/48 36/42/36 31/38/31
f 54/67/54 10/10/10 36/42/36
f 15/15/15 51/63/51 13/13/13
f 46/56/46 52/65/52 51/63/51
f 42/50/42 55/69/55 52/68/52
f 39/47/39 76/105/76 78/107/78
f 38/137/38 79/108/79 76/110/76
f 45/55/45 14/14/14 79/108/79
f 9/121/9 47/58/47 7/60/7
f 87/120/87 49/61/49 47/58/47
f 94/129/94 13/13/13 49/64/49
f 4/116/4 90/125/90 92/127/92
f 82/112/82 93/128/93 90/125/90
f 81/111/81 95/131/95 93/130/93
f 78/107/78 57/73/57 59/75/59
f 77/106/77 60/76/60 57/73/57
f 84/115/84 6/80/6 60/79/60
f 8/91/8 86/119/86 9/121/9
f 68/138/68 91/126/91 86/122/86
f 74/99/74 92/127/92 91/126/91
f 3/85/3 71/95/71 1/97/1
f 63/81/63 73/98/73 71/95/71
f 62/78/62 5/101/5 73/100/73
f 59/75/59 16/16/16 18/18/18
f 58/74/58 19/19/19 16/16/16
f 65/84/65 2/23/2 19/22/19
f 33/37/33 67/89/67 8/91/8
f 32/139/32 72/96/72 67/92/67
f 26/30/26 1/97/1 72/96/72
f 78/107/78 18/18/18 39/47/39
f 1/1/1 28/140/28 2/2/2
f 4/4/4 92/141/92 5/5/5
f 7/7/7 33/142/33 8/8/8
f 10/10/10 55/69/55 11/11/11
f 13/13/13 95/131/95 14/14/14
f 16/16/16 20/20/20 17/17/17
f 19/19/19 23/143/23 20/20/20
f 21/21/21 23/144/23 19/22/19
f 21/24/21 25/28/25 22/25/22
f 24/27/24 22/25/22 25/28/25
f 24/145/24 17/17/17 20/20/20
f 26/30/26 30/34/30 27/31/27
f 26/30/26 32/139/32 29/33/29
f 31/35/31 29/146/29 32/36/32
f 31/38/31 36/42/36 34/39/34
f 35/41/35 34/39/34 36/42/36
f 35/43/35 27/31/27 30/34/30
f 37/45/37 41/49/41 38/46/38
f 40/48/40 44/147/44 41/49/41
f 42/50/42 44/148/44 40/51/40
f 42/52/42 46/56/46 43/53/43
f 45/55/45 43/53/43 46/56/46
f 45/55/45 38/137/38 41/57/41
f 47/58/47 50/62/50 48/59/48
f 49/61/49 53/72/53 50/62/50
f 51/63/51 53/66/53 49/64/49
f 52/65/52 56/149/56 53/66/53
f 54/67/54 56/150/56 52/68/52
f 48/59/48 50/62/50 56/70/56
f 57/73/57 61/77/61 58/74/58
f 60/76/60 64/88/64 61/77/61
f 62/78/62 64/151/64 60/79/60
f 63/81/63 66/152/66 64/82/64
f 65/84/65 66/152/66 63/81/63
f 65/86/65 58/74/58 61/77/61
f 67/89/67 70/153/70 68/90/68
f 67/92/67 72/96/72 69/93/69
f 71/95/71 69/93/69 72/96/72
f 73/98/73 75/104/75 69/93/69
f 74/99/74 75/154/75 73/100/73
f 68/90/68 70/153/70 75/102/75
f 76/105/76 80/155/80 77/106/77
f 79/108/79 83/156/83 80/109/80
f 81/111/81 83/156/83 79/108/79
f 82/112/82 85/118/85 83/113/83
f 84/115/84 85/118/85 82/112/82
f 84/115/84 77/157/77 80/117/80
f 86/119/86 89/158/89 87/120/87
f 86/122/86 91/126/91 88/123/88
f 90/125/90 88/123/88 91/126/91
f 93/128/93 96/134/96 88/123/88
f 94/129/94 96/159/96 93/130/93
f 87/120/87 89/158/89 96/132/96
f 18/18/18 17/17/17 37/45/37
f 17/17/17 24/145/24 40/48/40
f 24/27/24 12/12/12 11/11/11
f 28/32/28 27/31/27 21/21/21
f 27/135/27 35/41/35 25/28/25
f 35/41/35 10/10/10 12/12/12
f 7/60/7 48/59/48 31/35/31
f 48/136/48 54/67/54 36/42/36
f 54/67/54 55/69/55 10/10/10
f 15/15/15 46/56/46 51/63/51
f 46/56/46 42/52/42 52/65/52
f 42/50/42 11/11/11 55/69/55
f 39/47/39 38/46/38 76/105/76
f 38/137/38 45/55/45 79/108/79
f 45/55/45 15/15/15 14/14/14
f 9/121/9 87/120/87 47/58/47
f 87/120/87 94/133/94 49/61/49
f 94/129/94 95/131/95 13/13/13
f 4/116/4 82/112/82 90/125/90
f 82/112/82 81/114/81 93/128/93
f 81/111/81 14/14/14 95/131/95
f 78/107/78 77/106/77 57/73/57
f 77/106/77 84/160/84 60/76/60
f 84/115/84 4/116/4 6/80/6
f 8/91/8 68/90/68 86/119/86
f 68/138/68 74/99/74 91/126/91
f 74/99/74 5/101/5 92/127/92
f 3/85/3 63/81/63 71/95/71
f 63/81/63 62/83/62 73/98/73
f 62/78/62 6/80/6 5/101/5
f 59/75/59 58/74/58 16/16/16
f 58/74/58 65/86/65 19/19/19
f 65/84/65 3/85/3 2/23/2
f 33/37/33 32/36/32 67/89/67
f 32/139/32 26/30/26 72/96/72
f 26/30/26 28/32/28 1/97/1
f 78/107/78 59/75/59 18/18/18
