# Blender v2.93.2 OBJ File: 'cubeTexture.blend'
# www.blender.org
mtllib piece16.mtl
o Rubiks_Cube_Cube.016_Rubiks_Cube_Cube.013
v 1.101342 0.897260 3.000000
v 2.898658 0.947865 2.986461
v 1.101342 0.947865 2.986461
v 1.013539 0.897260 2.949262
v 1.050738 0.000000 2.986461
v 1.050738 0.897260 2.986461
v 2.898658 0.897260 3.000000
v 2.949262 0.000000 2.986461
v 2.949262 0.897260 2.986461
v 1.050738 0.897260 1.013539
v 1.013539 0.000000 1.050738
v 1.013539 0.897260 1.050738
v 3.000000 0.897260 2.898658
v 2.986461 0.947865 1.101342
v 2.986461 0.947865 2.898658
v 1.101342 0.985064 2.949262
v 2.898658 0.985065 2.949262
v 2.898658 0.998603 2.898658
v 1.101342 0.998603 2.898658
v 1.050738 0.985064 1.101342
v 1.101342 0.998603 1.101342
v 2.986461 0.000000 2.949262
v 2.986461 0.897260 2.949262
v 2.949262 0.985065 2.898658
v 2.898658 0.998603 1.101342
v 1.101342 0.000000 3.000000
v 1.000000 0.897260 2.898658
v 1.013539 0.000000 2.949262
v 3.000000 0.000000 2.898658
v 1.101342 0.897260 1.000000
v 1.050738 0.000000 1.013539
v 1.013539 0.947865 2.898658
v 1.052879 0.971912 2.947121
v 1.050738 0.985064 2.898658
v 2.898658 0.897260 1.000000
v 1.101342 0.947865 1.013539
v 2.898658 0.947865 1.013539
v 2.949262 0.000000 1.013539
v 2.986461 0.897260 1.050738
v 2.986461 0.000000 1.050738
v 2.947121 0.945723 2.973310
v 2.947121 0.971913 2.947121
v 2.973310 0.945723 2.947121
v 1.026690 0.945723 2.947121
v 1.052879 0.945723 2.973310
v 2.898658 0.000000 1.000000
v 2.949262 0.897260 1.013539
v 1.101342 0.985064 1.050738
v 2.898658 0.985065 1.050738
v 1.052879 0.971912 1.052879
v 1.052879 0.945723 1.026690
v 1.026690 0.945723 1.052879
v 1.013539 0.947865 1.101342
v 2.973310 0.945723 1.052879
v 2.947121 0.945723 1.026690
v 2.947121 0.971913 1.052879
v 2.949262 0.985065 1.101342
v 1.000000 0.897260 1.101342
v 3.000000 0.897260 1.101342
v 3.000000 0.000000 1.101342
v 1.101342 0.000000 1.000000
v 2.898658 0.000000 3.000000
v 1.000000 0.000000 2.898658
v 1.000000 0.000000 1.101342
v 2.898658 -0.947865 2.986461
v 1.101342 -0.897260 3.000000
v 1.101342 -0.947865 2.986461
v 1.013539 -0.897260 2.949262
v 1.050738 -0.897260 2.986461
v 2.898658 -0.897260 3.000000
v 2.949262 -0.897260 2.986461
v 1.050738 -0.897260 1.013539
v 1.013539 -0.897260 1.050738
v 2.986461 -0.947865 1.101342
v 3.000000 -0.897260 2.898658
v 2.986461 -0.947865 2.898658
v 2.898658 -0.985064 2.949262
v 1.101342 -0.985064 2.949262
v 2.898658 -0.998603 2.898658
v 1.101342 -0.998603 2.898658
v 1.050738 -0.985064 1.101342
v 1.101342 -0.998603 1.101342
v 2.986461 -0.897260 2.949262
v 2.898658 -0.998603 1.101342
v 2.949262 -0.985064 2.898658
v 1.000000 -0.897260 2.898658
v 1.101342 -0.897260 1.000000
v 1.013539 -0.947865 2.898658
v 1.052879 -0.971912 2.947121
v 1.026690 -0.945723 2.947121
v 1.101342 -0.947865 1.013539
v 2.898658 -0.897260 1.000000
v 2.898658 -0.947865 1.013539
v 2.986461 -0.897260 1.050738
v 1.050738 -0.985064 2.898658
v 2.947121 -0.945723 2.973310
v 2.973310 -0.945723 2.947121
v 2.947121 -0.971912 2.947121
v 1.052879 -0.945723 2.973310
v 2.949262 -0.897260 1.013539
v 1.101342 -0.985064 1.050738
v 2.898658 -0.985064 1.050738
v 1.052879 -0.971912 1.052879
v 1.026690 -0.945723 1.052879
v 1.052879 -0.945723 1.026690
v 1.013539 -0.947865 1.101342
v 2.973310 -0.945723 1.052879
v 2.947121 -0.971912 1.052879
v 2.947121 -0.945723 1.026690
v 2.949262 -0.985064 1.101342
v 1.000000 -0.897260 1.101342
v 3.000000 -0.897260 1.101342
vt 0.320833 0.075694
vt 0.227778 0.072917
vt 0.320833 0.072917
vt 0.320139 0.277778
vt 0.322222 0.229167
vt 0.322222 0.277778
vt 0.227778 0.075694
vt 0.225000 0.123611
vt 0.225000 0.075694
vt 0.220139 0.171528
vt 0.222222 0.123611
vt 0.222222 0.171528
vt 0.218056 0.277083
vt 0.220833 0.181250
vt 0.220833 0.277083
vt 0.013194 0.172222
vt 0.011806 0.075694
vt 0.013194 0.075694
vt 0.015972 0.075694
vt 0.015972 0.172222
vt 0.112500 0.174306
vt 0.112500 0.172222
vt 0.222222 0.123611
vt 0.222222 0.075694
vt 0.015972 0.072917
vt 0.112500 0.075694
vt 0.322917 0.075694
vt 0.320833 0.123611
vt 0.317361 0.277778
vt 0.320139 0.229167
vt 0.218056 0.279861
vt 0.170139 0.277778
vt 0.218056 0.171528
vt 0.220139 0.123611
vt 0.317361 0.279861
vt 0.320139 0.281250
vt 0.317361 0.281944
vt 0.121528 0.171528
vt 0.218056 0.174306
vt 0.121528 0.174306
vt 0.170139 0.177083
vt 0.218056 0.178472
vt 0.170139 0.179167
vt 0.015972 0.174306
vt 0.225000 0.072917
vt 0.224306 0.071528
vt 0.222917 0.072917
vt 0.013889 0.072917
vt 0.015972 0.070833
vt 0.227083 0.070833
vt 0.013889 0.174306
vt 0.011806 0.172222
vt 0.320139 0.279861
vt 0.321528 0.279861
vt 0.121528 0.123611
vt 0.118750 0.171528
vt 0.118750 0.123611
vt 0.218056 0.176389
vt 0.121528 0.176389
vt 0.115278 0.075694
vt 0.115278 0.174306
vt 0.116667 0.174306
vt 0.115278 0.175694
vt 0.220139 0.174306
vt 0.112500 0.176389
vt 0.115278 0.172222
vt 0.117361 0.174306
vt 0.118750 0.174306
vt 0.118750 0.175694
vt 0.112500 0.072917
vt 0.217361 0.176389
vt 0.220139 0.178472
vt 0.222917 0.279861
vt 0.220833 0.277778
vt 0.222917 0.277778
vt 0.218056 0.181250
vt 0.777778 0.833333
vt 0.666667 0.888889
vt 0.666667 0.833333
vt 0.218056 0.123611
vt 0.666667 0.833333
vt 0.555556 0.888889
vt 0.555556 0.833333
vt 0.112500 0.070833
vt 0.115278 0.072917
vt 0.317361 0.229167
vt 0.222917 0.229167
vt 0.117361 0.172222
vt 0.170139 0.181944
vt 0.227778 0.174306
vt 0.320833 0.171528
vt 0.320833 0.174306
vt 0.320139 0.181250
vt 0.322222 0.181250
vt 0.227778 0.171528
vt 0.225000 0.171528
vt 0.220139 0.075694
vt 0.222222 0.075694
vt 0.119444 0.182639
vt 0.122222 0.278472
vt 0.119444 0.278472
vt 0.013889 0.178472
vt 0.110417 0.176389
vt 0.110417 0.178472
vt 0.013889 0.181250
vt 0.110417 0.181250
vt 0.113194 0.277778
vt 0.110417 0.277778
vt 0.222222 0.171528
vt 0.013889 0.277778
vt 0.011806 0.181250
vt 0.322917 0.171528
vt 0.317361 0.181250
vt 0.122222 0.281250
vt 0.218056 0.075694
vt 0.317361 0.178472
vt 0.320139 0.177083
vt 0.320139 0.178472
vt 0.218056 0.072917
vt 0.121528 0.075694
vt 0.121528 0.072917
vt 0.122222 0.179861
vt 0.113194 0.181250
vt 0.225000 0.174306
vt 0.222917 0.174306
vt 0.224306 0.175694
vt 0.118056 0.280556
vt 0.117361 0.278472
vt 0.113194 0.178472
vt 0.321528 0.178472
vt 0.118750 0.075694
vt 0.218056 0.070833
vt 0.121528 0.070833
vt 0.013889 0.280556
vt 0.220139 0.071528
vt 0.221528 0.072917
vt 0.220139 0.072917
vt 0.115278 0.277778
vt 0.113194 0.280556
vt 0.110417 0.280556
vt 0.119444 0.179861
vt 0.118056 0.179861
vt 0.119444 0.178472
vt 0.011806 0.277778
vt 0.122222 0.177778
vt 0.118750 0.071528
vt 0.220833 0.181250
vt 0.222917 0.178472
vt 0.222917 0.181250
vt 0.122222 0.182639
vt 0.666667 0.777778
vt 0.555556 0.777778
vt 0.117361 0.182639
vt 0.227778 0.123611
vt 0.322917 0.123611
vt 0.170139 0.280556
vt 0.322917 0.072917
vt 0.220139 0.279861
vt 0.013889 0.071528
vt 0.012500 0.174306
vt 0.221528 0.174306
vt 0.220139 0.177083
vt 0.220833 0.279861
vt 0.777778 0.888889
vt 0.666667 0.888889
vt 0.115278 0.071528
vt 0.220139 0.175694
vt 0.015972 0.176389
vt 0.220833 0.229167
vt 0.013889 0.176389
vt 0.317361 0.176389
vt 0.322917 0.174306
vt 0.119444 0.281250
vt 0.011806 0.178472
vt 0.227083 0.176389
vt 0.113194 0.177083
vt 0.114583 0.280556
vt 0.011806 0.280556
vt 0.118750 0.072917
vt 0.220833 0.178472
vt 0.777778 0.777778
vt 0.666667 0.777778
vt 0.115278 0.181250
vn -0.1280 0.1280 0.9835
vn 0.1216 0.4916 0.8623
vn -0.1216 0.4916 0.8623
vn -0.8623 0.1216 0.4916
vn -0.4998 0.0000 0.8661
vn -0.4916 0.1216 0.8623
vn 0.1280 0.1280 0.9835
vn 0.4998 0.0000 0.8661
vn 0.4916 0.1216 0.8623
vn -0.4916 0.1216 -0.8623
vn -0.8661 -0.0000 -0.4998
vn -0.8623 0.1216 -0.4916
vn 0.9835 0.1280 0.1280
vn 0.8623 0.4916 -0.1216
vn 0.8623 0.4916 0.1216
vn -0.1216 0.8623 0.4916
vn 0.1216 0.8623 0.4916
vn 0.1280 0.9835 0.1280
vn -0.1280 0.9835 0.1280
vn -0.4916 0.8623 -0.1216
vn -0.1280 0.9835 -0.1280
vn 0.8661 0.0000 0.4998
vn 0.8623 0.1216 0.4916
vn 0.4916 0.8623 0.1216
vn 0.1280 0.9835 -0.1280
vn -0.1303 0.0000 0.9915
vn -0.9835 0.1280 0.1280
vn -0.8661 0.0000 0.4998
vn 0.9915 0.0000 0.1303
vn -0.1280 0.1280 -0.9835
vn -0.4998 0.0000 -0.8661
vn -0.8623 0.4916 0.1216
vn -0.4488 0.7727 0.4488
vn -0.4916 0.8623 0.1216
vn 0.1280 0.1280 -0.9835
vn -0.1216 0.4916 -0.8623
vn 0.1216 0.4916 -0.8623
vn 0.4998 0.0000 -0.8661
vn 0.8623 0.1216 -0.4916
vn 0.8661 0.0000 -0.4998
vn 0.4488 0.4488 0.7727
vn 0.4489 0.7727 0.4489
vn 0.7727 0.4488 0.4489
vn -0.7727 0.4488 0.4488
vn -0.4488 0.4488 0.7727
vn 0.1303 0.0000 -0.9915
vn 0.4916 0.1216 -0.8623
vn -0.1216 0.8623 -0.4916
vn 0.1216 0.8623 -0.4916
vn -0.4488 0.7727 -0.4488
vn -0.4488 0.4488 -0.7727
vn -0.7727 0.4488 -0.4488
vn -0.8623 0.4916 -0.1216
vn 0.7727 0.4488 -0.4488
vn 0.4488 0.4488 -0.7727
vn 0.4489 0.7727 -0.4489
vn 0.4916 0.8623 -0.1216
vn -0.9835 0.1280 -0.1280
vn 0.9835 0.1280 -0.1280
vn 0.9915 0.0000 -0.1303
vn -0.1303 0.0000 -0.9915
vn 0.1303 0.0000 0.9915
vn -0.9915 -0.0000 0.1303
vn -0.9915 -0.0000 -0.1303
vn 0.1216 -0.4916 0.8623
vn -0.1280 -0.1280 0.9835
vn -0.1216 -0.4916 0.8623
vn -0.8623 -0.1216 0.4916
vn -0.4916 -0.1216 0.8623
vn 0.1280 -0.1280 0.9835
vn 0.4916 -0.1216 0.8623
vn -0.4916 -0.1216 -0.8623
vn -0.8623 -0.1216 -0.4916
vn 0.8623 -0.4916 -0.1216
vn 0.9835 -0.1280 0.1280
vn 0.8623 -0.4916 0.1216
vn 0.1216 -0.8623 0.4916
vn -0.1216 -0.8623 0.4916
vn 0.1280 -0.9835 0.1280
vn -0.1280 -0.9835 0.1280
vn -0.4916 -0.8623 -0.1216
vn -0.1280 -0.9835 -0.1280
vn 0.8623 -0.1216 0.4916
vn 0.1280 -0.9835 -0.1280
vn 0.4916 -0.8623 0.1216
vn -0.9835 -0.1280 0.1280
vn -0.1280 -0.1280 -0.9835
vn -0.8623 -0.4916 0.1216
vn -0.4488 -0.7727 0.4488
vn -0.7727 -0.4488 0.4488
vn -0.1216 -0.4916 -0.8623
vn 0.1280 -0.1280 -0.9835
vn 0.1216 -0.4916 -0.8623
vn 0.8623 -0.1216 -0.4916
vn -0.4916 -0.8623 0.1216
vn 0.4488 -0.4488 0.7727
vn 0.7727 -0.4488 0.4488
vn 0.4488 -0.7727 0.4488
vn -0.4488 -0.4488 0.7727
vn 0.4916 -0.1216 -0.8623
vn -0.1216 -0.8623 -0.4916
vn 0.1216 -0.8623 -0.4916
vn -0.4488 -0.7727 -0.4488
vn -0.7727 -0.4488 -0.4488
vn -0.4488 -0.4488 -0.7727
vn -0.8623 -0.4916 -0.1216
vn 0.7727 -0.4488 -0.4488
vn 0.4489 -0.7727 -0.4488
vn 0.4488 -0.4488 -0.7727
vn 0.4916 -0.8623 -0.1216
vn -0.9835 -0.1280 -0.1280
vn 0.9835 -0.1280 -0.1280
usemtl CubeCustomText
s 1
f 1/1/1 2/2/2 3/3/3
f 4/4/4 5/5/5 6/6/6
f 7/7/7 8/8/8 9/9/9
f 10/10/10 11/11/11 12/12/12
f 13/13/13 14/14/14 15/15/15
f 16/16/16 2/17/2 17/18/17
f 16/16/16 18/19/18 19/20/19
f 20/21/20 19/20/19 21/22/21
f 9/9/9 22/23/22 23/24/23
f 24/25/24 25/26/25 18/19/18
f 6/27/6 26/28/26 1/1/1
f 27/29/27 28/30/28 4/4/4
f 23/31/23 29/32/29 13/13/13
f 30/33/30 31/34/31 10/10/10
f 32/35/32 33/36/33 34/37/34
f 9/9/9 2/2/2 7/7/7
f 35/38/35 36/39/36 37/40/37
f 4/4/4 32/35/32 27/29/27
f 38/41/38 39/42/39 40/43/40
f 3/3/3 6/27/6 1/1/1
f 34/44/34 16/16/16 19/20/19
f 23/24/23 41/45/41 9/9/9
f 42/46/42 41/45/41 43/47/43
f 15/15/15 23/31/23 13/13/13
f 17/18/17 24/25/24 18/19/18
f 42/48/42 15/49/15 24/25/24
f 2/2/2 42/46/42 17/50/17
f 33/51/33 3/52/3 16/16/16
f 33/36/33 44/53/44 45/54/45
f 46/55/46 47/56/47 38/57/38
f 6/6/6 44/53/44 4/4/4
f 37/40/37 48/58/48 49/59/49
f 49/60/49 21/22/21 25/26/25
f 50/61/50 51/62/51 52/63/52
f 12/12/12 51/64/51 10/10/10
f 10/10/10 36/39/36 30/33/30
f 50/61/50 53/65/53 20/21/20
f 48/66/48 20/21/20 21/22/21
f 54/67/54 55/68/55 56/69/56
f 57/70/57 49/60/49 25/26/25
f 47/71/47 54/72/54 39/42/39
f 56/69/56 37/40/37 49/59/49
f 37/40/37 47/56/47 35/38/35
f 53/73/53 12/74/12 58/75/58
f 39/42/39 14/14/14 59/76/59
f 60/77/60 13/78/13 29/79/29
f 61/80/61 35/38/35 46/55/46
f 62/81/62 1/82/1 26/83/26
f 14/84/14 56/85/56 57/70/57
f 18/19/18 21/22/21 19/20/19
f 63/86/63 58/75/58 64/87/64
f 36/88/36 50/61/50 48/66/48
f 53/65/53 34/44/34 20/21/20
f 58/75/58 32/35/32 53/73/53
f 15/49/15 57/70/57 24/25/24
f 12/74/12 64/87/64 58/75/58
f 40/43/40 59/76/59 60/89/60
f 65/90/65 66/91/66 67/92/67
f 5/5/5 68/93/68 69/94/69
f 8/8/8 70/95/70 71/96/71
f 11/11/11 72/97/72 73/98/73
f 74/99/74 75/100/75 76/101/76
f 77/102/77 67/103/67 78/104/78
f 79/105/79 78/104/78 80/106/80
f 80/106/80 81/107/81 82/108/82
f 22/23/22 71/96/71 83/109/83
f 84/110/84 85/111/85 79/105/79
f 26/28/26 69/112/69 66/91/66
f 28/30/28 86/113/86 68/93/68
f 29/32/29 83/114/83 75/100/75
f 31/34/31 87/115/87 72/97/72
f 88/116/88 89/117/89 90/118/90
f 65/90/65 71/96/71 70/95/70
f 91/119/91 92/120/92 93/121/93
f 88/116/88 68/93/68 86/113/86
f 94/122/94 38/41/38 40/43/40
f 69/112/69 67/92/67 66/91/66
f 78/104/78 95/123/95 80/106/80
f 83/109/83 96/124/96 97/125/97
f 98/126/98 97/125/97 96/124/96
f 83/114/83 76/101/76 75/100/75
f 85/111/85 77/102/77 79/105/79
f 76/101/76 98/127/98 85/128/85
f 65/90/65 98/126/98 96/124/96
f 67/103/67 89/129/89 78/104/78
f 89/117/89 99/130/99 90/118/90
f 100/131/100 46/55/46 38/57/38
f 68/93/68 99/130/99 69/94/69
f 101/132/101 93/121/93 102/133/102
f 82/108/82 102/134/102 84/110/84
f 103/135/103 104/136/104 105/137/105
f 72/97/72 104/136/104 73/98/73
f 91/119/91 72/97/72 87/115/87
f 106/138/106 103/139/103 81/107/81
f 81/107/81 101/140/101 82/108/82
f 107/141/107 108/142/108 109/143/109
f 102/134/102 110/144/110 84/110/84
f 100/145/100 107/141/107 109/143/109
f 93/121/93 108/146/108 102/133/102
f 100/131/100 93/121/93 92/120/92
f 73/147/73 106/148/106 111/149/111
f 74/99/74 94/122/94 112/150/112
f 75/151/75 60/77/60 29/79/29
f 92/120/92 61/80/61 46/55/46
f 66/152/66 62/81/62 26/83/26
f 74/99/74 108/142/108 107/141/107
f 82/108/82 79/105/79 80/106/80
f 111/149/111 63/86/63 64/87/64
f 91/119/91 103/135/103 105/137/105
f 95/123/95 106/138/106 81/107/81
f 88/116/88 111/149/111 106/148/106
f 110/153/110 76/101/76 85/128/85
f 64/87/64 73/147/73 111/149/111
f 112/150/112 40/43/40 60/89/60
f 1/1/1 7/7/7 2/2/2
f 4/4/4 28/30/28 5/5/5
f 7/7/7 62/154/62 8/8/8
f 10/10/10 31/34/31 11/11/11
f 13/13/13 59/76/59 14/14/14
f 16/16/16 3/52/3 2/17/2
f 16/16/16 17/18/17 18/19/18
f 20/21/20 34/44/34 19/20/19
f 9/9/9 8/8/8 22/23/22
f 24/25/24 57/70/57 25/26/25
f 6/27/6 5/155/5 26/28/26
f 27/29/27 63/86/63 28/30/28
f 23/31/23 22/156/22 29/32/29
f 30/33/30 61/80/61 31/34/31
f 32/35/32 44/53/44 33/36/33
f 9/9/9 41/45/41 2/2/2
f 35/38/35 30/33/30 36/39/36
f 4/4/4 44/53/44 32/35/32
f 38/41/38 47/71/47 39/42/39
f 3/3/3 45/157/45 6/27/6
f 34/44/34 33/51/33 16/16/16
f 23/24/23 43/47/43 41/45/41
f 15/15/15 43/158/43 23/31/23
f 17/18/17 42/48/42 24/25/24
f 42/48/42 43/159/43 15/49/15
f 2/2/2 41/45/41 42/46/42
f 33/51/33 45/160/45 3/52/3
f 46/55/46 35/38/35 47/56/47
f 6/6/6 45/54/45 44/53/44
f 37/40/37 36/39/36 48/58/48
f 49/60/49 48/66/48 21/22/21
f 12/12/12 52/161/52 51/64/51
f 10/10/10 51/64/51 36/39/36
f 50/61/50 52/63/52 53/65/53
f 48/66/48 50/61/50 20/21/20
f 57/70/57 56/85/56 49/60/49
f 47/71/47 55/162/55 54/72/54
f 56/69/56 55/68/55 37/40/37
f 37/40/37 55/68/55 47/56/47
f 53/73/53 52/163/52 12/74/12
f 39/42/39 54/72/54 14/14/14
f 60/77/60 59/164/59 13/78/13
f 61/80/61 30/33/30 35/38/35
f 62/81/62 7/165/7 1/82/1
f 14/84/14 54/166/54 56/85/56
f 18/19/18 25/26/25 21/22/21
f 63/86/63 27/29/27 58/75/58
f 36/39/36 51/64/51 50/167/50
f 53/65/53 32/168/32 34/44/34
f 58/75/58 27/29/27 32/35/32
f 15/49/15 14/84/14 57/70/57
f 12/74/12 11/169/11 64/87/64
f 40/43/40 39/42/39 59/76/59
f 65/90/65 70/95/70 66/91/66
f 5/5/5 28/30/28 68/93/68
f 8/8/8 62/154/62 70/95/70
f 11/11/11 31/34/31 72/97/72
f 74/99/74 112/150/112 75/100/75
f 77/102/77 65/170/65 67/103/67
f 79/105/79 77/102/77 78/104/78
f 80/106/80 95/123/95 81/107/81
f 22/23/22 8/8/8 71/96/71
f 84/110/84 110/144/110 85/111/85
f 26/28/26 5/155/5 69/112/69
f 28/30/28 63/86/63 86/113/86
f 29/32/29 22/156/22 83/114/83
f 31/34/31 61/80/61 87/115/87
f 88/116/88 95/171/95 89/117/89
f 65/90/65 96/124/96 71/96/71
f 91/119/91 87/115/87 92/120/92
f 88/116/88 90/118/90 68/93/68
f 94/122/94 100/145/100 38/41/38
f 69/112/69 99/172/99 67/92/67
f 78/104/78 89/129/89 95/123/95
f 83/109/83 71/96/71 96/124/96
f 83/114/83 97/173/97 76/101/76
f 85/111/85 98/174/98 77/102/77
f 76/101/76 97/173/97 98/127/98
f 65/90/65 77/175/77 98/126/98
f 67/103/67 99/176/99 89/129/89
f 100/131/100 92/120/92 46/55/46
f 68/93/68 90/118/90 99/130/99
f 101/132/101 91/119/91 93/121/93
f 82/108/82 101/140/101 102/134/102
f 72/97/72 105/137/105 104/136/104
f 91/119/91 105/137/105 72/97/72
f 106/138/106 104/177/104 103/139/103
f 81/107/81 103/139/103 101/140/101
f 102/134/102 108/178/108 110/144/110
f 100/145/100 94/122/94 107/141/107
f 93/121/93 109/179/109 108/146/108
f 100/131/100 109/179/109 93/121/93
f 73/147/73 104/180/104 106/148/106
f 74/99/74 107/141/107 94/122/94
f 75/151/75 112/181/112 60/77/60
f 92/120/92 87/115/87 61/80/61
f 66/152/66 70/182/70 62/81/62
f 74/99/74 110/153/110 108/142/108
f 82/108/82 84/110/84 79/105/79
f 111/149/111 86/113/86 63/86/63
f 91/119/91 101/132/101 103/135/103
f 95/123/95 88/183/88 106/138/106
f 88/116/88 86/113/86 111/149/111
f 110/153/110 74/99/74 76/101/76
f 64/87/64 11/169/11 73/147/73
f 112/150/112 94/122/94 40/43/40
