# Blender v2.93.2 OBJ File: 'cubeTexture.blend'
# www.blender.org
mtllib piece12.mtl
o Rubiks_Cube_Cube.012_Rubiks_Cube_Cube.014
v -1.050738 0.897260 0.985360
v -1.026690 0.945723 0.946020
v -1.052879 0.945723 0.972209
v -1.013539 0.947865 0.897557
v -1.052879 0.971912 0.946020
v -1.101342 0.947865 0.985360
v -1.101342 0.985064 0.948161
v -2.986461 0.897260 0.948161
v -2.947121 0.945723 0.972209
v -2.973310 0.945723 0.946020
v -2.947121 0.971912 0.946020
v -2.898658 0.947865 0.985360
v -2.949262 0.897260 0.985360
v -2.898658 0.897260 0.998899
v -2.986461 0.947865 0.897557
v -2.949262 0.985064 0.897557
v -1.101342 0.897260 0.998899
v -2.898658 -0.000000 0.998899
v -1.101342 -0.000000 0.998899
v -1.050738 0.985064 0.897557
v -1.101342 0.998603 0.897557
v -3.000000 0.897260 0.897557
v -2.898658 0.985064 0.948161
v -2.898658 0.998603 0.897557
v -1.000000 0.897260 0.000000
v -1.000000 -0.000000 0.897557
v -1.000000 -0.000000 0.000000
v -1.013539 0.897260 0.948161
v -1.000000 0.897260 0.897557
v -2.949262 0.985064 0.000000
v -1.101342 0.998603 0.000000
v -2.898658 0.998603 0.000000
v -3.000000 -0.000000 0.000000
v -3.000000 -0.000000 0.897557
v -2.986461 0.947865 0.000000
v -1.013539 0.947865 0.000000
v -1.050738 0.985064 0.000000
v -1.013539 -0.000000 0.948161
v -2.949262 -0.000000 0.985360
v -1.050738 -0.000000 0.985360
v -2.986461 -0.000000 0.948161
v -1.050738 0.897260 -0.985360
v -1.026690 0.945723 -0.946020
v -1.013539 0.897260 -0.948161
v -1.013539 0.947865 -0.897557
v -1.052879 0.971912 -0.946020
v -1.050738 0.985064 -0.897557
v -1.101342 0.947865 -0.985360
v -1.101342 0.985064 -0.948161
v -2.986461 0.897260 -0.948161
v -2.947121 0.945723 -0.972209
v -2.949262 0.897260 -0.985360
v -2.947121 0.971912 -0.946020
v -2.973310 0.945723 -0.946020
v -2.898658 0.947865 -0.985360
v -2.898658 0.897260 -0.998899
v -2.986461 0.947865 -0.897557
v -2.949262 0.985064 -0.897557
v -2.898658 -0.000000 -0.998899
v -1.101342 0.897260 -0.998899
v -1.101342 -0.000000 -0.998899
v -1.052879 0.945723 -0.972209
v -2.898658 0.985064 -0.948161
v -1.101342 0.998603 -0.897557
v -3.000000 0.897260 -0.897557
v -2.898658 0.998603 -0.897557
v -1.000000 -0.000000 -0.897557
v -1.000000 0.897260 -0.897557
v -3.000000 -0.000000 -0.897557
v -1.013539 -0.000000 -0.948161
v -2.949262 -0.000000 -0.985360
v -1.050738 -0.000000 -0.985360
v -2.986461 -0.000000 -0.948161
v -1.050738 -0.897260 0.985360
v -1.026690 -0.945723 0.946020
v -1.013539 -0.897260 0.948161
v -1.013539 -0.947865 0.897557
v -1.052879 -0.971912 0.946020
v -1.050738 -0.985064 0.897557
v -1.101342 -0.947865 0.985360
v -1.101342 -0.985064 0.948161
v -2.986461 -0.897260 0.948161
v -2.947121 -0.945723 0.972209
v -2.949262 -0.897260 0.985360
v -2.947121 -0.971913 0.946020
v -2.973310 -0.945723 0.946020
v -2.898658 -0.947865 0.985360
v -2.898658 -0.897260 0.998899
v -2.986461 -0.947865 0.897557
v -2.949262 -0.985065 0.897557
v -1.101342 -0.897260 0.998899
v -1.052879 -0.945723 0.972209
v -2.898658 -0.985065 0.948161
v -1.101342 -0.998603 0.897557
v -3.000000 -0.897260 0.897557
v -2.898658 -0.998603 0.897557
v -1.000000 -0.897260 0.000000
v -1.000000 -0.897260 0.897557
v -2.949262 -0.985065 0.000000
v -1.101342 -0.998603 0.000000
v -2.898658 -0.998603 0.000000
v -2.986461 -0.947865 0.000000
v -1.013539 -0.947865 0.000000
v -1.050738 -0.985064 0.000000
v -1.050738 -0.897260 -0.985360
v -1.026690 -0.945723 -0.946020
v -1.052879 -0.945723 -0.972209
v -1.013539 -0.947865 -0.897557
v -1.052879 -0.971912 -0.946020
v -1.101342 -0.947865 -0.985360
v -1.101342 -0.985064 -0.948161
v -2.986461 -0.897260 -0.948161
v -2.947121 -0.945723 -0.972209
v -2.973310 -0.945723 -0.946020
v -2.947121 -0.971913 -0.946020
v -2.898658 -0.947865 -0.985360
v -2.949262 -0.897260 -0.985360
v -2.898658 -0.897260 -0.998899
v -2.986461 -0.947865 -0.897557
v -2.949262 -0.985065 -0.897557
v -1.101342 -0.897260 -0.998899
v -1.050738 -0.985064 -0.897557
v -1.101342 -0.998603 -0.897557
v -3.000000 -0.897260 -0.897557
v -2.898658 -0.985065 -0.948161
v -2.898658 -0.998603 -0.897557
v -1.013539 -0.897260 -0.948161
v -1.000000 -0.897260 -0.897557
v -3.000000 0.897260 0.000000
v -3.000000 -0.897260 0.000000
vt 0.017361 0.162500
vt 0.014583 0.164583
vt 0.014583 0.163194
vt 0.014583 0.167361
vt 0.013194 0.164583
vt 0.015278 0.162500
vt 0.012500 0.160417
vt 0.015278 0.160417
vt 0.222222 0.166667
vt 0.220139 0.163889
vt 0.221528 0.163889
vt 0.220139 0.162500
vt 0.217361 0.163889
vt 0.220139 0.166667
vt 0.217361 0.166667
vt 0.117361 0.158333
vt 0.115278 0.160417
vt 0.115278 0.158333
vt 0.120139 0.166667
vt 0.217361 0.215278
vt 0.120139 0.215278
vt 0.012500 0.158333
vt 0.015278 0.158333
vt 0.323611 0.163889
vt 0.326389 0.166667
vt 0.323611 0.166667
vt 0.112500 0.160417
vt 0.112500 0.158333
vt 0.017361 0.215972
vt 0.065972 0.167361
vt 0.065972 0.215972
vt 0.117361 0.166667
vt 0.120139 0.163889
vt 0.017361 0.164583
vt 0.017361 0.167361
vt 0.115278 0.109722
vt 0.015278 0.109722
vt 0.112500 0.109722
vt 0.888889 0.555556
vt 0.833333 0.500000
vt 0.888889 0.500000
vt 0.326389 0.214583
vt 0.012500 0.167361
vt 0.014583 0.215972
vt 0.012500 0.215972
vt 0.012500 0.109722
vt 0.065972 0.164583
vt 0.220139 0.215278
vt 0.275694 0.165972
vt 0.065972 0.162500
vt 0.222222 0.215278
vt 0.017361 0.269444
vt 0.014583 0.267361
vt 0.017361 0.267361
vt 0.014583 0.264583
vt 0.013194 0.267361
vt 0.012500 0.264583
vt 0.012500 0.058333
vt 0.015278 0.056250
vt 0.015278 0.058333
vt 0.323611 0.265972
vt 0.325694 0.267361
vt 0.323611 0.268056
vt 0.223611 0.056250
vt 0.223611 0.057639
vt 0.222222 0.057639
vt 0.223611 0.060417
vt 0.226389 0.057639
vt 0.226389 0.060417
vt 0.115278 0.058333
vt 0.117361 0.061111
vt 0.115278 0.061111
vt 0.225694 0.109028
vt 0.323611 0.061111
vt 0.322917 0.109722
vt 0.014583 0.268750
vt 0.112500 0.056250
vt 0.112500 0.058333
vt 0.012500 0.061111
vt 0.015278 0.061111
vt 0.326389 0.263194
vt 0.323611 0.263194
vt 0.112500 0.061111
vt 0.065972 0.264583
vt 0.323611 0.058333
vt 0.326389 0.061111
vt 0.017361 0.264583
vt 0.777778 0.555556
vt 0.777778 0.500000
vt 0.065972 0.267361
vt 0.222917 0.109028
vt 0.275694 0.262500
vt 0.065972 0.269444
vt 0.275000 0.265278
vt 0.114583 0.162500
vt 0.117361 0.164583
vt 0.114583 0.164583
vt 0.117361 0.061111
vt 0.119444 0.058333
vt 0.119444 0.061111
vt 0.122222 0.056250
vt 0.122222 0.058333
vt 0.222222 0.263889
vt 0.220139 0.266667
vt 0.220139 0.263889
vt 0.220139 0.268056
vt 0.221528 0.266667
vt 0.217361 0.266667
vt 0.217361 0.263889
vt 0.222917 0.163194
vt 0.224306 0.165278
vt 0.222222 0.165972
vt 0.120139 0.263889
vt 0.118056 0.058333
vt 0.119444 0.056944
vt 0.217361 0.268750
vt 0.122222 0.061111
vt 0.227083 0.162500
vt 0.227083 0.165278
vt 0.219444 0.058333
vt 0.222222 0.061111
vt 0.219444 0.061111
vt 0.114583 0.215972
vt 0.120139 0.266667
vt 0.117361 0.263889
vt 0.117361 0.167361
vt 0.114583 0.167361
vt 0.222222 0.213889
vt 0.122222 0.109722
vt 0.219444 0.109722
vt 0.888889 0.444444
vt 0.224306 0.213889
vt 0.117361 0.109722
vt 0.119444 0.109722
vt 0.117361 0.215972
vt 0.114583 0.269444
vt 0.117361 0.267361
vt 0.117361 0.268750
vt 0.117361 0.158333
vt 0.119444 0.160417
vt 0.118056 0.160417
vt 0.122222 0.162500
vt 0.122222 0.160417
vt 0.227083 0.264583
vt 0.224306 0.266667
vt 0.224306 0.264583
vt 0.222917 0.265278
vt 0.225694 0.159722
vt 0.222917 0.156944
vt 0.225694 0.156944
vt 0.224306 0.262500
vt 0.222222 0.262500
vt 0.322917 0.157639
vt 0.119444 0.161806
vt 0.222917 0.161111
vt 0.222917 0.159722
vt 0.119444 0.158333
vt 0.122222 0.158333
vt 0.227083 0.261806
vt 0.222222 0.158333
vt 0.219444 0.160417
vt 0.219444 0.158333
vt 0.325694 0.158333
vt 0.322917 0.160417
vt 0.117361 0.264583
vt 0.114583 0.267361
vt 0.114583 0.264583
vt 0.777778 0.444444
vt 0.227083 0.267361
vt 0.117361 0.163889
vt 0.117361 0.162500
vt 0.116667 0.160417
vt 0.112500 0.162500
vt 0.326389 0.163889
vt 0.117361 0.109722
vt 0.833333 0.555556
vt 0.323611 0.214583
vt 0.117361 0.215278
vt 0.275000 0.163194
vt 0.325694 0.056944
vt 0.325694 0.058333
vt 0.326389 0.265972
vt 0.116667 0.058333
vt 0.325694 0.109722
vt 0.275000 0.267361
vt 0.117361 0.163194
vt 0.117361 0.268056
vt 0.117361 0.266667
vt 0.224306 0.163194
vt 0.222222 0.058333
vt 0.222222 0.109722
vt 0.833333 0.444444
vt 0.227083 0.213889
vt 0.325000 0.160417
vt 0.325000 0.161806
vt 0.225000 0.161806
vt 0.222222 0.160417
vn 0.4916 0.1216 0.8623
vn 0.7727 0.4488 0.4488
vn 0.4488 0.4488 0.7727
vn 0.8623 0.4916 0.1216
vn 0.4488 0.7727 0.4488
vn 0.1216 0.4916 0.8623
vn 0.1216 0.8623 0.4916
vn -0.8623 0.1216 0.4916
vn -0.4488 0.4488 0.7727
vn -0.7727 0.4488 0.4488
vn -0.4488 0.7727 0.4488
vn -0.1216 0.4916 0.8623
vn -0.4916 0.1216 0.8623
vn -0.1280 0.1280 0.9835
vn -0.8623 0.4916 0.1216
vn -0.4916 0.8623 0.1216
vn 0.1280 0.1280 0.9835
vn -0.1303 0.0000 0.9915
vn 0.1303 0.0000 0.9915
vn 0.4916 0.8623 0.1216
vn 0.1280 0.9835 0.1280
vn -0.9835 0.1280 0.1280
vn -0.1216 0.8623 0.4916
vn -0.1280 0.9835 0.1280
vn 0.9915 0.1303 -0.0000
vn 0.9915 0.0000 0.1303
vn 1.0000 0.0000 -0.0000
vn 0.8623 0.1216 0.4916
vn 0.9835 0.1280 0.1280
vn -0.4998 0.8661 0.0000
vn 0.1303 0.9915 0.0000
vn -0.1303 0.9915 0.0000
vn -1.0000 0.0000 0.0000
vn -0.9915 0.0000 0.1303
vn -0.8661 0.4998 0.0000
vn 0.8661 0.4998 -0.0000
vn 0.4998 0.8661 -0.0000
vn 0.8661 0.0000 0.4998
vn -0.4998 0.0000 0.8661
vn 0.4998 0.0000 0.8661
vn -0.8661 0.0000 0.4998
vn 0.4916 0.1216 -0.8623
vn 0.7727 0.4488 -0.4488
vn 0.8623 0.1216 -0.4916
vn 0.8623 0.4916 -0.1216
vn 0.4488 0.7727 -0.4488
vn 0.4916 0.8623 -0.1216
vn 0.1216 0.4916 -0.8623
vn 0.1216 0.8623 -0.4916
vn -0.8623 0.1216 -0.4916
vn -0.4488 0.4488 -0.7727
vn -0.4916 0.1216 -0.8623
vn -0.4488 0.7727 -0.4488
vn -0.7727 0.4488 -0.4488
vn -0.1216 0.4916 -0.8623
vn -0.1280 0.1280 -0.9835
vn -0.8623 0.4916 -0.1216
vn -0.4916 0.8623 -0.1216
vn -0.1303 0.0000 -0.9915
vn 0.1280 0.1280 -0.9835
vn 0.1303 0.0000 -0.9915
vn 0.4488 0.4488 -0.7727
vn -0.1216 0.8623 -0.4916
vn 0.1280 0.9835 -0.1280
vn -0.9835 0.1280 -0.1280
vn -0.1280 0.9835 -0.1280
vn 0.9915 0.0000 -0.1303
vn 0.9835 0.1280 -0.1280
vn -0.9915 0.0000 -0.1303
vn 0.8661 0.0000 -0.4998
vn -0.4998 0.0000 -0.8661
vn 0.4998 0.0000 -0.8661
vn -0.8661 0.0000 -0.4998
vn 0.4916 -0.1216 0.8623
vn 0.7727 -0.4488 0.4488
vn 0.8623 -0.1216 0.4916
vn 0.8623 -0.4916 0.1216
vn 0.4488 -0.7727 0.4488
vn 0.4916 -0.8623 0.1216
vn 0.1216 -0.4916 0.8623
vn 0.1216 -0.8623 0.4916
vn -0.8623 -0.1216 0.4916
vn -0.4488 -0.4488 0.7727
vn -0.4916 -0.1216 0.8623
vn -0.4489 -0.7727 0.4489
vn -0.7727 -0.4488 0.4488
vn -0.1216 -0.4916 0.8623
vn -0.1280 -0.1280 0.9835
vn -0.8623 -0.4916 0.1216
vn -0.4916 -0.8623 0.1216
vn 0.1280 -0.1280 0.9835
vn 0.4488 -0.4488 0.7727
vn -0.1216 -0.8623 0.4916
vn 0.1280 -0.9835 0.1280
vn -0.9835 -0.1280 0.1280
vn -0.1280 -0.9835 0.1280
vn 0.9915 -0.1303 -0.0000
vn 0.9835 -0.1280 0.1280
vn -0.4998 -0.8661 0.0000
vn 0.1303 -0.9915 0.0000
vn -0.1303 -0.9915 0.0000
vn -0.8661 -0.4998 0.0000
vn 0.8661 -0.4998 -0.0000
vn 0.4998 -0.8661 -0.0000
vn 0.4916 -0.1216 -0.8623
vn 0.7727 -0.4488 -0.4488
vn 0.4488 -0.4488 -0.7727
vn 0.8623 -0.4916 -0.1216
vn 0.4488 -0.7727 -0.4488
vn 0.1216 -0.4916 -0.8623
vn 0.1216 -0.8623 -0.4916
vn -0.8623 -0.1216 -0.4916
vn -0.4488 -0.4488 -0.7727
vn -0.7727 -0.4488 -0.4488
vn -0.4489 -0.7727 -0.4489
vn -0.1216 -0.4916 -0.8623
vn -0.4916 -0.1216 -0.8623
vn -0.1280 -0.1280 -0.9835
vn -0.8623 -0.4916 -0.1216
vn -0.4916 -0.8623 -0.1216
vn 0.1280 -0.1280 -0.9835
vn 0.4916 -0.8623 -0.1216
vn 0.1280 -0.9835 -0.1280
vn -0.9835 -0.1280 -0.1280
vn -0.1216 -0.8623 -0.4916
vn -0.1280 -0.9835 -0.1280
vn 0.8623 -0.1216 -0.4916
vn 0.9835 -0.1280 -0.1280
vn -0.9915 0.1303 0.0000
vn -0.9915 -0.1303 0.0000
usemtl CubeCustomText
s 1
f 1/1/1 2/2/2 3/3/3
f 4/4/4 5/5/5 2/2/2
f 6/6/6 5/7/5 7/8/7
f 8/9/8 9/10/9 10/11/10
f 11/12/11 10/11/10 9/10/9
f 12/13/12 13/14/13 14/15/14
f 15/16/15 11/17/11 16/18/16
f 17/19/17 18/20/18 19/21/19
f 5/5/5 3/3/3 2/2/2
f 12/13/12 11/12/11 9/10/9
f 7/8/7 20/22/20 21/23/21
f 8/24/8 15/25/15 22/26/22
f 16/18/16 23/27/23 24/28/24
f 25/29/25 26/30/26 27/31/27
f 1/32/1 6/33/6 17/19/17
f 4/4/4 28/34/28 29/35/29
f 30/36/30 15/16/15 16/18/16
f 31/37/31 24/28/24 21/23/21
f 32/38/32 16/18/16 24/28/24
f 22/39/22 33/40/33 34/41/34
f 35/42/35 22/26/22 15/25/15
f 12/13/12 17/19/17 6/33/6
f 20/43/20 36/44/36 37/45/37
f 24/28/24 7/8/7 21/23/21
f 4/4/4 25/29/25 36/44/36
f 23/27/23 6/6/6 7/8/7
f 21/23/21 37/46/37 31/37/31
f 38/47/38 29/35/29 28/34/28
f 39/48/39 14/15/14 13/14/13
f 19/21/19 1/32/1 17/19/17
f 34/49/34 8/24/8 22/26/22
f 40/50/40 28/34/28 1/1/1
f 41/51/41 13/14/13 8/9/8
f 42/52/42 43/53/43 44/54/44
f 45/55/45 46/56/46 47/57/47
f 46/58/46 48/59/48 49/60/49
f 50/61/50 51/62/51 52/63/52
f 53/64/53 51/65/51 54/66/54
f 52/67/52 55/68/55 56/69/56
f 53/70/53 57/71/57 58/72/58
f 59/73/59 60/74/60 61/75/61
f 46/56/46 43/53/43 62/76/62
f 55/77/55 53/70/53 63/78/63
f 47/79/47 49/60/49 64/80/64
f 57/81/57 50/61/50 65/82/65
f 63/78/63 58/72/58 66/83/66
f 67/84/67 25/29/25 27/31/27
f 48/85/48 42/86/42 60/74/60
f 44/54/44 45/55/45 68/87/68
f 57/71/57 30/36/30 58/72/58
f 66/83/66 31/37/31 64/80/64
f 58/72/58 32/38/32 66/83/66
f 33/40/33 65/88/65 69/89/69
f 65/82/65 35/42/35 57/81/57
f 60/74/60 55/68/55 48/85/48
f 36/44/36 47/57/47 37/45/37
f 49/60/49 66/83/66 64/80/64
f 25/29/25 45/55/45 36/44/36
f 48/59/48 63/78/63 49/60/49
f 37/46/37 64/80/64 31/37/31
f 68/87/68 70/90/70 44/54/44
f 56/69/56 71/91/71 52/67/52
f 42/86/42 61/75/61 60/74/60
f 50/61/50 69/92/69 65/82/65
f 44/54/44 72/93/72 42/52/42
f 52/63/52 73/94/73 50/61/50
f 74/95/74 75/96/75 76/97/76
f 77/98/77 78/99/78 79/100/79
f 78/99/78 80/101/80 81/102/81
f 82/103/82 83/104/83 84/105/84
f 85/106/85 83/104/83 86/107/86
f 84/105/84 87/108/87 88/109/88
f 85/110/85 89/111/89 90/112/90
f 18/20/18 91/113/91 19/21/19
f 78/99/78 75/114/75 92/115/92
f 87/108/87 85/106/85 93/116/93
f 79/100/79 81/102/81 94/117/94
f 89/111/89 82/118/82 95/119/95
f 93/120/93 90/121/90 96/122/96
f 26/30/26 97/123/97 27/31/27
f 80/124/80 74/125/74 91/113/91
f 76/97/76 77/126/77 98/127/98
f 89/111/89 99/128/99 90/112/90
f 96/122/96 100/129/100 94/117/94
f 90/121/90 101/130/101 96/122/96
f 33/40/33 95/131/95 34/41/34
f 95/119/95 102/132/102 89/111/89
f 91/113/91 87/108/87 80/124/80
f 103/133/103 79/100/79 104/134/104
f 81/102/81 96/122/96 94/117/94
f 97/123/97 77/126/77 103/135/103
f 80/101/80 93/120/93 81/102/81
f 104/134/104 94/117/94 100/129/100
f 98/127/98 38/47/38 76/97/76
f 88/109/88 39/48/39 84/105/84
f 74/125/74 19/21/19 91/113/91
f 82/118/82 34/49/34 95/119/95
f 76/97/76 40/50/40 74/95/74
f 84/105/84 41/51/41 82/103/82
f 105/136/105 106/137/106 107/138/107
f 108/139/108 109/140/109 106/141/106
f 110/142/110 109/140/109 111/143/111
f 112/144/112 113/145/113 114/146/114
f 115/147/115 114/146/114 113/145/113
f 116/148/116 117/149/117 118/150/118
f 119/151/119 115/147/115 120/152/120
f 121/153/121 59/73/59 61/75/61
f 109/140/109 107/154/107 106/141/106
f 116/148/116 115/155/115 113/156/113
f 111/143/111 122/157/122 123/158/123
f 112/144/112 119/151/119 124/159/124
f 120/160/120 125/161/125 126/162/126
f 97/123/97 67/84/67 27/31/27
f 105/163/105 110/164/110 121/153/121
f 108/165/108 127/166/127 128/167/128
f 99/128/99 119/151/119 120/152/120
f 100/129/100 126/162/126 123/158/123
f 101/130/101 120/160/120 126/162/126
f 124/168/124 33/40/33 69/89/69
f 102/132/102 124/159/124 119/151/119
f 116/148/116 121/153/121 110/164/110
f 122/157/122 103/133/103 104/134/104
f 126/162/126 111/143/111 123/158/123
f 108/165/108 97/123/97 103/135/103
f 125/161/125 110/142/110 111/143/111
f 123/158/123 104/134/104 100/129/100
f 70/90/70 128/167/128 127/166/127
f 71/91/71 118/150/118 117/149/117
f 61/75/61 105/163/105 121/153/121
f 69/92/69 112/144/112 124/159/124
f 72/93/72 127/166/127 105/136/105
f 73/94/73 117/169/117 112/144/112
f 1/1/1 28/34/28 2/2/2
f 4/4/4 20/43/20 5/5/5
f 6/33/6 3/170/3 5/171/5
f 8/9/8 13/14/13 9/10/9
f 12/13/12 9/10/9 13/14/13
f 15/16/15 10/172/10 11/17/11
f 17/19/17 14/15/14 18/20/18
f 12/173/12 23/27/23 11/17/11
f 7/8/7 5/7/5 20/22/20
f 8/24/8 10/174/10 15/25/15
f 16/18/16 11/17/11 23/27/23
f 25/29/25 29/35/29 26/30/26
f 1/32/1 3/170/3 6/33/6
f 4/4/4 2/2/2 28/34/28
f 30/36/30 35/175/35 15/16/15
f 31/37/31 32/38/32 24/28/24
f 32/38/32 30/36/30 16/18/16
f 22/39/22 129/176/129 33/40/33
f 35/42/35 129/177/129 22/26/22
f 12/13/12 14/15/14 17/19/17
f 20/43/20 4/4/4 36/44/36
f 24/28/24 23/27/23 7/8/7
f 4/4/4 29/35/29 25/29/25
f 23/27/23 12/173/12 6/6/6
f 21/23/21 20/22/20 37/46/37
f 38/47/38 26/30/26 29/35/29
f 39/48/39 18/20/18 14/15/14
f 19/21/19 40/178/40 1/32/1
f 34/49/34 41/179/41 8/24/8
f 40/50/40 38/47/38 28/34/28
f 41/51/41 39/48/39 13/14/13
f 42/52/42 62/76/62 43/53/43
f 45/55/45 43/53/43 46/56/46
f 46/180/46 62/181/62 48/85/48
f 50/61/50 54/182/54 51/62/51
f 52/67/52 51/65/51 55/68/55
f 53/70/53 54/183/54 57/71/57
f 59/73/59 56/69/56 60/74/60
f 55/68/55 51/65/51 53/64/53
f 47/79/47 46/58/46 49/60/49
f 57/81/57 54/182/54 50/61/50
f 63/78/63 53/70/53 58/72/58
f 67/84/67 68/87/68 25/29/25
f 48/85/48 62/181/62 42/86/42
f 44/54/44 43/53/43 45/55/45
f 57/71/57 35/175/35 30/36/30
f 66/83/66 32/38/32 31/37/31
f 58/72/58 30/36/30 32/38/32
f 33/40/33 129/176/129 65/88/65
f 65/82/65 129/177/129 35/42/35
f 60/74/60 56/69/56 55/68/55
f 36/44/36 45/55/45 47/57/47
f 49/60/49 63/78/63 66/83/66
f 25/29/25 68/87/68 45/55/45
f 48/59/48 55/77/55 63/78/63
f 37/46/37 47/79/47 64/80/64
f 68/87/68 67/84/67 70/90/70
f 56/69/56 59/73/59 71/91/71
f 42/86/42 72/184/72 61/75/61
f 50/61/50 73/94/73 69/92/69
f 44/54/44 70/90/70 72/93/72
f 52/63/52 71/185/71 73/94/73
f 74/95/74 92/186/92 75/96/75
f 77/98/77 75/114/75 78/99/78
f 78/187/78 92/188/92 80/124/80
f 82/103/82 86/107/86 83/104/83
f 84/105/84 83/104/83 87/108/87
f 85/110/85 86/189/86 89/111/89
f 18/20/18 88/109/88 91/113/91
f 87/108/87 83/104/83 85/106/85
f 79/100/79 78/99/78 81/102/81
f 89/111/89 86/189/86 82/118/82
f 93/120/93 85/190/85 90/121/90
f 26/30/26 98/127/98 97/123/97
f 80/124/80 92/188/92 74/125/74
f 76/97/76 75/96/75 77/126/77
f 89/111/89 102/132/102 99/128/99
f 96/122/96 101/130/101 100/129/100
f 90/121/90 99/191/99 101/130/101
f 33/40/33 130/192/130 95/131/95
f 95/119/95 130/193/130 102/132/102
f 91/113/91 88/109/88 87/108/87
f 103/133/103 77/98/77 79/100/79
f 81/102/81 93/120/93 96/122/96
f 97/123/97 98/127/98 77/126/77
f 80/124/80 87/108/87 93/116/93
f 104/134/104 79/100/79 94/117/94
f 98/127/98 26/30/26 38/47/38
f 88/109/88 18/20/18 39/48/39
f 74/125/74 40/178/40 19/21/19
f 82/118/82 41/179/41 34/49/34
f 76/97/76 38/47/38 40/50/40
f 84/105/84 39/48/39 41/51/41
f 105/136/105 127/166/127 106/137/106
f 108/139/108 122/157/122 109/140/109
f 110/164/110 107/194/107 109/195/109
f 112/144/112 117/169/117 113/145/113
f 116/148/116 113/156/113 117/149/117
f 119/151/119 114/146/114 115/147/115
f 121/153/121 118/150/118 59/73/59
f 116/148/116 125/196/125 115/155/115
f 111/143/111 109/140/109 122/157/122
f 112/144/112 114/146/114 119/151/119
f 120/160/120 115/197/115 125/161/125
f 97/123/97 128/167/128 67/84/67
f 105/163/105 107/194/107 110/164/110
f 108/165/108 106/137/106 127/166/127
f 99/128/99 102/132/102 119/151/119
f 100/129/100 101/130/101 126/162/126
f 101/130/101 99/191/99 120/160/120
f 124/168/124 130/192/130 33/40/33
f 102/132/102 130/193/130 124/159/124
f 116/148/116 118/150/118 121/153/121
f 122/157/122 108/139/108 103/133/103
f 126/162/126 125/161/125 111/143/111
f 108/165/108 128/167/128 97/123/97
f 125/196/125 116/148/116 110/164/110
f 123/158/123 122/157/122 104/134/104
f 70/90/70 67/84/67 128/167/128
f 71/91/71 59/73/59 118/150/118
f 61/75/61 72/184/72 105/163/105
f 69/92/69 73/94/73 112/144/112
f 72/93/72 70/90/70 127/166/127
f 73/94/73 71/185/71 117/169/117
