# Blender v2.93.2 OBJ File: 'cubeTexture.blend'
# www.blender.org
mtllib piece5.mtl
o Rubiks_Cube_Cube.005_Rubiks_Cube_Cube.007
v 1.101342 1.100142 0.998899
v 2.898658 2.897457 0.998899
v 1.101341 2.897457 0.998899
v 1.000000 1.100142 0.897557
v 1.000000 2.897457 -0.000000
v 1.000000 1.100142 -0.000000
v 2.949262 1.012339 0.897557
v 2.898658 1.012339 0.948161
v 2.898658 0.998800 0.897557
v 2.947121 1.025491 0.946020
v 2.898658 1.049537 0.985360
v 2.949262 1.100142 0.985360
v 2.898658 1.100142 0.998899
v 2.947121 1.051679 0.972209
v 2.986461 1.100142 0.948161
v 2.986461 1.049537 0.897557
v 3.000000 1.100142 0.897557
v 2.973310 1.051679 0.946020
v 2.898658 2.985260 0.948161
v 2.949260 2.985260 0.897557
v 2.898658 2.998801 0.897557
v 2.947119 2.972111 0.946020
v 2.986459 2.948061 0.897557
v 2.986459 2.897457 0.948161
v 3.000000 2.897457 0.897557
v 2.947119 2.945920 0.972209
v 2.949260 2.897457 0.985360
v 2.898658 2.948061 0.985360
v 2.973310 2.945920 0.946020
v 1.101342 1.012338 0.948161
v 1.050738 1.012338 0.897557
v 1.101342 0.998799 0.897557
v 1.052879 1.025490 0.946020
v 1.013539 1.049537 0.897557
v 1.013539 1.100142 0.948161
v 1.052879 1.051679 0.972209
v 1.050738 1.100142 0.985360
v 1.101342 1.049537 0.985360
v 1.026690 1.051679 0.946020
v 1.050738 2.985260 0.897557
v 1.101341 2.985260 0.948161
v 1.101341 2.998799 0.897557
v 1.052878 2.972109 0.946020
v 1.101341 2.948061 0.985360
v 1.050738 2.897457 0.985360
v 1.052878 2.945920 0.972209
v 1.013538 2.897457 0.948161
v 1.013538 2.948061 0.897557
v 1.000000 2.897457 0.897557
v 1.026690 2.945920 0.946020
v 1.050738 2.985260 -0.000000
v 1.101341 2.998799 -0.000000
v 1.013538 2.948061 -0.000000
v 2.949262 1.012339 -0.000000
v 2.898658 0.998800 -0.000000
v 2.986461 1.049537 -0.000000
v 3.000000 1.100142 -0.000000
v 1.101342 0.998799 -0.000000
v 2.986459 2.948061 -0.000000
v 2.949260 2.985260 -0.000000
v 2.898658 2.998801 -0.000000
v 1.013539 1.049537 -0.000000
v 1.050738 1.012338 -0.000000
v 1.101342 1.100142 -0.998899
v 2.898658 2.897457 -0.998899
v 2.898658 1.100142 -0.998899
v 1.000000 1.100142 -0.897557
v 2.898658 1.012339 -0.948161
v 2.949262 1.012339 -0.897557
v 2.898658 0.998800 -0.897557
v 2.898658 1.049537 -0.985360
v 2.947121 1.025491 -0.946020
v 2.949262 1.100142 -0.985360
v 2.986461 1.100142 -0.948161
v 2.947121 1.051679 -0.972209
v 2.986461 1.049537 -0.897557
v 3.000000 1.100142 -0.897557
v 2.973310 1.051679 -0.946020
v 2.949260 2.985260 -0.897557
v 2.898658 2.985260 -0.948161
v 2.898658 2.998801 -0.897557
v 2.973310 2.945920 -0.946020
v 2.947119 2.972111 -0.946020
v 2.986459 2.897457 -0.948161
v 2.986459 2.948061 -0.897557
v 3.000000 2.897457 -0.897557
v 2.947119 2.945920 -0.972209
v 2.898658 2.948061 -0.985360
v 2.949260 2.897457 -0.985360
v 1.050738 1.012338 -0.897557
v 1.101342 1.012338 -0.948161
v 1.101342 0.998799 -0.897557
v 1.013539 1.049537 -0.897557
v 1.052879 1.025490 -0.946020
v 1.013539 1.100142 -0.948161
v 1.052879 1.051679 -0.972209
v 1.026690 1.051679 -0.946020
v 1.101342 1.049537 -0.985360
v 1.050738 1.100142 -0.985360
v 1.101341 2.985260 -0.948161
v 1.050738 2.985260 -0.897557
v 1.101341 2.998799 -0.897557
v 1.101341 2.948061 -0.985360
v 1.052878 2.972109 -0.946020
v 1.050738 2.897457 -0.985360
v 1.101341 2.897457 -0.998899
v 1.013538 2.897457 -0.948161
v 1.052878 2.945920 -0.972209
v 1.013538 2.948061 -0.897557
v 1.000000 2.897457 -0.897557
v 1.026690 2.945920 -0.946020
v 3.000000 2.897457 -0.000000
vt 0.025000 0.177778
vt 0.118056 0.084028
vt 0.118056 0.177778
vt 0.025694 0.186806
vt 0.115972 0.233333
vt 0.025694 0.233333
vt 0.125000 0.186806
vt 0.127778 0.184028
vt 0.127778 0.186806
vt 0.125000 0.184028
vt 0.127083 0.181944
vt 0.022222 0.084028
vt 0.025000 0.081944
vt 0.025000 0.084028
vt 0.022222 0.081944
vt 0.025000 0.079861
vt 0.222917 0.082639
vt 0.225694 0.079861
vt 0.225694 0.082639
vt 0.122917 0.186806
vt 0.123611 0.184028
vt 0.124306 0.182639
vt 0.225694 0.282639
vt 0.223611 0.279861
vt 0.225694 0.279861
vt 0.222917 0.281944
vt 0.220833 0.279861
vt 0.225694 0.178472
vt 0.222917 0.175694
vt 0.225694 0.175694
vt 0.118056 0.079861
vt 0.120833 0.081944
vt 0.118056 0.081944
vt 0.120833 0.084028
vt 0.222917 0.283333
vt 0.225000 0.284028
vt 0.221528 0.281944
vt 0.218056 0.184028
vt 0.220833 0.186806
vt 0.218750 0.186806
vt 0.020833 0.184028
vt 0.022917 0.186806
vt 0.020139 0.186806
vt 0.025000 0.184028
vt 0.022222 0.182639
vt 0.025000 0.181944
vt 0.025000 0.179861
vt 0.022222 0.177778
vt 0.020833 0.179861
vt 0.020139 0.177778
vt 0.022917 0.184028
vt 0.318056 0.279861
vt 0.315972 0.282639
vt 0.315972 0.279861
vt 0.122222 0.179861
vt 0.120833 0.177778
vt 0.122917 0.177778
vt 0.118056 0.179861
vt 0.120833 0.179861
vt 0.118056 0.181944
vt 0.115972 0.184028
vt 0.118750 0.186806
vt 0.115972 0.186806
vt 0.119444 0.184028
vt 0.120139 0.186806
vt 0.120833 0.181250
vt 0.318056 0.233333
vt 0.315972 0.233333
vt 0.118750 0.233333
vt 0.120139 0.233333
vt 0.025000 0.181944
vt 0.020139 0.084028
vt 0.122917 0.084028
vt 0.125000 0.233333
vt 0.127778 0.233333
vt 0.122917 0.233333
vt 0.270833 0.082639
vt 0.270833 0.079861
vt 0.218750 0.233333
vt 0.270833 0.178472
vt 0.223611 0.233333
vt 0.225694 0.233333
vt 0.022917 0.233333
vt 0.020139 0.233333
vt 0.333333 0.777778
vt 0.222222 0.833333
vt 0.222222 0.777778
vt 0.833333 0.888889
vt 0.777778 1.000000
vt 0.777778 0.888889
vt 0.218750 0.084028
vt 0.125000 0.177778
vt 0.125000 0.084028
vt 0.025694 0.279861
vt 0.127778 0.282639
vt 0.125000 0.279861
vt 0.127778 0.279861
vt 0.127083 0.284028
vt 0.125000 0.281944
vt 0.122917 0.084028
vt 0.125000 0.081944
vt 0.318750 0.082639
vt 0.320833 0.079861
vt 0.321528 0.082639
vt 0.316667 0.079861
vt 0.315972 0.082639
vt 0.122917 0.279861
vt 0.123611 0.281944
vt 0.124306 0.283333
vt 0.223611 0.186806
vt 0.225694 0.184028
vt 0.225694 0.186806
vt 0.221528 0.184028
vt 0.222917 0.184028
vt 0.318750 0.175694
vt 0.316667 0.178472
vt 0.315972 0.175694
vt 0.320833 0.178472
vt 0.318750 0.178472
vt 0.125000 0.179861
vt 0.122917 0.177778
vt 0.222917 0.182639
vt 0.225000 0.181944
vt 0.220833 0.279861
vt 0.218056 0.282639
vt 0.218750 0.279861
vt 0.022917 0.279861
vt 0.020833 0.281944
vt 0.020139 0.279861
vt 0.025000 0.282639
vt 0.022222 0.283333
vt 0.022917 0.281944
vt 0.218750 0.081944
vt 0.220833 0.084028
vt 0.220833 0.080556
vt 0.220833 0.081944
vt 0.315972 0.184028
vt 0.318056 0.186806
vt 0.315972 0.186806
vt 0.218750 0.179861
vt 0.220833 0.181250
vt 0.218750 0.181944
vt 0.220833 0.177778
vt 0.218750 0.177778
vt 0.222917 0.177778
vt 0.220833 0.179861
vt 0.118750 0.279861
vt 0.115972 0.282639
vt 0.115972 0.279861
vt 0.120139 0.279861
vt 0.118056 0.281944
vt 0.222222 0.179861
vt 0.218750 0.079861
vt 0.125000 0.079861
vt 0.125000 0.181944
vt 0.321528 0.175694
vt 0.220833 0.186806
vt 0.333333 0.888889
vt 0.222222 0.888889
vt 0.888889 1.000000
vt 0.888889 0.888889
vt 0.022222 0.080556
vt 0.222917 0.079861
vt 0.222917 0.178472
vt 0.120833 0.080556
vt 0.220833 0.184028
vt 0.022222 0.179861
vt 0.318056 0.281944
vt 0.118056 0.184028
vt 0.270833 0.175694
vt 0.220833 0.233333
vt 0.220833 0.233333
vt 0.333333 0.833333
vt 0.833333 1.000000
vt 0.122917 0.081944
vt 0.318750 0.079861
vt 0.122917 0.179861
vt 0.220833 0.281944
vt 0.025000 0.284028
vt 0.318056 0.184028
vt 0.119444 0.281944
vt 0.222917 0.084028
vn -0.1280 -0.1280 0.9835
vn 0.1280 0.1280 0.9835
vn -0.1280 0.1280 0.9835
vn -0.9835 -0.1280 0.1280
vn -0.9915 0.1303 0.0000
vn -0.9915 -0.1303 0.0000
vn 0.4916 -0.8623 0.1216
vn 0.1216 -0.8623 0.4916
vn 0.1280 -0.9835 0.1280
vn 0.4488 -0.7727 0.4488
vn 0.1216 -0.4916 0.8623
vn 0.4916 -0.1216 0.8623
vn 0.1280 -0.1280 0.9835
vn 0.4488 -0.4488 0.7727
vn 0.8623 -0.1216 0.4916
vn 0.8623 -0.4916 0.1216
vn 0.9835 -0.1280 0.1280
vn 0.7727 -0.4488 0.4488
vn 0.1216 0.8623 0.4916
vn 0.4916 0.8623 0.1216
vn 0.1280 0.9835 0.1280
vn 0.4488 0.7727 0.4488
vn 0.8623 0.4916 0.1216
vn 0.8623 0.1216 0.4916
vn 0.9835 0.1280 0.1280
vn 0.4488 0.4488 0.7727
vn 0.4916 0.1216 0.8623
vn 0.1216 0.4916 0.8623
vn 0.7727 0.4488 0.4488
vn -0.1216 -0.8623 0.4916
vn -0.4916 -0.8623 0.1216
vn -0.1280 -0.9835 0.1280
vn -0.4488 -0.7727 0.4488
vn -0.8623 -0.4916 0.1216
vn -0.8623 -0.1216 0.4916
vn -0.4488 -0.4488 0.7727
vn -0.4916 -0.1216 0.8623
vn -0.1216 -0.4916 0.8623
vn -0.7727 -0.4488 0.4488
vn -0.4916 0.8623 0.1216
vn -0.1216 0.8623 0.4916
vn -0.1280 0.9835 0.1280
vn -0.4488 0.7727 0.4488
vn -0.1216 0.4916 0.8623
vn -0.4916 0.1216 0.8623
vn -0.4488 0.4488 0.7727
vn -0.8623 0.1216 0.4916
vn -0.8623 0.4916 0.1216
vn -0.9835 0.1280 0.1280
vn -0.7727 0.4488 0.4488
vn -0.4998 0.8661 0.0000
vn -0.1303 0.9915 0.0000
vn -0.8661 0.4998 0.0000
vn 0.4998 -0.8661 0.0000
vn 0.1303 -0.9915 0.0000
vn 0.8661 -0.4998 0.0000
vn 0.9915 -0.1303 -0.0000
vn -0.1303 -0.9915 0.0000
vn 0.8661 0.4999 -0.0000
vn 0.4999 0.8661 -0.0000
vn 0.1304 0.9915 -0.0000
vn -0.8661 -0.4998 0.0000
vn -0.4998 -0.8661 0.0000
vn -0.1280 -0.1280 -0.9835
vn 0.1280 0.1280 -0.9835
vn 0.1280 -0.1280 -0.9835
vn -0.9835 -0.1280 -0.1280
vn 0.1216 -0.8623 -0.4916
vn 0.4916 -0.8623 -0.1216
vn 0.1280 -0.9835 -0.1280
vn 0.1216 -0.4916 -0.8623
vn 0.4488 -0.7727 -0.4488
vn 0.4916 -0.1216 -0.8623
vn 0.8623 -0.1216 -0.4916
vn 0.4488 -0.4488 -0.7727
vn 0.8623 -0.4916 -0.1216
vn 0.9835 -0.1280 -0.1280
vn 0.7727 -0.4488 -0.4488
vn 0.4916 0.8623 -0.1216
vn 0.1216 0.8623 -0.4916
vn 0.1280 0.9835 -0.1280
vn 0.7727 0.4488 -0.4488
vn 0.4488 0.7727 -0.4488
vn 0.8623 0.1216 -0.4916
vn 0.8623 0.4916 -0.1216
vn 0.9835 0.1280 -0.1280
vn 0.4488 0.4488 -0.7727
vn 0.1216 0.4916 -0.8623
vn 0.4916 0.1216 -0.8623
vn -0.4916 -0.8623 -0.1216
vn -0.1216 -0.8623 -0.4916
vn -0.1280 -0.9835 -0.1280
vn -0.8623 -0.4916 -0.1216
vn -0.4488 -0.7727 -0.4488
vn -0.8623 -0.1216 -0.4916
vn -0.4488 -0.4488 -0.7727
vn -0.7727 -0.4488 -0.4488
vn -0.1216 -0.4916 -0.8623
vn -0.4916 -0.1216 -0.8623
vn -0.1216 0.8623 -0.4916
vn -0.4916 0.8623 -0.1216
vn -0.1280 0.9835 -0.1280
vn -0.1216 0.4916 -0.8623
vn -0.4489 0.7727 -0.4488
vn -0.4916 0.1216 -0.8623
vn -0.1280 0.1280 -0.9835
vn -0.8623 0.1216 -0.4916
vn -0.4488 0.4488 -0.7727
vn -0.8623 0.4916 -0.1216
vn -0.9835 0.1280 -0.1280
vn -0.7727 0.4488 -0.4488
vn 0.9915 0.1304 -0.0000
usemtl CubeCustomText
s 1
f 1/1/1 2/2/2 3/3/3
f 4/4/4 5/5/5 6/6/6
f 7/7/7 8/8/8 9/9/9
f 10/10/10 11/11/11 8/8/8
f 11/12/11 12/13/12 13/14/13
f 14/15/14 15/16/15 12/13/12
f 15/17/15 16/18/16 17/19/17
f 16/20/16 10/10/10 7/7/7
f 10/10/10 18/21/18 14/22/14
f 19/23/19 20/24/20 21/25/21
f 22/26/22 23/27/23 20/24/20
f 23/28/23 24/29/24 25/30/25
f 24/31/24 26/32/26 27/33/27
f 27/33/27 28/34/28 2/2/2
f 26/35/26 19/23/19 28/36/28
f 22/26/22 26/35/26 29/37/29
f 30/38/30 31/39/31 32/40/32
f 33/41/33 34/42/34 31/43/31
f 34/42/34 35/44/35 4/4/4
f 35/44/35 36/45/36 37/46/37
f 37/47/37 38/48/38 1/1/1
f 38/48/38 33/49/33 30/50/30
f 33/41/33 36/45/36 39/51/39
f 40/52/40 41/53/41 42/54/42
f 43/55/43 44/56/44 41/57/41
f 44/56/44 45/58/45 3/3/3
f 46/59/46 47/60/47 45/58/45
f 47/61/47 48/62/48 49/63/49
f 48/62/48 43/64/43 40/65/40
f 43/55/43 50/66/50 46/59/46
f 51/67/51 42/54/42 52/68/52
f 53/69/53 40/65/40 51/70/51
f 5/5/5 48/62/48 53/69/53
f 45/58/45 1/1/1 3/3/3
f 45/58/45 35/71/35 37/47/37
f 49/63/49 35/44/35 47/61/47
f 9/9/9 30/38/30 32/40/32
f 11/12/11 30/50/30 8/72/8
f 13/14/13 38/48/38 11/12/11
f 42/54/42 19/23/19 21/25/21
f 44/56/44 19/73/19 41/57/41
f 3/3/3 28/34/28 44/56/44
f 24/29/24 17/19/17 25/30/25
f 27/33/27 15/16/15 24/31/24
f 2/2/2 12/13/12 27/33/27
f 54/74/54 9/9/9 55/75/55
f 56/76/56 7/7/7 54/74/54
f 57/77/57 16/18/16 56/78/56
f 55/75/55 32/40/32 58/79/58
f 25/30/25 59/80/59 23/28/23
f 23/27/23 60/81/60 20/24/20
f 20/24/20 61/82/61 21/25/21
f 4/4/4 62/83/62 34/42/34
f 34/42/34 63/84/63 31/43/31
f 31/39/31 58/79/58 32/40/32
f 21/85/21 52/86/52 42/87/42
f 57/88/57 25/89/25 17/90/17
f 64/91/64 65/92/65 66/93/66
f 5/5/5 67/94/67 6/6/6
f 68/95/68 69/96/69 70/97/70
f 71/98/71 72/99/72 68/95/68
f 73/100/73 71/101/71 66/93/66
f 74/102/74 75/103/75 73/104/73
f 76/105/76 74/102/74 77/106/77
f 76/107/76 72/99/72 78/108/78
f 72/99/72 75/109/75 78/108/78
f 79/110/79 80/111/80 81/112/81
f 79/110/79 82/113/82 83/114/83
f 84/115/84 85/116/85 86/117/86
f 84/115/84 87/118/87 82/119/82
f 88/120/88 89/121/89 65/92/65
f 80/111/80 87/122/87 88/123/88
f 83/114/83 82/113/82 87/122/87
f 90/124/90 91/125/91 92/126/92
f 93/127/93 94/128/94 90/129/90
f 95/130/95 93/127/93 67/94/67
f 95/130/95 96/131/96 97/132/97
f 98/133/98 99/134/99 64/91/64
f 98/133/98 94/135/94 96/136/96
f 94/128/94 97/132/97 96/131/96
f 100/137/100 101/138/101 102/139/102
f 103/140/103 104/141/104 100/142/100
f 105/143/105 103/140/103 106/144/106
f 107/145/107 108/146/108 105/143/105
f 109/147/109 107/148/107 110/149/110
f 101/150/101 111/151/111 109/147/109
f 104/141/104 108/146/108 111/152/111
f 102/139/102 51/67/51 52/68/52
f 101/150/101 53/69/53 51/70/51
f 109/147/109 5/5/5 53/69/53
f 64/91/64 105/143/105 106/144/106
f 99/134/99 107/145/107 105/143/105
f 95/130/95 110/149/110 107/148/107
f 92/126/92 68/95/68 70/97/70
f 91/153/91 71/101/71 68/154/68
f 98/133/98 66/93/66 71/101/71
f 102/139/102 80/111/80 100/137/100
f 80/155/80 103/140/103 100/142/100
f 88/120/88 106/144/106 103/140/103
f 77/106/77 84/115/84 86/117/86
f 74/102/74 89/156/89 84/115/84
f 73/100/73 65/92/65 89/121/89
f 70/97/70 54/74/54 55/75/55
f 69/96/69 56/76/56 54/74/54
f 76/105/76 57/77/57 56/78/56
f 92/126/92 55/75/55 58/79/58
f 59/80/59 86/117/86 85/116/85
f 60/81/60 85/157/85 79/110/79
f 61/82/61 79/110/79 81/112/81
f 62/83/62 67/94/67 93/127/93
f 63/84/63 93/127/93 90/129/90
f 58/79/58 90/124/90 92/126/92
f 52/86/52 81/158/81 102/159/102
f 86/160/86 57/88/57 77/161/77
f 1/1/1 13/14/13 2/2/2
f 4/4/4 49/63/49 5/5/5
f 7/7/7 10/10/10 8/8/8
f 10/10/10 14/22/14 11/11/11
f 11/12/11 14/15/14 12/13/12
f 14/15/14 18/162/18 15/16/15
f 15/17/15 18/163/18 16/18/16
f 16/20/16 18/21/18 10/10/10
f 19/23/19 22/26/22 20/24/20
f 22/26/22 29/37/29 23/27/23
f 23/28/23 29/164/29 24/29/24
f 24/31/24 29/165/29 26/32/26
f 27/33/27 26/32/26 28/34/28
f 26/35/26 22/26/22 19/23/19
f 30/38/30 33/166/33 31/39/31
f 33/41/33 39/51/39 34/42/34
f 34/42/34 39/51/39 35/44/35
f 35/44/35 39/51/39 36/45/36
f 37/47/37 36/167/36 38/48/38
f 38/48/38 36/167/36 33/49/33
f 40/52/40 43/168/43 41/53/41
f 43/55/43 46/59/46 44/56/44
f 44/56/44 46/59/46 45/58/45
f 46/59/46 50/66/50 47/60/47
f 47/61/47 50/169/50 48/62/48
f 48/62/48 50/169/50 43/64/43
f 51/67/51 40/52/40 42/54/42
f 53/69/53 48/62/48 40/65/40
f 5/5/5 49/63/49 48/62/48
f 45/58/45 37/47/37 1/1/1
f 45/58/45 47/60/47 35/71/35
f 49/63/49 4/4/4 35/44/35
f 9/9/9 8/8/8 30/38/30
f 11/12/11 38/48/38 30/50/30
f 13/14/13 1/1/1 38/48/38
f 42/54/42 41/53/41 19/23/19
f 44/56/44 28/34/28 19/73/19
f 3/3/3 2/2/2 28/34/28
f 24/29/24 15/17/15 17/19/17
f 27/33/27 12/13/12 15/16/15
f 2/2/2 13/14/13 12/13/12
f 54/74/54 7/7/7 9/9/9
f 56/76/56 16/20/16 7/7/7
f 57/77/57 17/19/17 16/18/16
f 55/75/55 9/9/9 32/40/32
f 25/30/25 112/170/112 59/80/59
f 23/27/23 59/171/59 60/81/60
f 20/24/20 60/81/60 61/82/61
f 4/4/4 6/6/6 62/83/62
f 34/42/34 62/83/62 63/84/63
f 31/39/31 63/172/63 58/79/58
f 21/85/21 61/173/61 52/86/52
f 57/88/57 112/174/112 25/89/25
f 64/91/64 106/144/106 65/92/65
f 5/5/5 110/149/110 67/94/67
f 68/95/68 72/99/72 69/96/69
f 71/98/71 75/109/75 72/99/72
f 73/100/73 75/175/75 71/101/71
f 74/102/74 78/176/78 75/103/75
f 76/105/76 78/176/78 74/102/74
f 76/107/76 69/96/69 72/99/72
f 79/110/79 83/114/83 80/111/80
f 79/110/79 85/157/85 82/113/82
f 84/115/84 82/119/82 85/116/85
f 84/115/84 89/156/89 87/118/87
f 88/120/88 87/177/87 89/121/89
f 80/111/80 83/114/83 87/122/87
f 90/124/90 94/178/94 91/125/91
f 93/127/93 97/132/97 94/128/94
f 95/130/95 97/132/97 93/127/93
f 95/130/95 99/179/99 96/131/96
f 98/133/98 96/136/96 99/134/99
f 98/133/98 91/153/91 94/135/94
f 100/137/100 104/180/104 101/138/101
f 103/140/103 108/146/108 104/141/104
f 105/143/105 108/146/108 103/140/103
f 107/145/107 111/152/111 108/146/108
f 109/147/109 111/151/111 107/148/107
f 101/150/101 104/181/104 111/151/111
f 102/139/102 101/138/101 51/67/51
f 101/150/101 109/147/109 53/69/53
f 109/147/109 110/149/110 5/5/5
f 64/91/64 99/134/99 105/143/105
f 99/134/99 95/182/95 107/145/107
f 95/130/95 67/94/67 110/149/110
f 92/126/92 91/125/91 68/95/68
f 91/153/91 98/133/98 71/101/71
f 98/133/98 64/91/64 66/93/66
f 102/139/102 81/112/81 80/111/80
f 80/155/80 88/120/88 103/140/103
f 88/120/88 65/92/65 106/144/106
f 77/106/77 74/102/74 84/115/84
f 74/102/74 73/104/73 89/156/89
f 73/100/73 66/93/66 65/92/65
f 70/97/70 69/96/69 54/74/54
f 69/96/69 76/107/76 56/76/56
f 76/105/76 77/106/77 57/77/57
f 92/126/92 70/97/70 55/75/55
f 59/80/59 112/170/112 86/117/86
f 60/81/60 59/171/59 85/157/85
f 61/82/61 60/81/60 79/110/79
f 62/83/62 6/6/6 67/94/67
f 63/84/63 62/83/62 93/127/93
f 58/79/58 63/172/63 90/124/90
f 52/86/52 61/173/61 81/158/81
f 86/160/86 112/174/112 57/88/57
