# Blender v2.93.2 OBJ File: 'cubeTexture.blend'
# www.blender.org
mtllib piece9.mtl
o Rubiks_Cube_Cube.009_Rubiks_Cube_Cube.016
v -1.101342 0.897260 -3.000000
v -2.898658 0.947865 -2.986461
v -1.101342 0.947865 -2.986461
v -1.013539 0.897260 -2.949262
v -1.050738 -0.000000 -2.986461
v -1.050738 0.897260 -2.986461
v -2.898658 0.897260 -3.000000
v -2.949262 -0.000000 -2.986461
v -2.949262 0.897260 -2.986461
v -1.050738 0.897260 -1.013539
v -1.013539 -0.000000 -1.050738
v -1.013539 0.897260 -1.050738
v -3.000000 0.897260 -2.898658
v -2.986461 0.947865 -1.101342
v -2.986461 0.947865 -2.898658
v -2.898658 0.985064 -2.949262
v -1.101342 0.985064 -2.949262
v -2.898658 0.998603 -2.898658
v -1.101342 0.998603 -2.898658
v -1.050738 0.985064 -1.101342
v -1.101342 0.998603 -1.101342
v -2.986461 -0.000000 -2.949262
v -2.986461 0.897260 -2.949262
v -2.949262 0.985064 -2.898658
v -2.898658 0.998603 -1.101342
v -1.101342 -0.000000 -3.000000
v -1.000000 0.897260 -2.898658
v -1.013539 -0.000000 -2.949262
v -3.000000 -0.000000 -2.898658
v -1.101342 0.897260 -1.000000
v -1.050738 -0.000000 -1.013539
v -1.013539 0.947865 -2.898658
v -1.052879 0.971912 -2.947121
v -1.050738 0.985064 -2.898658
v -2.898658 0.897260 -1.000000
v -1.101342 0.947865 -1.013539
v -2.898658 0.947865 -1.013539
v -2.949262 -0.000000 -1.013539
v -2.986461 0.897260 -1.050738
v -2.986461 -0.000000 -1.050738
v -2.947121 0.945723 -2.973310
v -2.947121 0.971912 -2.947121
v -2.973310 0.945723 -2.947121
v -1.026690 0.945723 -2.947121
v -1.052879 0.945723 -2.973310
v -2.898658 -0.000000 -1.000000
v -2.949262 0.897260 -1.013539
v -1.101342 0.985064 -1.050738
v -2.898658 0.985064 -1.050738
v -1.052879 0.971912 -1.052879
v -1.052879 0.945723 -1.026690
v -1.026690 0.945723 -1.052879
v -1.013539 0.947865 -1.101342
v -2.973310 0.945723 -1.052879
v -2.947121 0.945723 -1.026690
v -2.947121 0.971912 -1.052879
v -2.949262 0.985064 -1.101342
v -1.000000 0.897260 -1.101342
v -3.000000 0.897260 -1.101342
v -3.000000 -0.000000 -1.101342
v -1.101342 -0.000000 -1.000000
v -2.898658 -0.000000 -3.000000
v -1.000000 -0.000000 -2.898658
v -1.000000 -0.000000 -1.101342
v -2.898658 -0.947865 -2.986461
v -1.101342 -0.897260 -3.000000
v -1.101342 -0.947865 -2.986461
v -1.013539 -0.897260 -2.949262
v -1.050738 -0.897260 -2.986461
v -2.898658 -0.897260 -3.000000
v -2.949262 -0.897260 -2.986461
v -1.050738 -0.897260 -1.013539
v -1.013539 -0.897260 -1.050738
v -2.986461 -0.947865 -1.101342
v -3.000000 -0.897260 -2.898658
v -2.986461 -0.947865 -2.898658
v -2.898658 -0.985065 -2.949262
v -1.101342 -0.985064 -2.949262
v -2.898658 -0.998603 -2.898658
v -1.101342 -0.998603 -2.898658
v -1.050738 -0.985064 -1.101342
v -1.101342 -0.998603 -1.101342
v -2.986461 -0.897260 -2.949262
v -2.898658 -0.998603 -1.101342
v -2.949262 -0.985065 -2.898658
v -1.000000 -0.897260 -2.898658
v -1.101342 -0.897260 -1.000000
v -1.013539 -0.947865 -2.898658
v -1.052879 -0.971912 -2.947121
v -1.026690 -0.945723 -2.947121
v -1.101342 -0.947865 -1.013539
v -2.898658 -0.897260 -1.000000
v -2.898658 -0.947865 -1.013539
v -2.986461 -0.897260 -1.050738
v -1.050738 -0.985064 -2.898658
v -2.947121 -0.945723 -2.973310
v -2.973310 -0.945723 -2.947121
v -2.947121 -0.971913 -2.947121
v -1.052879 -0.945723 -2.973310
v -2.949262 -0.897260 -1.013539
v -1.101342 -0.985064 -1.050738
v -2.898658 -0.985065 -1.050738
v -1.052879 -0.971912 -1.052879
v -1.026690 -0.945723 -1.052879
v -1.052879 -0.945723 -1.026690
v -1.013539 -0.947865 -1.101342
v -2.973310 -0.945723 -1.052879
v -2.947121 -0.971913 -1.052879
v -2.947121 -0.945723 -1.026690
v -2.949262 -0.985065 -1.101342
v -1.000000 -0.897260 -1.101342
v -3.000000 -0.897260 -1.101342
vt 0.221528 0.167361
vt 0.310417 0.169444
vt 0.221528 0.169444
vt 0.313194 0.268056
vt 0.315278 0.222222
vt 0.315278 0.268056
vt 0.310417 0.167361
vt 0.313194 0.120833
vt 0.313194 0.167361
vt 0.118056 0.167361
vt 0.119444 0.120833
vt 0.119444 0.167361
vt 0.122222 0.175694
vt 0.119444 0.267361
vt 0.119444 0.175694
vt 0.118750 0.176389
vt 0.116667 0.268056
vt 0.116667 0.176389
vt 0.113889 0.268056
vt 0.113889 0.176389
vt 0.021528 0.173611
vt 0.021528 0.176389
vt 0.315278 0.120833
vt 0.315278 0.167361
vt 0.113889 0.270833
vt 0.021528 0.268056
vt 0.218750 0.167361
vt 0.221528 0.120833
vt 0.310417 0.268056
vt 0.313194 0.222222
vt 0.122222 0.172917
vt 0.168056 0.175000
vt 0.115278 0.167361
vt 0.118056 0.120833
vt 0.311111 0.270833
vt 0.313889 0.272222
vt 0.311111 0.272917
vt 0.022917 0.167361
vt 0.115278 0.169444
vt 0.022917 0.169444
vt 0.168056 0.271528
vt 0.122222 0.269444
vt 0.168056 0.269444
vt 0.113889 0.173611
vt 0.313194 0.169444
vt 0.313194 0.170833
vt 0.314583 0.169444
vt 0.116667 0.270833
vt 0.113889 0.272917
vt 0.311111 0.171528
vt 0.116667 0.173611
vt 0.313194 0.270833
vt 0.315278 0.270833
vt 0.022917 0.120833
vt 0.020139 0.167361
vt 0.020139 0.120833
vt 0.115278 0.171528
vt 0.022917 0.171528
vt 0.019444 0.268056
vt 0.117361 0.170833
vt 0.117361 0.169444
vt 0.118750 0.169444
vt 0.019444 0.173611
vt 0.021528 0.171528
vt 0.019444 0.176389
vt 0.019444 0.169444
vt 0.020139 0.169444
vt 0.020139 0.170833
vt 0.021528 0.270833
vt 0.122222 0.271528
vt 0.120139 0.269444
vt 0.220833 0.270833
vt 0.218056 0.268056
vt 0.220833 0.268056
vt 0.122222 0.267361
vt 0.777778 0.500000
vt 0.666667 0.555556
vt 0.666667 0.500000
vt 0.115278 0.120833
vt 0.666667 0.500000
vt 0.555556 0.555556
vt 0.555556 0.500000
vt 0.021528 0.272917
vt 0.019444 0.270833
vt 0.310417 0.222222
vt 0.220833 0.222222
vt 0.168056 0.266667
vt 0.310417 0.072222
vt 0.221528 0.075000
vt 0.221528 0.072222
vt 0.313194 0.176389
vt 0.315278 0.176389
vt 0.310417 0.075000
vt 0.313194 0.075000
vt 0.118056 0.075000
vt 0.119444 0.075000
vt 0.215972 0.265972
vt 0.213889 0.174306
vt 0.215972 0.174306
vt 0.216667 0.170139
vt 0.124306 0.171528
vt 0.124306 0.170139
vt 0.216667 0.167361
vt 0.124306 0.167361
vt 0.121528 0.075000
vt 0.124306 0.075000
vt 0.315278 0.075000
vt 0.216667 0.075000
vt 0.218750 0.167361
vt 0.218750 0.075000
vt 0.310417 0.176389
vt 0.213889 0.171528
vt 0.115278 0.075000
vt 0.311111 0.173611
vt 0.313889 0.172222
vt 0.313194 0.173611
vt 0.115278 0.072222
vt 0.022917 0.075000
vt 0.022917 0.072222
vt 0.213889 0.268750
vt 0.121528 0.167361
vt 0.313194 0.072222
vt 0.314583 0.072222
vt 0.313194 0.071528
vt 0.218056 0.172222
vt 0.218056 0.174306
vt 0.121528 0.169444
vt 0.315278 0.173611
vt 0.020139 0.075000
vt 0.115278 0.070833
vt 0.022917 0.070833
vt 0.216667 0.072222
vt 0.121528 0.072222
vt 0.120139 0.072222
vt 0.121528 0.071528
vt 0.118750 0.072222
vt 0.119444 0.075000
vt 0.124306 0.072222
vt 0.215972 0.268750
vt 0.218056 0.268750
vt 0.216667 0.270139
vt 0.218750 0.075000
vt 0.213889 0.270833
vt 0.020139 0.071528
vt 0.218056 0.176389
vt 0.220833 0.173611
vt 0.220833 0.176389
vt 0.213889 0.265972
vt 0.666667 0.444444
vt 0.555556 0.444444
vt 0.117361 0.071528
vt 0.117361 0.072222
vt 0.218056 0.265972
vt 0.310417 0.120833
vt 0.118750 0.268056
vt 0.218750 0.120833
vt 0.168056 0.172222
vt 0.219444 0.169444
vt 0.120139 0.172917
vt 0.116667 0.272222
vt 0.118056 0.173611
vt 0.019444 0.172222
vt 0.120139 0.271528
vt 0.218750 0.270833
vt 0.777778 0.555556
vt 0.666667 0.555556
vt 0.019444 0.272222
vt 0.113889 0.171528
vt 0.218056 0.222222
vt 0.216667 0.171528
vt 0.311111 0.171528
vt 0.219444 0.072222
vt 0.215972 0.172222
vt 0.218750 0.169444
vt 0.311111 0.070833
vt 0.121528 0.170833
vt 0.218750 0.072222
vt 0.020139 0.072222
vt 0.218750 0.173611
vt 0.777778 0.444444
vt 0.666667 0.444444
vt 0.124306 0.070833
vt 0.119444 0.167361
vn 0.1280 0.1280 -0.9835
vn -0.1216 0.4916 -0.8623
vn 0.1216 0.4916 -0.8623
vn 0.8623 0.1216 -0.4916
vn 0.4998 0.0000 -0.8661
vn 0.4916 0.1216 -0.8623
vn -0.1280 0.1280 -0.9835
vn -0.4998 0.0000 -0.8661
vn -0.4916 0.1216 -0.8623
vn 0.4916 0.1216 0.8623
vn 0.8661 0.0000 0.4998
vn 0.8623 0.1216 0.4916
vn -0.9835 0.1280 -0.1280
vn -0.8623 0.4916 0.1216
vn -0.8623 0.4916 -0.1216
vn -0.1216 0.8623 -0.4916
vn 0.1216 0.8623 -0.4916
vn -0.1280 0.9835 -0.1280
vn 0.1280 0.9835 -0.1280
vn 0.4916 0.8623 0.1216
vn 0.1280 0.9835 0.1280
vn -0.8661 0.0000 -0.4998
vn -0.8623 0.1216 -0.4916
vn -0.4916 0.8623 -0.1216
vn -0.1280 0.9835 0.1280
vn 0.1303 0.0000 -0.9915
vn 0.9835 0.1280 -0.1280
vn 0.8661 0.0000 -0.4998
vn -0.9915 0.0000 -0.1303
vn 0.1280 0.1280 0.9835
vn 0.4998 0.0000 0.8661
vn 0.8623 0.4916 -0.1216
vn 0.4488 0.7727 -0.4488
vn 0.4916 0.8623 -0.1216
vn -0.1280 0.1280 0.9835
vn 0.1216 0.4916 0.8623
vn -0.1216 0.4916 0.8623
vn -0.4998 0.0000 0.8661
vn -0.8623 0.1216 0.4916
vn -0.8661 -0.0000 0.4998
vn -0.4488 0.4488 -0.7727
vn -0.4488 0.7727 -0.4488
vn -0.7727 0.4488 -0.4488
vn 0.7727 0.4488 -0.4488
vn 0.4488 0.4488 -0.7727
vn -0.1303 0.0000 0.9915
vn -0.4916 0.1216 0.8623
vn 0.1216 0.8623 0.4916
vn -0.1216 0.8623 0.4916
vn 0.4488 0.7727 0.4489
vn 0.4488 0.4488 0.7727
vn 0.7727 0.4488 0.4488
vn 0.8623 0.4916 0.1216
vn -0.7727 0.4488 0.4488
vn -0.4488 0.4488 0.7727
vn -0.4489 0.7727 0.4488
vn -0.4916 0.8623 0.1216
vn 0.9835 0.1280 0.1280
vn -0.9835 0.1280 0.1280
vn -0.9915 -0.0000 0.1303
vn 0.1303 0.0000 0.9915
vn -0.1303 0.0000 -0.9915
vn 0.9915 0.0000 -0.1303
vn 0.9915 0.0000 0.1303
vn -0.1216 -0.4916 -0.8623
vn 0.1280 -0.1280 -0.9835
vn 0.1216 -0.4916 -0.8623
vn 0.8623 -0.1216 -0.4916
vn 0.4916 -0.1216 -0.8623
vn -0.1280 -0.1280 -0.9835
vn -0.4916 -0.1216 -0.8623
vn 0.4916 -0.1216 0.8623
vn 0.8623 -0.1216 0.4916
vn -0.8623 -0.4916 0.1216
vn -0.9835 -0.1280 -0.1280
vn -0.8623 -0.4916 -0.1216
vn -0.1216 -0.8623 -0.4916
vn 0.1216 -0.8623 -0.4916
vn -0.1280 -0.9835 -0.1280
vn 0.1280 -0.9835 -0.1280
vn 0.4916 -0.8623 0.1216
vn 0.1280 -0.9835 0.1280
vn -0.8623 -0.1216 -0.4916
vn -0.1280 -0.9835 0.1280
vn -0.4916 -0.8623 -0.1216
vn 0.9835 -0.1280 -0.1280
vn 0.1280 -0.1280 0.9835
vn 0.8623 -0.4916 -0.1216
vn 0.4488 -0.7727 -0.4488
vn 0.7727 -0.4488 -0.4488
vn 0.1216 -0.4916 0.8623
vn -0.1280 -0.1280 0.9835
vn -0.1216 -0.4916 0.8623
vn -0.8623 -0.1216 0.4916
vn 0.4916 -0.8623 -0.1216
vn -0.4488 -0.4488 -0.7727
vn -0.7727 -0.4488 -0.4489
vn -0.4489 -0.7727 -0.4489
vn 0.4488 -0.4488 -0.7727
vn -0.4916 -0.1216 0.8623
vn 0.1216 -0.8623 0.4916
vn -0.1216 -0.8623 0.4916
vn 0.4488 -0.7727 0.4488
vn 0.7727 -0.4488 0.4488
vn 0.4488 -0.4488 0.7727
vn 0.8623 -0.4916 0.1216
vn -0.7727 -0.4488 0.4488
vn -0.4489 -0.7727 0.4489
vn -0.4488 -0.4488 0.7727
vn -0.4916 -0.8623 0.1216
vn 0.9835 -0.1280 0.1280
vn -0.9835 -0.1280 0.1280
usemtl CubeCustomText
s 1
f 1/1/1 2/2/2 3/3/3
f 4/4/4 5/5/5 6/6/6
f 7/7/7 8/8/8 9/9/9
f 10/10/10 11/11/11 12/12/12
f 13/13/13 14/14/14 15/15/15
f 3/16/3 16/17/16 17/18/17
f 17/18/17 18/19/18 19/20/19
f 20/21/20 19/20/19 21/22/21
f 9/9/9 22/23/22 23/24/23
f 24/25/24 25/26/25 18/19/18
f 6/27/6 26/28/26 1/1/1
f 27/29/27 28/30/28 4/4/4
f 23/31/23 29/32/29 13/13/13
f 30/33/30 31/34/31 10/10/10
f 32/35/32 33/36/33 34/37/34
f 9/9/9 2/2/2 7/7/7
f 35/38/35 36/39/36 37/40/37
f 4/4/4 32/35/32 27/29/27
f 38/41/38 39/42/39 40/43/40
f 3/3/3 6/27/6 1/1/1
f 34/44/34 17/18/17 19/20/19
f 23/24/23 41/45/41 9/9/9
f 42/46/42 41/45/41 43/47/43
f 15/15/15 23/31/23 13/13/13
f 16/17/16 24/25/24 18/19/18
f 42/48/42 15/49/15 24/25/24
f 2/2/2 42/46/42 16/50/16
f 33/51/33 3/16/3 17/18/17
f 33/36/33 44/52/44 45/53/45
f 46/54/46 47/55/47 38/56/38
f 6/6/6 44/52/44 4/4/4
f 37/40/37 48/57/48 49/58/49
f 49/59/49 21/22/21 25/26/25
f 50/60/50 51/61/51 52/62/52
f 12/12/12 51/61/51 10/10/10
f 10/10/10 36/39/36 30/33/30
f 50/63/50 53/64/53 20/21/20
f 48/65/48 20/21/20 21/22/21
f 54/66/54 55/67/55 56/68/56
f 57/69/57 49/59/49 25/26/25
f 47/70/47 54/71/54 39/42/39
f 56/68/56 37/40/37 49/58/49
f 37/40/37 47/55/47 35/38/35
f 53/72/53 12/73/12 58/74/58
f 39/42/39 14/14/14 59/75/59
f 60/76/60 13/77/13 29/78/29
f 61/79/61 35/38/35 46/54/46
f 62/80/62 1/81/1 26/82/26
f 14/83/14 56/84/56 57/69/57
f 18/19/18 21/22/21 19/20/19
f 63/85/63 58/74/58 64/86/64
f 36/39/36 50/60/50 48/57/48
f 53/64/53 34/44/34 20/21/20
f 58/74/58 32/35/32 53/72/53
f 15/49/15 57/69/57 24/25/24
f 12/73/12 64/86/64 58/74/58
f 40/43/40 59/75/59 60/87/60
f 65/88/65 66/89/66 67/90/67
f 5/5/5 68/91/68 69/92/69
f 8/8/8 70/93/70 71/94/71
f 11/11/11 72/95/72 73/96/73
f 74/97/74 75/98/75 76/99/76
f 77/100/77 67/101/67 78/102/78
f 79/103/79 78/102/78 80/104/80
f 80/104/80 81/105/81 82/106/82
f 22/23/22 71/94/71 83/107/83
f 84/108/84 85/109/85 79/103/79
f 26/28/26 69/110/69 66/89/66
f 28/30/28 86/111/86 68/91/68
f 29/32/29 83/112/83 75/98/75
f 31/34/31 87/113/87 72/95/72
f 88/114/88 89/115/89 90/116/90
f 65/88/65 71/94/71 70/93/70
f 91/117/91 92/118/92 93/119/93
f 88/114/88 68/91/68 86/111/86
f 94/120/94 38/41/38 40/43/40
f 69/110/69 67/90/67 66/89/66
f 78/102/78 95/121/95 80/104/80
f 83/107/83 96/122/96 97/123/97
f 98/124/98 97/123/97 96/122/96
f 83/112/83 76/99/76 75/98/75
f 85/109/85 77/100/77 79/103/79
f 76/99/76 98/125/98 85/126/85
f 65/88/65 98/124/98 96/122/96
f 67/101/67 89/127/89 78/102/78
f 89/115/89 99/128/99 90/116/90
f 100/129/100 46/54/46 38/56/38
f 68/91/68 99/128/99 69/92/69
f 101/130/101 93/119/93 102/131/102
f 82/106/82 102/132/102 84/108/84
f 103/133/103 104/134/104 105/135/105
f 72/95/72 104/136/104 73/96/73
f 91/117/91 72/95/72 87/113/87
f 106/137/106 103/133/103 81/105/81
f 81/105/81 101/138/101 82/106/82
f 107/139/107 108/140/108 109/141/109
f 102/132/102 110/142/110 84/108/84
f 100/143/100 107/139/107 109/141/109
f 93/119/93 108/144/108 102/131/102
f 100/129/100 93/119/93 92/118/92
f 73/145/73 106/146/106 111/147/111
f 74/97/74 94/120/94 112/148/112
f 75/149/75 60/76/60 29/78/29
f 92/118/92 61/79/61 46/54/46
f 66/150/66 62/80/62 26/82/26
f 74/97/74 108/140/108 107/139/107
f 82/106/82 79/103/79 80/104/80
f 111/147/111 63/85/63 64/86/64
f 91/117/91 103/151/103 105/152/105
f 95/121/95 106/137/106 81/105/81
f 88/114/88 111/147/111 106/146/106
f 110/153/110 76/99/76 85/126/85
f 64/86/64 73/145/73 111/147/111
f 112/148/112 40/43/40 60/87/60
f 1/1/1 7/7/7 2/2/2
f 4/4/4 28/30/28 5/5/5
f 7/7/7 62/154/62 8/8/8
f 10/10/10 31/34/31 11/11/11
f 13/13/13 59/75/59 14/14/14
f 3/16/3 2/155/2 16/17/16
f 17/18/17 16/17/16 18/19/18
f 20/21/20 34/44/34 19/20/19
f 9/9/9 8/8/8 22/23/22
f 24/25/24 57/69/57 25/26/25
f 6/27/6 5/156/5 26/28/26
f 27/29/27 63/85/63 28/30/28
f 23/31/23 22/157/22 29/32/29
f 30/33/30 61/79/61 31/34/31
f 32/35/32 44/52/44 33/36/33
f 9/9/9 41/45/41 2/2/2
f 35/38/35 30/33/30 36/39/36
f 4/4/4 44/52/44 32/35/32
f 38/41/38 47/70/47 39/42/39
f 3/3/3 45/158/45 6/27/6
f 34/44/34 33/51/33 17/18/17
f 23/24/23 43/47/43 41/45/41
f 15/15/15 43/159/43 23/31/23
f 16/17/16 42/48/42 24/25/24
f 42/48/42 43/160/43 15/49/15
f 2/2/2 41/45/41 42/46/42
f 33/51/33 45/161/45 3/16/3
f 46/54/46 35/38/35 47/55/47
f 6/6/6 45/53/45 44/52/44
f 37/40/37 36/39/36 48/57/48
f 49/59/49 48/65/48 21/22/21
f 12/12/12 52/62/52 51/61/51
f 10/10/10 51/61/51 36/39/36
f 50/63/50 52/162/52 53/64/53
f 48/65/48 50/63/50 20/21/20
f 57/69/57 56/84/56 49/59/49
f 47/70/47 55/163/55 54/71/54
f 56/68/56 55/67/55 37/40/37
f 37/40/37 55/67/55 47/55/47
f 53/72/53 52/164/52 12/73/12
f 39/42/39 54/71/54 14/14/14
f 60/76/60 59/165/59 13/77/13
f 61/79/61 30/33/30 35/38/35
f 62/80/62 7/166/7 1/81/1
f 14/83/14 54/167/54 56/84/56
f 18/19/18 25/26/25 21/22/21
f 63/85/63 27/29/27 58/74/58
f 36/39/36 51/61/51 50/60/50
f 53/64/53 32/168/32 34/44/34
f 58/74/58 27/29/27 32/35/32
f 15/49/15 14/83/14 57/69/57
f 12/73/12 11/169/11 64/86/64
f 40/43/40 39/42/39 59/75/59
f 65/88/65 70/93/70 66/89/66
f 5/5/5 28/30/28 68/91/68
f 8/8/8 62/154/62 70/93/70
f 11/11/11 31/34/31 72/95/72
f 74/97/74 112/148/112 75/98/75
f 77/100/77 65/170/65 67/101/67
f 79/103/79 77/100/77 78/102/78
f 80/104/80 95/121/95 81/105/81
f 22/23/22 8/8/8 71/94/71
f 84/108/84 110/142/110 85/109/85
f 26/28/26 5/156/5 69/110/69
f 28/30/28 63/85/63 86/111/86
f 29/32/29 22/157/22 83/112/83
f 31/34/31 61/79/61 87/113/87
f 88/114/88 95/171/95 89/115/89
f 65/88/65 96/122/96 71/94/71
f 91/117/91 87/113/87 92/118/92
f 88/114/88 90/116/90 68/91/68
f 94/120/94 100/143/100 38/41/38
f 69/110/69 99/172/99 67/90/67
f 78/102/78 89/127/89 95/121/95
f 83/107/83 71/94/71 96/122/96
f 83/112/83 97/173/97 76/99/76
f 85/109/85 98/174/98 77/100/77
f 76/99/76 97/173/97 98/125/98
f 65/88/65 77/175/77 98/124/98
f 67/101/67 99/176/99 89/127/89
f 100/129/100 92/118/92 46/54/46
f 68/91/68 90/116/90 99/128/99
f 101/130/101 91/117/91 93/119/93
f 82/106/82 101/138/101 102/132/102
f 72/95/72 105/152/105 104/136/104
f 91/117/91 105/152/105 72/95/72
f 106/137/106 104/134/104 103/133/103
f 81/105/81 103/133/103 101/138/101
f 102/132/102 108/177/108 110/142/110
f 100/143/100 94/120/94 107/139/107
f 93/119/93 109/178/109 108/144/108
f 100/129/100 109/178/109 93/119/93
f 73/145/73 104/179/104 106/146/106
f 74/97/74 107/139/107 94/120/94
f 75/149/75 112/180/112 60/76/60
f 92/118/92 87/113/87 61/79/61
f 66/150/66 70/181/70 62/80/62
f 74/97/74 110/153/110 108/140/108
f 82/106/82 84/108/84 79/103/79
f 111/147/111 86/111/86 63/85/63
f 91/182/91 101/138/101 103/133/103
f 95/121/95 88/183/88 106/137/106
f 88/114/88 86/111/86 111/147/111
f 110/153/110 74/97/74 76/99/76
f 64/86/64 11/169/11 73/145/73
f 112/148/112 94/120/94 40/43/40
