# Blender v2.93.2 OBJ File: 'cubeTexture.blend'
# www.blender.org
mtllib piece2.mtl
o Rubiks_Cube_Cube.002_Rubiks_Cube_Cube.010
v 3.000000 2.897457 -2.898658
v 3.000000 1.100142 -1.101342
v 3.000000 1.100142 -2.898658
v 1.101342 1.100142 -3.000000
v 2.898658 2.897457 -3.000000
v 2.898658 1.100142 -3.000000
v 1.101341 2.998799 -1.101342
v 2.898658 2.998801 -2.898658
v 1.101341 2.998799 -2.898658
v 2.898658 2.897457 -1.000000
v 1.101342 1.100142 -1.000000
v 2.898658 1.100142 -1.000000
v 1.000000 2.897457 -1.101342
v 1.000000 1.100142 -2.898658
v 1.000000 1.100142 -1.101342
v 2.949262 1.012339 -1.101342
v 2.898658 1.012339 -1.050738
v 2.898658 0.998800 -1.101342
v 2.986461 1.049537 -1.101342
v 2.947121 1.025491 -1.052879
v 2.986461 1.100142 -1.050738
v 2.947121 1.051679 -1.026690
v 2.973310 1.051679 -1.052879
v 2.898658 1.049537 -1.013539
v 2.949262 1.100142 -1.013539
v 2.986459 2.948061 -1.101342
v 2.986459 2.897457 -1.050738
v 3.000000 2.897457 -1.101342
v 2.947119 2.972111 -1.052879
v 2.973310 2.945920 -1.052879
v 2.898658 2.985260 -1.050738
v 2.949260 2.985260 -1.101342
v 2.898658 2.998801 -1.101342
v 2.947119 2.945920 -1.026690
v 2.949260 2.897457 -1.013539
v 2.898658 2.948061 -1.013539
v 1.101342 1.012338 -1.050738
v 1.050738 1.012338 -1.101342
v 1.101342 0.998799 -1.101342
v 1.101342 1.049537 -1.013539
v 1.052879 1.025490 -1.052879
v 1.050738 1.100142 -1.013539
v 1.026690 1.051679 -1.052879
v 1.052879 1.051679 -1.026690
v 1.013539 1.049537 -1.101342
v 1.013539 1.100142 -1.050738
v 1.050738 2.985260 -1.101342
v 1.101341 2.985260 -1.050738
v 1.026690 2.945920 -1.052879
v 1.052878 2.972109 -1.052879
v 1.013538 2.897457 -1.050738
v 1.013538 2.948061 -1.101342
v 1.050738 2.897457 -1.013539
v 1.101341 2.948061 -1.013539
v 1.101341 2.897457 -1.000000
v 1.052878 2.945920 -1.026690
v 2.898658 1.012339 -2.949262
v 2.949262 1.012339 -2.898658
v 2.898658 0.998800 -2.898658
v 2.898658 1.049537 -2.986461
v 2.947121 1.025491 -2.947121
v 2.949262 1.100142 -2.986461
v 2.986461 1.100142 -2.949262
v 2.947121 1.051679 -2.973310
v 2.986461 1.049537 -2.898658
v 2.973310 1.051679 -2.947121
v 2.949260 2.985260 -2.898658
v 2.898658 2.985260 -2.949262
v 2.973310 2.945920 -2.947121
v 2.947119 2.972111 -2.947121
v 2.986459 2.897457 -2.949262
v 2.986459 2.948061 -2.898658
v 2.947119 2.945920 -2.973310
v 2.898658 2.948061 -2.986461
v 2.949260 2.897457 -2.986461
v 1.050738 1.012338 -2.898658
v 1.101342 1.012338 -2.949262
v 1.101342 0.998799 -2.898658
v 1.013539 1.049537 -2.898658
v 1.052879 1.025490 -2.947121
v 1.013539 1.100142 -2.949262
v 1.050738 1.100142 -2.986461
v 1.026690 1.051679 -2.947121
v 1.101342 1.049537 -2.986461
v 1.052879 1.051679 -2.973310
v 1.101341 2.985260 -2.949262
v 1.050738 2.985260 -2.898658
v 1.052878 2.945920 -2.973310
v 1.052878 2.972109 -2.947121
v 1.050738 2.897457 -2.986461
v 1.101341 2.948061 -2.986461
v 1.101341 2.897457 -3.000000
v 1.013538 2.897457 -2.949262
v 1.013538 2.948061 -2.898658
v 1.000000 2.897457 -2.898658
v 1.026690 2.945920 -2.947121
vt 1.000000 1.000000
vt 0.888889 0.888889
vt 1.000000 0.888889
vt 0.444444 0.555556
vt 0.333333 0.666667
vt 0.333333 0.555556
vt 0.222222 0.888889
vt 0.333333 1.000000
vt 0.222222 1.000000
vt 0.124306 0.263889
vt 0.217361 0.171528
vt 0.217361 0.265278
vt 0.124306 0.066667
vt 0.218750 0.161111
vt 0.124306 0.161111
vt 0.022222 0.163889
vt 0.019444 0.161111
vt 0.022222 0.161111
vt 0.317361 0.161806
vt 0.320139 0.163194
vt 0.317361 0.163889
vt 0.319444 0.159722
vt 0.316667 0.159722
vt 0.321528 0.161806
vt 0.319444 0.161806
vt 0.220139 0.265278
vt 0.218056 0.268056
vt 0.222222 0.268056
vt 0.220139 0.268056
vt 0.317361 0.062500
vt 0.319444 0.065278
vt 0.316667 0.065278
vt 0.316667 0.268750
vt 0.318750 0.266667
vt 0.319444 0.268056
vt 0.318750 0.264583
vt 0.316667 0.267361
vt 0.315972 0.264583
vt 0.320833 0.266667
vt 0.124306 0.266667
vt 0.121528 0.263889
vt 0.321528 0.062500
vt 0.322222 0.065278
vt 0.019444 0.066667
vt 0.022222 0.063889
vt 0.022222 0.066667
vt 0.220139 0.171528
vt 0.222222 0.168750
vt 0.222917 0.171528
vt 0.218056 0.168750
vt 0.220833 0.167361
vt 0.220139 0.168750
vt 0.124306 0.163889
vt 0.121528 0.161111
vt 0.121528 0.165278
vt 0.121528 0.163889
vt 0.316667 0.167361
vt 0.318750 0.170139
vt 0.315972 0.170139
vt 0.319444 0.165972
vt 0.318750 0.167361
vt 0.121528 0.066667
vt 0.124306 0.063889
vt 0.124306 0.167361
vt 0.121528 0.165972
vt 0.124306 0.165278
vt 0.121528 0.170139
vt 0.124306 0.170139
vt 0.320833 0.167361
vt 0.321528 0.170139
vt 0.119444 0.161111
vt 0.116667 0.163889
vt 0.116667 0.161111
vt 0.121528 0.161111
vt 0.119444 0.163889
vt 0.115972 0.168056
vt 0.118750 0.170833
vt 0.115972 0.170833
vt 0.115278 0.165972
vt 0.118056 0.168056
vt 0.225694 0.161806
vt 0.222917 0.159722
vt 0.225694 0.159722
vt 0.116667 0.165972
vt 0.119444 0.165278
vt 0.120833 0.163889
vt 0.225000 0.267361
vt 0.222917 0.264583
vt 0.225000 0.264583
vt 0.223611 0.268056
vt 0.222917 0.266667
vt 0.222917 0.065278
vt 0.225694 0.062500
vt 0.225694 0.065278
vt 0.024306 0.165972
vt 0.022222 0.168056
vt 0.021528 0.166667
vt 0.022222 0.170833
vt 0.024306 0.168056
vt 0.025000 0.170833
vt 0.019444 0.170833
vt 0.020139 0.168056
vt 0.116667 0.063889
vt 0.119444 0.066667
vt 0.116667 0.066667
vt 0.116667 0.062500
vt 0.119444 0.064583
vt 0.221528 0.161111
vt 0.218750 0.163889
vt 0.222917 0.161111
vt 0.220833 0.163889
vt 0.118750 0.265278
vt 0.115972 0.268056
vt 0.115972 0.265278
vt 0.121528 0.066667
vt 0.120833 0.064583
vt 0.220833 0.165278
vt 0.222222 0.163889
vt 0.222917 0.170139
vt 0.225000 0.167361
vt 0.225000 0.170139
vt 0.019444 0.265278
vt 0.022222 0.267361
vt 0.020139 0.267361
vt 0.024306 0.268056
vt 0.022222 0.265278
vt 0.025000 0.265278
vt 0.024306 0.269444
vt 0.218750 0.063889
vt 0.221528 0.066667
vt 0.218750 0.066667
vt 0.220833 0.063194
vt 0.220833 0.064583
vt 0.021528 0.268750
vt 0.222917 0.265278
vt 0.322222 0.159722
vt 0.321528 0.264583
vt 0.218056 0.166667
vt 0.218750 0.062500
vt 0.124306 0.062500
vt 0.222917 0.066667
vt 0.022222 0.165972
vt 0.225694 0.268750
vt 0.888889 1.000000
vt 0.444444 0.666667
vt 0.333333 0.888889
vt 0.019444 0.163889
vt 0.319444 0.062500
vt 0.121528 0.265972
vt 0.019444 0.064583
vt 0.022222 0.062500
vt 0.316667 0.165278
vt 0.121528 0.064583
vt 0.121528 0.167361
vt 0.118056 0.166667
vt 0.223611 0.161806
vt 0.223611 0.062500
vt 0.118056 0.267361
vt 0.222917 0.167361
vn 0.9835 0.1280 -0.1280
vn 0.9835 -0.1280 0.1280
vn 0.9835 -0.1280 -0.1280
vn -0.1280 -0.1280 -0.9835
vn 0.1280 0.1280 -0.9835
vn 0.1280 -0.1280 -0.9835
vn -0.1280 0.9835 0.1280
vn 0.1280 0.9835 -0.1280
vn -0.1280 0.9835 -0.1280
vn 0.1280 0.1280 0.9835
vn -0.1280 -0.1280 0.9835
vn 0.1280 -0.1280 0.9835
vn -0.9835 0.1280 0.1280
vn -0.9835 -0.1280 -0.1280
vn -0.9835 -0.1280 0.1280
vn 0.4916 -0.8623 0.1216
vn 0.1216 -0.8623 0.4916
vn 0.1280 -0.9835 0.1280
vn 0.8623 -0.4916 0.1216
vn 0.4488 -0.7727 0.4488
vn 0.8623 -0.1216 0.4916
vn 0.4488 -0.4488 0.7727
vn 0.7727 -0.4488 0.4488
vn 0.1216 -0.4916 0.8623
vn 0.4916 -0.1216 0.8623
vn 0.8623 0.4916 0.1216
vn 0.8623 0.1216 0.4916
vn 0.9835 0.1280 0.1280
vn 0.4488 0.7727 0.4488
vn 0.7727 0.4488 0.4488
vn 0.1216 0.8623 0.4916
vn 0.4916 0.8623 0.1216
vn 0.1280 0.9835 0.1280
vn 0.4488 0.4488 0.7727
vn 0.4916 0.1216 0.8623
vn 0.1216 0.4916 0.8623
vn -0.1216 -0.8623 0.4916
vn -0.4916 -0.8623 0.1216
vn -0.1280 -0.9835 0.1280
vn -0.1216 -0.4916 0.8623
vn -0.4488 -0.7727 0.4488
vn -0.4916 -0.1216 0.8623
vn -0.7727 -0.4488 0.4488
vn -0.4488 -0.4488 0.7727
vn -0.8623 -0.4916 0.1216
vn -0.8623 -0.1216 0.4916
vn -0.4916 0.8623 0.1216
vn -0.1216 0.8623 0.4916
vn -0.7727 0.4488 0.4488
vn -0.4488 0.7727 0.4488
vn -0.8623 0.1216 0.4916
vn -0.8623 0.4916 0.1216
vn -0.4916 0.1216 0.8623
vn -0.1216 0.4916 0.8623
vn -0.1280 0.1280 0.9835
vn -0.4489 0.4488 0.7727
vn 0.1216 -0.8623 -0.4916
vn 0.4916 -0.8623 -0.1216
vn 0.1280 -0.9835 -0.1280
vn 0.1216 -0.4916 -0.8623
vn 0.4488 -0.7727 -0.4488
vn 0.4916 -0.1216 -0.8623
vn 0.8623 -0.1216 -0.4916
vn 0.4488 -0.4488 -0.7727
vn 0.8623 -0.4916 -0.1216
vn 0.7727 -0.4488 -0.4488
vn 0.4916 0.8623 -0.1216
vn 0.1216 0.8623 -0.4916
vn 0.7727 0.4488 -0.4488
vn 0.4488 0.7727 -0.4488
vn 0.8623 0.1216 -0.4916
vn 0.8623 0.4916 -0.1216
vn 0.4488 0.4488 -0.7727
vn 0.1216 0.4916 -0.8623
vn 0.4916 0.1216 -0.8623
vn -0.4916 -0.8623 -0.1216
vn -0.1216 -0.8623 -0.4916
vn -0.1280 -0.9835 -0.1280
vn -0.8623 -0.4916 -0.1216
vn -0.4488 -0.7727 -0.4488
vn -0.8623 -0.1216 -0.4916
vn -0.4916 -0.1216 -0.8623
vn -0.7727 -0.4488 -0.4488
vn -0.1216 -0.4916 -0.8623
vn -0.4488 -0.4488 -0.7727
vn -0.1216 0.8623 -0.4916
vn -0.4916 0.8623 -0.1216
vn -0.4488 0.4488 -0.7727
vn -0.4488 0.7727 -0.4488
vn -0.4916 0.1216 -0.8623
vn -0.1216 0.4916 -0.8623
vn -0.1280 0.1280 -0.9835
vn -0.8623 0.1216 -0.4916
vn -0.8623 0.4916 -0.1216
vn -0.9835 0.1280 -0.1280
vn -0.7727 0.4488 -0.4488
usemtl CubeCustomText
s 1
f 1/1/1 2/2/2 3/3/3
f 4/4/4 5/5/5 6/6/6
f 7/7/7 8/8/8 9/9/9
f 10/10/10 11/11/11 12/12/12
f 13/13/13 14/14/14 15/15/15
f 16/16/16 17/17/17 18/18/18
f 19/19/19 20/20/20 16/21/16
f 21/22/21 19/19/19 2/23/2
f 21/22/21 22/24/22 23/25/23
f 24/26/24 25/27/25 12/12/12
f 24/26/24 20/28/20 22/29/22
f 20/20/20 23/25/23 22/24/22
f 26/30/26 27/31/27 28/32/28
f 26/33/26 29/34/29 30/35/30
f 31/36/31 32/37/32 33/38/33
f 31/36/31 34/39/34 29/34/29
f 35/40/35 36/41/36 10/10/10
f 27/31/27 34/42/34 35/43/35
f 30/35/30 29/34/29 34/39/34
f 37/44/37 38/45/38 39/46/39
f 40/47/40 41/48/41 37/49/37
f 42/50/42 40/47/40 11/11/11
f 42/50/42 43/51/43 44/52/44
f 45/53/45 46/54/46 15/15/15
f 45/53/45 41/55/41 43/56/43
f 41/48/41 44/52/44 43/51/43
f 47/57/47 48/58/48 7/59/7
f 47/57/47 49/60/49 50/61/50
f 51/62/51 52/63/52 13/13/13
f 53/64/53 49/65/49 51/66/51
f 54/67/54 53/64/53 55/68/55
f 48/58/48 56/69/56 54/70/54
f 50/61/50 49/60/49 56/69/56
f 57/71/57 58/72/58 59/73/59
f 60/74/60 61/75/61 57/71/57
f 62/76/62 60/77/60 6/78/6
f 63/79/63 64/80/64 62/76/62
f 65/81/65 63/82/63 3/83/3
f 65/84/65 61/75/61 66/85/66
f 61/75/61 64/86/64 66/85/66
f 67/87/67 68/88/68 8/89/8
f 67/87/67 69/90/69 70/91/70
f 71/92/71 72/93/72 1/94/1
f 71/95/71 73/96/73 69/97/69
f 74/98/74 75/99/75 5/100/5
f 68/101/68 73/96/73 74/98/74
f 70/102/70 69/97/69 73/96/73
f 76/103/76 77/104/77 78/105/78
f 79/106/79 80/107/80 76/103/76
f 81/108/81 79/109/79 14/14/14
f 82/110/82 83/111/83 81/108/81
f 84/112/84 82/113/82 4/114/4
f 84/115/84 80/107/80 85/116/85
f 80/117/80 83/111/83 85/118/85
f 86/119/86 87/120/87 9/121/9
f 86/122/86 88/123/88 89/124/89
f 90/125/90 91/126/91 92/127/92
f 93/128/93 88/123/88 90/125/90
f 94/129/94 93/130/93 95/131/95
f 94/129/94 89/132/89 96/133/96
f 89/124/89 88/123/88 96/134/96
f 18/18/18 37/44/37 39/46/39
f 17/135/17 40/47/40 37/49/37
f 24/26/24 11/11/11 40/47/40
f 28/32/28 21/22/21 2/23/2
f 27/31/27 25/136/25 21/22/21
f 25/27/25 10/10/10 12/12/12
f 7/59/7 31/36/31 33/38/33
f 48/58/48 36/137/36 31/36/31
f 54/67/54 10/10/10 36/41/36
f 15/15/15 51/62/51 13/13/13
f 46/138/46 53/64/53 51/66/51
f 42/50/42 55/68/55 53/64/53
f 39/46/39 76/103/76 78/105/78
f 38/45/38 79/106/79 76/103/76
f 45/53/45 14/14/14 79/109/79
f 9/121/9 47/57/47 7/59/7
f 87/139/87 52/63/52 47/140/47
f 94/129/94 13/13/13 52/63/52
f 4/114/4 90/125/90 92/127/92
f 82/110/82 93/130/93 90/141/90
f 93/130/93 14/14/14 95/131/95
f 78/105/78 57/71/57 59/73/59
f 77/104/77 60/74/60 57/71/57
f 84/112/84 6/78/6 60/77/60
f 8/89/8 86/119/86 9/121/9
f 68/101/68 91/126/91 86/122/86
f 74/98/74 92/127/92 91/126/91
f 3/83/3 71/92/71 1/94/1
f 63/79/63 75/99/75 71/95/71
f 75/99/75 6/78/6 5/100/5
f 59/73/59 16/16/16 18/18/18
f 58/72/58 19/142/19 16/16/16
f 65/81/65 2/23/2 19/19/19
f 33/38/33 67/87/67 8/89/8
f 32/37/32 72/143/72 67/87/67
f 26/30/26 1/94/1 72/93/72
f 78/105/78 18/18/18 39/46/39
f 1/1/1 28/144/28 2/2/2
f 4/4/4 92/145/92 5/5/5
f 7/7/7 33/146/33 8/8/8
f 10/10/10 55/68/55 11/11/11
f 13/13/13 95/131/95 14/14/14
f 16/16/16 20/147/20 17/17/17
f 19/19/19 23/25/23 20/20/20
f 21/22/21 23/25/23 19/19/19
f 21/22/21 25/136/25 22/24/22
f 24/26/24 22/29/22 25/27/25
f 24/26/24 17/135/17 20/28/20
f 26/30/26 30/148/30 27/31/27
f 26/33/26 32/37/32 29/34/29
f 31/36/31 29/34/29 32/37/32
f 31/36/31 36/137/36 34/39/34
f 35/40/35 34/149/34 36/41/36
f 27/31/27 30/148/30 34/42/34
f 37/44/37 41/150/41 38/45/38
f 40/47/40 44/52/44 41/48/41
f 42/50/42 44/52/44 40/47/40
f 42/50/42 46/138/46 43/51/43
f 45/53/45 43/56/43 46/54/46
f 45/151/45 38/45/38 41/150/41
f 47/57/47 50/61/50 48/58/48
f 47/57/47 52/152/52 49/60/49
f 51/62/51 49/153/49 52/63/52
f 53/64/53 56/154/56 49/65/49
f 54/67/54 56/154/56 53/64/53
f 48/58/48 50/61/50 56/69/56
f 57/71/57 61/75/61 58/72/58
f 60/74/60 64/86/64 61/75/61
f 62/76/62 64/80/64 60/77/60
f 63/79/63 66/155/66 64/80/64
f 65/81/65 66/156/66 63/82/63
f 65/84/65 58/72/58 61/75/61
f 67/87/67 70/91/70 68/88/68
f 67/87/67 72/143/72 69/90/69
f 71/92/71 69/157/69 72/93/72
f 71/95/71 75/99/75 73/96/73
f 74/98/74 73/96/73 75/99/75
f 68/101/68 70/102/70 73/96/73
f 76/103/76 80/107/80 77/104/77
f 79/109/79 83/111/83 80/117/80
f 81/108/81 83/111/83 79/109/79
f 82/110/82 85/118/85 83/111/83
f 84/112/84 85/158/85 82/113/82
f 84/115/84 77/104/77 80/107/80
f 86/119/86 89/159/89 87/120/87
f 86/122/86 91/126/91 88/123/88
f 90/125/90 88/123/88 91/126/91
f 93/128/93 96/134/96 88/123/88
f 94/129/94 96/133/96 93/130/93
f 94/129/94 87/139/87 89/132/89
f 18/18/18 17/17/17 37/44/37
f 17/135/17 24/26/24 40/47/40
f 24/26/24 12/12/12 11/11/11
f 28/32/28 27/31/27 21/22/21
f 27/31/27 35/43/35 25/136/25
f 25/27/25 35/40/35 10/10/10
f 7/59/7 48/58/48 31/36/31
f 48/58/48 54/70/54 36/137/36
f 54/67/54 55/68/55 10/10/10
f 15/15/15 46/54/46 51/62/51
f 46/138/46 42/50/42 53/64/53
f 42/50/42 11/11/11 55/68/55
f 39/46/39 38/45/38 76/103/76
f 38/45/38 45/151/45 79/106/79
f 45/53/45 15/15/15 14/14/14
f 9/121/9 87/120/87 47/57/47
f 87/139/87 94/129/94 52/63/52
f 94/129/94 95/131/95 13/13/13
f 4/114/4 82/113/82 90/125/90
f 82/110/82 81/108/81 93/130/93
f 93/130/93 81/108/81 14/14/14
f 78/105/78 77/104/77 57/71/57
f 77/104/77 84/115/84 60/74/60
f 84/112/84 4/114/4 6/78/6
f 8/89/8 68/88/68 86/119/86
f 68/101/68 74/98/74 91/126/91
f 74/98/74 5/100/5 92/127/92
f 3/83/3 63/82/63 71/92/71
f 63/79/63 62/76/62 75/99/75
f 75/99/75 62/76/62 6/78/6
f 59/73/59 58/72/58 16/16/16
f 58/72/58 65/84/65 19/142/19
f 65/81/65 3/83/3 2/23/2
f 33/38/33 32/37/32 67/87/67
f 32/37/32 26/33/26 72/143/72
f 26/30/26 28/32/28 1/94/1
f 78/105/78 59/73/59 18/18/18
