# Blender v2.93.2 OBJ File: 'cubeTexture.blend'
# www.blender.org
mtllib piece24.mtl
o Rubiks_Cube_Cube.024_Rubiks_Cube_Cube.020
v -0.998343 -1.100142 1.101342
v -0.998343 -2.897457 2.898658
v -0.998343 -1.100142 2.898658
v -0.897001 -1.100142 3.000000
v 0.000000 -2.897457 3.000000
v 0.000000 -1.100142 3.000000
v -0.897001 -2.998799 2.898658
v 0.000000 -2.998799 1.101342
v 0.000000 -2.998799 2.898658
v -0.897001 -1.012338 1.050738
v -0.947605 -1.012338 1.101342
v -0.897001 -0.998799 1.101342
v -0.945464 -1.025490 1.052879
v -0.984804 -1.049537 1.101342
v -0.984804 -1.100142 1.050738
v -0.945464 -1.051679 1.026690
v -0.947605 -1.100142 1.013539
v -0.897001 -1.049537 1.013539
v -0.897001 -1.100142 1.000000
v -0.971653 -1.051679 1.052879
v -0.984803 -2.897457 1.050738
v -0.984803 -2.948061 1.101342
v -0.998343 -2.897457 1.101342
v -0.945464 -2.972109 1.052879
v -0.947605 -2.985260 1.101342
v -0.897001 -2.985260 1.050738
v -0.897001 -2.998799 1.101342
v -0.897001 -2.948061 1.013539
v -0.947605 -2.897457 1.013539
v -0.897001 -2.897457 1.000000
v -0.945464 -2.945920 1.026690
v -0.971653 -2.945920 1.052879
v -0.947605 -1.012338 2.898658
v -0.897001 -1.012338 2.949262
v -0.897001 -0.998799 2.898658
v -0.945464 -1.025490 2.947121
v -0.897001 -1.049537 2.986461
v -0.947605 -1.100142 2.986461
v -0.971653 -1.051679 2.947121
v -0.984804 -1.100142 2.949262
v -0.984804 -1.049537 2.898658
v -0.945464 -1.051679 2.973310
v -0.897001 -2.985260 2.949262
v -0.947605 -2.985260 2.898658
v -0.945464 -2.972109 2.947121
v -0.984803 -2.948061 2.898658
v -0.984803 -2.897457 2.949262
v -0.945464 -2.945920 2.973310
v -0.947605 -2.897457 2.986461
v -0.897001 -2.948061 2.986461
v -0.897001 -2.897457 3.000000
v -0.971653 -2.945920 2.947121
v 0.000000 -1.012338 1.050738
v 0.000000 -0.998799 1.101342
v 0.000000 -1.049537 1.013539
v 0.000000 -1.100142 1.000000
v 0.000000 -2.985260 2.949262
v 0.000000 -2.948061 2.986461
v 0.000000 -0.998799 2.898658
v 0.000000 -1.049537 2.986461
v 0.000000 -1.012338 2.949262
v 0.000000 -2.948061 1.013539
v 0.000000 -2.985260 1.050738
v 0.998343 -2.897457 2.898658
v 0.998343 -1.100142 1.101342
v 0.998343 -1.100142 2.898658
v 0.897001 -1.100142 3.000000
v 0.897002 -2.998799 2.898658
v 0.947605 -1.012338 1.101342
v 0.897001 -1.012338 1.050738
v 0.897001 -0.998799 1.101342
v 0.984804 -1.049537 1.101342
v 0.945464 -1.025490 1.052879
v 0.984804 -1.100142 1.050738
v 0.945464 -1.051679 1.026690
v 0.971653 -1.051679 1.052879
v 0.897001 -1.049537 1.013539
v 0.947605 -1.100142 1.013539
v 0.897001 -1.100142 1.000000
v 0.984804 -2.948061 1.101342
v 0.984804 -2.897457 1.050738
v 0.998343 -2.897457 1.101342
v 0.947605 -2.985260 1.101342
v 0.971653 -2.945920 1.052879
v 0.897002 -2.985260 1.050738
v 0.897002 -2.998799 1.101342
v 0.897002 -2.948061 1.013539
v 0.945464 -2.972109 1.052879
v 0.947605 -2.897457 1.013539
v 0.897002 -2.897457 1.000000
v 0.945464 -2.945920 1.026690
v 0.897001 -1.012338 2.949262
v 0.947605 -1.012338 2.898658
v 0.897001 -0.998799 2.898658
v 0.897001 -1.049537 2.986461
v 0.945464 -1.025490 2.947121
v 0.947605 -1.100142 2.986461
v 0.971653 -1.051679 2.947121
v 0.945464 -1.051679 2.973310
v 0.984804 -1.049537 2.898658
v 0.984804 -1.100142 2.949262
v 0.947605 -2.985260 2.898658
v 0.897002 -2.985260 2.949262
v 0.984804 -2.948061 2.898658
v 0.945464 -2.972109 2.947121
v 0.984804 -2.897457 2.949262
v 0.945464 -2.945920 2.973310
v 0.971653 -2.945920 2.947121
v 0.897002 -2.948061 2.986461
v 0.947605 -2.897457 2.986461
v 0.897002 -2.897457 3.000000
v 0.000000 -2.897457 1.000000
vt 0.120139 0.072222
vt 0.213889 0.165972
vt 0.120139 0.165972
vt 0.444444 0.777778
vt 0.500000 0.666667
vt 0.500000 0.777778
vt 0.111111 0.666667
vt 0.166667 0.555556
vt 0.166667 0.666667
vt 0.015278 0.175000
vt 0.018056 0.172222
vt 0.018056 0.175000
vt 0.015278 0.172222
vt 0.017361 0.170139
vt 0.117361 0.072222
vt 0.120139 0.069444
vt 0.117361 0.068750
vt 0.120139 0.068056
vt 0.211806 0.172222
vt 0.213889 0.175000
vt 0.211806 0.175000
vt 0.013194 0.175000
vt 0.013889 0.172222
vt 0.015278 0.170833
vt 0.213889 0.069444
vt 0.215972 0.072222
vt 0.213889 0.072222
vt 0.215972 0.070139
vt 0.218750 0.068056
vt 0.218750 0.070139
vt 0.220833 0.068056
vt 0.221528 0.070139
vt 0.115972 0.172222
vt 0.118056 0.175000
vt 0.115278 0.175000
vt 0.120139 0.172222
vt 0.120833 0.175000
vt 0.118056 0.172222
vt 0.120139 0.170139
vt 0.117361 0.170833
vt 0.109028 0.172222
vt 0.111806 0.175000
vt 0.109028 0.175000
vt 0.111111 0.172222
vt 0.113194 0.175000
vt 0.213889 0.175000
vt 0.216667 0.172222
vt 0.216667 0.175000
vt 0.120139 0.170139
vt 0.117361 0.168056
vt 0.120139 0.168056
vt 0.117361 0.165972
vt 0.115972 0.168056
vt 0.115278 0.165972
vt 0.117361 0.169444
vt 0.220833 0.166667
vt 0.218750 0.163889
vt 0.221528 0.163889
vt 0.218750 0.165972
vt 0.215972 0.163889
vt 0.215972 0.165972
vt 0.213889 0.168056
vt 0.307639 0.170139
vt 0.309722 0.172222
vt 0.306944 0.172222
vt 0.309722 0.175000
vt 0.306944 0.175000
vt 0.311806 0.175000
vt 0.311111 0.172222
vt 0.309722 0.170833
vt 0.015278 0.221528
vt 0.018056 0.221528
vt 0.013194 0.221528
vt 0.211806 0.221528
vt 0.213889 0.221528
vt 0.266667 0.166667
vt 0.266667 0.163889
vt 0.309722 0.221528
vt 0.311806 0.221528
vt 0.306944 0.221528
vt 0.115278 0.072222
vt 0.109028 0.221528
vt 0.213889 0.221528
vt 0.111806 0.221528
vt 0.118056 0.221528
vt 0.115278 0.221528
vt 0.266667 0.070139
vt 0.111111 0.165972
vt 0.017361 0.072222
vt 0.111111 0.072222
vt 0.555556 0.777778
vt 0.222222 0.666667
vt 0.018056 0.270833
vt 0.015278 0.268056
vt 0.018056 0.268056
vt 0.017361 0.272917
vt 0.015278 0.270833
vt 0.015278 0.072222
vt 0.017361 0.069444
vt 0.013889 0.069444
vt 0.015278 0.069444
vt 0.213889 0.268056
vt 0.211806 0.270833
vt 0.211806 0.268056
vt 0.013194 0.268056
vt 0.013889 0.270833
vt 0.015278 0.272222
vt 0.017361 0.168056
vt 0.015278 0.165972
vt 0.017361 0.165972
vt 0.017361 0.170139
vt 0.015278 0.168056
vt 0.312500 0.068056
vt 0.314583 0.070139
vt 0.312500 0.070139
vt 0.118056 0.268056
vt 0.115972 0.270833
vt 0.115278 0.268056
vt 0.120139 0.270833
vt 0.120833 0.268056
vt 0.117361 0.272222
vt 0.118056 0.270833
vt 0.111806 0.268056
vt 0.109028 0.270833
vt 0.109028 0.268056
vt 0.113194 0.268056
vt 0.111111 0.270833
vt 0.216667 0.270833
vt 0.213889 0.268056
vt 0.216667 0.268056
vt 0.115278 0.072222
vt 0.113889 0.069444
vt 0.114583 0.069444
vt 0.111111 0.069444
vt 0.113889 0.072222
vt 0.113889 0.068750
vt 0.314583 0.163889
vt 0.312500 0.166667
vt 0.312500 0.163889
vt 0.111111 0.168056
vt 0.113889 0.169444
vt 0.111111 0.170139
vt 0.113889 0.165972
vt 0.307639 0.272917
vt 0.309722 0.270833
vt 0.309722 0.272222
vt 0.309722 0.268056
vt 0.306944 0.270833
vt 0.306944 0.268056
vt 0.311806 0.268056
vt 0.311111 0.270833
vt 0.013194 0.072222
vt 0.115278 0.165972
vt 0.111111 0.068056
vt 0.017361 0.068056
vt 0.120833 0.221528
vt 0.444444 0.666667
vt 0.111111 0.555556
vt 0.117361 0.069444
vt 0.213889 0.172222
vt 0.215972 0.069444
vt 0.216667 0.068056
vt 0.112500 0.172222
vt 0.214583 0.172222
vt 0.216667 0.165972
vt 0.215972 0.168056
vt 0.213889 0.068056
vt 0.213889 0.170139
vt 0.216667 0.221528
vt 0.113194 0.221528
vt 0.266667 0.068056
vt 0.555556 0.666667
vt 0.222222 0.555556
vt 0.213889 0.270833
vt 0.015278 0.169444
vt 0.314583 0.068056
vt 0.120139 0.272917
vt 0.112500 0.270833
vt 0.214583 0.270833
vt 0.314583 0.165972
vt 0.113889 0.168056
vt 0.013194 0.165972
vn -0.9835 0.1280 -0.1280
vn -0.9835 -0.1280 0.1280
vn -0.9835 0.1280 0.1280
vn -0.1280 0.1280 0.9835
vn 0.0000 -0.1303 0.9915
vn 0.0000 0.1303 0.9915
vn -0.1280 -0.9835 0.1280
vn -0.0000 -0.9915 -0.1303
vn 0.0000 -0.9915 0.1303
vn -0.1216 0.8623 -0.4916
vn -0.4916 0.8623 -0.1216
vn -0.1280 0.9835 -0.1280
vn -0.4488 0.7727 -0.4488
vn -0.8623 0.4916 -0.1216
vn -0.8623 0.1216 -0.4916
vn -0.4488 0.4488 -0.7727
vn -0.4916 0.1216 -0.8623
vn -0.1216 0.4916 -0.8623
vn -0.1280 0.1280 -0.9835
vn -0.7727 0.4488 -0.4488
vn -0.8623 -0.1216 -0.4916
vn -0.8623 -0.4916 -0.1216
vn -0.9835 -0.1280 -0.1280
vn -0.4488 -0.7727 -0.4488
vn -0.4916 -0.8623 -0.1216
vn -0.1216 -0.8623 -0.4916
vn -0.1280 -0.9835 -0.1280
vn -0.1216 -0.4916 -0.8623
vn -0.4916 -0.1216 -0.8623
vn -0.1280 -0.1280 -0.9835
vn -0.4488 -0.4488 -0.7727
vn -0.7727 -0.4488 -0.4488
vn -0.4916 0.8623 0.1216
vn -0.1216 0.8623 0.4916
vn -0.1280 0.9835 0.1280
vn -0.4488 0.7727 0.4488
vn -0.1216 0.4916 0.8623
vn -0.4916 0.1216 0.8623
vn -0.7727 0.4488 0.4488
vn -0.8623 0.1216 0.4916
vn -0.8623 0.4916 0.1216
vn -0.4488 0.4488 0.7727
vn -0.1216 -0.8623 0.4916
vn -0.4916 -0.8623 0.1216
vn -0.4488 -0.7727 0.4488
vn -0.8623 -0.4916 0.1216
vn -0.8623 -0.1216 0.4916
vn -0.4488 -0.4488 0.7727
vn -0.4916 -0.1216 0.8623
vn -0.1216 -0.4916 0.8623
vn -0.1280 -0.1280 0.9835
vn -0.7727 -0.4488 0.4488
vn -0.0000 0.8661 -0.4998
vn -0.0000 0.9915 -0.1303
vn -0.0000 0.4998 -0.8661
vn -0.0000 0.1303 -0.9915
vn 0.0000 -0.8661 0.4998
vn 0.0000 -0.4998 0.8661
vn -0.0000 0.9915 0.1303
vn 0.0000 0.4998 0.8661
vn 0.0000 0.8661 0.4998
vn -0.0000 -0.4998 -0.8661
vn -0.0000 -0.8661 -0.4998
vn 0.9835 -0.1280 0.1280
vn 0.9835 0.1280 -0.1280
vn 0.9835 0.1280 0.1280
vn 0.1280 0.1280 0.9835
vn 0.1280 -0.9835 0.1280
vn 0.4916 0.8623 -0.1216
vn 0.1216 0.8623 -0.4916
vn 0.1280 0.9835 -0.1280
vn 0.8623 0.4916 -0.1216
vn 0.4488 0.7727 -0.4488
vn 0.8623 0.1216 -0.4916
vn 0.4488 0.4488 -0.7727
vn 0.7727 0.4488 -0.4488
vn 0.1216 0.4916 -0.8623
vn 0.4916 0.1216 -0.8623
vn 0.1280 0.1280 -0.9835
vn 0.8623 -0.4916 -0.1216
vn 0.8623 -0.1216 -0.4916
vn 0.9835 -0.1280 -0.1280
vn 0.4916 -0.8623 -0.1216
vn 0.7727 -0.4488 -0.4488
vn 0.1216 -0.8623 -0.4916
vn 0.1280 -0.9835 -0.1280
vn 0.1216 -0.4916 -0.8623
vn 0.4488 -0.7727 -0.4488
vn 0.4916 -0.1216 -0.8623
vn 0.1280 -0.1280 -0.9835
vn 0.4488 -0.4488 -0.7727
vn 0.1216 0.8623 0.4916
vn 0.4916 0.8623 0.1216
vn 0.1280 0.9835 0.1280
vn 0.1216 0.4916 0.8623
vn 0.4488 0.7727 0.4488
vn 0.4916 0.1216 0.8623
vn 0.7727 0.4488 0.4488
vn 0.4488 0.4488 0.7727
vn 0.8623 0.4916 0.1216
vn 0.8623 0.1216 0.4916
vn 0.4916 -0.8623 0.1216
vn 0.1216 -0.8623 0.4916
vn 0.8623 -0.4916 0.1216
vn 0.4488 -0.7727 0.4488
vn 0.8623 -0.1216 0.4916
vn 0.4488 -0.4488 0.7727
vn 0.7727 -0.4488 0.4488
vn 0.1216 -0.4916 0.8623
vn 0.4916 -0.1216 0.8623
vn 0.1280 -0.1280 0.9835
vn -0.0000 -0.1303 -0.9915
usemtl CubeCustomText
s 1
f 1/1/1 2/2/2 3/3/3
f 4/4/4 5/5/5 6/6/6
f 7/7/7 8/8/8 9/9/9
f 10/10/10 11/11/11 12/12/12
f 13/13/13 14/14/14 11/11/11
f 14/15/14 15/16/15 1/1/1
f 15/16/15 16/17/16 17/18/17
f 17/19/17 18/20/18 19/21/19
f 18/22/18 13/13/13 10/10/10
f 13/13/13 16/23/16 20/24/20
f 21/25/21 22/26/22 23/27/23
f 22/28/22 24/29/24 25/30/25
f 25/30/25 26/31/26 27/32/27
f 24/33/24 28/34/28 26/35/26
f 28/34/28 29/36/29 30/37/30
f 31/38/31 21/39/21 29/36/29
f 32/40/32 31/38/31 24/33/24
f 33/41/33 34/42/34 35/43/35
f 36/44/36 37/45/37 34/42/34
f 37/46/37 38/47/38 4/48/4
f 38/49/38 39/50/39 40/51/40
f 40/51/40 41/52/41 3/3/3
f 41/52/41 36/53/36 33/54/33
f 36/53/36 39/50/39 42/55/42
f 43/56/43 44/57/44 7/58/7
f 45/59/45 46/60/46 44/57/44
f 46/61/46 47/62/47 2/2/2
f 47/63/47 48/64/48 49/65/49
f 49/65/49 50/66/50 51/67/51
f 48/64/48 43/68/43 50/66/50
f 45/69/45 48/64/48 52/70/52
f 53/71/53 12/12/12 54/72/54
f 55/73/55 10/10/10 53/71/53
f 56/74/56 18/20/18 55/75/55
f 15/16/15 23/27/23 1/1/1
f 17/18/17 21/25/21 15/16/15
f 19/21/19 29/36/29 17/19/17
f 57/76/57 7/58/7 9/77/9
f 58/78/58 43/68/43 57/79/57
f 5/80/5 50/66/50 58/78/58
f 47/62/47 3/3/3 2/2/2
f 47/62/47 38/49/38 40/51/40
f 51/67/51 38/47/38 49/65/49
f 11/11/11 35/43/35 12/12/12
f 14/15/14 33/54/33 11/81/11
f 1/1/1 41/52/41 14/15/14
f 44/57/44 27/32/27 7/58/7
f 46/60/46 25/30/25 44/57/44
f 2/2/2 22/26/22 46/61/46
f 12/12/12 59/82/59 54/72/54
f 4/48/4 60/83/60 37/46/37
f 37/45/37 61/84/61 34/42/34
f 34/42/34 59/82/59 35/43/35
f 30/37/30 62/85/62 28/34/28
f 28/34/28 63/86/63 26/35/26
f 26/31/26 8/87/8 27/32/27
f 56/74/56 30/37/30 19/21/19
f 64/88/64 65/89/65 66/90/66
f 5/5/5 67/91/67 6/6/6
f 8/8/8 68/92/68 9/9/9
f 69/93/69 70/94/70 71/95/71
f 72/96/72 73/97/73 69/93/69
f 74/98/74 72/99/72 65/89/65
f 74/98/74 75/100/75 76/101/76
f 77/102/77 78/103/78 79/104/79
f 77/105/77 73/97/73 75/106/75
f 73/97/73 76/107/76 75/106/75
f 80/108/80 81/109/81 82/110/82
f 83/111/83 84/112/84 80/108/80
f 85/113/85 83/114/83 86/115/86
f 87/116/87 88/117/88 85/118/85
f 89/119/89 87/116/87 90/120/90
f 89/119/89 84/121/84 91/122/91
f 84/121/84 88/117/88 91/122/91
f 92/123/92 93/124/93 94/125/94
f 95/126/95 96/127/96 92/123/92
f 97/128/97 95/129/95 67/130/67
f 97/131/97 98/132/98 99/133/99
f 100/134/100 101/135/101 66/90/66
f 100/134/100 96/136/96 98/132/98
f 96/136/96 99/133/99 98/132/98
f 102/137/102 103/138/103 68/139/68
f 104/140/104 105/141/105 102/142/102
f 106/143/106 104/140/104 64/88/64
f 106/144/106 107/145/107 108/146/108
f 109/147/109 110/148/110 111/149/111
f 103/150/103 107/145/107 109/147/109
f 105/151/105 108/146/108 107/145/107
f 71/95/71 53/71/53 54/72/54
f 70/94/70 55/73/55 53/71/53
f 77/102/77 56/74/56 55/75/55
f 82/110/82 74/98/74 65/89/65
f 81/109/81 78/152/78 74/98/74
f 89/119/89 79/104/79 78/103/78
f 68/139/68 57/76/57 9/77/9
f 103/150/103 58/78/58 57/79/57
f 109/147/109 5/80/5 58/78/58
f 66/90/66 106/143/106 64/88/64
f 101/135/101 110/153/110 106/143/106
f 110/148/110 67/130/67 111/149/111
f 94/125/94 69/93/69 71/95/71
f 93/154/93 72/99/72 69/155/69
f 100/134/100 65/89/65 72/99/72
f 86/115/86 102/137/102 68/139/68
f 83/111/83 104/140/104 102/142/102
f 80/108/80 64/88/64 104/140/104
f 59/82/59 71/95/71 54/72/54
f 60/83/60 67/130/67 95/129/95
f 61/84/61 95/126/95 92/123/92
f 59/82/59 92/123/92 94/125/94
f 62/85/62 90/120/90 87/116/87
f 63/86/63 87/116/87 85/118/85
f 8/87/8 85/113/85 86/115/86
f 79/104/79 112/156/112 56/74/56
f 1/1/1 23/27/23 2/2/2
f 4/4/4 51/157/51 5/5/5
f 7/7/7 27/158/27 8/8/8
f 10/10/10 13/13/13 11/11/11
f 13/13/13 20/24/20 14/14/14
f 14/15/14 20/159/20 15/16/15
f 15/16/15 20/159/20 16/17/16
f 17/19/17 16/160/16 18/20/18
f 18/22/18 16/23/16 13/13/13
f 21/25/21 32/161/32 22/26/22
f 22/28/22 32/162/32 24/29/24
f 25/30/25 24/29/24 26/31/26
f 24/33/24 31/38/31 28/34/28
f 28/34/28 31/38/31 29/36/29
f 31/38/31 32/40/32 21/39/21
f 33/41/33 36/44/36 34/42/34
f 36/44/36 42/163/42 37/45/37
f 37/46/37 42/164/42 38/47/38
f 38/49/38 42/55/42 39/50/39
f 40/51/40 39/50/39 41/52/41
f 41/52/41 39/50/39 36/53/36
f 43/56/43 45/59/45 44/57/44
f 45/59/45 52/165/52 46/60/46
f 46/61/46 52/166/52 47/62/47
f 47/63/47 52/70/52 48/64/48
f 49/65/49 48/64/48 50/66/50
f 48/64/48 45/69/45 43/68/43
f 53/71/53 10/10/10 12/12/12
f 55/73/55 18/22/18 10/10/10
f 56/74/56 19/21/19 18/20/18
f 15/16/15 21/25/21 23/27/23
f 17/18/17 29/167/29 21/25/21
f 19/21/19 30/37/30 29/36/29
f 57/76/57 43/56/43 7/58/7
f 58/78/58 50/66/50 43/68/43
f 5/80/5 51/67/51 50/66/50
f 47/62/47 40/51/40 3/3/3
f 47/62/47 49/168/49 38/49/38
f 51/67/51 4/48/4 38/47/38
f 11/11/11 33/41/33 35/43/35
f 14/15/14 41/52/41 33/54/33
f 1/1/1 3/3/3 41/52/41
f 44/57/44 25/30/25 27/32/27
f 46/60/46 22/28/22 25/30/25
f 2/2/2 23/27/23 22/26/22
f 12/12/12 35/43/35 59/82/59
f 4/48/4 6/169/6 60/83/60
f 37/45/37 60/170/60 61/84/61
f 34/42/34 61/84/61 59/82/59
f 30/37/30 112/156/112 62/85/62
f 28/34/28 62/85/62 63/86/63
f 26/31/26 63/171/63 8/87/8
f 56/74/56 112/156/112 30/37/30
f 64/88/64 82/110/82 65/89/65
f 5/5/5 111/172/111 67/91/67
f 8/8/8 86/173/86 68/92/68
f 69/93/69 73/97/73 70/94/70
f 72/96/72 76/107/76 73/97/73
f 74/98/74 76/101/76 72/99/72
f 74/98/74 78/152/78 75/100/75
f 77/102/77 75/174/75 78/103/78
f 77/105/77 70/94/70 73/97/73
f 80/108/80 84/112/84 81/109/81
f 83/111/83 88/175/88 84/112/84
f 85/113/85 88/176/88 83/114/83
f 87/116/87 91/122/91 88/117/88
f 89/119/89 91/122/91 87/116/87
f 89/119/89 81/177/81 84/121/84
f 92/123/92 96/127/96 93/124/93
f 95/126/95 99/178/99 96/127/96
f 97/128/97 99/179/99 95/129/95
f 97/131/97 101/135/101 98/132/98
f 100/134/100 98/132/98 101/135/101
f 100/134/100 93/154/93 96/136/96
f 102/137/102 105/180/105 103/138/103
f 104/140/104 108/181/108 105/141/105
f 106/143/106 108/181/108 104/140/104
f 106/144/106 110/148/110 107/145/107
f 109/147/109 107/145/107 110/148/110
f 103/150/103 105/151/105 107/145/107
f 71/95/71 70/94/70 53/71/53
f 70/94/70 77/105/77 55/73/55
f 77/102/77 79/104/79 56/74/56
f 82/110/82 81/109/81 74/98/74
f 81/109/81 89/182/89 78/152/78
f 89/119/89 90/120/90 79/104/79
f 68/139/68 103/138/103 57/76/57
f 103/150/103 109/147/109 58/78/58
f 109/147/109 111/149/111 5/80/5
f 66/90/66 101/135/101 106/143/106
f 101/135/101 97/131/97 110/153/110
f 110/148/110 97/128/97 67/130/67
f 94/125/94 93/124/93 69/93/69
f 93/154/93 100/134/100 72/99/72
f 100/134/100 66/90/66 65/89/65
f 86/115/86 83/114/83 102/137/102
f 83/111/83 80/108/80 104/140/104
f 80/108/80 82/110/82 64/88/64
f 59/82/59 94/125/94 71/95/71
f 60/83/60 6/169/6 67/130/67
f 61/84/61 60/170/60 95/126/95
f 59/82/59 61/84/61 92/123/92
f 62/85/62 112/156/112 90/120/90
f 63/86/63 62/85/62 87/116/87
f 8/87/8 63/171/63 85/113/85
f 79/104/79 90/120/90 112/156/112
