# Blender v2.93.2 OBJ File: 'cubeTexture.blend'
# www.blender.org
mtllib piece4.mtl
o Rubiks_Cube_Cube.004_Rubiks_Cube_Cube.006
v -0.000000 2.897457 0.998899
v -0.897001 1.100142 0.998899
v 0.000000 1.100142 0.998899
v -0.897001 1.012338 0.948161
v -0.947605 1.012338 0.897557
v -0.897001 0.998799 0.897557
v -0.897001 1.049537 0.985360
v -0.945464 1.025490 0.946020
v -0.947605 1.100142 0.985360
v -0.984804 1.100142 0.948161
v -0.945464 1.051679 0.972209
v -0.984804 1.049537 0.897557
v -0.998343 1.100142 0.897557
v -0.971653 1.051679 0.946020
v -0.947605 2.985260 0.897557
v -0.897002 2.985260 0.948161
v -0.897002 2.998799 0.897557
v -0.984804 2.948061 0.897557
v -0.945464 2.972109 0.946020
v -0.984804 2.897457 0.948161
v -0.998343 2.897457 0.897557
v -0.945464 2.945920 0.972209
v -0.971653 2.945920 0.946020
v -0.897002 2.948061 0.985360
v -0.947605 2.897457 0.985360
v -0.897002 2.897457 0.998899
v -0.000000 2.985260 0.948161
v -0.000000 2.998799 0.897557
v -0.000000 2.948061 0.985360
v -0.947605 1.012338 0.000000
v -0.897001 0.998799 0.000000
v -0.984804 1.049537 0.000000
v -0.998343 1.100142 0.000000
v 0.000000 0.998799 0.897557
v -0.000000 0.998799 0.000000
v -0.984804 2.948061 0.000000
v -0.947605 2.985260 0.000000
v -0.897002 2.998799 0.000000
v -0.000000 2.998799 0.000000
v 0.000000 1.049537 0.985360
v 0.000000 1.012338 0.948161
v -0.897001 1.100142 -0.998899
v -0.000000 2.897457 -0.998899
v -0.000000 1.100142 -0.998899
v -0.947605 1.012338 -0.897557
v -0.897001 1.012338 -0.948161
v -0.897001 0.998799 -0.897557
v -0.945464 1.025490 -0.946020
v -0.897001 1.049537 -0.985360
v -0.947605 1.100142 -0.985360
v -0.945464 1.051679 -0.972209
v -0.984804 1.100142 -0.948161
v -0.984804 1.049537 -0.897557
v -0.998343 1.100142 -0.897557
v -0.971653 1.051679 -0.946020
v -0.897002 2.985260 -0.948161
v -0.947605 2.985260 -0.897557
v -0.897002 2.998799 -0.897557
v -0.945464 2.972109 -0.946020
v -0.984804 2.948061 -0.897557
v -0.984804 2.897457 -0.948161
v -0.998343 2.897457 -0.897557
v -0.945464 2.945920 -0.972209
v -0.947605 2.897457 -0.985360
v -0.897002 2.948061 -0.985360
v -0.897002 2.897457 -0.998899
v -0.971653 2.945920 -0.946020
v -0.000000 2.985260 -0.948161
v -0.000000 2.998799 -0.897557
v -0.000000 2.948061 -0.985360
v -0.000000 0.998799 -0.897557
v -0.000000 1.049537 -0.985360
v -0.000000 1.012338 -0.948161
v 0.897001 1.100142 0.998899
v 0.947605 1.012338 0.897557
v 0.897001 1.012338 0.948161
v 0.897001 0.998799 0.897557
v 0.945464 1.025490 0.946020
v 0.897001 1.049537 0.985360
v 0.947605 1.100142 0.985360
v 0.945464 1.051679 0.972209
v 0.984804 1.100142 0.948161
v 0.984804 1.049537 0.897557
v 0.998343 1.100142 0.897557
v 0.971653 1.051679 0.946020
v 0.897001 2.985260 0.948161
v 0.947605 2.985260 0.897557
v 0.897001 2.998799 0.897557
v 0.945464 2.972109 0.946020
v 0.984803 2.948061 0.897557
v 0.984803 2.897457 0.948161
v 0.998343 2.897457 0.897557
v 0.945464 2.945920 0.972209
v 0.947605 2.897457 0.985360
v 0.897001 2.948061 0.985360
v 0.897001 2.897457 0.998899
v 0.971653 2.945920 0.946020
v 0.947605 1.012338 -0.000000
v 0.897001 0.998799 -0.000000
v 0.984804 1.049537 -0.000000
v 0.998343 1.100142 -0.000000
v 0.984803 2.948061 -0.000000
v 0.947605 2.985260 -0.000000
v 0.897001 2.998799 -0.000000
v 0.897001 1.100142 -0.998899
v 0.897001 1.012338 -0.948161
v 0.947605 1.012338 -0.897557
v 0.897001 0.998799 -0.897557
v 0.897001 1.049537 -0.985360
v 0.945464 1.025490 -0.946020
v 0.947605 1.100142 -0.985360
v 0.984804 1.100142 -0.948161
v 0.945464 1.051679 -0.972209
v 0.984804 1.049537 -0.897557
v 0.998343 1.100142 -0.897557
v 0.971653 1.051679 -0.946020
v 0.947605 2.985260 -0.897557
v 0.897001 2.985260 -0.948161
v 0.897001 2.998799 -0.897557
v 0.984803 2.948061 -0.897557
v 0.945464 2.972109 -0.946020
v 0.984803 2.897457 -0.948161
v 0.998343 2.897457 -0.897557
v 0.945464 2.945920 -0.972209
v 0.971653 2.945920 -0.946020
v 0.897001 2.948061 -0.985360
v 0.947605 2.897457 -0.985360
v 0.897001 2.897457 -0.998899
v -0.998343 2.897457 0.000000
v 0.998343 2.897457 -0.000000
vt 0.268056 0.183333
vt 0.314583 0.277083
vt 0.268056 0.277083
vt 0.113889 0.078472
vt 0.115972 0.081250
vt 0.113889 0.081250
vt 0.113889 0.076389
vt 0.115972 0.078472
vt 0.317361 0.277083
vt 0.314583 0.279861
vt 0.216667 0.177083
vt 0.218750 0.178472
vt 0.216667 0.179167
vt 0.218750 0.174306
vt 0.216667 0.174306
vt 0.118056 0.081250
vt 0.117361 0.078472
vt 0.115972 0.077083
vt 0.218750 0.277083
vt 0.215972 0.279167
vt 0.215972 0.277083
vt 0.120139 0.174306
vt 0.118750 0.177083
vt 0.118056 0.174306
vt 0.122917 0.177083
vt 0.122917 0.174306
vt 0.319444 0.183333
vt 0.317361 0.181250
vt 0.318750 0.181250
vt 0.314583 0.181250
vt 0.317361 0.183333
vt 0.314583 0.183333
vt 0.317361 0.179861
vt 0.169444 0.279861
vt 0.169444 0.277083
vt 0.314583 0.179167
vt 0.268056 0.181250
vt 0.268056 0.179167
vt 0.122917 0.179167
vt 0.115972 0.127778
vt 0.113889 0.127778
vt 0.118056 0.127778
vt 0.216667 0.127778
vt 0.218750 0.127778
vt 0.066667 0.081250
vt 0.066667 0.127778
vt 0.120139 0.127778
vt 0.118056 0.127778
vt 0.215972 0.230556
vt 0.166667 0.833333
vt 0.111111 0.777778
vt 0.166667 0.777778
vt 0.268056 0.279861
vt 0.066667 0.078472
vt 0.315278 0.079167
vt 0.268056 0.172917
vt 0.268056 0.079167
vt 0.115972 0.174306
vt 0.113889 0.177083
vt 0.113889 0.174306
vt 0.115972 0.177083
vt 0.113889 0.179167
vt 0.315278 0.076389
vt 0.317361 0.079167
vt 0.218750 0.077083
vt 0.216667 0.078472
vt 0.216667 0.076389
vt 0.218750 0.081250
vt 0.216667 0.081250
vt 0.118056 0.174306
vt 0.117361 0.177083
vt 0.115972 0.178472
vt 0.215972 0.181250
vt 0.218750 0.184028
vt 0.215972 0.184028
vt 0.118750 0.078472
vt 0.120139 0.081250
vt 0.118056 0.081250
vt 0.122917 0.078472
vt 0.122917 0.081250
vt 0.120139 0.077083
vt 0.122917 0.076389
vt 0.317361 0.172917
vt 0.315278 0.175000
vt 0.315278 0.172917
vt 0.215972 0.179167
vt 0.218056 0.181250
vt 0.117361 0.179167
vt 0.118056 0.179861
vt 0.117361 0.181250
vt 0.169444 0.181944
vt 0.169444 0.184028
vt 0.169444 0.179167
vt 0.268056 0.175000
vt 0.066667 0.174306
vt 0.111111 0.888889
vt 0.166667 0.888889
vt 0.268056 0.076389
vt 0.066667 0.177083
vt 0.220833 0.277083
vt 0.017361 0.081250
vt 0.020139 0.078472
vt 0.020139 0.081250
vt 0.017361 0.078472
vt 0.020139 0.076389
vt 0.220833 0.279861
vt 0.218750 0.277083
vt 0.115278 0.179861
vt 0.113194 0.181250
vt 0.113194 0.179167
vt 0.115972 0.183333
vt 0.113194 0.183333
vt 0.015278 0.081250
vt 0.015972 0.078472
vt 0.017361 0.077083
vt 0.122917 0.280556
vt 0.120139 0.277778
vt 0.122917 0.277778
vt 0.120139 0.279861
vt 0.118056 0.277778
vt 0.016667 0.183333
vt 0.019444 0.181250
vt 0.019444 0.183333
vt 0.016667 0.179861
vt 0.019444 0.179167
vt 0.218750 0.183333
vt 0.220833 0.181250
vt 0.220833 0.183333
vt 0.218750 0.179861
vt 0.220833 0.179167
vt 0.015278 0.181250
vt 0.016667 0.181250
vt 0.017361 0.127778
vt 0.020139 0.127778
vt 0.015278 0.127778
vt 0.113194 0.230556
vt 0.115972 0.230556
vt 0.016667 0.230556
vt 0.120139 0.231250
vt 0.122917 0.231250
vt 0.222222 0.777778
vt 0.221528 0.079167
vt 0.020139 0.177083
vt 0.017361 0.174306
vt 0.020139 0.174306
vt 0.020139 0.179167
vt 0.017361 0.177083
vt 0.218750 0.079167
vt 0.221528 0.076389
vt 0.113194 0.279861
vt 0.115278 0.281250
vt 0.113194 0.281944
vt 0.115972 0.277083
vt 0.113194 0.277083
vt 0.015278 0.174306
vt 0.015972 0.177083
vt 0.017361 0.178472
vt 0.120139 0.184722
vt 0.122917 0.181944
vt 0.122917 0.184722
vt 0.118056 0.184722
vt 0.120139 0.181944
vt 0.019444 0.279861
vt 0.016667 0.277083
vt 0.019444 0.277083
vt 0.016667 0.281250
vt 0.016667 0.279861
vt 0.221528 0.175000
vt 0.218750 0.172917
vt 0.221528 0.172917
vt 0.120139 0.180556
vt 0.122917 0.179861
vt 0.118750 0.181944
vt 0.019444 0.281944
vt 0.222222 0.888889
vt 0.317361 0.279861
vt 0.116667 0.182639
vt 0.115972 0.179861
vt 0.116667 0.179167
vt 0.218750 0.177083
vt 0.218056 0.279167
vt 0.120139 0.177083
vt 0.120139 0.178472
vt 0.122917 0.127778
vt 0.218750 0.230556
vt 0.111111 0.833333
vt 0.066667 0.076389
vt 0.317361 0.076389
vt 0.115972 0.182639
vt 0.116667 0.183333
vt 0.115972 0.185417
vt 0.218750 0.078472
vt 0.120139 0.078472
vt 0.118056 0.183333
vt 0.317361 0.175000
vt 0.218056 0.179861
vt 0.066667 0.179167
vt 0.218750 0.279861
vt 0.117361 0.183333
vt 0.118056 0.184028
vt 0.117361 0.186806
vt 0.115278 0.181250
vt 0.118750 0.279861
vt 0.218750 0.181250
vt 0.019444 0.230556
vt 0.118056 0.231250
vt 0.222222 0.833333
vt 0.218750 0.076389
vt 0.116667 0.188889
vt 0.115972 0.186111
vt 0.116667 0.185417
vt 0.115278 0.279861
vt 0.218750 0.175000
vn 0.0000 0.1303 0.9915
vn -0.1280 -0.1280 0.9835
vn 0.0000 -0.1303 0.9915
vn -0.1216 -0.8623 0.4916
vn -0.4916 -0.8623 0.1216
vn -0.1280 -0.9835 0.1280
vn -0.1216 -0.4916 0.8623
vn -0.4488 -0.7727 0.4488
vn -0.4916 -0.1216 0.8623
vn -0.8623 -0.1216 0.4916
vn -0.4488 -0.4488 0.7727
vn -0.8623 -0.4916 0.1216
vn -0.9835 -0.1280 0.1280
vn -0.7727 -0.4488 0.4488
vn -0.4916 0.8623 0.1216
vn -0.1216 0.8623 0.4916
vn -0.1280 0.9835 0.1280
vn -0.8623 0.4916 0.1216
vn -0.4488 0.7727 0.4488
vn -0.8623 0.1216 0.4916
vn -0.9835 0.1280 0.1280
vn -0.4488 0.4488 0.7727
vn -0.7727 0.4488 0.4488
vn -0.1216 0.4916 0.8623
vn -0.4916 0.1216 0.8623
vn -0.1280 0.1280 0.9835
vn 0.0000 0.8661 0.4998
vn 0.0000 0.9915 0.1303
vn 0.0000 0.4998 0.8661
vn -0.4998 -0.8661 0.0000
vn -0.1303 -0.9915 -0.0000
vn -0.8661 -0.4998 0.0000
vn -0.9915 -0.1303 0.0000
vn 0.0000 -0.9915 0.1303
vn 0.0000 -1.0000 0.0000
vn -0.8661 0.4998 0.0000
vn -0.4998 0.8661 0.0000
vn -0.1303 0.9915 0.0000
vn 0.0000 1.0000 -0.0000
vn 0.0000 -0.4998 0.8661
vn 0.0000 -0.8661 0.4998
vn -0.1280 -0.1280 -0.9835
vn -0.0000 0.1303 -0.9915
vn -0.0000 -0.1303 -0.9915
vn -0.4916 -0.8623 -0.1216
vn -0.1216 -0.8623 -0.4916
vn -0.1280 -0.9835 -0.1280
vn -0.4488 -0.7727 -0.4488
vn -0.1216 -0.4916 -0.8623
vn -0.4916 -0.1216 -0.8623
vn -0.4488 -0.4488 -0.7727
vn -0.8623 -0.1216 -0.4916
vn -0.8623 -0.4916 -0.1216
vn -0.9835 -0.1280 -0.1280
vn -0.7727 -0.4488 -0.4488
vn -0.1216 0.8623 -0.4916
vn -0.4916 0.8623 -0.1216
vn -0.1280 0.9835 -0.1280
vn -0.4488 0.7727 -0.4488
vn -0.8623 0.4916 -0.1216
vn -0.8623 0.1216 -0.4916
vn -0.9835 0.1280 -0.1280
vn -0.4488 0.4488 -0.7727
vn -0.4916 0.1216 -0.8623
vn -0.1216 0.4916 -0.8623
vn -0.1280 0.1280 -0.9835
vn -0.7727 0.4488 -0.4488
vn -0.0000 0.8661 -0.4998
vn -0.0000 0.9915 -0.1303
vn -0.0000 0.4998 -0.8661
vn 0.0000 -0.9915 -0.1303
vn -0.0000 -0.4998 -0.8661
vn -0.0000 -0.8661 -0.4998
vn 0.1280 -0.1280 0.9835
vn 0.4916 -0.8623 0.1216
vn 0.1216 -0.8623 0.4916
vn 0.1280 -0.9835 0.1280
vn 0.4488 -0.7727 0.4488
vn 0.1216 -0.4916 0.8623
vn 0.4916 -0.1216 0.8623
vn 0.4488 -0.4488 0.7727
vn 0.8623 -0.1216 0.4916
vn 0.8623 -0.4916 0.1216
vn 0.9835 -0.1280 0.1280
vn 0.7727 -0.4488 0.4488
vn 0.1216 0.8623 0.4916
vn 0.4916 0.8623 0.1216
vn 0.1280 0.9835 0.1280
vn 0.4488 0.7727 0.4488
vn 0.8623 0.4916 0.1216
vn 0.8623 0.1216 0.4916
vn 0.9835 0.1280 0.1280
vn 0.4488 0.4488 0.7727
vn 0.4916 0.1216 0.8623
vn 0.1216 0.4916 0.8623
vn 0.1280 0.1280 0.9835
vn 0.7727 0.4488 0.4488
vn 0.4998 -0.8661 -0.0000
vn 0.1303 -0.9915 0.0000
vn 0.8661 -0.4998 -0.0000
vn 0.9915 -0.1303 -0.0000
vn 0.8661 0.4998 -0.0000
vn 0.4998 0.8661 -0.0000
vn 0.1303 0.9915 -0.0000
vn 0.1280 -0.1280 -0.9835
vn 0.1216 -0.8623 -0.4916
vn 0.4916 -0.8623 -0.1216
vn 0.1280 -0.9835 -0.1280
vn 0.1216 -0.4916 -0.8623
vn 0.4488 -0.7727 -0.4488
vn 0.4916 -0.1216 -0.8623
vn 0.8623 -0.1216 -0.4916
vn 0.4488 -0.4488 -0.7727
vn 0.8623 -0.4916 -0.1216
vn 0.9835 -0.1280 -0.1280
vn 0.7727 -0.4488 -0.4488
vn 0.4916 0.8623 -0.1216
vn 0.1216 0.8623 -0.4916
vn 0.1280 0.9835 -0.1280
vn 0.8623 0.4916 -0.1216
vn 0.4488 0.7727 -0.4488
vn 0.8623 0.1216 -0.4916
vn 0.9835 0.1280 -0.1280
vn 0.4488 0.4488 -0.7727
vn 0.7727 0.4488 -0.4488
vn 0.1216 0.4916 -0.8623
vn 0.4916 0.1216 -0.8623
vn 0.1280 0.1280 -0.9835
vn -0.9915 0.1303 0.0000
vn 0.9915 0.1303 -0.0000
usemtl CubeCustomText
s 1
f 1/1/1 2/2/2 3/3/3
f 4/4/4 5/5/5 6/6/6
f 7/7/7 8/8/8 4/4/4
f 9/9/9 7/10/7 2/2/2
f 10/11/10 11/12/11 9/13/9
f 12/14/12 10/11/10 13/15/13
f 12/16/12 8/8/8 14/17/14
f 8/8/8 11/18/11 14/17/14
f 15/19/15 16/20/16 17/21/17
f 18/22/18 19/23/19 15/24/15
f 20/25/20 18/22/18 21/26/21
f 20/27/20 22/28/22 23/29/23
f 24/30/24 25/31/25 26/32/26
f 24/30/24 19/33/19 22/28/22
f 19/33/19 23/29/23 22/28/22
f 17/21/17 27/34/27 28/35/28
f 16/36/16 29/37/29 27/38/27
f 24/30/24 1/1/1 29/37/29
f 13/15/13 20/25/20 21/26/21
f 10/11/10 25/39/25 20/25/20
f 9/9/9 26/32/26 25/31/25
f 6/6/6 30/40/30 31/41/31
f 5/5/5 32/42/32 30/40/30
f 12/14/12 33/43/33 32/44/32
f 34/45/34 31/41/31 35/46/35
f 36/47/36 21/26/21 18/22/18
f 37/48/37 18/22/18 15/24/15
f 38/49/38 15/19/15 17/21/17
f 39/50/39 17/51/17 28/52/28
f 21/26/21 33/43/33 13/15/13
f 40/53/40 2/2/2 7/10/7
f 41/54/41 7/7/7 4/4/4
f 34/45/34 4/4/4 6/6/6
f 42/55/42 43/56/43 44/57/44
f 45/58/45 46/59/46 47/60/47
f 48/61/48 49/62/49 46/59/46
f 49/63/49 50/64/50 42/55/42
f 51/65/51 52/66/52 50/67/50
f 52/66/52 53/68/53 54/69/54
f 53/70/53 48/61/48 45/58/45
f 48/61/48 55/71/55 51/72/51
f 56/73/56 57/74/57 58/75/58
f 59/76/59 60/77/60 57/78/57
f 60/77/60 61/79/61 62/80/62
f 61/79/61 63/81/63 64/82/64
f 64/83/64 65/84/65 66/85/66
f 65/86/65 59/87/59 56/73/56
f 59/88/59 63/89/63 67/90/67
f 68/91/68 58/75/58 69/92/69
f 70/93/70 56/73/56 68/91/68
f 43/56/43 65/84/65 70/94/70
f 61/79/61 54/69/54 62/80/62
f 64/82/64 52/66/52 61/79/61
f 66/85/66 50/64/50 64/83/64
f 30/40/30 47/60/47 31/41/31
f 32/42/32 45/58/45 30/40/30
f 33/43/33 53/68/53 32/44/32
f 31/41/31 71/95/71 35/46/35
f 62/80/62 36/47/36 60/77/60
f 60/77/60 37/48/37 57/78/57
f 57/74/57 38/49/38 58/75/58
f 58/96/58 39/50/39 69/97/69
f 33/43/33 62/80/62 54/69/54
f 42/55/42 72/98/72 49/63/49
f 49/62/49 73/99/73 46/59/46
f 46/59/46 71/95/71 47/60/47
f 74/100/74 1/1/1 3/3/3
f 75/101/75 76/102/76 77/103/77
f 78/104/78 79/105/79 76/102/76
f 79/106/79 80/107/80 74/100/74
f 81/108/81 82/109/82 80/110/80
f 82/109/82 83/111/83 84/112/84
f 83/113/83 78/104/78 75/101/75
f 78/104/78 85/114/85 81/115/81
f 86/116/86 87/117/87 88/118/88
f 89/119/89 90/120/90 87/117/87
f 90/121/90 91/122/91 92/123/92
f 91/122/91 93/124/93 94/125/94
f 94/126/94 95/127/95 96/128/96
f 95/127/95 89/129/89 86/130/86
f 89/131/89 93/124/93 97/132/97
f 27/34/27 88/118/88 28/35/28
f 29/37/29 86/130/86 27/38/27
f 1/1/1 95/127/95 29/37/29
f 91/122/91 84/112/84 92/123/92
f 94/125/94 82/109/82 91/122/91
f 96/128/96 80/107/80 94/126/94
f 98/133/98 77/103/77 99/134/99
f 100/135/100 75/101/75 98/133/98
f 101/136/101 83/111/83 100/137/100
f 99/134/99 34/45/34 35/46/35
f 92/123/92 102/138/102 90/121/90
f 90/120/90 103/139/103 87/117/87
f 87/117/87 104/140/104 88/118/88
f 88/141/88 39/50/39 28/52/28
f 101/136/101 92/123/92 84/112/84
f 74/100/74 40/53/40 79/106/79
f 79/105/79 41/54/41 76/102/76
f 76/102/76 34/45/34 77/103/77
f 43/56/43 105/142/105 44/57/44
f 106/143/106 107/144/107 108/145/108
f 109/146/109 110/147/110 106/143/106
f 111/148/111 109/149/109 105/142/105
f 112/150/112 113/151/113 111/152/111
f 114/153/114 112/150/112 115/154/115
f 114/155/114 110/147/110 116/156/116
f 110/147/110 113/157/113 116/156/116
f 117/158/117 118/159/118 119/160/119
f 120/161/120 121/162/121 117/158/117
f 122/163/122 120/164/120 123/165/123
f 122/163/122 124/166/124 125/167/125
f 126/168/126 127/169/127 128/170/128
f 118/159/118 124/171/124 126/172/126
f 121/162/121 125/173/125 124/171/124
f 119/160/119 68/91/68 69/92/69
f 118/159/118 70/93/70 68/91/68
f 126/168/126 43/56/43 70/94/70
f 115/154/115 122/163/122 123/165/123
f 112/150/112 127/174/127 122/163/122
f 111/148/111 128/170/128 127/169/127
f 108/145/108 98/133/98 99/134/99
f 107/144/107 100/135/100 98/133/98
f 114/153/114 101/136/101 100/137/100
f 71/95/71 99/134/99 35/46/35
f 102/138/102 123/165/123 120/164/120
f 103/139/103 120/161/120 117/158/117
f 104/140/104 117/158/117 119/160/119
f 39/50/39 119/175/119 69/97/69
f 123/165/123 101/136/101 115/154/115
f 72/98/72 105/142/105 109/149/109
f 73/99/73 109/146/109 106/143/106
f 71/95/71 106/143/106 108/145/108
f 1/1/1 26/32/26 2/2/2
f 4/4/4 8/8/8 5/5/5
f 7/7/7 11/18/11 8/8/8
f 9/9/9 11/176/11 7/10/7
f 10/177/10 14/178/14 11/179/11
f 12/14/12 14/180/14 10/11/10
f 12/16/12 5/5/5 8/8/8
f 15/19/15 19/181/19 16/20/16
f 18/22/18 23/182/23 19/23/19
f 20/25/20 23/182/23 18/22/18
f 20/25/20 25/39/25 22/183/22
f 24/30/24 22/28/22 25/31/25
f 24/30/24 16/36/16 19/33/19
f 17/21/17 16/20/16 27/34/27
f 16/36/16 24/30/24 29/37/29
f 24/30/24 26/32/26 1/1/1
f 13/15/13 10/11/10 20/25/20
f 10/11/10 9/13/9 25/39/25
f 9/9/9 2/2/2 26/32/26
f 6/6/6 5/5/5 30/40/30
f 5/5/5 12/16/12 32/42/32
f 12/14/12 13/15/13 33/43/33
f 34/45/34 6/6/6 31/41/31
f 36/47/36 129/184/129 21/26/21
f 37/48/37 36/47/36 18/22/18
f 38/49/38 37/185/37 15/19/15
f 39/50/39 38/186/38 17/51/17
f 21/26/21 129/184/129 33/43/33
f 40/53/40 3/3/3 2/2/2
f 41/54/41 40/187/40 7/7/7
f 34/45/34 41/54/41 4/4/4
f 42/55/42 66/85/66 43/56/43
f 45/58/45 48/61/48 46/59/46
f 48/61/48 51/72/51 49/62/49
f 49/63/49 51/188/51 50/64/50
f 51/189/51 55/190/55 52/191/52
f 52/66/52 55/192/55 53/68/53
f 53/70/53 55/71/55 48/61/48
f 56/73/56 59/87/59 57/74/57
f 59/76/59 67/193/67 60/77/60
f 60/77/60 67/193/67 61/79/61
f 61/194/61 67/90/67 63/89/63
f 64/83/64 63/195/63 65/84/65
f 65/86/65 63/196/63 59/87/59
f 68/91/68 56/73/56 58/75/58
f 70/93/70 65/86/65 56/73/56
f 43/56/43 66/85/66 65/84/65
f 61/79/61 52/66/52 54/69/54
f 64/82/64 50/67/50 52/66/52
f 66/85/66 42/55/42 50/64/50
f 30/40/30 45/58/45 47/60/47
f 32/42/32 53/70/53 45/58/45
f 33/43/33 54/69/54 53/68/53
f 31/41/31 47/60/47 71/95/71
f 62/80/62 129/184/129 36/47/36
f 60/77/60 36/47/36 37/48/37
f 57/74/57 37/185/37 38/49/38
f 58/96/58 38/186/38 39/50/39
f 33/43/33 129/184/129 62/80/62
f 42/55/42 44/57/44 72/98/72
f 49/62/49 72/197/72 73/99/73
f 46/59/46 73/99/73 71/95/71
f 74/100/74 96/128/96 1/1/1
f 75/101/75 78/104/78 76/102/76
f 78/104/78 81/115/81 79/105/79
f 79/106/79 81/198/81 80/107/80
f 81/199/81 85/200/85 82/201/82
f 82/109/82 85/202/85 83/111/83
f 83/113/83 85/114/85 78/104/78
f 86/116/86 89/119/89 87/117/87
f 89/119/89 97/203/97 90/120/90
f 90/121/90 97/132/97 91/122/91
f 91/122/91 97/132/97 93/124/93
f 94/126/94 93/204/93 95/127/95
f 95/127/95 93/204/93 89/129/89
f 27/34/27 86/116/86 88/118/88
f 29/37/29 95/127/95 86/130/86
f 1/1/1 96/128/96 95/127/95
f 91/122/91 82/109/82 84/112/84
f 94/125/94 80/110/80 82/109/82
f 96/128/96 74/100/74 80/107/80
f 98/133/98 75/101/75 77/103/77
f 100/135/100 83/113/83 75/101/75
f 101/136/101 84/112/84 83/111/83
f 99/134/99 77/103/77 34/45/34
f 92/123/92 130/205/130 102/138/102
f 90/120/90 102/206/102 103/139/103
f 87/117/87 103/139/103 104/140/104
f 88/141/88 104/207/104 39/50/39
f 101/136/101 130/205/130 92/123/92
f 74/100/74 3/3/3 40/53/40
f 79/105/79 40/187/40 41/54/41
f 76/102/76 41/54/41 34/45/34
f 43/56/43 128/170/128 105/142/105
f 106/143/106 110/147/110 107/144/107
f 109/146/109 113/157/113 110/147/110
f 111/148/111 113/208/113 109/149/109
f 112/209/112 116/210/116 113/211/113
f 114/153/114 116/212/116 112/150/112
f 114/155/114 107/144/107 110/147/110
f 117/158/117 121/162/121 118/159/118
f 120/161/120 125/173/125 121/162/121
f 122/163/122 125/167/125 120/164/120
f 122/163/122 127/174/127 124/166/124
f 126/168/126 124/213/124 127/169/127
f 118/159/118 121/162/121 124/171/124
f 119/160/119 118/159/118 68/91/68
f 118/159/118 126/172/126 70/93/70
f 126/168/126 128/170/128 43/56/43
f 115/154/115 112/150/112 122/163/122
f 112/150/112 111/152/111 127/174/127
f 111/148/111 105/142/105 128/170/128
f 108/145/108 107/144/107 98/133/98
f 107/144/107 114/155/114 100/135/100
f 114/153/114 115/154/115 101/136/101
f 71/95/71 108/145/108 99/134/99
f 102/138/102 130/205/130 123/165/123
f 103/139/103 102/206/102 120/161/120
f 104/140/104 103/139/103 117/158/117
f 39/50/39 104/207/104 119/175/119
f 123/165/123 130/205/130 101/136/101
f 72/98/72 44/57/44 105/142/105
f 73/99/73 72/197/72 109/146/109
f 71/95/71 73/99/73 106/143/106
