# Blender v2.93.2 OBJ File: 'cubeTexture.blend'
# www.blender.org
mtllib piece14.mtl
o Rubiks_Cube_Cube.014_Rubiks_Cube_Cube.011
v -2.898658 0.947865 2.986461
v -1.101342 0.897260 3.000000
v -1.101342 0.947865 2.986461
v -1.050738 -0.000000 2.986461
v -1.013539 0.897260 2.949262
v -1.050738 0.897260 2.986461
v -2.949262 -0.000000 2.986461
v -2.898658 0.897260 3.000000
v -2.949262 0.897260 2.986461
v -1.013539 -0.000000 1.050738
v -1.050738 0.897260 1.013539
v -1.013539 0.897260 1.050738
v -2.986461 0.947865 1.101342
v -3.000000 0.897260 2.898658
v -2.986461 0.947865 2.898658
v -2.898658 0.985064 2.949262
v -1.101342 0.985064 2.949262
v -2.898658 0.998603 2.898658
v -1.101342 0.998603 2.898658
v -1.050738 0.985064 1.101342
v -1.101342 0.998603 1.101342
v -2.986461 -0.000000 2.949262
v -2.986461 0.897260 2.949262
v -2.898658 0.998603 1.101342
v -2.949262 0.985064 2.898658
v -1.101342 -0.000000 3.000000
v -1.013539 -0.000000 2.949262
v -1.000000 0.897260 2.898658
v -3.000000 -0.000000 2.898658
v -1.050738 -0.000000 1.013539
v -1.101342 0.897260 1.000000
v -1.013539 0.947865 2.898658
v -1.052879 0.971912 2.947121
v -1.026690 0.945723 2.947121
v -1.101342 0.947865 1.013539
v -2.898658 0.897260 1.000000
v -2.898658 0.947865 1.013539
v -2.986461 0.897260 1.050738
v -2.949262 -0.000000 1.013539
v -2.986461 -0.000000 1.050738
v -1.050738 0.985064 2.898658
v -2.947121 0.945723 2.973310
v -2.973310 0.945723 2.947121
v -2.947121 0.971912 2.947121
v -1.052879 0.945723 2.973310
v -2.949262 0.897260 1.013539
v -2.898658 -0.000000 1.000000
v -1.101342 0.985064 1.050738
v -2.898658 0.985064 1.050738
v -1.052879 0.971912 1.052879
v -1.026690 0.945723 1.052879
v -1.052879 0.945723 1.026690
v -1.013539 0.947865 1.101342
v -2.973310 0.945723 1.052879
v -2.947121 0.971912 1.052879
v -2.947121 0.945723 1.026690
v -2.949262 0.985064 1.101342
v -1.000000 0.897260 1.101342
v -3.000000 0.897260 1.101342
v -3.000000 -0.000000 1.101342
v -1.101342 -0.000000 1.000000
v -2.898658 -0.000000 3.000000
v -1.000000 -0.000000 2.898658
v -1.000000 -0.000000 1.101342
v -1.101342 -0.897260 3.000000
v -2.898658 -0.947865 2.986461
v -1.101342 -0.947865 2.986461
v -1.013539 -0.897260 2.949262
v -1.050738 -0.897260 2.986461
v -2.898658 -0.897260 3.000000
v -2.949262 -0.897260 2.986461
v -1.050738 -0.897260 1.013539
v -1.013539 -0.897260 1.050738
v -3.000000 -0.897260 2.898658
v -2.986461 -0.947865 1.101342
v -2.986461 -0.947865 2.898658
v -1.101342 -0.985064 2.949262
v -2.898658 -0.985065 2.949262
v -2.898658 -0.998603 2.898658
v -1.101342 -0.998603 2.898658
v -1.050738 -0.985064 1.101342
v -1.101342 -0.998603 1.101342
v -2.986461 -0.897260 2.949262
v -2.949262 -0.985065 2.898658
v -2.898658 -0.998603 1.101342
v -1.000000 -0.897260 2.898658
v -1.101342 -0.897260 1.000000
v -1.013539 -0.947865 2.898658
v -1.052879 -0.971912 2.947121
v -1.050738 -0.985064 2.898658
v -2.898658 -0.897260 1.000000
v -1.101342 -0.947865 1.013539
v -2.898658 -0.947865 1.013539
v -2.986461 -0.897260 1.050738
v -2.947121 -0.945723 2.973310
v -2.947121 -0.971913 2.947121
v -2.973310 -0.945723 2.947121
v -1.026690 -0.945723 2.947121
v -1.052879 -0.945723 2.973310
v -2.949262 -0.897260 1.013539
v -1.101342 -0.985064 1.050738
v -2.898658 -0.985065 1.050738
v -1.052879 -0.971912 1.052879
v -1.052879 -0.945723 1.026690
v -1.026690 -0.945723 1.052879
v -1.013539 -0.947865 1.101342
v -2.973310 -0.945723 1.052879
v -2.947121 -0.945723 1.026690
v -2.947121 -0.971913 1.052879
v -2.949262 -0.985065 1.101342
v -1.000000 -0.897260 1.101342
v -3.000000 -0.897260 1.101342
vt 0.017361 0.275694
vt 0.111111 0.272917
vt 0.110417 0.275694
vt 0.011806 0.118750
vt 0.014583 0.166667
vt 0.011806 0.166667
vt 0.014583 0.225000
vt 0.017361 0.272917
vt 0.014583 0.272917
vt 0.217361 0.225000
vt 0.219444 0.272917
vt 0.217361 0.272917
vt 0.217361 0.166667
vt 0.214583 0.070833
vt 0.217361 0.070833
vt 0.215278 0.176389
vt 0.217361 0.272917
vt 0.215278 0.272917
vt 0.212500 0.176389
vt 0.212500 0.272917
vt 0.115972 0.275694
vt 0.115972 0.272917
vt 0.011806 0.225000
vt 0.011806 0.272917
vt 0.115972 0.176389
vt 0.212500 0.173611
vt 0.111111 0.225000
vt 0.113194 0.272917
vt 0.014583 0.118750
vt 0.017361 0.166667
vt 0.166667 0.070139
vt 0.214583 0.068056
vt 0.219444 0.225000
vt 0.222222 0.272917
vt 0.016667 0.169444
vt 0.013889 0.170833
vt 0.013889 0.169444
vt 0.222222 0.275694
vt 0.318750 0.272917
vt 0.318750 0.275694
vt 0.214583 0.169444
vt 0.166667 0.170833
vt 0.166667 0.168750
vt 0.212500 0.275694
vt 0.014583 0.275694
vt 0.012500 0.275694
vt 0.013889 0.277083
vt 0.212500 0.171528
vt 0.215278 0.173611
vt 0.215278 0.275694
vt 0.012500 0.169444
vt 0.321528 0.272917
vt 0.318750 0.225000
vt 0.321528 0.225000
vt 0.222222 0.277778
vt 0.318750 0.277778
vt 0.113194 0.176389
vt 0.219444 0.277083
vt 0.218056 0.275694
vt 0.219444 0.275694
vt 0.115972 0.277778
vt 0.113194 0.275694
vt 0.113194 0.272917
vt 0.322917 0.275694
vt 0.321528 0.277083
vt 0.321528 0.275694
vt 0.115972 0.173611
vt 0.214583 0.171528
vt 0.217361 0.169444
vt 0.217361 0.170833
vt 0.113889 0.166667
vt 0.111111 0.169444
vt 0.111111 0.166667
vt 0.214583 0.166667
vt 1.000000 0.555556
vt 0.888889 0.500000
vt 1.000000 0.500000
vt 0.222222 0.225000
vt 0.444444 0.888889
vt 0.333333 0.833333
vt 0.444444 0.833333
vt 0.115972 0.171528
vt 0.113194 0.173611
vt 0.113194 0.172222
vt 0.017361 0.118750
vt 0.111111 0.118750
vt 0.166667 0.165972
vt 0.111111 0.176389
vt 0.017361 0.173611
vt 0.110417 0.173611
vt 0.014583 0.070139
vt 0.011806 0.070139
vt 0.017361 0.176389
vt 0.014583 0.176389
vt 0.219444 0.176389
vt 0.217361 0.176389
vt 0.118750 0.069444
vt 0.115972 0.165278
vt 0.115972 0.069444
vt 0.318056 0.169444
vt 0.221528 0.171528
vt 0.221528 0.169444
vt 0.221528 0.167361
vt 0.318056 0.167361
vt 0.320833 0.070139
vt 0.318056 0.070139
vt 0.011806 0.176389
vt 0.218750 0.167361
vt 0.221528 0.070139
vt 0.113194 0.176389
vt 0.017361 0.070139
vt 0.118750 0.066667
vt 0.222222 0.176389
vt 0.016667 0.067361
vt 0.013889 0.065972
vt 0.016667 0.065278
vt 0.318750 0.176389
vt 0.222222 0.173611
vt 0.318750 0.173611
vt 0.118750 0.168056
vt 0.320833 0.167361
vt 0.014583 0.173611
vt 0.013889 0.172222
vt 0.012500 0.173611
vt 0.114583 0.066667
vt 0.113889 0.069444
vt 0.016667 0.171528
vt 0.320833 0.169444
vt 0.318056 0.171528
vt 0.013889 0.067361
vt 0.012500 0.067361
vt 0.321528 0.176389
vt 0.222222 0.171528
vt 0.318750 0.171528
vt 0.221528 0.067361
vt 0.320833 0.067361
vt 0.320833 0.065972
vt 0.322222 0.067361
vt 0.219444 0.173611
vt 0.322917 0.070139
vt 0.318056 0.067361
vt 0.115972 0.168056
vt 0.115972 0.169444
vt 0.114583 0.168056
vt 0.218750 0.070139
vt 0.118750 0.170139
vt 0.321528 0.172222
vt 0.111111 0.067361
vt 0.113889 0.070139
vt 0.111111 0.070139
vt 0.118750 0.165278
vt 1.000000 0.444444
vt 0.444444 0.777778
vt 0.113889 0.165278
vt 0.318056 0.065278
vt 0.017361 0.225000
vt 0.217361 0.176389
vt 0.113194 0.225000
vt 0.166667 0.067361
vt 0.016667 0.171528
vt 0.113194 0.275694
vt 0.217361 0.068056
vt 0.215278 0.172222
vt 0.016667 0.277778
vt 0.216667 0.275694
vt 0.113194 0.277083
vt 0.113889 0.169444
vt 0.888889 0.555556
vt 0.333333 0.888889
vt 0.212500 0.277778
vt 0.113889 0.118750
vt 0.113194 0.173611
vt 0.115972 0.066667
vt 0.218750 0.169444
vt 0.320833 0.170833
vt 0.218056 0.173611
vt 0.218750 0.067361
vt 0.321528 0.173611
vt 0.113889 0.067361
vt 0.888889 0.444444
vt 0.333333 0.777778
vt 0.219444 0.172222
vt 0.322917 0.167361
vn -0.1216 0.4916 0.8623
vn 0.1280 0.1280 0.9835
vn 0.1216 0.4916 0.8623
vn 0.4998 0.0000 0.8661
vn 0.8623 0.1216 0.4916
vn 0.4916 0.1216 0.8623
vn -0.4998 0.0000 0.8661
vn -0.1280 0.1280 0.9835
vn -0.4916 0.1216 0.8623
vn 0.8661 0.0000 -0.4998
vn 0.4916 0.1216 -0.8623
vn 0.8623 0.1216 -0.4916
vn -0.8623 0.4916 -0.1216
vn -0.9835 0.1280 0.1280
vn -0.8623 0.4916 0.1216
vn -0.1216 0.8623 0.4916
vn 0.1216 0.8623 0.4916
vn -0.1280 0.9835 0.1280
vn 0.1280 0.9835 0.1280
vn 0.4916 0.8623 -0.1216
vn 0.1280 0.9835 -0.1280
vn -0.8661 0.0000 0.4998
vn -0.8623 0.1216 0.4916
vn -0.1280 0.9835 -0.1280
vn -0.4916 0.8623 0.1216
vn 0.1303 0.0000 0.9915
vn 0.8661 0.0000 0.4998
vn 0.9835 0.1280 0.1280
vn -0.9915 0.0000 0.1303
vn 0.4998 0.0000 -0.8661
vn 0.1280 0.1280 -0.9835
vn 0.8623 0.4916 0.1216
vn 0.4488 0.7727 0.4488
vn 0.7727 0.4488 0.4488
vn 0.1216 0.4916 -0.8623
vn -0.1280 0.1280 -0.9835
vn -0.1216 0.4916 -0.8623
vn -0.8623 0.1216 -0.4916
vn -0.4998 0.0000 -0.8661
vn -0.8661 0.0000 -0.4998
vn 0.4916 0.8623 0.1216
vn -0.4488 0.4488 0.7727
vn -0.7727 0.4488 0.4488
vn -0.4488 0.7727 0.4488
vn 0.4488 0.4488 0.7727
vn -0.4916 0.1216 -0.8623
vn -0.1303 0.0000 -0.9915
vn 0.1216 0.8623 -0.4916
vn -0.1216 0.8623 -0.4916
vn 0.4488 0.7727 -0.4488
vn 0.7727 0.4488 -0.4488
vn 0.4488 0.4488 -0.7727
vn 0.8623 0.4916 -0.1216
vn -0.7727 0.4488 -0.4488
vn -0.4488 0.7727 -0.4488
vn -0.4488 0.4488 -0.7727
vn -0.4916 0.8623 -0.1216
vn 0.9835 0.1280 -0.1280
vn -0.9835 0.1280 -0.1280
vn -0.9915 -0.0000 -0.1303
vn 0.1303 0.0000 -0.9915
vn -0.1303 0.0000 0.9915
vn 0.9915 0.0000 0.1303
vn 0.9915 0.0000 -0.1303
vn 0.1280 -0.1280 0.9835
vn -0.1216 -0.4916 0.8623
vn 0.1216 -0.4916 0.8623
vn 0.8623 -0.1216 0.4916
vn 0.4916 -0.1216 0.8623
vn -0.1280 -0.1280 0.9835
vn -0.4916 -0.1216 0.8623
vn 0.4916 -0.1216 -0.8623
vn 0.8623 -0.1216 -0.4916
vn -0.9835 -0.1280 0.1280
vn -0.8623 -0.4916 -0.1216
vn -0.8623 -0.4916 0.1216
vn 0.1216 -0.8623 0.4916
vn -0.1216 -0.8623 0.4916
vn -0.1280 -0.9835 0.1280
vn 0.1280 -0.9835 0.1280
vn 0.4916 -0.8623 -0.1216
vn 0.1280 -0.9835 -0.1280
vn -0.8623 -0.1216 0.4916
vn -0.4916 -0.8623 0.1216
vn -0.1280 -0.9835 -0.1280
vn 0.9835 -0.1280 0.1280
vn 0.1280 -0.1280 -0.9835
vn 0.8623 -0.4916 0.1216
vn 0.4488 -0.7727 0.4488
vn 0.4916 -0.8623 0.1216
vn -0.1280 -0.1280 -0.9835
vn 0.1216 -0.4916 -0.8623
vn -0.1216 -0.4916 -0.8623
vn -0.8623 -0.1216 -0.4916
vn -0.4489 -0.4488 0.7727
vn -0.4489 -0.7727 0.4489
vn -0.7727 -0.4488 0.4489
vn 0.7727 -0.4488 0.4488
vn 0.4488 -0.4488 0.7727
vn -0.4916 -0.1216 -0.8623
vn 0.1216 -0.8623 -0.4916
vn -0.1216 -0.8623 -0.4916
vn 0.4488 -0.7727 -0.4488
vn 0.4488 -0.4488 -0.7727
vn 0.7727 -0.4488 -0.4488
vn 0.8623 -0.4916 -0.1216
vn -0.7727 -0.4488 -0.4488
vn -0.4488 -0.4488 -0.7727
vn -0.4489 -0.7727 -0.4489
vn -0.4916 -0.8623 -0.1216
vn 0.9835 -0.1280 -0.1280
vn -0.9835 -0.1280 -0.1280
usemtl CubeCustomText
s 1
f 1/1/1 2/2/2 3/3/3
f 4/4/4 5/5/5 6/6/6
f 7/7/7 8/8/8 9/9/9
f 10/10/10 11/11/11 12/12/12
f 13/13/13 14/14/14 15/15/15
f 16/16/16 3/17/3 17/18/17
f 18/19/18 17/18/17 19/20/19
f 19/20/19 20/21/20 21/22/21
f 22/23/22 9/9/9 23/24/23
f 24/25/24 25/26/25 18/19/18
f 26/27/26 6/28/6 2/2/2
f 27/29/27 28/30/28 5/5/5
f 29/31/29 23/32/23 14/14/14
f 30/33/30 31/34/31 11/11/11
f 32/35/32 33/36/33 34/37/34
f 1/1/1 9/9/9 8/8/8
f 35/38/35 36/39/36 37/40/37
f 32/35/32 5/5/5 28/30/28
f 38/41/38 39/42/39 40/43/40
f 6/28/6 3/3/3 2/2/2
f 17/18/17 41/44/41 19/20/19
f 23/24/23 42/45/42 43/46/43
f 44/47/44 43/46/43 42/45/42
f 23/32/23 15/15/15 14/14/14
f 25/26/25 16/16/16 18/19/18
f 15/48/15 44/49/44 25/26/25
f 1/1/1 44/47/44 42/45/42
f 3/17/3 33/50/33 17/18/17
f 33/36/33 45/51/45 34/37/34
f 46/52/46 47/53/47 39/54/39
f 5/5/5 45/51/45 6/6/6
f 48/55/48 37/40/37 49/56/49
f 21/22/21 49/57/49 24/25/24
f 50/58/50 51/59/51 52/60/52
f 11/11/11 51/59/51 12/12/12
f 35/38/35 11/11/11 31/34/31
f 53/61/53 50/62/50 20/21/20
f 20/21/20 48/63/48 21/22/21
f 54/64/54 55/65/55 56/66/56
f 49/57/49 57/67/57 24/25/24
f 46/68/46 54/69/54 56/70/56
f 37/40/37 55/65/55 49/56/49
f 46/52/46 37/40/37 36/39/36
f 12/71/12 53/72/53 58/73/58
f 13/13/13 38/41/38 59/74/59
f 14/75/14 60/76/60 29/77/29
f 36/39/36 61/78/61 47/53/47
f 2/79/2 62/80/62 26/81/26
f 13/82/13 55/83/55 54/84/54
f 21/22/21 18/19/18 19/20/19
f 58/73/58 63/85/63 64/86/64
f 35/38/35 50/58/50 52/60/52
f 41/44/41 53/61/53 20/21/20
f 32/35/32 58/73/58 53/72/53
f 57/67/57 15/48/15 25/26/25
f 64/86/64 12/71/12 58/73/58
f 59/74/59 40/43/40 60/87/60
f 65/88/65 66/89/66 67/90/67
f 68/91/68 4/4/4 69/92/69
f 70/93/70 7/7/7 71/94/71
f 72/95/72 10/10/10 73/96/73
f 74/97/74 75/98/75 76/99/76
f 77/100/77 66/101/66 78/102/78
f 77/100/77 79/103/79 80/104/80
f 81/105/81 80/104/80 82/106/82
f 71/94/71 22/23/22 83/107/83
f 84/108/84 85/109/85 79/103/79
f 69/110/69 26/27/26 65/88/65
f 86/111/86 27/29/27 68/91/68
f 83/112/83 29/31/29 74/97/74
f 87/113/87 30/33/30 72/95/72
f 88/114/88 89/115/89 90/116/90
f 71/94/71 66/89/66 70/93/70
f 91/117/91 92/118/92 93/119/93
f 68/91/68 88/114/88 86/111/86
f 39/42/39 94/120/94 40/43/40
f 67/90/67 69/110/69 65/88/65
f 90/121/90 77/100/77 80/104/80
f 83/107/83 95/122/95 71/94/71
f 96/123/96 95/122/95 97/124/97
f 76/99/76 83/112/83 74/97/74
f 78/102/78 84/108/84 79/103/79
f 96/125/96 76/99/76 84/126/84
f 66/89/66 96/123/96 78/127/78
f 89/128/89 67/129/67 77/100/77
f 89/115/89 98/130/98 99/131/99
f 47/53/47 100/132/100 39/54/39
f 69/92/69 98/130/98 68/91/68
f 93/119/93 101/133/101 102/134/102
f 102/135/102 82/106/82 85/109/85
f 103/136/103 104/137/104 105/138/105
f 73/96/73 104/139/104 72/95/72
f 72/95/72 92/118/92 87/113/87
f 103/136/103 106/140/106 81/105/81
f 101/141/101 81/105/81 82/106/82
f 107/142/107 108/143/108 109/144/109
f 110/145/110 102/135/102 85/109/85
f 100/146/100 107/142/107 94/120/94
f 109/147/109 93/119/93 102/134/102
f 93/119/93 100/132/100 91/117/91
f 106/148/106 73/149/73 111/150/111
f 94/120/94 75/98/75 112/151/112
f 60/76/60 74/152/74 29/77/29
f 61/78/61 91/117/91 47/53/47
f 62/80/62 65/153/65 26/81/26
f 75/98/75 109/144/109 110/154/110
f 79/103/79 82/106/82 80/104/80
f 63/85/63 111/150/111 64/86/64
f 92/155/92 103/136/103 101/141/101
f 106/140/106 90/121/90 81/105/81
f 111/150/111 88/114/88 106/148/106
f 76/99/76 110/154/110 84/126/84
f 73/149/73 64/86/64 111/150/111
f 40/43/40 112/151/112 60/87/60
f 1/1/1 8/8/8 2/2/2
f 4/4/4 27/29/27 5/5/5
f 7/7/7 62/156/62 8/8/8
f 10/10/10 30/33/30 11/11/11
f 13/13/13 59/74/59 14/14/14
f 16/16/16 1/157/1 3/17/3
f 18/19/18 16/16/16 17/18/17
f 19/20/19 41/44/41 20/21/20
f 22/23/22 7/7/7 9/9/9
f 24/25/24 57/67/57 25/26/25
f 26/27/26 4/158/4 6/28/6
f 27/29/27 63/85/63 28/30/28
f 29/31/29 22/159/22 23/32/23
f 30/33/30 61/78/61 31/34/31
f 32/35/32 41/160/41 33/36/33
f 1/1/1 42/45/42 9/9/9
f 35/38/35 31/34/31 36/39/36
f 32/35/32 34/37/34 5/5/5
f 38/41/38 46/68/46 39/42/39
f 6/28/6 45/161/45 3/3/3
f 17/18/17 33/50/33 41/44/41
f 23/24/23 9/9/9 42/45/42
f 23/32/23 43/162/43 15/15/15
f 25/26/25 44/49/44 16/16/16
f 15/48/15 43/163/43 44/49/44
f 1/1/1 16/164/16 44/47/44
f 3/17/3 45/165/45 33/50/33
f 46/52/46 36/39/36 47/53/47
f 5/5/5 34/37/34 45/51/45
f 48/55/48 35/38/35 37/40/37
f 21/22/21 48/63/48 49/57/49
f 11/11/11 52/60/52 51/59/51
f 35/38/35 52/60/52 11/11/11
f 53/61/53 51/166/51 50/62/50
f 20/21/20 50/62/50 48/63/48
f 49/57/49 55/83/55 57/67/57
f 46/68/46 38/41/38 54/69/54
f 37/40/37 56/66/56 55/65/55
f 46/52/46 56/66/56 37/40/37
f 12/71/12 51/167/51 53/72/53
f 13/13/13 54/69/54 38/41/38
f 14/75/14 59/168/59 60/76/60
f 36/39/36 31/34/31 61/78/61
f 2/79/2 8/169/8 62/80/62
f 13/82/13 57/67/57 55/83/55
f 21/22/21 24/25/24 18/19/18
f 58/73/58 28/30/28 63/85/63
f 35/38/35 48/55/48 50/58/50
f 41/44/41 32/170/32 53/61/53
f 32/35/32 28/30/28 58/73/58
f 57/67/57 13/82/13 15/48/15
f 64/86/64 10/171/10 12/71/12
f 59/74/59 38/41/38 40/43/40
f 65/88/65 70/93/70 66/89/66
f 68/91/68 27/29/27 4/4/4
f 70/93/70 62/156/62 7/7/7
f 72/95/72 30/33/30 10/10/10
f 74/97/74 112/151/112 75/98/75
f 77/100/77 67/129/67 66/101/66
f 77/100/77 78/102/78 79/103/79
f 81/105/81 90/121/90 80/104/80
f 71/94/71 7/7/7 22/23/22
f 84/108/84 110/145/110 85/109/85
f 69/110/69 4/158/4 26/27/26
f 86/111/86 63/85/63 27/29/27
f 83/112/83 22/159/22 29/31/29
f 87/113/87 61/78/61 30/33/30
f 88/114/88 98/130/98 89/115/89
f 71/94/71 95/122/95 66/89/66
f 91/117/91 87/113/87 92/118/92
f 68/91/68 98/130/98 88/114/88
f 39/42/39 100/146/100 94/120/94
f 67/90/67 99/172/99 69/110/69
f 90/121/90 89/128/89 77/100/77
f 83/107/83 97/124/97 95/122/95
f 76/99/76 97/173/97 83/112/83
f 78/102/78 96/174/96 84/108/84
f 96/125/96 97/173/97 76/99/76
f 66/89/66 95/122/95 96/123/96
f 89/128/89 99/175/99 67/129/67
f 47/53/47 91/117/91 100/132/100
f 69/92/69 99/131/99 98/130/98
f 93/119/93 92/118/92 101/133/101
f 102/135/102 101/141/101 82/106/82
f 73/96/73 105/176/105 104/139/104
f 72/95/72 104/139/104 92/118/92
f 103/136/103 105/138/105 106/140/106
f 101/141/101 103/136/103 81/105/81
f 110/145/110 109/177/109 102/135/102
f 100/146/100 108/143/108 107/142/107
f 109/147/109 108/178/108 93/119/93
f 93/119/93 108/178/108 100/132/100
f 106/148/106 105/179/105 73/149/73
f 94/120/94 107/142/107 75/98/75
f 60/76/60 112/180/112 74/152/74
f 61/78/61 87/113/87 91/117/91
f 62/80/62 70/181/70 65/153/65
f 75/98/75 107/142/107 109/144/109
f 79/103/79 85/109/85 82/106/82
f 63/85/63 86/111/86 111/150/111
f 92/118/92 104/139/104 103/182/103
f 106/140/106 88/183/88 90/121/90
f 111/150/111 86/111/86 88/114/88
f 76/99/76 75/98/75 110/154/110
f 73/149/73 10/171/10 64/86/64
f 40/43/40 94/120/94 112/151/112
